# Blender v2.80 (sub 75) OBJ File: 'all weapons.blend'
# www.blender.org
v -5.09129 0.74714 30.25597
v -5.09129 1.58404 30.25597
v -5.09129 0.74714 29.74397
v -5.09129 1.58404 29.74397
v 1.22361 0.74714 30.25597
v 1.22361 1.58404 30.25597
v 1.22361 0.74714 29.74397
v 1.22361 1.58404 29.74397
v -1.85013 0.33855 29.80799
v -1.85013 -1.34336 29.80799
v -1.85013 0.33855 30.19199
v -1.85013 -1.34336 30.19199
v -2.98054 0.13349 29.80799
v -2.98054 -1.34336 29.80799
v -2.98054 0.13349 30.19199
v -2.98054 -1.34336 30.19199
v -2.96312 -1.49711 29.80799
v -2.96312 -1.49711 30.19199
v -1.90156 -1.49711 29.80799
v -1.90156 -1.49711 30.19199
v -2.88417 -1.42539 29.80799
v -2.88417 -1.42539 30.19199
v -1.85233 -1.42539 30.19199
v -1.85233 -1.42539 29.80799
v -2.88743 -1.35171 30.19199
v -1.82866 -1.35995 29.80799
v -2.88743 -1.35171 29.80799
v -1.82866 -1.35995 30.19199
v -2.92976 -1.44281 29.80799
v -1.85695 -1.44281 30.19199
v -2.92976 -1.44281 30.19199
v -1.85695 -1.44281 29.80799
v -8.07818 -0.85274 30.19199
v -8.07818 1.28917 30.19199
v -8.07818 -0.85274 29.80799
v -8.07818 1.28917 29.80799
v -7.91216 -0.85274 30.19199
v -7.91216 1.28917 30.19199
v -7.91216 -0.85274 29.80799
v -7.91216 1.28917 29.80799
v -7.05911 1.20088 29.80799
v -7.05911 0.34914 29.80799
v -7.05911 0.34914 30.19199
v -7.05911 1.20088 30.19199
v -7.90253 1.20088 30.19199
v -7.90253 1.20088 29.80799
v -7.90253 -0.77015 29.80799
v -7.90253 -0.77015 30.19199
v -7.71925 1.20088 30.19199
v -7.71925 -0.76046 30.19199
v -7.71925 1.20088 29.80799
v -7.71925 -0.76046 29.80799
v -5.23296 -1.13949 30.19199
v -4.49474 0.14051 30.19199
v -5.23296 -1.13949 29.80799
v -4.49474 0.14051 29.80799
v -4.49233 -1.31059 30.19199
v -3.87028 0.14051 30.19199
v -4.49233 -1.31059 29.80799
v -3.87028 0.14051 29.80799
v -5.14823 -0.99258 30.19199
v -5.14823 -0.99258 29.80799
v -4.48662 -1.14808 29.80799
v -4.48662 -1.14808 30.19199
v -5.19060 -1.06603 29.80799
v -4.47610 -1.24752 29.80799
v -4.47610 -1.24752 30.19199
v -5.19060 -1.06603 30.19199
v -4.50128 -0.06424 30.19199
v -4.50128 -0.06424 29.80799
v -3.87028 -0.09234 29.80799
v -3.87028 -0.09234 30.19199
v -4.66367 -0.29726 29.80799
v -4.01856 -0.35733 29.80799
v -4.01856 -0.35733 30.19199
v -4.66367 -0.29726 30.19199
v -4.88298 -0.61196 29.80799
v -4.23040 -0.71522 29.80799
v -4.23040 -0.71522 30.19199
v -4.88298 -0.61196 30.19199
v -4.79688 -0.48841 30.19199
v -4.79688 -0.48841 29.80799
v -4.14723 -0.59750 29.80799
v -4.14723 -0.59750 30.19199
v -4.86010 -0.57912 29.80799
v -4.09438 -0.71491 29.80799
v -4.09438 -0.71491 30.19199
v -4.86010 -0.57912 30.19199
v -4.63892 -0.26175 30.19199
v -4.63892 -0.26175 29.80799
v -3.87028 -0.31695 29.80799
v -3.87028 -0.31695 30.19199
v -4.62323 -0.23923 30.19199
v -4.62323 -0.23923 29.80799
v -3.87028 -0.29134 29.80799
v -3.87028 -0.29134 30.19199
v -3.03932 -0.29134 29.80799
v -3.03932 -0.31695 29.80799
v -3.03932 -0.29134 30.19199
v -3.03932 -0.31695 30.19199
v -7.05539 0.35880 30.19202
v -7.09241 0.85035 30.19202
v -7.05539 0.35880 29.80802
v -7.09241 0.85035 29.80802
v -5.46621 0.35880 30.19202
v -5.46621 0.85035 30.19202
v -5.46621 0.35880 29.80802
v -5.46621 0.85035 29.80802
v -7.25985 0.85035 30.22399
v -7.25985 1.30010 30.22399
v -7.25985 0.85035 29.77599
v -7.25985 1.30010 29.77599
v -5.46621 0.85035 30.22399
v -5.46621 1.51229 30.22399
v -5.46621 0.85035 29.77599
v -5.46621 1.51229 29.77599
v -7.04338 0.85035 29.77599
v -7.04338 1.30010 29.77599
v -7.04338 0.85035 30.22399
v -7.04338 1.30010 30.22399
v -5.47127 0.32275 30.25599
v -5.47127 1.50982 30.25599
v -5.47127 0.32275 29.74399
v -5.47127 1.50982 29.74399
v -5.09183 0.32018 30.25599
v -5.09183 1.57557 30.25599
v -5.09183 0.32018 29.74399
v -5.09183 1.57557 29.74399
v -5.08445 0.29518 30.22397
v -5.08445 0.74968 30.22397
v -5.08445 0.29518 29.77597
v -5.08445 0.74968 29.77597
v -1.75418 0.12430 30.22397
v -1.44659 0.74968 30.22397
v -1.75418 0.12430 29.77597
v -1.44659 0.74968 29.77597
v -5.08445 0.55754 30.22397
v -5.08445 0.55754 29.77597
v -1.44659 0.55754 29.77597
v -1.44659 0.55754 30.22397
v -5.08445 0.50001 29.77597
v -1.73897 0.45899 29.77597
v -1.73897 0.45899 30.22397
v -5.08445 0.50001 30.22397
v -4.59209 0.29518 29.77597
v -4.54662 0.74968 29.77597
v -4.59209 0.29518 30.22397
v -4.54662 0.74968 30.22397
v -4.54662 0.55754 30.22397
v -4.54662 0.55754 29.77597
v -4.58985 0.49394 29.77597
v -4.58985 0.49394 30.22397
v -4.43830 0.74968 29.77597
v -4.49294 0.12430 30.22397
v -4.43830 0.55754 29.77597
v -4.49024 0.49272 29.77597
v -4.49294 0.12430 29.77597
v -4.43830 0.74968 30.22397
v -4.43830 0.55754 30.22397
v -4.49024 0.49272 30.22397
v -3.66420 0.74968 29.77597
v -3.78429 0.16385 30.22397
v -3.66420 0.55754 29.77597
v -3.77835 0.48400 29.77597
v -3.78429 0.16385 29.77597
v -3.66420 0.74968 30.22397
v -3.66420 0.55754 30.22397
v -3.77835 0.48400 30.22397
v -3.85550 0.11605 29.77597
v -3.74740 0.74968 30.22397
v -3.74740 0.55754 30.22397
v -3.85486 0.48493 30.22397
v -3.74740 0.74968 29.77597
v -3.85550 0.11605 30.22397
v -3.74740 0.55754 29.77597
v -3.85486 0.48493 29.77597
v -2.91635 0.74968 29.77597
v -3.09967 0.15051 30.22397
v -2.91635 0.55754 29.77597
v -3.09061 0.47556 29.77597
v -3.09967 0.15051 29.77597
v -2.91635 0.74968 30.22397
v -2.91635 0.55754 30.22397
v -3.09061 0.47556 30.22397
v -2.86021 0.74968 29.77597
v -3.04144 0.14951 30.22397
v -2.86021 0.55754 29.77597
v -3.03898 0.47493 29.77597
v -3.04144 0.14951 29.77597
v -2.86021 0.74968 30.22397
v -2.86021 0.55754 30.22397
v -3.03898 0.47493 30.22397
v -1.75418 -0.06368 30.22397
v -1.75418 -0.06368 29.77597
v -3.04144 -0.31871 30.22397
v -3.04144 -0.31871 29.77597
v -4.89771 1.57265 30.25600
v -4.89771 1.82481 30.25600
v -4.89771 1.57265 29.74400
v -4.89771 1.82481 29.74400
v -4.38213 1.57265 30.25600
v -4.38213 1.78721 30.25600
v -4.38213 1.57265 29.74400
v -4.38213 1.78721 29.74400
v -4.68117 1.57265 29.74400
v -4.68117 1.82481 29.74400
v -4.68117 1.57265 30.25600
v -4.68117 1.82481 30.25600
v -4.67073 1.78721 29.74400
v -4.67073 1.57265 30.25600
v -4.67073 1.57265 29.74400
v -4.67073 1.78721 30.25600
v -4.84774 1.57265 29.74400
v -4.84774 1.82481 30.25600
v -4.84774 1.82481 29.74400
v -4.84774 1.57265 30.25600
v -4.84774 2.22038 29.74400
v -4.68117 2.22038 29.74400
v -4.68117 2.22038 30.25600
v -4.84774 2.22038 30.25600
v -0.31960 0.90776 29.67999
v 1.22014 0.90776 29.67999
v -0.31960 0.85868 29.68614
v 1.22014 0.85868 29.68614
v -0.31960 0.81149 29.70435
v 1.22014 0.81149 29.70435
v -0.31960 0.76799 29.73392
v 1.22014 0.76799 29.73392
v -0.31960 0.72987 29.77371
v 1.22014 0.72987 29.77371
v -0.31960 0.69859 29.82221
v 1.22014 0.69859 29.82221
v -0.31960 0.67534 29.87753
v 1.22014 0.67534 29.87753
v -0.31960 0.66103 29.93756
v 1.22014 0.66103 29.93756
v -0.31960 0.65619 29.99999
v 1.22014 0.65619 29.99999
v -0.31960 0.66103 30.06242
v 1.22014 0.66103 30.06242
v -0.31960 0.67534 30.12245
v 1.22014 0.67534 30.12245
v -0.31960 0.69859 30.17777
v 1.22014 0.69859 30.17777
v -0.31960 0.72987 30.22626
v 1.22014 0.72987 30.22626
v -0.31960 0.76799 30.26606
v 1.22014 0.76800 30.26606
v -0.31960 0.81149 30.29563
v 1.22014 0.81149 30.29563
v -0.31960 0.85868 30.31384
v 1.22014 0.85868 30.31384
v -0.31960 0.90776 30.31999
v 1.22014 0.90776 30.31999
v -0.31960 0.95684 30.31384
v 1.22014 0.95684 30.31384
v -0.31960 1.00403 30.29563
v 1.22014 1.00403 30.29563
v -0.31960 1.04752 30.26606
v 1.22014 1.04752 30.26606
v -0.31960 1.08564 30.22626
v 1.22014 1.08564 30.22626
v -0.31960 1.11693 30.17777
v 1.22014 1.11693 30.17777
v -0.31960 1.14017 30.12245
v 1.22014 1.14017 30.12245
v -0.31960 1.15449 30.06242
v 1.22014 1.15449 30.06242
v -0.31960 1.15932 29.99999
v 1.22014 1.15932 29.99999
v -0.31960 1.15449 29.93756
v 1.22014 1.15449 29.93756
v -0.31960 1.14017 29.87753
v 1.22014 1.14017 29.87753
v -0.31960 1.11693 29.82221
v 1.22014 1.11693 29.82221
v -0.31960 1.08564 29.77371
v 1.22014 1.08564 29.77371
v -0.31960 1.04752 29.73392
v 1.22014 1.04752 29.73392
v -0.31960 1.00403 29.70435
v 1.22014 1.00403 29.70435
v -0.31960 0.95683 29.68614
v 1.22014 0.95683 29.68614
v -1.72244 0.57350 29.90399
v 1.12710 0.57350 29.90399
v -1.72244 0.55462 29.90583
v 1.12710 0.55462 29.90583
v -1.72244 0.53646 29.91130
v 1.12710 0.53646 29.91130
v -1.72244 0.51972 29.92017
v 1.12710 0.51972 29.92017
v -1.72244 0.50505 29.93211
v 1.12710 0.50505 29.93211
v -1.72244 0.49301 29.94665
v 1.12710 0.49301 29.94665
v -1.72244 0.48407 29.96325
v 1.12710 0.48407 29.96325
v -1.72244 0.47856 29.98126
v 1.12710 0.47856 29.98126
v -1.72244 0.47670 29.99999
v 1.12710 0.47670 29.99999
v -1.72244 0.47856 30.01872
v 1.12710 0.47856 30.01872
v -1.72244 0.48407 30.03673
v 1.12710 0.48407 30.03673
v -1.72244 0.49301 30.05332
v 1.12710 0.49301 30.05332
v -1.72244 0.50505 30.06787
v 1.12710 0.50505 30.06787
v -1.72244 0.51972 30.07981
v 1.12710 0.51972 30.07981
v -1.72244 0.53646 30.08868
v 1.12710 0.53646 30.08868
v -1.72244 0.55462 30.09415
v 1.12710 0.55462 30.09415
v -1.72244 0.57350 30.09599
v 1.12710 0.57350 30.09599
v -1.72244 0.59239 30.09415
v 1.12710 0.59239 30.09415
v -1.72244 0.61055 30.08868
v 1.12710 0.61055 30.08868
v -1.72244 0.62728 30.07981
v 1.12710 0.62728 30.07981
v -1.72244 0.64195 30.06787
v 1.12710 0.64195 30.06787
v -1.72244 0.65399 30.05332
v 1.12710 0.65399 30.05332
v -1.72244 0.66293 30.03673
v 1.12710 0.66293 30.03673
v -1.72244 0.66844 30.01872
v 1.12710 0.66844 30.01872
v -1.72244 0.67030 29.99999
v 1.12710 0.67030 29.99999
v -1.72244 0.66844 29.98126
v 1.12710 0.66844 29.98126
v -1.72244 0.66293 29.96325
v 1.12710 0.66293 29.96325
v -1.72244 0.65399 29.94665
v 1.12710 0.65399 29.94665
v -1.72244 0.64195 29.93211
v 1.12710 0.64195 29.93211
v -1.72244 0.62728 29.92017
v 1.12710 0.62728 29.92017
v -1.72244 0.61055 29.91130
v 1.12710 0.61055 29.91130
v -1.72244 0.59239 29.90583
v 1.12710 0.59239 29.90583
v 1.20814 0.96022 29.90399
v 5.19164 0.96022 29.90399
v 1.20814 0.93998 29.90583
v 5.19164 0.93998 29.90583
v 1.20814 0.92050 29.91130
v 5.19164 0.92050 29.91130
v 1.20814 0.90256 29.92017
v 5.19164 0.90256 29.92017
v 1.20814 0.88683 29.93211
v 5.19164 0.88683 29.93211
v 1.20814 0.87392 29.94665
v 5.19164 0.87392 29.94665
v 1.20814 0.86433 29.96325
v 5.19164 0.86433 29.96325
v 1.20814 0.85842 29.98126
v 5.19164 0.85842 29.98126
v 1.20814 0.85643 29.99999
v 5.19164 0.85643 29.99999
v 1.20814 0.85842 30.01872
v 5.19164 0.85842 30.01872
v 1.20814 0.86433 30.03673
v 5.19164 0.86433 30.03673
v 1.20814 0.87392 30.05332
v 5.19164 0.87392 30.05332
v 1.20814 0.88683 30.06787
v 5.19164 0.88683 30.06787
v 1.20814 0.90256 30.07981
v 5.19164 0.90256 30.07981
v 1.20814 0.92050 30.08868
v 5.19164 0.92050 30.08868
v 1.20814 0.93998 30.09415
v 5.19164 0.93998 30.09415
v 1.20814 0.96022 30.09599
v 5.19164 0.96022 30.09599
v 1.20814 0.98047 30.09415
v 5.19164 0.98047 30.09415
v 1.20814 0.99994 30.08868
v 5.19164 0.99994 30.08868
v 1.20814 1.01789 30.07981
v 5.19164 1.01789 30.07981
v 1.20814 1.03362 30.06787
v 5.19164 1.03362 30.06787
v 1.20814 1.04653 30.05332
v 5.19164 1.04653 30.05332
v 1.20814 1.05612 30.03673
v 5.19164 1.05612 30.03673
v 1.20814 1.06202 30.01872
v 5.19164 1.06202 30.01872
v 1.20814 1.06402 29.99999
v 5.19164 1.06402 29.99999
v 1.20814 1.06202 29.98126
v 5.19164 1.06202 29.98126
v 1.20814 1.05612 29.96325
v 5.19164 1.05612 29.96325
v 1.20814 1.04653 29.94665
v 5.19164 1.04653 29.94665
v 1.20814 1.03362 29.93211
v 5.19164 1.03362 29.93211
v 1.20814 1.01789 29.92017
v 5.19164 1.01789 29.92017
v 1.20814 0.99994 29.91130
v 5.19164 0.99994 29.91130
v 1.20814 0.98047 29.90583
v 5.19164 0.98047 29.90583
v 4.25212 0.96022 29.87199
v 5.21606 0.96022 29.87199
v 4.25212 0.93325 29.87445
v 5.21606 0.93325 29.87445
v 4.25212 0.90731 29.88173
v 5.21606 0.90731 29.88173
v 4.25212 0.88341 29.89356
v 5.21606 0.88341 29.89356
v 4.25212 0.86245 29.90948
v 5.21606 0.86245 29.90948
v 4.25212 0.84526 29.92888
v 5.21606 0.84526 29.92888
v 4.25212 0.83248 29.95101
v 5.21606 0.83248 29.95101
v 4.25212 0.82461 29.97502
v 5.21606 0.82461 29.97502
v 4.25212 0.82196 29.99999
v 5.21606 0.82196 29.99999
v 4.25212 0.82461 30.02496
v 5.21606 0.82461 30.02496
v 4.25212 0.83248 30.04897
v 5.21606 0.83248 30.04897
v 4.25212 0.84526 30.07110
v 5.21606 0.84526 30.07110
v 4.25212 0.86245 30.09050
v 5.21606 0.86245 30.09050
v 4.25212 0.88341 30.10642
v 5.21606 0.88341 30.10642
v 4.25212 0.90731 30.11825
v 5.21606 0.90731 30.11825
v 4.25212 0.93325 30.12553
v 5.21606 0.93325 30.12553
v 4.25212 0.96022 30.12799
v 5.21606 0.96022 30.12799
v 4.25212 0.98720 30.12553
v 5.21606 0.98720 30.12553
v 4.25212 1.01314 30.11825
v 5.21606 1.01314 30.11825
v 4.25212 1.03704 30.10642
v 5.21606 1.03704 30.10642
v 4.25212 1.05800 30.09050
v 5.21606 1.05800 30.09050
v 4.25212 1.07519 30.07110
v 5.21606 1.07519 30.07110
v 4.25212 1.08797 30.04897
v 5.21606 1.08797 30.04897
v 4.25212 1.09584 30.02496
v 5.21606 1.09584 30.02496
v 4.25212 1.09849 29.99999
v 5.21606 1.09849 29.99999
v 4.25212 1.09584 29.97502
v 5.21606 1.09584 29.97502
v 4.25212 1.08797 29.95101
v 5.21606 1.08797 29.95101
v 4.25212 1.07519 29.92888
v 5.21606 1.07519 29.92888
v 4.25212 1.05800 29.90948
v 5.21606 1.05800 29.90948
v 4.25212 1.03704 29.89356
v 5.21606 1.03704 29.89356
v 4.25212 1.01314 29.88173
v 5.21606 1.01314 29.88173
v 4.25212 0.98720 29.87445
v 5.21606 0.98720 29.87445
v 1.38746 0.78908 30.12799
v 1.51608 1.35597 30.12799
v 1.38746 0.78908 29.87199
v 1.51608 1.35597 29.87199
v 1.88339 0.78908 30.12799
v 1.88339 1.35597 30.12799
v 1.88339 0.78908 29.87199
v 1.88339 1.35597 29.87199
v 1.38746 1.07252 30.12799
v 1.38746 1.07252 29.87199
v 1.88339 1.07252 29.87199
v 1.88339 1.07252 30.12799
v 1.51608 1.08670 30.12799
v 1.51608 1.08670 29.87199
v 1.88339 1.08670 29.87199
v 1.88339 1.08670 30.12799
v 1.18742 1.26646 29.87199
v 1.57432 1.26646 29.87199
v 1.18742 1.25320 29.87445
v 1.57432 1.25320 29.87445
v 1.18742 1.24044 29.88173
v 1.57432 1.24044 29.88173
v 1.18742 1.22868 29.89356
v 1.57432 1.22868 29.89356
v 1.18742 1.21837 29.90948
v 1.57432 1.21837 29.90948
v 1.18742 1.20992 29.92888
v 1.57432 1.20992 29.92888
v 1.18742 1.20363 29.95101
v 1.57432 1.20363 29.95101
v 1.18742 1.19976 29.97502
v 1.57432 1.19976 29.97502
v 1.18742 1.19845 29.99999
v 1.57432 1.19845 29.99999
v 1.18742 1.19976 30.02496
v 1.57432 1.19976 30.02496
v 1.18742 1.20363 30.04897
v 1.57432 1.20363 30.04897
v 1.18742 1.20992 30.07110
v 1.57432 1.20992 30.07110
v 1.18742 1.21837 30.09050
v 1.57432 1.21837 30.09050
v 1.18742 1.22868 30.10642
v 1.57432 1.22868 30.10642
v 1.18742 1.24044 30.11825
v 1.57432 1.24044 30.11825
v 1.18742 1.25320 30.12553
v 1.57432 1.25320 30.12553
v 1.18742 1.26646 30.12799
v 1.57432 1.26646 30.12799
v 1.18742 1.27973 30.12553
v 1.57432 1.27973 30.12553
v 1.18742 1.29249 30.11825
v 1.57432 1.29249 30.11825
v 1.18742 1.30425 30.10642
v 1.57432 1.30425 30.10642
v 1.18742 1.31456 30.09050
v 1.57432 1.31456 30.09050
v 1.18742 1.32302 30.07110
v 1.57432 1.32302 30.07110
v 1.18742 1.32930 30.04897
v 1.57432 1.32930 30.04897
v 1.18742 1.33317 30.02496
v 1.57432 1.33317 30.02496
v 1.18742 1.33448 29.99999
v 1.57432 1.33448 29.99999
v 1.18742 1.33317 29.97502
v 1.57432 1.33317 29.97502
v 1.18742 1.32930 29.95101
v 1.57432 1.32930 29.95101
v 1.18742 1.32302 29.92888
v 1.57432 1.32302 29.92888
v 1.18742 1.31456 29.90948
v 1.57432 1.31456 29.90948
v 1.18742 1.30425 29.89356
v 1.57432 1.30425 29.89356
v 1.18742 1.29249 29.88173
v 1.57432 1.29249 29.88173
v 1.18742 1.27973 29.87445
v 1.57432 1.27973 29.87445
v 2.92309 0.80031 30.12799
v 2.92309 1.21559 30.12799
v 2.92309 0.80031 29.87199
v 2.92309 1.21559 29.87199
v 3.09620 0.80031 30.12799
v 3.09620 1.21559 30.12799
v 3.09620 0.80031 29.87199
v 3.09620 1.21559 29.87199
v -3.67576 0.05010 30.12799
v -3.67576 0.24264 30.12799
v -3.67576 0.05010 29.87199
v -3.67576 0.24264 29.87199
v -3.57042 0.05010 30.12799
v -3.57042 0.24264 30.12799
v -3.57042 0.05010 29.87199
v -3.57042 0.24264 29.87199
v -3.61370 -0.28567 29.87199
v -3.61370 -0.28567 30.12799
v -3.57042 -0.28567 29.87199
v -3.57042 -0.28567 30.12799
v -3.61179 -0.00586 30.12799
v -3.63812 -0.06182 30.12799
v -3.64658 -0.11778 30.12799
v -3.63812 -0.17375 30.12799
v -3.61179 -0.22971 30.12799
v -3.61179 -0.22971 29.87199
v -3.63812 -0.17375 29.87199
v -3.64658 -0.11778 29.87199
v -3.63812 -0.06182 29.87199
v -3.61179 -0.00586 29.87199
v -3.67576 -0.00586 30.12799
v -3.67576 -0.06182 30.12799
v -3.67576 -0.11778 30.12799
v -3.67576 -0.17375 30.12799
v -3.64567 -0.22971 30.12799
v -3.64567 -0.22971 29.87199
v -3.67576 -0.17375 29.87199
v -3.67576 -0.11778 29.87199
v -3.67576 -0.06182 29.87199
v -3.67576 -0.00586 29.87199
vt 0.43684 0.38832
vt 0.43684 0.56398
vt 0.56316 0.56398
vt 0.56316 0.38832
vt 0.24105 0.50377
vt 0.24105 0.65118
vt 0.69518 0.65118
vt 0.69518 0.50377
vt 0.56316 0.38832
vt 0.56316 0.56398
vt 0.43684 0.56398
vt 0.43684 0.38832
vt 0.69518 0.50377
vt 0.69518 0.65118
vt 0.24105 0.65118
vt 0.24105 0.50377
vt 0.40560 0.60135
vt 1.02884 0.60135
vt 1.02884 0.39865
vt 0.40560 0.39865
vt 1.02884 0.60135
vt 0.40560 0.60135
vt 0.40560 0.39865
vt 1.02884 0.39865
vt 0.37500 0.00000
vt 0.62500 0.00000
vt 0.62500 0.25000
vt 0.37500 0.25000
vt 0.37500 0.25000
vt 0.62500 0.25000
vt 0.62500 0.50000
vt 0.37500 0.50000
vt 0.62500 0.75000
vt 0.37500 0.75000
vt 0.37500 0.50000
vt 0.37500 0.75000
vt 0.37500 0.75000
vt 0.37500 0.50000
vt 0.12500 0.50000
vt 0.37500 0.50000
vt 0.37500 0.75000
vt 0.12500 0.75000
vt 0.62500 0.50000
vt 0.87500 0.50000
vt 0.87500 0.75000
vt 0.62500 0.75000
vt 0.62500 0.75000
vt 0.62500 1.00000
vt 0.37500 1.00000
vt 0.12500 0.50000
vt 0.12500 0.75000
vt 0.12500 0.75000
vt 0.12500 0.50000
vt 0.62500 0.50000
vt 0.62500 0.75000
vt 0.62500 0.50000
vt 0.37500 0.25000
vt 0.37500 0.25000
vt 0.37500 0.25000
vt 0.37500 0.50000
vt 0.37500 0.50000
vt 0.37500 0.25000
vt 0.62500 0.50000
vt 0.62500 0.75000
vt 0.62500 0.75000
vt 0.62500 0.50000
vt 0.12500 0.50000
vt 0.12500 0.75000
vt 0.12500 0.75000
vt 0.12500 0.50000
vt 0.37500 0.75000
vt 0.37500 0.75000
vt 0.37500 0.00000
vt 0.62500 0.00000
vt 0.62500 0.25000
vt 0.37500 0.25000
vt 0.62500 0.50000
vt 0.37500 0.50000
vt 0.62500 0.50000
vt 0.62500 0.75000
vt 0.62500 0.75000
vt 0.62500 0.50000
vt 0.37500 0.75000
vt 0.62500 0.75000
vt 0.62500 1.00000
vt 0.37500 1.00000
vt 0.12500 0.50000
vt 0.12500 0.75000
vt 0.87500 0.50000
vt 0.87500 0.75000
vt 0.37500 0.50000
vt 0.37500 0.75000
vt 0.37500 0.50000
vt 0.37500 0.75000
vt 0.37500 0.50000
vt 0.37500 0.75000
vt 0.62500 0.75000
vt 0.62500 0.50000
vt 0.58501 0.00000
vt 0.62500 0.00000
vt 0.62500 0.25000
vt 0.58501 0.25000
vt 0.62500 0.50000
vt 0.58501 0.50000
vt 0.62500 0.75000
vt 0.58501 0.75000
vt 0.62500 1.00000
vt 0.58501 1.00000
vt 0.12500 0.50000
vt 0.37500 0.50000
vt 0.37500 0.75000
vt 0.12500 0.75000
vt 0.87500 0.50000
vt 0.87500 0.75000
vt 0.38935 0.75000
vt 0.40369 0.75000
vt 0.40369 1.00000
vt 0.38935 1.00000
vt 0.38935 0.50000
vt 0.40369 0.50000
vt 0.38935 0.25000
vt 0.40369 0.25000
vt 0.38935 0.00000
vt 0.40369 0.00000
vt 0.37500 0.00000
vt 0.37500 0.25000
vt 0.37500 1.00000
vt 0.55083 0.75000
vt 0.55083 1.00000
vt 0.55083 0.50000
vt 0.55083 0.25000
vt 0.55083 0.00000
vt 0.50216 0.00000
vt 0.53950 0.00000
vt 0.53950 0.25000
vt 0.50216 0.25000
vt 0.53950 0.50000
vt 0.50216 0.50000
vt 0.53950 0.75000
vt 0.50216 0.75000
vt 0.53950 1.00000
vt 0.50216 1.00000
vt 0.47803 0.75000
vt 0.47803 1.00000
vt 0.47803 0.50000
vt 0.47803 0.25000
vt 0.47803 0.00000
vt 0.48445 0.75000
vt 0.48445 1.00000
vt 0.48445 0.50000
vt 0.48445 0.25000
vt 0.48445 0.00000
vt 0.54643 0.00000
vt 0.54643 0.25000
vt 0.54643 0.50000
vt 0.54643 0.75000
vt 0.54643 1.00000
vt 0.54643 0.75000
vt 0.55083 0.75000
vt 0.54643 0.50000
vt 0.55083 0.50000
vt 0.37500 0.00000
vt 0.62500 0.00000
vt 0.62500 0.25000
vt 0.37500 0.25000
vt 0.62500 0.50000
vt 0.37500 0.50000
vt 0.62500 0.75000
vt 0.37500 0.75000
vt 0.62500 1.00000
vt 0.37500 1.00000
vt 0.12500 0.50000
vt 0.12500 0.75000
vt 0.87500 0.50000
vt 0.87500 0.75000
vt 0.37500 0.00000
vt 0.62500 0.00000
vt 0.62500 0.25000
vt 0.37500 0.25000
vt 0.37500 0.28017
vt 0.62500 0.28017
vt 0.62500 0.50000
vt 0.37500 0.50000
vt 0.62500 0.75000
vt 0.37500 0.75000
vt 0.37500 0.96983
vt 0.62500 0.96983
vt 0.62500 1.00000
vt 0.37500 1.00000
vt 0.15517 0.50000
vt 0.15517 0.75000
vt 0.84483 0.50000
vt 0.87500 0.50000
vt 0.87500 0.75000
vt 0.84483 0.75000
vt 0.12500 0.50000
vt 0.12500 0.75000
vt 0.37500 0.00000
vt 0.62500 0.00000
vt 0.62500 0.25000
vt 0.37500 0.25000
vt 0.62500 0.50000
vt 0.37500 0.50000
vt 0.62500 0.75000
vt 0.37500 0.75000
vt 0.62500 1.00000
vt 0.37500 1.00000
vt 0.12500 0.50000
vt 0.12500 0.75000
vt 0.87500 0.50000
vt 0.87500 0.75000
vt 0.48611 0.00000
vt 0.62500 0.00000
vt 0.62500 0.25000
vt 0.48611 0.25000
vt 0.48611 0.40285
vt 0.62500 0.40285
vt 0.62500 0.50000
vt 0.48611 0.50000
vt 0.62500 0.75000
vt 0.48611 0.75000
vt 0.48611 0.96304
vt 0.62500 0.96304
vt 0.62500 1.00000
vt 0.48611 1.00000
vt 0.37500 0.75000
vt 0.37500 0.84715
vt 0.37500 0.84715
vt 0.37500 0.75000
vt 0.83804 0.50000
vt 0.87500 0.50000
vt 0.87500 0.75000
vt 0.83804 0.75000
vt 0.45944 0.96304
vt 0.45944 1.00000
vt 0.45944 0.50000
vt 0.45944 0.75000
vt 0.45944 0.40285
vt 0.45944 0.00000
vt 0.45944 0.25000
vt 0.37500 0.00000
vt 0.37500 0.25000
vt 0.37500 0.40285
vt 0.37500 0.50000
vt 0.37500 0.96304
vt 0.37500 1.00000
vt 0.37500 0.95559
vt 0.45944 0.95559
vt 0.45944 0.28696
vt 0.37500 0.28696
vt 0.48611 0.28696
vt 0.48611 0.95559
vt 0.83059 0.50000
vt 0.83059 0.75000
vt 0.12500 0.50000
vt 0.16196 0.50000
vt 0.16196 0.75000
vt 0.12500 0.75000
vt 0.62500 0.95559
vt 0.62500 0.28696
vt 0.48611 0.90812
vt 0.62500 0.90812
vt 0.78312 0.50000
vt 0.78312 0.75000
vt 0.45944 0.90812
vt 0.37500 0.90812
vt 0.45944 0.29440
vt 0.37500 0.29440
vt 0.48611 0.29440
vt 0.16941 0.50000
vt 0.16941 0.75000
vt 0.62500 0.29440
vt 0.37500 0.85101
vt 0.45944 0.85100
vt 0.45944 0.90240
vt 0.37500 0.90240
vt 0.48611 0.85101
vt 0.48611 0.90240
vt 0.72601 0.50000
vt 0.77740 0.50000
vt 0.77740 0.75000
vt 0.72601 0.75000
vt 0.62500 0.85101
vt 0.62500 0.90240
vt 0.37500 0.34188
vt 0.45944 0.34188
vt 0.45944 0.34760
vt 0.37500 0.34760
vt 0.48611 0.34188
vt 0.48611 0.34760
vt 0.21688 0.50000
vt 0.22260 0.50000
vt 0.22260 0.75000
vt 0.21688 0.75000
vt 0.62500 0.34188
vt 0.62500 0.34760
vt 0.48611 0.84715
vt 0.62500 0.84715
vt 0.72215 0.50000
vt 0.72215 0.75000
vt 0.45944 0.84715
vt 0.45944 0.39899
vt 0.37500 0.39899
vt 0.48611 0.39899
vt 0.27399 0.50000
vt 0.27399 0.75000
vt 0.62500 0.39899
vt 0.27785 0.50000
vt 0.27785 0.75000
vt 0.27785 0.50000
vt 0.37500 0.50000
vt 0.27785 0.75000
vt 0.37500 0.40285
vt 0.37500 0.00000
vt 0.62500 0.00000
vt 0.62500 0.25000
vt 0.37500 0.25000
vt 0.37500 0.36006
vt 0.62500 0.36006
vt 0.62500 0.50000
vt 0.37500 0.50000
vt 0.62500 0.75000
vt 0.37500 0.75000
vt 0.37500 0.97577
vt 0.62500 0.97577
vt 0.62500 1.00000
vt 0.37500 1.00000
vt 0.23506 0.50000
vt 0.23506 0.75000
vt 0.85077 0.50000
vt 0.87500 0.50000
vt 0.87500 0.75000
vt 0.85077 0.75000
vt 0.76494 0.50000
vt 0.77000 0.50000
vt 0.77000 0.75000
vt 0.76494 0.75000
vt 0.14923 0.50000
vt 0.23000 0.50000
vt 0.23000 0.75000
vt 0.14923 0.75000
vt 0.37500 0.88994
vt 0.62500 0.88994
vt 0.62500 0.89500
vt 0.37500 0.89500
vt 0.37500 0.27423
vt 0.62500 0.27423
vt 0.62500 0.35500
vt 0.37500 0.35500
vt 0.12500 0.50000
vt 0.12500 0.75000
vt 0.62500 0.89500
vt 0.62500 0.97577
vt 0.77000 0.50000
vt 0.85077 0.50000
vt 0.85077 0.75000
vt 0.77000 0.75000
vt 0.62500 0.27423
vt 0.62500 0.35500
vt 1.00000 0.50000
vt 1.00000 1.00000
vt 0.96875 1.00000
vt 0.96875 0.50000
vt 0.93750 1.00000
vt 0.93750 0.50000
vt 0.90625 1.00000
vt 0.90625 0.50000
vt 0.87500 1.00000
vt 0.87500 0.50000
vt 0.84375 1.00000
vt 0.84375 0.50000
vt 0.81250 1.00000
vt 0.81250 0.50000
vt 0.78125 1.00000
vt 0.78125 0.50000
vt 0.75000 1.00000
vt 0.75000 0.50000
vt 0.71875 1.00000
vt 0.71875 0.50000
vt 0.68750 1.00000
vt 0.68750 0.50000
vt 0.65625 1.00000
vt 0.65625 0.50000
vt 0.62500 1.00000
vt 0.62500 0.50000
vt 0.59375 1.00000
vt 0.59375 0.50000
vt 0.56250 1.00000
vt 0.56250 0.50000
vt 0.53125 1.00000
vt 0.53125 0.50000
vt 0.50000 1.00000
vt 0.50000 0.50000
vt 0.46875 1.00000
vt 0.46875 0.50000
vt 0.43750 1.00000
vt 0.43750 0.50000
vt 0.40625 1.00000
vt 0.40625 0.50000
vt 0.37500 1.00000
vt 0.37500 0.50000
vt 0.34375 1.00000
vt 0.34375 0.50000
vt 0.31250 1.00000
vt 0.31250 0.50000
vt 0.28125 1.00000
vt 0.28125 0.50000
vt 0.25000 1.00000
vt 0.25000 0.50000
vt 0.21875 1.00000
vt 0.21875 0.50000
vt 0.18750 1.00000
vt 0.18750 0.50000
vt 0.15625 1.00000
vt 0.15625 0.50000
vt 0.12500 1.00000
vt 0.12500 0.50000
vt 0.09375 1.00000
vt 0.09375 0.50000
vt 0.06250 1.00000
vt 0.06250 0.50000
vt 0.29682 0.48539
vt 0.25000 0.49000
vt 0.20318 0.48539
vt 0.15816 0.47173
vt 0.11666 0.44955
vt 0.08030 0.41971
vt 0.05045 0.38334
vt 0.02827 0.34184
vt 0.01461 0.29682
vt 0.01000 0.25000
vt 0.01461 0.20318
vt 0.02827 0.15816
vt 0.05045 0.11666
vt 0.08029 0.08029
vt 0.11666 0.05045
vt 0.15816 0.02827
vt 0.20318 0.01461
vt 0.25000 0.01000
vt 0.29682 0.01461
vt 0.34184 0.02827
vt 0.38334 0.05045
vt 0.41971 0.08029
vt 0.44955 0.11666
vt 0.47173 0.15816
vt 0.48539 0.20318
vt 0.49000 0.25000
vt 0.48539 0.29682
vt 0.47173 0.34184
vt 0.44955 0.38334
vt 0.41971 0.41971
vt 0.38334 0.44955
vt 0.34184 0.47173
vt 0.03125 1.00000
vt 0.03125 0.50000
vt 0.00000 1.00000
vt 0.00000 0.50000
vt 0.75000 0.49000
vt 0.79682 0.48539
vt 0.84184 0.47173
vt 0.88334 0.44955
vt 0.91971 0.41971
vt 0.94955 0.38334
vt 0.97173 0.34184
vt 0.98539 0.29682
vt 0.99000 0.25000
vt 0.98539 0.20318
vt 0.97173 0.15816
vt 0.94955 0.11666
vt 0.91971 0.08029
vt 0.88334 0.05045
vt 0.84184 0.02827
vt 0.79682 0.01461
vt 0.75000 0.01000
vt 0.70318 0.01461
vt 0.65816 0.02827
vt 0.61666 0.05045
vt 0.58029 0.08029
vt 0.55045 0.11666
vt 0.52827 0.15816
vt 0.51461 0.20318
vt 0.51000 0.25000
vt 0.51461 0.29682
vt 0.52827 0.34184
vt 0.55045 0.38334
vt 0.58030 0.41971
vt 0.61666 0.44955
vt 0.65816 0.47173
vt 0.70318 0.48539
vt 1.00000 0.50000
vt 1.00000 1.00000
vt 0.96875 1.00000
vt 0.96875 0.50000
vt 0.93750 1.00000
vt 0.93750 0.50000
vt 0.90625 1.00000
vt 0.90625 0.50000
vt 0.87500 1.00000
vt 0.87500 0.50000
vt 0.84375 1.00000
vt 0.84375 0.50000
vt 0.81250 1.00000
vt 0.81250 0.50000
vt 0.78125 1.00000
vt 0.78125 0.50000
vt 0.75000 1.00000
vt 0.75000 0.50000
vt 0.71875 1.00000
vt 0.71875 0.50000
vt 0.68750 1.00000
vt 0.68750 0.50000
vt 0.65625 1.00000
vt 0.65625 0.50000
vt 0.62500 1.00000
vt 0.62500 0.50000
vt 0.59375 1.00000
vt 0.59375 0.50000
vt 0.56250 1.00000
vt 0.56250 0.50000
vt 0.53125 1.00000
vt 0.53125 0.50000
vt 0.50000 1.00000
vt 0.50000 0.50000
vt 0.46875 1.00000
vt 0.46875 0.50000
vt 0.43750 1.00000
vt 0.43750 0.50000
vt 0.40625 1.00000
vt 0.40625 0.50000
vt 0.37500 1.00000
vt 0.37500 0.50000
vt 0.34375 1.00000
vt 0.34375 0.50000
vt 0.31250 1.00000
vt 0.31250 0.50000
vt 0.28125 1.00000
vt 0.28125 0.50000
vt 0.25000 1.00000
vt 0.25000 0.50000
vt 0.21875 1.00000
vt 0.21875 0.50000
vt 0.18750 1.00000
vt 0.18750 0.50000
vt 0.15625 1.00000
vt 0.15625 0.50000
vt 0.12500 1.00000
vt 0.12500 0.50000
vt 0.09375 1.00000
vt 0.09375 0.50000
vt 0.06250 1.00000
vt 0.06250 0.50000
vt 0.29682 0.48539
vt 0.25000 0.49000
vt 0.20318 0.48539
vt 0.15816 0.47173
vt 0.11666 0.44955
vt 0.08030 0.41971
vt 0.05045 0.38334
vt 0.02827 0.34184
vt 0.01461 0.29682
vt 0.01000 0.25000
vt 0.01461 0.20318
vt 0.02827 0.15816
vt 0.05045 0.11666
vt 0.08029 0.08029
vt 0.11666 0.05045
vt 0.15816 0.02827
vt 0.20318 0.01461
vt 0.25000 0.01000
vt 0.29682 0.01461
vt 0.34184 0.02827
vt 0.38334 0.05045
vt 0.41971 0.08029
vt 0.44955 0.11666
vt 0.47173 0.15816
vt 0.48539 0.20318
vt 0.49000 0.25000
vt 0.48539 0.29682
vt 0.47173 0.34184
vt 0.44955 0.38334
vt 0.41971 0.41971
vt 0.38334 0.44955
vt 0.34184 0.47173
vt 0.03125 1.00000
vt 0.03125 0.50000
vt 0.00000 1.00000
vt 0.00000 0.50000
vt 0.75000 0.49000
vt 0.79682 0.48539
vt 0.84184 0.47173
vt 0.88334 0.44955
vt 0.91971 0.41971
vt 0.94955 0.38334
vt 0.97173 0.34184
vt 0.98539 0.29682
vt 0.99000 0.25000
vt 0.98539 0.20318
vt 0.97173 0.15816
vt 0.94955 0.11666
vt 0.91971 0.08029
vt 0.88334 0.05045
vt 0.84184 0.02827
vt 0.79682 0.01461
vt 0.75000 0.01000
vt 0.70318 0.01461
vt 0.65816 0.02827
vt 0.61666 0.05045
vt 0.58029 0.08029
vt 0.55045 0.11666
vt 0.52827 0.15816
vt 0.51461 0.20318
vt 0.51000 0.25000
vt 0.51461 0.29682
vt 0.52827 0.34184
vt 0.55045 0.38334
vt 0.58030 0.41971
vt 0.61666 0.44955
vt 0.65816 0.47173
vt 0.70318 0.48539
vt 1.00000 0.50000
vt 1.00000 1.00000
vt 0.96875 1.00000
vt 0.96875 0.50000
vt 0.93750 1.00000
vt 0.93750 0.50000
vt 0.90625 1.00000
vt 0.90625 0.50000
vt 0.87500 1.00000
vt 0.87500 0.50000
vt 0.84375 1.00000
vt 0.84375 0.50000
vt 0.81250 1.00000
vt 0.81250 0.50000
vt 0.78125 1.00000
vt 0.78125 0.50000
vt 0.75000 1.00000
vt 0.75000 0.50000
vt 0.71875 1.00000
vt 0.71875 0.50000
vt 0.68750 1.00000
vt 0.68750 0.50000
vt 0.65625 1.00000
vt 0.65625 0.50000
vt 0.62500 1.00000
vt 0.62500 0.50000
vt 0.59375 1.00000
vt 0.59375 0.50000
vt 0.56250 1.00000
vt 0.56250 0.50000
vt 0.53125 1.00000
vt 0.53125 0.50000
vt 0.50000 1.00000
vt 0.50000 0.50000
vt 0.46875 1.00000
vt 0.46875 0.50000
vt 0.43750 1.00000
vt 0.43750 0.50000
vt 0.40625 1.00000
vt 0.40625 0.50000
vt 0.37500 1.00000
vt 0.37500 0.50000
vt 0.34375 1.00000
vt 0.34375 0.50000
vt 0.31250 1.00000
vt 0.31250 0.50000
vt 0.28125 1.00000
vt 0.28125 0.50000
vt 0.25000 1.00000
vt 0.25000 0.50000
vt 0.21875 1.00000
vt 0.21875 0.50000
vt 0.18750 1.00000
vt 0.18750 0.50000
vt 0.15625 1.00000
vt 0.15625 0.50000
vt 0.12500 1.00000
vt 0.12500 0.50000
vt 0.09375 1.00000
vt 0.09375 0.50000
vt 0.06250 1.00000
vt 0.06250 0.50000
vt 0.29682 0.48539
vt 0.25000 0.49000
vt 0.20318 0.48539
vt 0.15816 0.47173
vt 0.11666 0.44955
vt 0.08030 0.41971
vt 0.05045 0.38334
vt 0.02827 0.34184
vt 0.01461 0.29682
vt 0.01000 0.25000
vt 0.01461 0.20318
vt 0.02827 0.15816
vt 0.05045 0.11666
vt 0.08029 0.08029
vt 0.11666 0.05045
vt 0.15816 0.02827
vt 0.20318 0.01461
vt 0.25000 0.01000
vt 0.29682 0.01461
vt 0.34184 0.02827
vt 0.38334 0.05045
vt 0.41971 0.08029
vt 0.44955 0.11666
vt 0.47173 0.15816
vt 0.48539 0.20318
vt 0.49000 0.25000
vt 0.48539 0.29682
vt 0.47173 0.34184
vt 0.44955 0.38334
vt 0.41971 0.41971
vt 0.38334 0.44955
vt 0.34184 0.47173
vt 0.03125 1.00000
vt 0.03125 0.50000
vt 0.00000 1.00000
vt 0.00000 0.50000
vt 0.75000 0.49000
vt 0.79682 0.48539
vt 0.84184 0.47173
vt 0.88334 0.44955
vt 0.91971 0.41971
vt 0.94955 0.38334
vt 0.97173 0.34184
vt 0.98539 0.29682
vt 0.99000 0.25000
vt 0.98539 0.20318
vt 0.97173 0.15816
vt 0.94955 0.11666
vt 0.91971 0.08029
vt 0.88334 0.05045
vt 0.84184 0.02827
vt 0.79682 0.01461
vt 0.75000 0.01000
vt 0.70318 0.01461
vt 0.65816 0.02827
vt 0.61666 0.05045
vt 0.58029 0.08029
vt 0.55045 0.11666
vt 0.52827 0.15816
vt 0.51461 0.20318
vt 0.51000 0.25000
vt 0.51461 0.29682
vt 0.52827 0.34184
vt 0.55045 0.38334
vt 0.58030 0.41971
vt 0.61666 0.44955
vt 0.65816 0.47173
vt 0.70318 0.48539
vt 1.00000 0.50000
vt 1.00000 1.00000
vt 0.96875 1.00000
vt 0.96875 0.50000
vt 0.93750 1.00000
vt 0.93750 0.50000
vt 0.90625 1.00000
vt 0.90625 0.50000
vt 0.87500 1.00000
vt 0.87500 0.50000
vt 0.84375 1.00000
vt 0.84375 0.50000
vt 0.81250 1.00000
vt 0.81250 0.50000
vt 0.78125 1.00000
vt 0.78125 0.50000
vt 0.75000 1.00000
vt 0.75000 0.50000
vt 0.71875 1.00000
vt 0.71875 0.50000
vt 0.68750 1.00000
vt 0.68750 0.50000
vt 0.65625 1.00000
vt 0.65625 0.50000
vt 0.62500 1.00000
vt 0.62500 0.50000
vt 0.59375 1.00000
vt 0.59375 0.50000
vt 0.56250 1.00000
vt 0.56250 0.50000
vt 0.53125 1.00000
vt 0.53125 0.50000
vt 0.50000 1.00000
vt 0.50000 0.50000
vt 0.46875 1.00000
vt 0.46875 0.50000
vt 0.43750 1.00000
vt 0.43750 0.50000
vt 0.40625 1.00000
vt 0.40625 0.50000
vt 0.37500 1.00000
vt 0.37500 0.50000
vt 0.34375 1.00000
vt 0.34375 0.50000
vt 0.31250 1.00000
vt 0.31250 0.50000
vt 0.28125 1.00000
vt 0.28125 0.50000
vt 0.25000 1.00000
vt 0.25000 0.50000
vt 0.21875 1.00000
vt 0.21875 0.50000
vt 0.18750 1.00000
vt 0.18750 0.50000
vt 0.15625 1.00000
vt 0.15625 0.50000
vt 0.12500 1.00000
vt 0.12500 0.50000
vt 0.09375 1.00000
vt 0.09375 0.50000
vt 0.06250 1.00000
vt 0.06250 0.50000
vt 0.29682 0.48539
vt 0.25000 0.49000
vt 0.20318 0.48539
vt 0.15816 0.47173
vt 0.11666 0.44955
vt 0.08030 0.41971
vt 0.05045 0.38334
vt 0.02827 0.34184
vt 0.01461 0.29682
vt 0.01000 0.25000
vt 0.01461 0.20318
vt 0.02827 0.15816
vt 0.05045 0.11666
vt 0.08029 0.08029
vt 0.11666 0.05045
vt 0.15816 0.02827
vt 0.20318 0.01461
vt 0.25000 0.01000
vt 0.29682 0.01461
vt 0.34184 0.02827
vt 0.38334 0.05045
vt 0.41971 0.08029
vt 0.44955 0.11666
vt 0.47173 0.15816
vt 0.48539 0.20318
vt 0.49000 0.25000
vt 0.48539 0.29682
vt 0.47173 0.34184
vt 0.44955 0.38334
vt 0.41971 0.41971
vt 0.38334 0.44955
vt 0.34184 0.47173
vt 0.03125 1.00000
vt 0.03125 0.50000
vt 0.00000 1.00000
vt 0.00000 0.50000
vt 0.75000 0.49000
vt 0.79682 0.48539
vt 0.84184 0.47173
vt 0.88334 0.44955
vt 0.91971 0.41971
vt 0.94955 0.38334
vt 0.97173 0.34184
vt 0.98539 0.29682
vt 0.99000 0.25000
vt 0.98539 0.20318
vt 0.97173 0.15816
vt 0.94955 0.11666
vt 0.91971 0.08029
vt 0.88334 0.05045
vt 0.84184 0.02827
vt 0.79682 0.01461
vt 0.75000 0.01000
vt 0.70318 0.01461
vt 0.65816 0.02827
vt 0.61666 0.05045
vt 0.58029 0.08029
vt 0.55045 0.11666
vt 0.52827 0.15816
vt 0.51461 0.20318
vt 0.51000 0.25000
vt 0.51461 0.29682
vt 0.52827 0.34184
vt 0.55045 0.38334
vt 0.58030 0.41971
vt 0.61666 0.44955
vt 0.65816 0.47173
vt 0.70318 0.48539
vt 0.50625 0.00000
vt 0.62500 0.00000
vt 0.62500 0.25000
vt 0.50625 0.25000
vt 0.62500 0.50000
vt 0.50625 0.50000
vt 0.62500 0.75000
vt 0.50625 0.75000
vt 0.62500 1.00000
vt 0.50625 1.00000
vt 0.12500 0.50000
vt 0.37500 0.50000
vt 0.37500 0.75000
vt 0.12500 0.75000
vt 0.87500 0.50000
vt 0.87500 0.75000
vt 0.50000 0.75000
vt 0.50000 1.00000
vt 0.37500 1.00000
vt 0.50000 0.50000
vt 0.37500 0.25000
vt 0.50000 0.25000
vt 0.37500 0.00000
vt 0.50000 0.00000
vt 1.00000 0.50000
vt 1.00000 1.00000
vt 0.96875 1.00000
vt 0.96875 0.50000
vt 0.93750 1.00000
vt 0.93750 0.50000
vt 0.90625 1.00000
vt 0.90625 0.50000
vt 0.87500 1.00000
vt 0.87500 0.50000
vt 0.84375 1.00000
vt 0.84375 0.50000
vt 0.81250 1.00000
vt 0.81250 0.50000
vt 0.78125 1.00000
vt 0.78125 0.50000
vt 0.75000 1.00000
vt 0.75000 0.50000
vt 0.71875 1.00000
vt 0.71875 0.50000
vt 0.68750 1.00000
vt 0.68750 0.50000
vt 0.65625 1.00000
vt 0.65625 0.50000
vt 0.62500 1.00000
vt 0.62500 0.50000
vt 0.59375 1.00000
vt 0.59375 0.50000
vt 0.56250 1.00000
vt 0.56250 0.50000
vt 0.53125 1.00000
vt 0.53125 0.50000
vt 0.50000 1.00000
vt 0.50000 0.50000
vt 0.46875 1.00000
vt 0.46875 0.50000
vt 0.43750 1.00000
vt 0.43750 0.50000
vt 0.40625 1.00000
vt 0.40625 0.50000
vt 0.37500 1.00000
vt 0.37500 0.50000
vt 0.34375 1.00000
vt 0.34375 0.50000
vt 0.31250 1.00000
vt 0.31250 0.50000
vt 0.28125 1.00000
vt 0.28125 0.50000
vt 0.25000 1.00000
vt 0.25000 0.50000
vt 0.21875 1.00000
vt 0.21875 0.50000
vt 0.18750 1.00000
vt 0.18750 0.50000
vt 0.15625 1.00000
vt 0.15625 0.50000
vt 0.12500 1.00000
vt 0.12500 0.50000
vt 0.09375 1.00000
vt 0.09375 0.50000
vt 0.06250 1.00000
vt 0.06250 0.50000
vt 0.29682 0.48539
vt 0.25000 0.49000
vt 0.20318 0.48539
vt 0.15816 0.47173
vt 0.11666 0.44955
vt 0.08030 0.41971
vt 0.05045 0.38334
vt 0.02827 0.34184
vt 0.01461 0.29682
vt 0.01000 0.25000
vt 0.01461 0.20318
vt 0.02827 0.15816
vt 0.05045 0.11666
vt 0.08029 0.08029
vt 0.11666 0.05045
vt 0.15816 0.02827
vt 0.20318 0.01461
vt 0.25000 0.01000
vt 0.29682 0.01461
vt 0.34184 0.02827
vt 0.38334 0.05045
vt 0.41971 0.08029
vt 0.44955 0.11666
vt 0.47173 0.15816
vt 0.48539 0.20318
vt 0.49000 0.25000
vt 0.48539 0.29682
vt 0.47173 0.34184
vt 0.44955 0.38334
vt 0.41971 0.41971
vt 0.38334 0.44955
vt 0.34184 0.47173
vt 0.03125 1.00000
vt 0.03125 0.50000
vt 0.00000 1.00000
vt 0.00000 0.50000
vt 0.75000 0.49000
vt 0.79682 0.48539
vt 0.84184 0.47173
vt 0.88334 0.44955
vt 0.91971 0.41971
vt 0.94955 0.38334
vt 0.97173 0.34184
vt 0.98539 0.29682
vt 0.99000 0.25000
vt 0.98539 0.20318
vt 0.97173 0.15816
vt 0.94955 0.11666
vt 0.91971 0.08029
vt 0.88334 0.05045
vt 0.84184 0.02827
vt 0.79682 0.01461
vt 0.75000 0.01000
vt 0.70318 0.01461
vt 0.65816 0.02827
vt 0.61666 0.05045
vt 0.58029 0.08029
vt 0.55045 0.11666
vt 0.52827 0.15816
vt 0.51461 0.20318
vt 0.51000 0.25000
vt 0.51461 0.29682
vt 0.52827 0.34184
vt 0.55045 0.38334
vt 0.58030 0.41971
vt 0.61666 0.44955
vt 0.65816 0.47173
vt 0.70318 0.48539
vt 0.37500 0.00000
vt 0.62500 0.00000
vt 0.62500 0.25000
vt 0.37500 0.25000
vt 0.62500 0.50000
vt 0.37500 0.50000
vt 0.62500 0.75000
vt 0.37500 0.75000
vt 0.62500 1.00000
vt 0.37500 1.00000
vt 0.12500 0.50000
vt 0.12500 0.75000
vt 0.87500 0.50000
vt 0.87500 0.75000
vt 0.37500 0.00000
vt 0.62500 0.00000
vt 0.62500 0.25000
vt 0.37500 0.25000
vt 0.62500 0.50000
vt 0.37500 0.50000
vt 0.62500 0.75000
vt 0.37500 0.75000
vt 0.62500 1.00000
vt 0.37500 1.00000
vt 0.37500 0.50000
vt 0.37500 0.75000
vt 0.37500 0.75000
vt 0.37500 0.50000
vt 0.87500 0.50000
vt 0.87500 0.75000
vt 0.12500 0.50000
vt 0.12500 0.75000
vt 0.37500 1.00000
vt 0.37500 1.00000
vt 0.37500 0.25000
vt 0.37500 0.25000
vt 0.37500 0.00000
vt 0.37500 0.00000
vt 0.37500 0.25000
vt 0.37500 0.00000
vt 0.37500 0.25000
vt 0.37500 0.00000
vt 0.37500 0.25000
vt 0.37500 0.00000
vt 0.37500 0.25000
vt 0.37500 0.00000
vt 0.37500 0.50000
vt 0.37500 0.50000
vt 0.37500 0.50000
vt 0.37500 0.50000
vt 0.37500 1.00000
vt 0.37500 0.75000
vt 0.37500 1.00000
vt 0.37500 0.75000
vt 0.37500 1.00000
vt 0.37500 0.75000
vt 0.37500 1.00000
vt 0.37500 0.75000
vn -1.0000 0.0000 0.0000
vn 0.0000 0.0000 -1.0000
vn 1.0000 0.0000 0.0000
vn 0.0000 0.0000 1.0000
vn 0.0000 -1.0000 0.0000
vn 0.0000 1.0000 0.0000
vn -0.1785 0.9839 -0.0000
vn -0.8520 0.5235 0.0000
vn 0.7727 -0.6347 0.0000
vn 0.9404 -0.3401 0.0000
vn -0.9990 -0.0442 0.0000
vn -0.0893 -0.9960 0.0000
vn 0.6113 0.7914 0.0000
vn 0.9666 -0.2564 0.0000
vn -0.3569 0.9341 0.0000
vn 0.8594 -0.5113 0.0000
vn 0.9933 -0.1158 0.0000
vn 0.0001 0.0000 1.0000
vn 0.9941 0.1084 0.0000
vn 0.0528 -0.9986 0.0000
vn -0.9995 0.0319 0.0000
vn -0.2251 -0.9743 0.0000
vn 0.9945 0.1052 0.0000
vn -0.8663 0.4996 0.0000
vn 0.9684 -0.2493 0.0000
vn -0.8204 0.5717 0.0000
vn -0.8204 0.5718 0.0000
vn 0.8815 -0.4723 0.0000
vn 0.8605 -0.5094 0.0000
vn 0.9118 0.4105 0.0000
vn 0.0023 -1.0000 0.0000
vn 0.2628 -0.9649 0.0000
vn -0.9972 -0.0751 0.0000
vn -0.1333 0.9911 0.0000
vn -0.0068 -1.0000 0.0000
vn -0.1707 0.9853 0.0000
vn 0.3194 -0.9476 0.0000
vn 0.9990 -0.0454 0.0000
vn -0.8649 -0.5019 0.0000
vn 0.5573 -0.8303 0.0000
vn -0.0129 -0.9999 0.0000
vn -0.0195 -0.9998 0.0000
vn -0.0183 -0.9998 0.0000
vn -0.0172 -0.9999 0.0000
vn 0.1943 -0.9809 -0.0000
vn 0.9636 0.2674 -0.0000
vn -0.0000 -0.1243 -0.9922
vn -0.0000 -0.3600 -0.9330
vn -0.0000 -0.5623 -0.8270
vn -0.0000 -0.7221 -0.6918
vn -0.0000 -0.8403 -0.5421
vn -0.0000 -0.9219 -0.3874
vn -0.0000 -0.9727 -0.2320
vn 0.0000 -0.9970 -0.0772
vn 0.0000 -0.9970 0.0772
vn 0.0000 -0.9727 0.2320
vn 0.0000 -0.9219 0.3874
vn 0.0000 -0.8403 0.5421
vn 0.0000 -0.7221 0.6917
vn 0.0000 -0.5623 0.8270
vn 0.0000 -0.3600 0.9330
vn 0.0000 -0.1243 0.9922
vn 0.0000 0.1243 0.9922
vn 0.0000 0.3600 0.9330
vn 0.0000 0.5623 0.8270
vn 0.0000 0.7221 0.6917
vn 0.0000 0.8403 0.5421
vn 0.0000 0.9219 0.3874
vn 0.0000 0.9727 0.2320
vn -0.0000 0.9970 0.0772
vn -0.0000 0.9970 -0.0772
vn -0.0000 0.9727 -0.2320
vn -0.0000 0.9219 -0.3874
vn -0.0000 0.8403 -0.5421
vn 0.0000 0.7221 -0.6918
vn 0.0000 0.5623 -0.8270
vn -0.0000 0.3600 -0.9330
vn -0.0000 0.1243 -0.9922
vn -0.0000 -0.0972 -0.9953
vn -0.0000 -0.2881 -0.9576
vn -0.0000 -0.4683 -0.8835
vn 0.0000 -0.6312 -0.7756
vn -0.0000 -0.7705 -0.6375
vn -0.0000 -0.8803 -0.4745
vn 0.0000 -0.9563 -0.2925
vn 0.0000 -0.9951 -0.0988
vn 0.0000 -0.9951 0.0988
vn 0.0000 -0.9563 0.2925
vn 0.0000 -0.8803 0.4744
vn 0.0000 -0.7704 0.6375
vn 0.0000 -0.6313 0.7756
vn 0.0000 -0.4683 0.8835
vn 0.0000 -0.2881 0.9576
vn 0.0000 -0.0972 0.9953
vn 0.0000 0.0972 0.9953
vn 0.0000 0.2881 0.9576
vn 0.0000 0.4683 0.8835
vn 0.0000 0.6313 0.7756
vn 0.0000 0.7704 0.6375
vn -0.0000 0.8803 0.4744
vn -0.0000 0.9563 0.2925
vn -0.0000 0.9951 0.0988
vn -0.0000 0.9951 -0.0988
vn -0.0000 0.9563 -0.2925
vn -0.0000 0.8803 -0.4744
vn -0.0000 0.7704 -0.6375
vn -0.0000 0.6312 -0.7756
vn -0.0000 0.4683 -0.8835
vn -0.0000 0.2881 -0.9576
vn 0.0000 0.0972 -0.9953
vn -0.0000 -0.0907 -0.9959
vn -0.0000 -0.2701 -0.9628
vn -0.0000 -0.4432 -0.8964
vn 0.0000 -0.6046 -0.7965
vn 0.0000 -0.7480 -0.6637
vn 0.0000 -0.8658 -0.5004
vn 0.0000 -0.9502 -0.3116
vn 0.0000 -0.9944 -0.1059
vn 0.0000 -0.9944 0.1059
vn 0.0000 -0.9502 0.3116
vn 0.0000 -0.8658 0.5004
vn -0.0000 -0.7480 0.6637
vn -0.0000 -0.6046 0.7965
vn 0.0000 -0.4432 0.8964
vn 0.0000 -0.2701 0.9628
vn 0.0000 -0.0907 0.9959
vn 0.0000 0.0907 0.9959
vn 0.0000 0.2701 0.9628
vn -0.0000 0.4432 0.8964
vn -0.0000 0.6046 0.7965
vn -0.0000 0.7480 0.6637
vn -0.0000 0.8658 0.5003
vn -0.0000 0.9502 0.3116
vn -0.0000 0.9944 0.1059
vn -0.0000 0.9944 -0.1059
vn -0.0000 0.9502 -0.3116
vn -0.0000 0.8658 -0.5004
vn -0.0000 0.7480 -0.6637
vn 0.0000 0.6046 -0.7965
vn -0.0000 0.4432 -0.8964
vn -0.0000 0.2701 -0.9628
vn -0.0000 0.0907 -0.9959
vn -0.0000 -0.0908 -0.9959
vn 0.0000 -0.2704 -0.9628
vn 0.0000 -0.4435 -0.8963
vn 0.0000 -0.6050 -0.7963
vn 0.0000 -0.7483 -0.6634
vn -0.0000 -0.8660 -0.5000
vn -0.0000 -0.9503 -0.3114
vn 0.0000 -0.9944 -0.1058
vn 0.0000 -0.9944 0.1058
vn 0.0000 -0.9503 0.3114
vn -0.0000 -0.8660 0.5000
vn 0.0000 -0.7483 0.6634
vn 0.0000 -0.6050 0.7963
vn 0.0000 -0.4435 0.8963
vn 0.0000 -0.2704 0.9628
vn 0.0000 -0.0908 0.9959
vn 0.0000 0.0908 0.9959
vn 0.0000 0.2704 0.9628
vn 0.0000 0.4435 0.8963
vn 0.0000 0.6050 0.7963
vn 0.0000 0.7483 0.6634
vn 0.0000 0.8660 0.5000
vn 0.0000 0.9503 0.3114
vn 0.0000 0.9944 0.1058
vn 0.0000 0.9944 -0.1058
vn 0.0000 0.9503 -0.3114
vn 0.0000 0.8660 -0.5000
vn 0.0000 0.7483 -0.6634
vn 0.0000 0.6050 -0.7963
vn 0.0000 0.4435 -0.8963
vn -0.0000 0.2704 -0.9628
vn -0.0000 0.0908 -0.9959
vn -0.1095 0.9940 -0.0000
vn 0.0000 -0.1823 -0.9832
vn 0.0000 -0.4958 -0.8684
vn 0.0000 -0.7092 -0.7050
vn 0.0000 -0.8394 -0.5435
vn 0.0000 -0.9166 -0.3997
vn 0.0000 -0.9620 -0.2732
vn 0.0000 -0.9873 -0.1591
vn 0.0000 -0.9986 -0.0523
vn 0.0000 -0.9986 0.0523
vn 0.0000 -0.9873 0.1591
vn 0.0000 -0.9620 0.2732
vn 0.0000 -0.9166 0.3997
vn 0.0000 -0.8394 0.5435
vn 0.0000 -0.7092 0.7050
vn 0.0000 -0.4958 0.8684
vn 0.0000 -0.1822 0.9833
vn 0.0000 0.1822 0.9833
vn 0.0000 0.4958 0.8684
vn 0.0000 0.7092 0.7050
vn 0.0000 0.8394 0.5435
vn 0.0000 0.9166 0.3997
vn 0.0000 0.9620 0.2732
vn -0.0000 0.9873 0.1591
vn -0.0000 0.9986 0.0523
vn 0.0000 0.9986 -0.0523
vn 0.0000 0.9873 -0.1591
vn -0.0000 0.9620 -0.2732
vn -0.0000 0.9166 -0.3997
vn -0.0000 0.8394 -0.5435
vn -0.0000 0.7092 -0.7050
vn 0.0000 0.4958 -0.8684
vn 0.0000 0.1823 -0.9832
vn 0.8041 0.5945 0.0000
vn -0.8683 -0.4960 0.0000
vn -0.8808 -0.4735 0.0000
vn 0.8041 -0.5944 0.0000
vn 0.9049 -0.4257 0.0000
vn 0.9888 -0.1495 0.0000
vn 0.9888 0.1495 0.0000
vn 0.9049 0.4257 0.0000
usemtl Material.007
s 1
f 6993/11346/2681 6994/11347/2681 6996/11348/2681 6995/11349/2681
f 6995/11350/2682 6996/11351/2682 7000/11352/2682 6999/11353/2682
f 6999/11354/2683 7000/11355/2683 6998/11356/2683 6997/11357/2683
f 6997/11358/2684 6998/11359/2684 6994/11360/2684 6993/11361/2684
f 6995/11362/2685 6999/11363/2685 6997/11364/2685 6993/11365/2685
f 7000/11366/2686 6996/11367/2686 6994/11368/2686 6998/11369/2686
f 7001/11370/2687 7005/11371/2687 7007/11372/2687 7003/11373/2687
f 7004/11374/2684 7003/11375/2684 7007/11376/2684 7008/11377/2684
f 7008/11377/2681 7007/11376/2681 7005/11378/2681 7006/11379/2681
f 7023/11380/2688 7021/11381/2688 7009/11382/2688 7010/11383/2688
f 7002/11384/2683 7001/11385/2683 7003/11386/2683 7004/11387/2683
f 7006/11388/2682 7005/11389/2682 7001/11390/2682 7002/11391/2682
f 7009/11382/2685 7011/11392/2685 7012/11393/2685 7010/11394/2685
f 7024/11395/2689 7022/11396/2689 7012/11397/2689 7011/11398/2689
f 7021/11399/2682 7024/11400/2682 7011/11392/2682 7009/11401/2682
f 7022/11402/2684 7023/11380/2684 7010/11383/2684 7012/11403/2684
f 7020/11404/2684 7017/11405/2684 7014/11406/2684 7015/11407/2684
f 7019/11408/2682 7018/11409/2682 7016/11410/2682 7013/11411/2682
f 7018/11412/2690 7020/11413/2690 7015/11414/2690 7016/11415/2690
f 7017/11405/2691 7019/11416/2691 7013/11417/2691 7014/11406/2691
f 7008/11377/2692 7006/11379/2692 7019/11416/2692 7017/11405/2692
f 7002/11384/2693 7004/11387/2693 7020/11413/2693 7018/11412/2693
f 7006/11388/2682 7002/11391/2682 7018/11409/2682 7019/11408/2682
f 7004/11374/2684 7008/11377/2684 7017/11405/2684 7020/11404/2684
f 7015/11407/2684 7014/11406/2684 7023/11380/2684 7022/11402/2684
f 7013/11411/2682 7016/11410/2682 7024/11400/2682 7021/11399/2682
f 7016/11415/2694 7015/11414/2694 7022/11396/2694 7024/11395/2694
f 7014/11406/2695 7013/11417/2695 7021/11381/2695 7023/11380/2695
f 7025/11418/2681 7026/11419/2681 7028/11420/2681 7027/11421/2681
f 7027/11421/2682 7028/11420/2682 7032/11422/2682 7031/11423/2682
f 7043/11424/2686 7041/11425/2686 7036/11426/2686 7033/11427/2686
f 7029/11428/2684 7030/11429/2684 7026/11430/2684 7025/11431/2684
f 7027/11432/2685 7031/11423/2685 7029/11428/2685 7025/11433/2685
f 7032/11422/2686 7028/11434/2686 7026/11435/2686 7030/11429/2686
f 7034/11436/2683 7033/11427/2683 7036/11426/2683 7035/11437/2683
f 7044/11438/2682 7043/11424/2682 7033/11427/2682 7034/11436/2682
f 7041/11425/2684 7042/11439/2684 7035/11437/2684 7036/11426/2684
f 7042/11439/2696 7044/11438/2696 7034/11436/2696 7035/11437/2696
f 7029/11428/2697 7031/11423/2697 7039/11440/2697 7040/11441/2697
f 7030/11429/2684 7029/11428/2684 7040/11441/2698 7037/11442/2698
f 7031/11423/2682 7032/11422/2682 7038/11443/2682 7039/11440/2682
f 7032/11422/2699 7030/11429/2699 7037/11442/2699 7038/11443/2699
f 7040/11441/2700 7039/11440/2700 7044/11438/2700 7042/11439/2700
f 7037/11442/2698 7040/11441/2698 7042/11439/2684 7041/11425/2684
f 7039/11440/2682 7038/11443/2682 7043/11424/2682 7044/11438/2682
f 7038/11443/2686 7037/11442/2686 7041/11425/2686 7043/11424/2686
f 7061/11444/2701 7046/11445/2701 7048/11446/2701 7062/11447/2701
f 7062/11447/2682 7048/11446/2682 7052/11448/2682 7063/11449/2682
f 7063/11449/2683 7052/11448/2683 7050/11450/2683 7064/11451/2683
f 7064/11451/2684 7050/11450/2684 7046/11452/2684 7061/11453/2684
f 7047/11454/2702 7051/11455/2702 7049/11456/2702 7045/11457/2702
f 7052/11448/2686 7048/11458/2686 7046/11459/2686 7050/11450/2686
f 7059/11460/2684 7056/11461/2684 7053/11462/2684 7060/11463/2684
f 7058/11464/2703 7055/11465/2703 7056/11461/2703 7059/11460/2703
f 7057/11466/2682 7054/11467/2682 7055/11465/2682 7058/11464/2682
f 7060/11468/2704 7053/11469/2704 7054/11467/2704 7057/11466/2704
f 7045/11470/2704 7060/11468/2704 7057/11466/2704 7047/11471/2704
f 7047/11471/2682 7057/11466/2682 7058/11464/2682 7051/11455/2682
f 7051/11455/2705 7058/11464/2705 7059/11460/2705 7049/11456/2705
f 7049/11456/2684 7059/11460/2684 7060/11463/2684 7045/11472/2684
f 7088/11473/2684 7064/11451/2684 7061/11453/2684 7085/11474/2684
f 7087/11475/2683 7063/11449/2683 7064/11451/2683 7088/11473/2683
f 7086/11476/2682 7062/11447/2682 7063/11449/2682 7087/11475/2682
f 7085/11477/2706 7061/11444/2707 7062/11447/2707 7086/11476/2706
f 7073/11478/2707 7068/11479/2707 7065/11480/2707 7074/11481/2707
f 7074/11481/2682 7065/11480/2682 7066/11482/2682 7075/11483/2682
f 7075/11483/2708 7066/11482/2708 7067/11484/2708 7076/11485/2708
f 7076/11485/2684 7067/11484/2684 7068/11486/2684 7073/11487/2684
f 7056/11461/2684 7071/11488/2684 7072/11489/2684 7053/11462/2684
f 7055/11465/2709 7070/11490/2709 7071/11488/2709 7056/11461/2709
f 7054/11467/2682 7069/11491/2682 7070/11490/2682 7055/11465/2682
f 7053/11469/2706 7072/11492/2706 7069/11491/2706 7054/11467/2706
f 7079/11493/2684 7076/11485/2684 7073/11487/2684 7080/11494/2684
f 7078/11495/2710 7075/11483/2710 7076/11485/2710 7079/11493/2710
f 7077/11496/2682 7074/11481/2682 7075/11483/2682 7078/11495/2682
f 7080/11497/2706 7073/11478/2707 7074/11481/2707 7077/11496/2706
f 7072/11492/2706 7080/11497/2706 7077/11496/2706 7069/11491/2706
f 7069/11491/2682 7077/11496/2682 7078/11495/2682 7070/11490/2682
f 7070/11490/2711 7078/11495/2711 7079/11493/2711 7071/11488/2711
f 7071/11488/2684 7079/11493/2684 7080/11494/2684 7072/11489/2684
f 7068/11479/2707 7081/11498/2706 7082/11499/2706 7065/11480/2707
f 7065/11480/2682 7082/11499/2682 7083/11500/2682 7066/11482/2682
f 7066/11482/2712 7083/11500/2712 7084/11501/2712 7067/11484/2712
f 7067/11484/2684 7084/11501/2684 7081/11502/2684 7068/11486/2684
f 7081/11498/2706 7085/11477/2706 7086/11476/2706 7082/11499/2706
f 7082/11499/2682 7086/11476/2682 7087/11475/2682 7083/11500/2682
f 7088/11473/2684 7084/11501/2684 7092/11503/2684 7091/11504/2684
f 7084/11501/2684 7088/11473/2684 7085/11474/2684 7081/11502/2684
f 7090/11505/2683 7089/11506/2683 7091/11504/2683 7092/11503/2683
f 7087/11475/2686 7088/11473/2686 7091/11504/2686 7089/11506/2686
f 7084/11501/2685 7083/11500/2685 7090/11505/2685 7092/11503/2685
f 7083/11500/2682 7087/11475/2682 7089/11506/2682 7090/11505/2682
f 7093/11507/2713 7094/11508/2713 7096/11509/2713 7095/11510/2713
f 7095/11510/2682 7096/11509/2682 7100/11511/2682 7099/11512/2682
f 7099/11512/2683 7100/11511/2683 7098/11513/2683 7097/11514/2683
f 7097/11514/2684 7098/11513/2684 7094/11515/2684 7093/11516/2684
f 7095/11517/2685 7099/11512/2685 7097/11514/2685 7093/11518/2685
f 7100/11511/2686 7096/11519/2686 7094/11520/2686 7098/11513/2686
f 7101/11521/2681 7102/11522/2681 7104/11523/2681 7103/11524/2681
f 7109/11525/2682 7110/11526/2682 7108/11527/2682 7107/11528/2682
f 7107/11528/2683 7108/11527/2683 7106/11529/2683 7105/11530/2683
f 7111/11531/2684 7112/11532/2684 7102/11533/2684 7101/11534/2684
f 7109/11535/2685 7107/11528/2685 7105/11530/2685 7111/11536/2685
f 7110/11537/2686 7104/11538/2686 7102/11539/2686 7112/11540/2686
f 7108/11527/2714 7110/11537/2714 7112/11540/2714 7106/11529/2714
f 7103/11541/2685 7109/11535/2685 7111/11536/2685 7101/11542/2685
f 7105/11530/2684 7106/11529/2684 7112/11532/2684 7111/11531/2684
f 7103/11524/2682 7104/11523/2682 7110/11526/2682 7109/11525/2682
f 7113/11543/2681 7114/11544/2681 7116/11545/2681 7115/11546/2681
f 7115/11546/2682 7116/11545/2682 7120/11547/2682 7119/11548/2682
f 7119/11548/2683 7120/11547/2683 7118/11549/2683 7117/11550/2683
f 7117/11550/2684 7118/11549/2684 7114/11551/2684 7113/11552/2684
f 7115/11553/2715 7119/11548/2715 7117/11550/2715 7113/11554/2715
f 7120/11547/2716 7116/11555/2716 7114/11556/2716 7118/11549/2716
f 7129/11557/2681 7122/11558/2681 7124/11559/2681 7130/11560/2681
f 7179/11561/2682 7177/11562/2682 7128/11563/2682 7131/11564/2682
f 7131/11564/2683 7128/11563/2683 7126/11565/2683 7132/11566/2683
f 7141/11567/2684 7140/11568/2684 7122/11569/2684 7129/11570/2684
f 7125/11571/2684 7178/11572/2684 7187/11573/2684 7185/11574/2684
f 7138/11575/2686 7124/11576/2686 7122/11577/2686 7140/11578/2686
f 7144/11579/2684 7141/11567/2684 7129/11570/2684 7136/11580/2684
f 7134/11581/2717 7131/11564/2717 7132/11566/2717 7135/11582/2717
f 7180/11583/2682 7179/11561/2682 7131/11564/2682 7134/11581/2682
f 7136/11584/2681 7129/11557/2681 7130/11560/2681 7133/11585/2681
f 7121/11586/2681 7136/11584/2681 7133/11585/2681 7123/11587/2681
f 7181/11588/2682 7180/11583/2682 7134/11581/2682 7127/11589/2682
f 7127/11589/2718 7134/11581/2718 7135/11582/2718 7125/11571/2718
f 7139/11590/2684 7144/11579/2684 7136/11580/2684 7121/11591/2684
f 7146/11592/2684 7152/11593/2684 7144/11579/2684 7139/11590/2684
f 7123/11587/2682 7133/11585/2682 7143/11594/2682 7137/11595/2682
f 7133/11585/2682 7130/11560/2682 7142/11596/2682 7143/11594/2682
f 7152/11593/2684 7151/11597/2684 7141/11567/2684 7144/11579/2684
f 7145/11598/2686 7138/11575/2686 7140/11578/2686 7150/11599/2686
f 7123/11600/2685 7137/11601/2685 7139/11602/2685 7121/11603/2685
f 7151/11597/2684 7150/11604/2684 7140/11568/2684 7141/11567/2684
f 7130/11560/2682 7124/11559/2682 7138/11605/2682 7142/11596/2682
f 7163/11606/2684 7162/11607/2684 7150/11604/2684 7151/11597/2684
f 7165/11608/2686 7145/11598/2686 7150/11599/2686 7162/11609/2686
f 7164/11610/2684 7163/11606/2684 7151/11597/2684 7152/11593/2684
f 7166/11611/2684 7164/11610/2684 7152/11593/2684 7146/11592/2684
f 7137/11595/2682 7143/11594/2682 7148/11612/2682 7149/11613/2682
f 7143/11594/2682 7142/11596/2682 7147/11614/2682 7148/11612/2682
f 7137/11601/2719 7149/11615/2719 7146/11616/2719 7139/11602/2719
f 7142/11596/2682 7138/11605/2682 7145/11617/2682 7147/11614/2682
f 7170/11618/2684 7176/11619/2684 7160/11620/2684 7154/11621/2684
f 7176/11619/2684 7175/11622/2684 7159/11623/2684 7160/11620/2684
f 7169/11624/2686 7153/11625/2686 7158/11626/2686 7174/11627/2686
f 7175/11622/2684 7174/11628/2684 7158/11629/2684 7159/11623/2684
f 7161/11630/2682 7168/11631/2682 7156/11632/2682 7157/11633/2682
f 7168/11631/2682 7167/11634/2682 7155/11635/2682 7156/11632/2682
f 7161/11636/2720 7157/11637/2720 7154/11638/2720 7166/11639/2720
f 7167/11634/2682 7165/11640/2682 7153/11641/2682 7155/11635/2682
f 7147/11614/2682 7145/11617/2682 7165/11640/2682 7167/11634/2682
f 7149/11615/2721 7161/11636/2721 7166/11639/2721 7146/11616/2721
f 7148/11612/2682 7147/11614/2682 7167/11634/2682 7168/11631/2682
f 7149/11613/2682 7148/11612/2682 7168/11631/2682 7161/11630/2682
f 7154/11621/2684 7160/11620/2684 7164/11610/2684 7166/11611/2684
f 7160/11620/2684 7159/11623/2684 7163/11606/2684 7164/11610/2684
f 7153/11625/2686 7165/11608/2686 7162/11609/2686 7158/11626/2686
f 7159/11623/2684 7158/11629/2684 7162/11607/2684 7163/11606/2684
f 7183/11642/2684 7182/11643/2684 7174/11628/2684 7175/11622/2684
f 7177/11644/2686 7169/11624/2686 7174/11627/2686 7182/11645/2686
f 7184/11646/2684 7183/11642/2684 7175/11622/2684 7176/11619/2684
f 7178/11572/2684 7184/11646/2684 7176/11619/2684 7170/11618/2684
f 7157/11633/2682 7156/11632/2682 7172/11647/2682 7173/11648/2682
f 7156/11632/2682 7155/11635/2682 7171/11649/2682 7172/11647/2682
f 7157/11637/2722 7173/11650/2723 7170/11651/2723 7154/11638/2722
f 7155/11635/2682 7153/11641/2682 7169/11652/2682 7171/11649/2682
f 7125/11571/2684 7135/11582/2684 7184/11646/2684 7178/11572/2684
f 7135/11582/2684 7132/11566/2684 7183/11642/2684 7184/11646/2684
f 7128/11563/2686 7177/11644/2686 7182/11645/2686 7126/11565/2686
f 7132/11566/2684 7126/11565/2684 7182/11643/2684 7183/11642/2684
f 7173/11648/2682 7172/11647/2682 7180/11583/2682 7181/11588/2682
f 7172/11647/2682 7171/11649/2682 7179/11561/2682 7180/11583/2682
f 7173/11650/2723 7181/11653/2724 7178/11654/2724 7170/11651/2723
f 7171/11649/2682 7169/11652/2682 7177/11562/2682 7179/11561/2682
f 7188/11655/2725 7186/11656/2725 7185/11574/2725 7187/11657/2725
f 7181/11588/2682 7127/11589/2682 7186/11656/2682 7188/11658/2682
f 7127/11589/2683 7125/11571/2683 7185/11574/2683 7186/11656/2683
f 7178/11654/2681 7181/11653/2681 7188/11655/2681 7187/11657/2681
f 7189/11659/2681 7190/11660/2681 7192/11661/2681 7191/11662/2681
f 7203/11663/2682 7201/11664/2682 7196/11665/2682 7195/11666/2682
f 7195/11666/2683 7196/11665/2683 7194/11667/2683 7193/11668/2683
f 7208/11669/2684 7206/11670/2684 7190/11671/2684 7189/11672/2684
f 7203/11673/2685 7195/11666/2685 7193/11668/2685 7202/11674/2685
f 7207/11675/2686 7192/11676/2686 7190/11677/2686 7206/11678/2686
f 7201/11679/2726 7198/11680/2726 7200/11681/2726 7204/11682/2726
f 7205/11683/2685 7197/11684/2685 7199/11685/2685 7208/11686/2685
f 7202/11687/2684 7204/11688/2684 7200/11689/2684 7199/11690/2684
f 7205/11691/2682 7207/11692/2682 7198/11693/2682 7197/11694/2682
f 7193/11668/2684 7194/11667/2684 7204/11688/2684 7202/11687/2684
f 7196/11665/2686 7201/11679/2686 7204/11682/2686 7194/11667/2686
f 7197/11684/2685 7203/11673/2685 7202/11674/2685 7199/11685/2685
f 7197/11694/2682 7198/11693/2682 7201/11664/2682 7203/11663/2682
f 7191/11662/2682 7192/11661/2682 7207/11692/2682 7205/11691/2682
f 7191/11695/2685 7205/11683/2685 7208/11686/2685 7189/11696/2685
f 7206/11670/2684 7200/11689/2684 7211/11697/2684 7212/11698/2684
f 7199/11690/2684 7200/11689/2684 7206/11670/2684 7208/11669/2684
f 7210/11699/2686 7209/11700/2686 7212/11701/2686 7211/11702/2686
f 7200/11681/2683 7198/11680/2683 7210/11699/2683 7211/11702/2683
f 7207/11675/2681 7206/11678/2681 7212/11701/2681 7209/11700/2681
f 7198/11693/2682 7207/11692/2682 7209/11703/2682 7210/11704/2682
f 7213/11705/2727 7214/11706/2727 7216/11707/2727 7215/11708/2727
f 7215/11708/2728 7216/11707/2728 7218/11709/2728 7217/11710/2728
f 7217/11710/2729 7218/11709/2729 7220/11711/2729 7219/11712/2729
f 7219/11712/2730 7220/11711/2730 7222/11713/2730 7221/11714/2730
f 7221/11714/2731 7222/11713/2731 7224/11715/2731 7223/11716/2731
f 7223/11716/2732 7224/11715/2732 7226/11717/2732 7225/11718/2732
f 7225/11718/2733 7226/11717/2733 7228/11719/2733 7227/11720/2733
f 7227/11720/2734 7228/11719/2734 7230/11721/2734 7229/11722/2734
f 7229/11722/2735 7230/11721/2735 7232/11723/2735 7231/11724/2735
f 7231/11724/2736 7232/11723/2736 7234/11725/2736 7233/11726/2736
f 7233/11726/2737 7234/11725/2737 7236/11727/2737 7235/11728/2737
f 7235/11728/2738 7236/11727/2738 7238/11729/2738 7237/11730/2738
f 7237/11730/2739 7238/11729/2739 7240/11731/2739 7239/11732/2739
f 7239/11732/2740 7240/11731/2740 7242/11733/2740 7241/11734/2740
f 7241/11734/2741 7242/11733/2741 7244/11735/2741 7243/11736/2741
f 7243/11736/2742 7244/11735/2742 7246/11737/2742 7245/11738/2742
f 7245/11738/2743 7246/11737/2743 7248/11739/2743 7247/11740/2743
f 7247/11740/2744 7248/11739/2744 7250/11741/2744 7249/11742/2744
f 7249/11742/2745 7250/11741/2745 7252/11743/2745 7251/11744/2745
f 7251/11744/2746 7252/11743/2746 7254/11745/2746 7253/11746/2746
f 7253/11746/2747 7254/11745/2747 7256/11747/2747 7255/11748/2747
f 7255/11748/2748 7256/11747/2748 7258/11749/2748 7257/11750/2748
f 7257/11750/2749 7258/11749/2749 7260/11751/2749 7259/11752/2749
f 7259/11752/2750 7260/11751/2750 7262/11753/2750 7261/11754/2750
f 7261/11754/2751 7262/11753/2751 7264/11755/2751 7263/11756/2751
f 7263/11756/2752 7264/11755/2752 7266/11757/2752 7265/11758/2752
f 7265/11758/2753 7266/11757/2753 7268/11759/2753 7267/11760/2753
f 7267/11760/2754 7268/11759/2754 7270/11761/2754 7269/11762/2754
f 7269/11762/2755 7270/11761/2755 7272/11763/2755 7271/11764/2755
f 7271/11764/2756 7272/11763/2756 7274/11765/2756 7273/11766/2756
f 7216/11767/2683 7214/11768/2683 7276/11769/2683 7274/11770/2683 7272/11771/2683 7270/11772/2683 7268/11773/2683 7266/11774/2683 7264/11775/2683 7262/11776/2683 7260/11777/2683 7258/11778/2683 7256/11779/2683 7254/11780/2683 7252/11781/2683 7250/11782/2683 7248/11783/2683 7246/11784/2683 7244/11785/2683 7242/11786/2683 7240/11787/2683 7238/11788/2683 7236/11789/2683 7234/11790/2683 7232/11791/2683 7230/11792/2683 7228/11793/2683 7226/11794/2683 7224/11795/2683 7222/11796/2683 7220/11797/2683 7218/11798/2683
f 7273/11766/2757 7274/11765/2757 7276/11799/2757 7275/11800/2757
f 7275/11800/2758 7276/11799/2758 7214/11801/2758 7213/11802/2758
f 7213/11803/2681 7215/11804/2681 7217/11805/2681 7219/11806/2681 7221/11807/2681 7223/11808/2681 7225/11809/2681 7227/11810/2681 7229/11811/2681 7231/11812/2681 7233/11813/2681 7235/11814/2681 7237/11815/2681 7239/11816/2681 7241/11817/2681 7243/11818/2681 7245/11819/2681 7247/11820/2681 7249/11821/2681 7251/11822/2681 7253/11823/2681 7255/11824/2681 7257/11825/2681 7259/11826/2681 7261/11827/2681 7263/11828/2681 7265/11829/2681 7267/11830/2681 7269/11831/2681 7271/11832/2681 7273/11833/2681 7275/11834/2681
f 7277/11835/2759 7278/11836/2759 7280/11837/2759 7279/11838/2759
f 7279/11838/2760 7280/11837/2760 7282/11839/2760 7281/11840/2760
f 7281/11840/2761 7282/11839/2761 7284/11841/2761 7283/11842/2761
f 7283/11842/2762 7284/11841/2762 7286/11843/2762 7285/11844/2762
f 7285/11844/2763 7286/11843/2763 7288/11845/2763 7287/11846/2763
f 7287/11846/2764 7288/11845/2764 7290/11847/2764 7289/11848/2764
f 7289/11848/2765 7290/11847/2765 7292/11849/2765 7291/11850/2765
f 7291/11850/2766 7292/11849/2766 7294/11851/2766 7293/11852/2766
f 7293/11852/2767 7294/11851/2767 7296/11853/2767 7295/11854/2767
f 7295/11854/2768 7296/11853/2768 7298/11855/2768 7297/11856/2768
f 7297/11856/2769 7298/11855/2769 7300/11857/2769 7299/11858/2769
f 7299/11858/2770 7300/11857/2770 7302/11859/2770 7301/11860/2770
f 7301/11860/2771 7302/11859/2771 7304/11861/2771 7303/11862/2771
f 7303/11862/2772 7304/11861/2772 7306/11863/2772 7305/11864/2772
f 7305/11864/2773 7306/11863/2773 7308/11865/2773 7307/11866/2773
f 7307/11866/2774 7308/11865/2774 7310/11867/2774 7309/11868/2774
f 7309/11868/2775 7310/11867/2775 7312/11869/2775 7311/11870/2775
f 7311/11870/2776 7312/11869/2776 7314/11871/2776 7313/11872/2776
f 7313/11872/2777 7314/11871/2777 7316/11873/2777 7315/11874/2777
f 7315/11874/2778 7316/11873/2778 7318/11875/2778 7317/11876/2778
f 7317/11876/2779 7318/11875/2779 7320/11877/2779 7319/11878/2779
f 7319/11878/2780 7320/11877/2780 7322/11879/2780 7321/11880/2780
f 7321/11880/2781 7322/11879/2781 7324/11881/2781 7323/11882/2781
f 7323/11882/2782 7324/11881/2782 7326/11883/2782 7325/11884/2782
f 7325/11884/2783 7326/11883/2783 7328/11885/2783 7327/11886/2783
f 7327/11886/2784 7328/11885/2784 7330/11887/2784 7329/11888/2784
f 7329/11888/2785 7330/11887/2785 7332/11889/2785 7331/11890/2785
f 7331/11890/2786 7332/11889/2786 7334/11891/2786 7333/11892/2786
f 7333/11892/2787 7334/11891/2787 7336/11893/2787 7335/11894/2787
f 7335/11894/2788 7336/11893/2788 7338/11895/2788 7337/11896/2788
f 7280/11897/2683 7278/11898/2683 7340/11899/2683 7338/11900/2683 7336/11901/2683 7334/11902/2683 7332/11903/2683 7330/11904/2683 7328/11905/2683 7326/11906/2683 7324/11907/2683 7322/11908/2683 7320/11909/2683 7318/11910/2683 7316/11911/2683 7314/11912/2683 7312/11913/2683 7310/11914/2683 7308/11915/2683 7306/11916/2683 7304/11917/2683 7302/11918/2683 7300/11919/2683 7298/11920/2683 7296/11921/2683 7294/11922/2683 7292/11923/2683 7290/11924/2683 7288/11925/2683 7286/11926/2683 7284/11927/2683 7282/11928/2683
f 7337/11896/2789 7338/11895/2789 7340/11929/2789 7339/11930/2789
f 7339/11930/2790 7340/11929/2790 7278/11931/2790 7277/11932/2790
f 7277/11933/2681 7279/11934/2681 7281/11935/2681 7283/11936/2681 7285/11937/2681 7287/11938/2681 7289/11939/2681 7291/11940/2681 7293/11941/2681 7295/11942/2681 7297/11943/2681 7299/11944/2681 7301/11945/2681 7303/11946/2681 7305/11947/2681 7307/11948/2681 7309/11949/2681 7311/11950/2681 7313/11951/2681 7315/11952/2681 7317/11953/2681 7319/11954/2681 7321/11955/2681 7323/11956/2681 7325/11957/2681 7327/11958/2681 7329/11959/2681 7331/11960/2681 7333/11961/2681 7335/11962/2681 7337/11963/2681 7339/11964/2681
f 7341/11965/2791 7342/11966/2791 7344/11967/2791 7343/11968/2791
f 7343/11968/2792 7344/11967/2792 7346/11969/2792 7345/11970/2792
f 7345/11970/2793 7346/11969/2793 7348/11971/2793 7347/11972/2793
f 7347/11972/2794 7348/11971/2794 7350/11973/2794 7349/11974/2794
f 7349/11974/2795 7350/11973/2795 7352/11975/2795 7351/11976/2795
f 7351/11976/2796 7352/11975/2796 7354/11977/2796 7353/11978/2796
f 7353/11978/2797 7354/11977/2797 7356/11979/2797 7355/11980/2797
f 7355/11980/2798 7356/11979/2798 7358/11981/2798 7357/11982/2798
f 7357/11982/2799 7358/11981/2799 7360/11983/2799 7359/11984/2799
f 7359/11984/2800 7360/11983/2800 7362/11985/2800 7361/11986/2800
f 7361/11986/2801 7362/11985/2801 7364/11987/2801 7363/11988/2801
f 7363/11988/2802 7364/11987/2802 7366/11989/2802 7365/11990/2802
f 7365/11990/2803 7366/11989/2803 7368/11991/2803 7367/11992/2803
f 7367/11992/2804 7368/11991/2804 7370/11993/2804 7369/11994/2804
f 7369/11994/2805 7370/11993/2805 7372/11995/2805 7371/11996/2805
f 7371/11996/2806 7372/11995/2806 7374/11997/2806 7373/11998/2806
f 7373/11998/2807 7374/11997/2807 7376/11999/2807 7375/12000/2807
f 7375/12000/2808 7376/11999/2808 7378/12001/2808 7377/12002/2808
f 7377/12002/2809 7378/12001/2809 7380/12003/2809 7379/12004/2809
f 7379/12004/2810 7380/12003/2810 7382/12005/2810 7381/12006/2810
f 7381/12006/2811 7382/12005/2811 7384/12007/2811 7383/12008/2811
f 7383/12008/2812 7384/12007/2812 7386/12009/2812 7385/12010/2812
f 7385/12010/2813 7386/12009/2813 7388/12011/2813 7387/12012/2813
f 7387/12012/2814 7388/12011/2814 7390/12013/2814 7389/12014/2814
f 7389/12014/2815 7390/12013/2815 7392/12015/2815 7391/12016/2815
f 7391/12016/2816 7392/12015/2816 7394/12017/2816 7393/12018/2816
f 7393/12018/2817 7394/12017/2817 7396/12019/2817 7395/12020/2817
f 7395/12020/2818 7396/12019/2818 7398/12021/2818 7397/12022/2818
f 7397/12022/2819 7398/12021/2819 7400/12023/2819 7399/12024/2819
f 7399/12024/2820 7400/12023/2820 7402/12025/2820 7401/12026/2820
f 7344/12027/2683 7342/12028/2683 7404/12029/2683 7402/12030/2683 7400/12031/2683 7398/12032/2683 7396/12033/2683 7394/12034/2683 7392/12035/2683 7390/12036/2683 7388/12037/2683 7386/12038/2683 7384/12039/2683 7382/12040/2683 7380/12041/2683 7378/12042/2683 7376/12043/2683 7374/12044/2683 7372/12045/2683 7370/12046/2683 7368/12047/2683 7366/12048/2683 7364/12049/2683 7362/12050/2683 7360/12051/2683 7358/12052/2683 7356/12053/2683 7354/12054/2683 7352/12055/2683 7350/12056/2683 7348/12057/2683 7346/12058/2683
f 7401/12026/2821 7402/12025/2821 7404/12059/2821 7403/12060/2821
f 7403/12060/2822 7404/12059/2822 7342/12061/2822 7341/12062/2822
f 7341/12063/2681 7343/12064/2681 7345/12065/2681 7347/12066/2681 7349/12067/2681 7351/12068/2681 7353/12069/2681 7355/12070/2681 7357/12071/2681 7359/12072/2681 7361/12073/2681 7363/12074/2681 7365/12075/2681 7367/12076/2681 7369/12077/2681 7371/12078/2681 7373/12079/2681 7375/12080/2681 7377/12081/2681 7379/12082/2681 7381/12083/2681 7383/12084/2681 7385/12085/2681 7387/12086/2681 7389/12087/2681 7391/12088/2681 7393/12089/2681 7395/12090/2681 7397/12091/2681 7399/12092/2681 7401/12093/2681 7403/12094/2681
f 7405/12095/2823 7406/12096/2823 7408/12097/2823 7407/12098/2823
f 7407/12098/2824 7408/12097/2824 7410/12099/2824 7409/12100/2824
f 7409/12100/2825 7410/12099/2825 7412/12101/2825 7411/12102/2825
f 7411/12102/2826 7412/12101/2826 7414/12103/2826 7413/12104/2826
f 7413/12104/2827 7414/12103/2827 7416/12105/2827 7415/12106/2827
f 7415/12106/2828 7416/12105/2828 7418/12107/2828 7417/12108/2828
f 7417/12108/2829 7418/12107/2829 7420/12109/2829 7419/12110/2829
f 7419/12110/2830 7420/12109/2830 7422/12111/2830 7421/12112/2830
f 7421/12112/2831 7422/12111/2831 7424/12113/2831 7423/12114/2831
f 7423/12114/2832 7424/12113/2832 7426/12115/2832 7425/12116/2832
f 7425/12116/2833 7426/12115/2833 7428/12117/2833 7427/12118/2833
f 7427/12118/2834 7428/12117/2834 7430/12119/2834 7429/12120/2834
f 7429/12120/2835 7430/12119/2835 7432/12121/2835 7431/12122/2835
f 7431/12122/2836 7432/12121/2836 7434/12123/2836 7433/12124/2836
f 7433/12124/2837 7434/12123/2837 7436/12125/2837 7435/12126/2837
f 7435/12126/2838 7436/12125/2838 7438/12127/2838 7437/12128/2838
f 7437/12128/2839 7438/12127/2839 7440/12129/2839 7439/12130/2839
f 7439/12130/2840 7440/12129/2840 7442/12131/2840 7441/12132/2840
f 7441/12132/2841 7442/12131/2841 7444/12133/2841 7443/12134/2841
f 7443/12134/2842 7444/12133/2842 7446/12135/2842 7445/12136/2842
f 7445/12136/2843 7446/12135/2843 7448/12137/2843 7447/12138/2843
f 7447/12138/2844 7448/12137/2844 7450/12139/2844 7449/12140/2844
f 7449/12140/2845 7450/12139/2845 7452/12141/2845 7451/12142/2845
f 7451/12142/2846 7452/12141/2846 7454/12143/2846 7453/12144/2846
f 7453/12144/2847 7454/12143/2847 7456/12145/2847 7455/12146/2847
f 7455/12146/2848 7456/12145/2848 7458/12147/2848 7457/12148/2848
f 7457/12148/2849 7458/12147/2849 7460/12149/2849 7459/12150/2849
f 7459/12150/2850 7460/12149/2850 7462/12151/2850 7461/12152/2850
f 7461/12152/2851 7462/12151/2851 7464/12153/2851 7463/12154/2851
f 7463/12154/2852 7464/12153/2852 7466/12155/2852 7465/12156/2852
f 7408/12157/2683 7406/12158/2683 7468/12159/2683 7466/12160/2683 7464/12161/2683 7462/12162/2683 7460/12163/2683 7458/12164/2683 7456/12165/2683 7454/12166/2683 7452/12167/2683 7450/12168/2683 7448/12169/2683 7446/12170/2683 7444/12171/2683 7442/12172/2683 7440/12173/2683 7438/12174/2683 7436/12175/2683 7434/12176/2683 7432/12177/2683 7430/12178/2683 7428/12179/2683 7426/12180/2683 7424/12181/2683 7422/12182/2683 7420/12183/2683 7418/12184/2683 7416/12185/2683 7414/12186/2683 7412/12187/2683 7410/12188/2683
f 7465/12156/2853 7466/12155/2853 7468/12189/2853 7467/12190/2853
f 7467/12190/2854 7468/12189/2854 7406/12191/2854 7405/12192/2854
f 7405/12193/2681 7407/12194/2681 7409/12195/2681 7411/12196/2681 7413/12197/2681 7415/12198/2681 7417/12199/2681 7419/12200/2681 7421/12201/2681 7423/12202/2681 7425/12203/2681 7427/12204/2681 7429/12205/2681 7431/12206/2681 7433/12207/2681 7435/12208/2681 7437/12209/2681 7439/12210/2681 7441/12211/2681 7443/12212/2681 7445/12213/2681 7447/12214/2681 7449/12215/2681 7451/12216/2681 7453/12217/2681 7455/12218/2681 7457/12219/2681 7459/12220/2681 7461/12221/2681 7463/12222/2681 7465/12223/2681 7467/12224/2681
f 7481/12225/2681 7470/12226/2681 7472/12227/2681 7482/12228/2681
f 7482/12228/2682 7472/12227/2682 7476/12229/2682 7483/12230/2682
f 7483/12230/2683 7476/12229/2683 7474/12231/2683 7484/12232/2683
f 7484/12232/2684 7474/12231/2684 7470/12233/2684 7481/12234/2684
f 7471/12235/2685 7475/12236/2685 7473/12237/2685 7469/12238/2685
f 7476/12229/2686 7472/12239/2686 7470/12240/2686 7474/12231/2686
f 7473/12237/2684 7480/12241/2684 7477/12242/2684 7469/12243/2684
f 7475/12236/2683 7479/12244/2683 7480/12241/2683 7473/12237/2683
f 7471/12245/2682 7478/12246/2682 7479/12244/2682 7475/12236/2682
f 7469/12247/2681 7477/12248/2681 7478/12246/2681 7471/12245/2681
f 7480/12241/2684 7484/12232/2684 7481/12234/2684 7477/12242/2684
f 7479/12244/2683 7483/12230/2683 7484/12232/2683 7480/12241/2683
f 7478/12246/2682 7482/12228/2682 7483/12230/2682 7479/12244/2682
f 7477/12248/2855 7481/12225/2855 7482/12228/2855 7478/12246/2855
f 7485/12249/2856 7486/12250/2856 7488/12251/2856 7487/12252/2856
f 7487/12252/2857 7488/12251/2857 7490/12253/2857 7489/12254/2857
f 7489/12254/2858 7490/12253/2858 7492/12255/2858 7491/12256/2858
f 7491/12256/2859 7492/12255/2859 7494/12257/2859 7493/12258/2859
f 7493/12258/2860 7494/12257/2860 7496/12259/2860 7495/12260/2860
f 7495/12260/2861 7496/12259/2861 7498/12261/2861 7497/12262/2861
f 7497/12262/2862 7498/12261/2862 7500/12263/2862 7499/12264/2862
f 7499/12264/2863 7500/12263/2863 7502/12265/2863 7501/12266/2863
f 7501/12266/2864 7502/12265/2864 7504/12267/2864 7503/12268/2864
f 7503/12268/2865 7504/12267/2865 7506/12269/2865 7505/12270/2865
f 7505/12270/2866 7506/12269/2866 7508/12271/2866 7507/12272/2866
f 7507/12272/2867 7508/12271/2867 7510/12273/2867 7509/12274/2867
f 7509/12274/2868 7510/12273/2868 7512/12275/2868 7511/12276/2868
f 7511/12276/2869 7512/12275/2869 7514/12277/2869 7513/12278/2869
f 7513/12278/2870 7514/12277/2870 7516/12279/2870 7515/12280/2870
f 7515/12280/2871 7516/12279/2871 7518/12281/2871 7517/12282/2871
f 7517/12282/2872 7518/12281/2872 7520/12283/2872 7519/12284/2872
f 7519/12284/2873 7520/12283/2873 7522/12285/2873 7521/12286/2873
f 7521/12286/2874 7522/12285/2874 7524/12287/2874 7523/12288/2874
f 7523/12288/2875 7524/12287/2875 7526/12289/2875 7525/12290/2875
f 7525/12290/2876 7526/12289/2876 7528/12291/2876 7527/12292/2876
f 7527/12292/2877 7528/12291/2877 7530/12293/2877 7529/12294/2877
f 7529/12294/2878 7530/12293/2878 7532/12295/2878 7531/12296/2878
f 7531/12296/2879 7532/12295/2879 7534/12297/2879 7533/12298/2879
f 7533/12298/2880 7534/12297/2880 7536/12299/2880 7535/12300/2880
f 7535/12300/2881 7536/12299/2881 7538/12301/2881 7537/12302/2881
f 7537/12302/2882 7538/12301/2882 7540/12303/2882 7539/12304/2882
f 7539/12304/2883 7540/12303/2883 7542/12305/2883 7541/12306/2883
f 7541/12306/2884 7542/12305/2884 7544/12307/2884 7543/12308/2884
f 7543/12308/2885 7544/12307/2885 7546/12309/2885 7545/12310/2885
f 7488/12311/2683 7486/12312/2683 7548/12313/2683 7546/12314/2683 7544/12315/2683 7542/12316/2683 7540/12317/2683 7538/12318/2683 7536/12319/2683 7534/12320/2683 7532/12321/2683 7530/12322/2683 7528/12323/2683 7526/12324/2683 7524/12325/2683 7522/12326/2683 7520/12327/2683 7518/12328/2683 7516/12329/2683 7514/12330/2683 7512/12331/2683 7510/12332/2683 7508/12333/2683 7506/12334/2683 7504/12335/2683 7502/12336/2683 7500/12337/2683 7498/12338/2683 7496/12339/2683 7494/12340/2683 7492/12341/2683 7490/12342/2683
f 7545/12310/2886 7546/12309/2886 7548/12343/2886 7547/12344/2886
f 7547/12344/2887 7548/12343/2887 7486/12345/2887 7485/12346/2887
f 7485/12347/2681 7487/12348/2681 7489/12349/2681 7491/12350/2681 7493/12351/2681 7495/12352/2681 7497/12353/2681 7499/12354/2681 7501/12355/2681 7503/12356/2681 7505/12357/2681 7507/12358/2681 7509/12359/2681 7511/12360/2681 7513/12361/2681 7515/12362/2681 7517/12363/2681 7519/12364/2681 7521/12365/2681 7523/12366/2681 7525/12367/2681 7527/12368/2681 7529/12369/2681 7531/12370/2681 7533/12371/2681 7535/12372/2681 7537/12373/2681 7539/12374/2681 7541/12375/2681 7543/12376/2681 7545/12377/2681 7547/12378/2681
f 7549/12379/2681 7550/12380/2681 7552/12381/2681 7551/12382/2681
f 7551/12382/2682 7552/12381/2682 7556/12383/2682 7555/12384/2682
f 7555/12384/2683 7556/12383/2683 7554/12385/2683 7553/12386/2683
f 7553/12386/2684 7554/12385/2684 7550/12387/2684 7549/12388/2684
f 7551/12389/2685 7555/12384/2685 7553/12386/2685 7549/12390/2685
f 7556/12383/2686 7552/12391/2686 7550/12392/2686 7554/12385/2686
f 7557/12393/2681 7558/12394/2681 7560/12395/2681 7559/12396/2681
f 7559/12396/2682 7560/12395/2682 7564/12397/2682 7563/12398/2682
f 7563/12398/2683 7564/12397/2683 7562/12399/2683 7561/12400/2683
f 7561/12400/2684 7562/12399/2684 7558/12401/2684 7557/12402/2684
f 7574/12403/2888 7573/12404/2888 7568/12405/2888 7567/12406/2888
f 7564/12397/2686 7560/12407/2686 7558/12408/2686 7562/12399/2686
f 7565/12409/2685 7567/12406/2685 7568/12405/2685 7566/12410/2685
f 7573/12404/2684 7583/12411/2684 7566/12412/2684 7568/12405/2684
f 7584/12413/2682 7574/12403/2682 7567/12406/2682 7565/12414/2682
f 7583/12415/2889 7584/12413/2889 7565/12414/2889 7566/12416/2889
f 7557/12393/2681 7559/12396/2681 7588/12417/2681 7579/12418/2681
f 7579/12418/2681 7588/12417/2681 7587/12419/2681 7580/12420/2681
f 7580/12420/2681 7587/12419/2681 7586/12421/2681 7581/12422/2681
f 7581/12422/2681 7586/12421/2681 7585/12423/2681 7582/12424/2681
f 7582/12424/2890 7585/12423/2890 7584/12413/2890 7583/12415/2890
f 7559/12396/2682 7563/12398/2682 7578/12425/2682 7588/12417/2682
f 7588/12417/2682 7578/12425/2682 7577/12426/2682 7587/12419/2682
f 7587/12419/2682 7577/12426/2682 7576/12427/2682 7586/12421/2682
f 7586/12421/2682 7576/12427/2682 7575/12428/2682 7585/12423/2682
f 7585/12423/2682 7575/12428/2682 7574/12403/2682 7584/12413/2682
f 7561/12400/2684 7557/12402/2684 7579/12429/2684 7569/12430/2684
f 7569/12430/2684 7579/12429/2684 7580/12431/2684 7570/12432/2684
f 7570/12432/2684 7580/12431/2684 7581/12433/2684 7571/12434/2684
f 7571/12434/2684 7581/12433/2684 7582/12435/2684 7572/12436/2684
f 7572/12436/2684 7582/12435/2684 7583/12411/2684 7573/12404/2684
f 7563/12398/2891 7561/12400/2891 7569/12430/2891 7578/12425/2891
f 7578/12425/2892 7569/12430/2892 7570/12432/2892 7577/12426/2892
f 7577/12426/2893 7570/12432/2893 7571/12434/2893 7576/12427/2893
f 7576/12427/2894 7571/12434/2894 7572/12436/2894 7575/12428/2894
f 7575/12428/2895 7572/12436/2895 7573/12404/2895 7574/12403/2895
