# Blender v2.80 (sub 75) OBJ File: 'all weapons.blend'
# www.blender.org
v -2.65202 0.11213 40.14067
v -2.65202 0.99834 40.14067
v -2.65202 0.11213 39.85933
v -2.65202 0.99834 39.85933
v 0.86860 0.11213 40.14067
v 0.86860 0.99834 40.14067
v 0.86860 0.11213 39.85933
v 0.86860 0.99834 39.85933
v -2.12490 0.11213 39.85933
v -2.12490 0.99834 39.85933
v -2.12490 0.11213 40.14067
v -2.12490 0.99834 40.14067
v -2.65202 -0.11966 39.85933
v -2.65202 -0.11966 40.14067
v -2.12490 -0.11966 39.85933
v -2.12490 -0.11966 40.14067
v -2.87560 0.41402 39.85933
v -2.87560 0.41402 40.14067
v -2.87560 0.65504 40.14067
v -2.87560 0.65504 39.85933
v -2.87560 0.22192 39.85933
v -2.87560 0.22192 40.14067
v -2.65202 0.71441 40.14067
v -2.65202 0.71441 39.85933
v 0.86860 0.71441 39.85933
v 0.86860 0.71441 40.14067
v -2.12490 0.71441 40.14067
v -2.12490 0.71441 39.85933
v -2.87560 0.57782 40.14067
v -2.87560 0.57782 39.85933
v 3.28809 0.99834 39.85933
v 3.28809 0.99834 40.14067
v 3.28809 0.71441 39.85933
v 3.28809 0.71441 40.14067
v 0.16320 0.99834 39.85933
v 0.16320 0.11213 40.14067
v 0.16320 0.11213 39.85933
v 0.16320 0.99834 40.14067
v 0.16320 0.71441 40.14067
v 0.16320 0.71441 39.85933
v 0.66470 -0.31715 40.14067
v 0.66470 -0.31715 39.85933
v 0.16320 -0.50674 40.14067
v 0.16320 -0.50674 39.85933
v 0.62711 0.01057 39.85933
v 0.16320 -0.11188 39.85933
v 0.62711 0.01057 40.14067
v 0.16320 -0.11188 40.14067
v 0.16320 0.04456 39.85933
v 0.67569 0.10633 39.85933
v 0.67569 0.10633 40.14067
v 0.16320 0.04456 40.14067
v 0.63394 -0.33780 39.91208
v 1.39163 -2.41260 39.91208
v 0.63394 -0.33780 40.08792
v 1.39163 -2.41260 40.08792
v 0.18096 -0.51563 39.91208
v 0.99996 -2.66779 39.91208
v 0.18096 -0.51563 40.08792
v 0.99996 -2.66779 40.08792
v 0.70904 -0.63615 39.91208
v 0.78218 -0.93060 39.91208
v 0.87092 -1.22700 39.91208
v 0.97332 -1.52340 39.91208
v 1.09716 -1.81980 39.91208
v 1.24245 -2.11620 39.91208
v 0.83226 -2.36034 40.08792
v 0.67821 -2.05289 40.08792
v 0.55341 -1.74544 40.08792
v 0.43425 -1.43798 40.08792
v 0.33409 -1.13053 40.08792
v 0.24742 -0.82308 40.08792
v 0.70904 -0.63615 40.08792
v 0.78218 -0.93060 40.08792
v 0.87092 -1.22700 40.08792
v 0.97332 -1.52340 40.08792
v 1.09716 -1.81980 40.08792
v 1.24245 -2.11620 40.08792
v 0.24742 -0.82308 39.91208
v 0.33409 -1.13053 39.91208
v 0.43425 -1.43798 39.91208
v 0.55341 -1.74544 39.91208
v 0.67821 -2.05289 39.91208
v 0.83226 -2.36034 39.91208
v -2.45639 -1.57325 40.10548
v -1.77924 -0.48915 40.10548
v -2.45639 -1.57325 39.89448
v -1.77924 -0.48915 39.89448
v -1.73272 -1.98151 40.10548
v -1.10500 -0.54737 40.10548
v -1.73272 -1.98151 39.89448
v -1.10500 -0.54737 39.89448
v -2.42631 -1.52509 40.10548
v -2.42631 -1.52509 39.89448
v -1.70484 -1.91781 39.89448
v -1.70484 -1.91781 40.10548
v -2.39627 -1.47699 40.10548
v -2.39627 -1.47699 39.89448
v -1.72736 -1.83956 39.89448
v -1.72736 -1.83956 40.10548
v -2.01736 -0.87038 40.10548
v -2.01736 -0.87038 39.89448
v -1.33729 -1.04041 39.89448
v -1.33729 -1.04041 40.10548
v -1.94165 -0.74917 40.10548
v -1.94165 -0.74917 39.89448
v -1.28236 -0.90781 39.89448
v -1.28236 -0.90781 40.10548
v -1.02455 -1.05906 39.89448
v -1.03547 -1.09913 39.89448
v -1.02455 -1.05906 40.10548
v -1.03547 -1.09913 40.10548
v -1.16248 -0.99247 39.89448
v -1.17002 -1.03987 39.89448
v -1.16248 -0.99247 40.10548
v -1.17002 -1.03987 40.10548
v -0.52693 -1.05906 39.89448
v -0.50490 -1.09913 39.89448
v -0.52693 -1.05906 40.10548
v -0.50490 -1.09913 40.10548
v -0.31885 -0.53985 39.89448
v -0.16635 -0.53985 39.89448
v -0.31885 -0.53985 40.10548
v -0.16635 -0.53985 40.10548
v -0.46490 -0.99038 40.10548
v -0.46490 -0.99038 39.89448
v -0.42561 -1.02515 40.10548
v -0.42561 -1.02515 39.89448
v -0.43286 -0.88736 40.10548
v -0.36985 -0.91484 40.10548
v -0.36985 -0.91484 39.89448
v -0.43286 -0.88736 39.89448
v -0.37604 -0.71416 40.10548
v -0.29616 -0.71963 40.10548
v -0.29616 -0.71963 39.89448
v -0.37604 -0.71416 39.89448
v -0.34745 -0.62701 40.10548
v -0.25067 -0.62489 40.10548
v -0.25067 -0.62489 39.89448
v -0.34745 -0.62701 39.89448
v -0.40445 -0.80076 39.89448
v -0.40445 -0.80076 40.10548
v -0.33439 -0.80822 40.10548
v -0.33439 -0.80822 39.89448
v -1.81339 -0.55384 40.12306
v -1.81339 0.14951 40.12306
v -1.81339 -0.55384 39.87689
v -1.81339 0.14951 39.87689
v 0.18729 -0.53986 40.12306
v 0.18729 0.14951 40.12306
v 0.18729 -0.53986 39.87689
v 0.18729 0.14951 39.87689
v -2.15252 -0.18037 39.87689
v -2.15252 -0.18037 40.12306
v -2.15252 0.14951 40.12306
v -2.15252 0.14951 39.87689
v -1.98296 0.14951 39.87689
v -1.98296 0.14951 40.12306
v -1.98296 -0.17742 40.12306
v -1.98296 -0.17742 39.87689
v -1.89817 0.14951 40.12306
v -1.89817 -0.22669 39.87689
v -1.89817 0.14951 39.87689
v -1.89817 -0.22669 40.12306
v -1.85578 0.14951 40.12306
v -1.84663 -0.31081 39.87689
v -1.85578 0.14951 39.87689
v -1.84663 -0.31081 40.12306
v -2.06774 0.14951 39.87689
v -2.06774 -0.17807 40.12306
v -2.06774 0.14951 40.12306
v -2.06774 -0.17807 39.87689
v 0.83081 -0.05387 40.15823
v 0.83988 0.75270 40.15823
v 0.83081 -0.05387 39.84172
v 0.83988 0.75270 39.84172
v 3.33094 0.23503 40.15823
v 3.28801 0.74878 40.15823
v 3.33094 0.23503 39.84172
v 3.28801 0.74878 39.84172
v -4.34032 -0.83903 40.14065
v -4.19788 0.71240 40.14065
v -4.34032 -0.83903 39.85931
v -4.19788 0.71240 39.85931
v -4.03098 -1.03142 40.14065
v -3.47728 0.74518 40.14065
v -4.03098 -1.03142 39.85931
v -3.47728 0.74518 39.85931
v -4.23100 -0.24743 40.14065
v -4.23100 -0.24743 39.85931
v -3.77453 -0.36798 39.85931
v -3.77453 -0.36798 40.14065
v -4.28566 -0.54323 39.85931
v -3.82616 -0.75145 39.85931
v -3.82616 -0.75145 40.14065
v -4.28566 -0.54323 40.14065
v -4.32776 -0.77107 39.85931
v -3.93631 -0.98366 39.85931
v -3.93631 -0.98366 40.14065
v -4.32776 -0.77107 40.14065
v -4.30421 -0.64364 40.14065
v -4.30421 -0.64364 39.85931
v -3.91639 -0.84649 39.85931
v -3.91639 -0.84649 40.14065
v -4.16756 -0.90798 39.85931
v -3.91472 0.76415 39.85931
v -4.16756 -0.90798 40.14065
v -3.91472 0.76415 40.14065
v -4.00357 -0.30749 40.14065
v -4.00357 -0.30749 39.85931
v -4.05671 -0.64698 39.85931
v -4.05671 -0.64698 40.14065
v -4.13272 -0.87699 40.14065
v -4.13272 -0.87699 39.85931
v -4.11098 -0.74471 40.14065
v -4.11098 -0.74471 39.85931
v -4.27378 -0.47898 40.14065
v -4.27378 -0.47898 39.85931
v -3.85918 -0.64463 39.85931
v -3.85918 -0.64463 40.14065
v -4.04517 -0.57323 39.85931
v -4.04517 -0.57323 40.14065
v -4.24056 -0.29918 40.14065
v -4.24056 -0.29918 39.85931
v -3.77638 -0.42735 39.85931
v -3.77638 -0.42735 40.14065
v -4.01286 -0.36688 39.85931
v -4.01286 -0.36688 40.14065
v -4.26656 -0.43987 39.85931
v -3.83408 -0.59976 39.85931
v -3.83408 -0.59976 40.14065
v -4.03814 -0.52835 39.85931
v -4.03814 -0.52835 40.14065
v -4.26656 -0.43987 40.14065
v -3.66118 -0.64521 39.85931
v -3.66118 -0.64521 40.14065
v -3.72612 -0.64985 39.85931
v -3.72612 -0.64985 40.14065
v -3.69297 -0.56395 40.14065
v -3.69297 -0.56395 39.85931
v -3.72873 -0.60099 39.85931
v -3.72873 -0.60099 40.14065
v -3.74197 -0.53058 39.85931
v -3.78326 -0.59080 40.14065
v -3.74197 -0.53058 40.14065
v -3.78326 -0.59080 39.85931
v -3.67098 -0.70671 39.85931
v -3.67098 -0.70671 40.14065
v -3.73014 -0.69402 39.85931
v -3.73014 -0.69402 40.14065
v -3.85419 -0.77910 39.85931
v -3.85419 -0.77910 40.14065
v -3.85384 -0.70690 39.85931
v -3.85384 -0.70690 40.14065
v -3.78823 -0.70277 40.14065
v -3.76259 -0.75850 40.14065
v -3.76259 -0.75850 39.85931
v -3.78823 -0.70277 39.85931
v -3.69772 -0.74214 40.14065
v -3.69772 -0.74214 39.85931
v -3.75543 -0.70070 40.14065
v -3.75543 -0.70070 39.85931
v -4.22429 -0.88533 39.85931
v -4.02669 0.71610 40.14065
v -4.07825 -0.28777 40.14065
v -4.13190 -0.61291 40.14065
v -4.19677 -0.84221 40.14065
v -4.17444 -0.71152 40.14065
v -4.02669 0.71610 39.85931
v -4.22429 -0.88533 40.14065
v -4.07825 -0.28777 39.85931
v -4.13190 -0.61291 39.85931
v -4.19677 -0.84221 39.85931
v -4.17444 -0.71152 39.85931
v -4.12024 -0.54228 39.85931
v -4.12024 -0.54228 40.14065
v -4.08764 -0.34465 39.85931
v -4.08764 -0.34465 40.14065
v -4.11315 -0.49930 40.14065
v -4.11315 -0.49930 39.85931
v -4.21990 0.07409 40.14065
v -4.21990 0.07409 39.85931
v -3.67496 0.00491 39.85931
v -3.67496 0.00491 40.14065
v -3.97381 0.05149 40.14065
v -3.97381 0.05149 39.85931
v -4.06098 0.04851 39.85931
v -4.06098 0.04851 40.14065
v -2.99699 0.71656 39.85931
v -2.99699 0.71656 40.14065
v -3.00835 0.18330 39.85931
v -3.00835 0.18330 40.14065
v -3.28606 0.73378 40.14065
v -3.28606 0.73378 39.85931
v -3.40955 0.18151 39.85931
v -3.40955 0.18151 40.14065
v -3.38167 0.73948 39.85931
v -3.54225 0.11391 39.85931
v -3.54225 0.11391 40.14065
v -3.38167 0.73948 40.14065
v -2.92026 -0.18183 40.07034
v -2.93794 0.23013 40.07034
v -2.92026 -0.18183 39.92966
v -2.93794 0.23013 39.92966
v -2.72066 -0.17320 40.07034
v -2.85987 0.21978 40.07034
v -2.72066 -0.17320 39.92966
v -2.85987 0.21978 39.92966
v -2.93220 -0.11597 40.07034
v -2.93220 -0.11597 39.92966
v -2.70767 -0.11054 39.92966
v -2.70767 -0.11054 40.07034
v -2.82046 -0.21029 39.92966
v -2.89411 0.22496 39.92966
v -2.82046 -0.21029 40.07034
v -2.89411 0.22496 40.07034
v -2.81454 -0.11325 40.07034
v -2.81454 -0.11325 39.92966
v -2.93794 0.60152 40.07034
v -2.93794 0.60152 39.92966
v -2.89411 0.60152 39.92966
v -2.85987 0.60152 39.92966
v -2.85987 0.60152 40.07034
v -2.89411 0.60152 40.07034
v -2.93578 0.09954 40.07034
v -2.93578 0.09954 39.92966
v -2.85276 0.09515 39.92966
v -2.85276 0.09515 40.07034
v -2.90722 0.09734 40.07034
v -2.90722 0.09734 39.92966
v -3.00177 0.23013 40.07034
v -3.00177 0.23013 39.92966
v -3.00177 0.60152 40.07034
v -3.00177 0.60152 39.92966
v -0.80668 -1.00258 40.01758
v -0.95404 -0.49960 40.01758
v -0.80668 -1.00258 39.98242
v -0.95404 -0.49960 39.98242
v -0.77186 -0.97088 40.01758
v -0.76343 -0.49960 40.01758
v -0.77186 -0.97088 39.98242
v -0.76343 -0.49960 39.98242
v -0.95404 -0.84137 40.01758
v -0.95404 -0.84137 39.98242
v -0.86177 -0.84137 39.98242
v -0.86177 -0.84137 40.01758
v -0.90573 -0.93080 39.98242
v -0.79103 -0.93080 39.98242
v -0.79103 -0.93080 40.01758
v -0.90573 -0.93080 40.01758
v -0.95404 -0.67048 40.01758
v -0.95404 -0.67048 39.98242
v -0.86168 -0.67048 39.98242
v -0.86168 -0.67048 40.01758
v 3.27158 0.45134 39.89761
v 4.15379 0.45134 39.89761
v 3.27158 0.43137 39.89958
v 4.15379 0.43137 39.89958
v 3.27158 0.41216 39.90540
v 4.15379 0.41216 39.90540
v 3.27158 0.39446 39.91487
v 4.15379 0.39446 39.91487
v 3.27158 0.37894 39.92760
v 4.15379 0.37894 39.92760
v 3.27158 0.36620 39.94311
v 4.15379 0.36620 39.94311
v 3.27158 0.35674 39.96082
v 4.15379 0.35674 39.96082
v 3.27158 0.35091 39.98003
v 4.15379 0.35091 39.98003
v 3.27158 0.34895 40.00000
v 4.15379 0.34895 40.00000
v 3.27158 0.35091 40.01998
v 4.15379 0.35091 40.01998
v 3.27158 0.35674 40.03919
v 4.15379 0.35674 40.03919
v 3.27158 0.36620 40.05689
v 4.15379 0.36620 40.05689
v 3.27158 0.37894 40.07241
v 4.15379 0.37894 40.07241
v 3.27158 0.39446 40.08514
v 4.15379 0.39446 40.08514
v 3.27158 0.41216 40.09461
v 4.15379 0.41216 40.09461
v 3.27158 0.43137 40.10043
v 4.15379 0.43137 40.10043
v 3.27158 0.45134 40.10240
v 4.15379 0.45134 40.10240
v 3.27158 0.47132 40.10043
v 4.15379 0.47132 40.10043
v 3.27158 0.49053 40.09461
v 4.15379 0.49053 40.09461
v 3.27158 0.50823 40.08514
v 4.15379 0.50823 40.08514
v 3.27158 0.52375 40.07241
v 4.15379 0.52375 40.07241
v 3.27158 0.53648 40.05689
v 4.15379 0.53648 40.05689
v 3.27158 0.54595 40.03919
v 4.15379 0.54595 40.03919
v 3.27158 0.55177 40.01998
v 4.15379 0.55177 40.01998
v 3.27158 0.55374 40.00000
v 4.15379 0.55374 40.00000
v 3.27158 0.55177 39.98003
v 4.15379 0.55177 39.98003
v 3.27158 0.54595 39.96082
v 4.15379 0.54595 39.96082
v 3.27158 0.53648 39.94311
v 4.15379 0.53648 39.94311
v 3.27158 0.52375 39.92760
v 4.15379 0.52375 39.92760
v 3.27158 0.50823 39.91487
v 4.15379 0.50823 39.91487
v 3.27158 0.49053 39.90540
v 4.15379 0.49053 39.90540
v 3.27158 0.47132 39.89958
v 4.15379 0.47132 39.89958
v 3.36748 0.28555 40.10550
v 3.36748 1.43853 40.10550
v 3.36748 0.28555 39.89450
v 3.36748 1.43853 39.89450
v 3.60216 0.28555 40.10550
v 3.52018 1.43853 40.10550
v 3.60216 0.28555 39.89450
v 3.52018 1.43853 39.89450
v 3.36748 1.21738 40.10550
v 3.36748 1.21738 39.89450
v 3.60216 1.21738 39.89450
v 3.60216 1.21738 40.10550
v 3.61216 0.45134 39.85552
v 4.19072 0.45134 39.85552
v 3.61216 0.42316 39.85830
v 4.19072 0.42316 39.85830
v 3.61216 0.39605 39.86652
v 4.19072 0.39605 39.86652
v 3.61216 0.37107 39.87987
v 4.19072 0.37107 39.87987
v 3.61216 0.34918 39.89784
v 4.19072 0.34918 39.89784
v 3.61216 0.33121 39.91974
v 4.19072 0.33121 39.91974
v 3.61216 0.31786 39.94471
v 4.19072 0.31786 39.94471
v 3.61216 0.30964 39.97182
v 4.19072 0.30964 39.97182
v 3.61216 0.30686 40.00000
v 4.19072 0.30686 40.00000
v 3.61216 0.30964 40.02819
v 4.19072 0.30964 40.02819
v 3.61216 0.31786 40.05530
v 4.19072 0.31786 40.05530
v 3.61216 0.33121 40.08028
v 4.19072 0.33121 40.08028
v 3.61216 0.34918 40.10217
v 4.19072 0.34918 40.10217
v 3.61216 0.37107 40.12014
v 4.19072 0.37107 40.12014
v 3.61216 0.39605 40.13349
v 4.19072 0.39605 40.13349
v 3.61216 0.42316 40.14171
v 4.19072 0.42316 40.14171
v 3.61216 0.45134 40.14449
v 4.19072 0.45134 40.14449
v 3.61216 0.47953 40.14171
v 4.19072 0.47953 40.14171
v 3.61216 0.50663 40.13349
v 4.19072 0.50663 40.13349
v 3.61216 0.53161 40.12014
v 4.19072 0.53161 40.12014
v 3.61216 0.55351 40.10217
v 4.19072 0.55351 40.10217
v 3.61216 0.57148 40.08028
v 4.19072 0.57148 40.08028
v 3.61216 0.58483 40.05530
v 4.19072 0.58483 40.05530
v 3.61216 0.59305 40.02819
v 4.19072 0.59305 40.02819
v 3.61216 0.59583 40.00000
v 4.19072 0.59583 40.00000
v 3.61216 0.59305 39.97182
v 4.19072 0.59305 39.97182
v 3.61216 0.58483 39.94471
v 4.19072 0.58483 39.94471
v 3.61216 0.57148 39.91974
v 4.19072 0.57148 39.91974
v 3.61216 0.55351 39.89784
v 4.19072 0.55351 39.89784
v 3.61216 0.53161 39.87987
v 4.19072 0.53161 39.87987
v 3.61216 0.50663 39.86652
v 4.19072 0.50663 39.86652
v 3.61216 0.47953 39.85830
v 4.19072 0.47953 39.85830
vt 0.87500 0.75000
vt 0.87500 0.50000
vt 0.87500 0.50000
vt 0.87500 0.75000
vt 0.54490 0.45553
vt 0.62500 0.45553
vt 0.62500 0.50000
vt 0.54490 0.50000
vt 0.62500 0.50000
vt 0.54490 0.50000
vt 0.54490 0.93870
vt 0.62500 0.93870
vt 0.62500 1.00000
vt 0.54490 1.00000
vt 0.37500 0.45553
vt 0.37500 0.50000
vt 0.37500 0.50000
vt 0.37500 0.45553
vt 0.81370 0.50000
vt 0.81370 0.75000
vt 0.66947 0.50000
vt 0.66947 0.75000
vt 0.37500 0.25000
vt 0.37500 0.31130
vt 0.37500 0.31130
vt 0.37500 0.25000
vt 0.54490 0.79447
vt 0.62500 0.79447
vt 0.54490 0.25000
vt 0.62500 0.25000
vt 0.62500 0.31130
vt 0.54490 0.31130
vt 0.12500 0.50000
vt 0.18630 0.50000
vt 0.18630 0.75000
vt 0.12500 0.75000
vt 0.37500 1.00000
vt 0.37500 1.00000
vt 0.37500 1.00000
vt 0.37500 1.00000
vt 0.37500 0.93870
vt 0.37500 0.93870
vt 0.18630 0.50000
vt 0.18630 0.75000
vt 0.54490 0.00000
vt 0.62500 0.00000
vt 0.62500 0.25000
vt 0.54490 0.25000
vt 0.37500 0.00000
vt 0.37500 0.25000
vt 0.37500 0.25000
vt 0.37500 0.00000
vt 0.12500 0.75000
vt 0.12500 0.50000
vt 0.62500 1.00000
vt 0.54490 1.00000
vt 0.37500 0.79447
vt 0.37500 0.50000
vt 0.54490 0.75000
vt 0.37500 0.75000
vt 0.37500 0.45553
vt 0.62500 0.75000
vt 0.54490 0.75000
vt 0.62500 0.75000
vt 0.33053 0.50000
vt 0.33053 0.75000
vt 0.33053 0.50000
vt 0.37500 0.75000
vt 0.33053 0.75000
vt 0.37500 0.75000
vt 0.37500 0.79447
vt 0.37500 0.79447
vt 0.33053 0.75000
vt 0.33053 0.50000
vt 0.33053 0.75000
vt 0.33053 0.50000
vt 0.37500 0.75000
vt 0.37500 0.79447
vt 0.37500 0.50000
vt 0.37500 0.45553
vt 0.37500 0.00000
vt 0.62500 0.00000
vt 0.62500 0.25000
vt 0.37500 0.25000
vt 0.58929 0.25000
vt 0.62500 0.25000
vt 0.62500 0.50000
vt 0.58929 0.50000
vt 0.62500 0.75000
vt 0.58929 0.75000
vt 0.37500 0.75000
vt 0.62500 0.75000
vt 0.62500 1.00000
vt 0.37500 1.00000
vt 0.33929 0.50000
vt 0.37500 0.50000
vt 0.37500 0.75000
vt 0.33929 0.75000
vt 0.83929 0.50000
vt 0.87500 0.50000
vt 0.87500 0.75000
vt 0.83929 0.75000
vt 0.62500 0.50000
vt 0.66071 0.50000
vt 0.66071 0.75000
vt 0.69643 0.50000
vt 0.69643 0.75000
vt 0.73214 0.50000
vt 0.73214 0.75000
vt 0.76786 0.50000
vt 0.76786 0.75000
vt 0.80357 0.50000
vt 0.80357 0.75000
vt 0.12500 0.50000
vt 0.16071 0.50000
vt 0.16071 0.75000
vt 0.12500 0.75000
vt 0.19643 0.50000
vt 0.19643 0.75000
vt 0.23214 0.50000
vt 0.23214 0.75000
vt 0.26786 0.50000
vt 0.26786 0.75000
vt 0.30357 0.50000
vt 0.30357 0.75000
vt 0.37500 0.50000
vt 0.41071 0.50000
vt 0.41071 0.75000
vt 0.44643 0.50000
vt 0.44643 0.75000
vt 0.48214 0.50000
vt 0.48214 0.75000
vt 0.51786 0.50000
vt 0.51786 0.75000
vt 0.55357 0.50000
vt 0.55357 0.75000
vt 0.37500 0.25000
vt 0.41071 0.25000
vt 0.44643 0.25000
vt 0.48214 0.25000
vt 0.51786 0.25000
vt 0.55357 0.25000
vt 0.56504 0.00000
vt 0.62500 0.00000
vt 0.62500 0.25000
vt 0.56504 0.25000
vt 0.62500 0.50000
vt 0.56504 0.50000
vt 0.62500 0.75000
vt 0.56504 0.75000
vt 0.62500 1.00000
vt 0.56504 1.00000
vt 0.12500 0.50000
vt 0.37500 0.50000
vt 0.37500 0.75000
vt 0.12500 0.75000
vt 0.87500 0.50000
vt 0.87500 0.75000
vt 0.38610 0.75000
vt 0.38610 1.00000
vt 0.37500 1.00000
vt 0.38610 0.50000
vt 0.37500 0.25000
vt 0.38610 0.25000
vt 0.37500 0.00000
vt 0.38610 0.00000
vt 0.39720 0.75000
vt 0.39720 1.00000
vt 0.39720 0.50000
vt 0.39720 0.25000
vt 0.39720 0.00000
vt 0.53709 0.75000
vt 0.53709 1.00000
vt 0.53709 0.50000
vt 0.53709 0.25000
vt 0.53709 0.00000
vt 0.53709 0.50000
vt 0.56504 0.50000
vt 0.56504 0.50000
vt 0.53709 0.50000
vt 0.53709 0.75000
vt 0.53709 0.50000
vt 0.53709 0.75000
vt 0.56504 0.75000
vt 0.56504 0.75000
vt 0.53709 0.75000
vt 0.56504 0.50000
vt 0.56504 0.75000
vt 0.56504 0.75000
vt 0.56504 0.50000
vt 0.56504 0.50000
vt 0.56504 0.75000
vt 0.53709 0.50000
vt 0.53709 0.75000
vt 0.53709 0.75000
vt 0.53709 0.50000
vt 0.56504 0.50000
vt 0.53709 0.50000
vt 0.53709 0.75000
vt 0.56504 0.75000
vt 0.56504 0.50000
vt 0.53709 0.50000
vt 0.53709 0.75000
vt 0.56504 0.75000
vt 0.53709 0.50000
vt 0.56504 0.50000
vt 0.56504 0.50000
vt 0.53709 0.50000
vt 0.53709 0.75000
vt 0.53709 0.75000
vt 0.56504 0.75000
vt 0.56504 0.75000
vt 0.87500 0.75000
vt 0.87500 0.50000
vt 0.87500 0.50000
vt 0.87500 0.75000
vt 0.37500 0.25000
vt 0.62500 0.25000
vt 0.62500 0.50000
vt 0.37500 0.50000
vt 0.62500 0.75000
vt 0.37500 0.75000
vt 0.62500 1.00000
vt 0.37500 1.00000
vt 0.12500 0.50000
vt 0.12500 0.75000
vt 0.87500 0.50000
vt 0.87500 0.75000
vt 0.37500 0.00000
vt 0.62500 0.00000
vt 0.62500 0.25000
vt 0.37500 0.25000
vt 0.12500 0.50000
vt 0.12500 0.75000
vt 0.12500 0.75000
vt 0.12500 0.50000
vt 0.62500 0.25000
vt 0.37500 0.25000
vt 0.37500 1.00000
vt 0.62500 1.00000
vt 0.62500 1.00000
vt 0.37500 1.00000
vt 0.37500 1.00000
vt 0.62500 1.00000
vt 0.62500 1.00000
vt 0.37500 1.00000
vt 0.62500 0.25000
vt 0.37500 0.25000
vt 0.37500 0.25000
vt 0.62500 0.25000
vt 0.12500 0.50000
vt 0.12500 0.75000
vt 0.12500 0.75000
vt 0.12500 0.50000
vt 0.87500 0.75000
vt 0.87500 0.50000
vt 0.87500 0.50000
vt 0.87500 0.75000
vt 0.87500 0.75000
vt 0.87500 0.50000
vt 0.12500 0.50000
vt 0.12500 0.75000
vt 0.62500 0.25000
vt 0.37500 0.25000
vt 0.37500 1.00000
vt 0.62500 1.00000
vt 0.37500 0.00000
vt 0.62500 0.00000
vt 0.62500 0.25000
vt 0.37500 0.25000
vt 0.62500 0.50000
vt 0.37500 0.50000
vt 0.62500 0.75000
vt 0.37500 0.75000
vt 0.62500 1.00000
vt 0.37500 1.00000
vt 0.12500 0.50000
vt 0.12500 0.75000
vt 0.87500 0.50000
vt 0.87500 0.75000
vt 0.52083 0.00000
vt 0.62500 0.00000
vt 0.62500 0.25000
vt 0.52083 0.25000
vt 0.52083 0.37456
vt 0.62500 0.37456
vt 0.62500 0.50000
vt 0.52083 0.50000
vt 0.62500 0.50000
vt 0.62500 0.75000
vt 0.62500 0.75000
vt 0.62500 0.50000
vt 0.52083 0.91634
vt 0.62500 0.91634
vt 0.62500 1.00000
vt 0.52083 1.00000
vt 0.24956 0.50000
vt 0.37500 0.50000
vt 0.37500 0.75000
vt 0.24956 0.75000
vt 0.79134 0.50000
vt 0.87500 0.50000
vt 0.87500 0.75000
vt 0.79134 0.75000
vt 0.46019 0.91634
vt 0.46836 0.91634
vt 0.46836 1.00000
vt 0.46019 1.00000
vt 0.46019 0.50000
vt 0.46836 0.50000
vt 0.46836 0.75000
vt 0.46019 0.75000
vt 0.46019 0.37456
vt 0.46836 0.37456
vt 0.46019 0.00000
vt 0.46836 0.00000
vt 0.46836 0.25000
vt 0.46019 0.25000
vt 0.40583 0.00000
vt 0.42168 0.00000
vt 0.42168 0.25000
vt 0.40583 0.25000
vt 0.40583 0.37456
vt 0.42168 0.37456
vt 0.42168 0.50000
vt 0.40583 0.50000
vt 0.42168 0.75000
vt 0.40583 0.75000
vt 0.40583 0.91634
vt 0.42168 0.91634
vt 0.42168 1.00000
vt 0.40583 1.00000
vt 0.37500 0.91634
vt 0.38572 0.91634
vt 0.38572 1.00000
vt 0.37500 1.00000
vt 0.38572 0.50000
vt 0.38572 0.75000
vt 0.37500 0.37456
vt 0.38572 0.37456
vt 0.37500 0.00000
vt 0.38572 0.00000
vt 0.38572 0.25000
vt 0.37500 0.25000
vt 0.38572 0.33366
vt 0.40583 0.33366
vt 0.40583 0.87544
vt 0.38572 0.87544
vt 0.37500 0.33366
vt 0.37500 0.87544
vt 0.42168 0.87544
vt 0.42168 0.33366
vt 0.46019 0.33366
vt 0.46836 0.33366
vt 0.46836 0.87544
vt 0.46019 0.87544
vt 0.75044 0.50000
vt 0.75044 0.75000
vt 0.62500 0.75000
vt 0.20866 0.50000
vt 0.20866 0.75000
vt 0.52083 0.75000
vt 0.62500 0.87544
vt 0.52083 0.87544
vt 0.52083 0.33366
vt 0.62500 0.33366
vt 0.43182 0.75000
vt 0.43182 0.87544
vt 0.43182 0.33366
vt 0.43182 0.37456
vt 0.43182 0.00000
vt 0.43182 0.25000
vt 0.43182 0.50000
vt 0.43182 0.91634
vt 0.43182 1.00000
vt 0.43799 0.75000
vt 0.43799 0.87544
vt 0.43799 0.33366
vt 0.43799 0.37456
vt 0.43799 0.00000
vt 0.43799 0.25000
vt 0.43799 0.50000
vt 0.46019 0.50000
vt 0.46019 0.75000
vt 0.46019 0.75000
vt 0.46019 0.50000
vt 0.43799 0.91634
vt 0.43799 1.00000
vt 0.43799 0.75000
vt 0.43799 0.75000
vt 0.46019 0.75000
vt 0.43799 0.75000
vt 0.43799 0.50000
vt 0.43799 0.50000
vt 0.46019 0.75000
vt 0.43799 0.75000
vt 0.43799 0.50000
vt 0.46019 0.50000
vt 0.46019 0.75000
vt 0.43799 0.75000
vt 0.43799 0.75000
vt 0.46019 0.75000
vt 0.46019 0.50000
vt 0.43799 0.50000
vt 0.43799 0.50000
vt 0.46019 0.50000
vt 0.46019 0.50000
vt 0.43799 0.50000
vt 0.43799 0.50000
vt 0.46019 0.50000
vt 0.43799 0.75000
vt 0.46019 0.75000
vt 0.12500 0.50000
vt 0.12500 0.75000
vt 0.52083 0.50000
vt 0.52083 0.75000
vt 0.52083 0.50000
vt 0.52083 0.75000
vt 0.62500 0.75000
vt 0.52083 0.75000
vt 0.52083 0.50000
vt 0.62500 0.50000
vt 0.54656 0.00000
vt 0.62500 0.00000
vt 0.62500 0.25000
vt 0.54656 0.25000
vt 0.54656 0.37500
vt 0.62500 0.37500
vt 0.62500 0.50000
vt 0.54656 0.50000
vt 0.62500 0.75000
vt 0.54656 0.75000
vt 0.54656 0.87500
vt 0.62500 0.87500
vt 0.62500 1.00000
vt 0.54656 1.00000
vt 0.25000 0.50000
vt 0.37500 0.50000
vt 0.37500 0.75000
vt 0.25000 0.75000
vt 0.62500 0.87500
vt 0.62500 1.00000
vt 0.37500 0.87500
vt 0.41710 0.87500
vt 0.41710 1.00000
vt 0.37500 1.00000
vt 0.41710 0.50000
vt 0.41710 0.75000
vt 0.37500 0.37500
vt 0.41710 0.37500
vt 0.37500 0.00000
vt 0.41710 0.00000
vt 0.41710 0.25000
vt 0.37500 0.25000
vt 0.62500 0.00000
vt 0.62500 0.25000
vt 0.12500 0.50000
vt 0.12500 0.75000
vt 0.75000 0.50000
vt 0.87500 0.50000
vt 0.87500 0.75000
vt 0.75000 0.75000
vt 0.62500 0.50000
vt 0.62500 0.75000
vt 0.62500 0.37500
vt 0.62500 0.25000
vt 0.62500 0.00000
vt 0.62500 0.25000
vt 0.87500 0.50000
vt 0.87500 0.75000
vt 0.62500 1.00000
vt 0.62500 1.00000
vt 0.54067 0.00000
vt 0.62500 0.00000
vt 0.62500 0.25000
vt 0.54067 0.25000
vt 0.62500 0.50000
vt 0.54067 0.50000
vt 0.62500 0.75000
vt 0.54067 0.75000
vt 0.62500 1.00000
vt 0.54067 1.00000
vt 0.12500 0.50000
vt 0.37500 0.50000
vt 0.37500 0.75000
vt 0.12500 0.75000
vt 0.87500 0.50000
vt 0.87500 0.75000
vt 0.41221 0.75000
vt 0.45634 0.75000
vt 0.45634 1.00000
vt 0.41221 1.00000
vt 0.41221 0.50000
vt 0.45634 0.50000
vt 0.41221 0.25000
vt 0.45634 0.25000
vt 0.41221 0.00000
vt 0.45634 0.00000
vt 0.37500 0.00000
vt 0.37500 0.25000
vt 0.37500 1.00000
vt 1.00000 0.50000
vt 1.00000 1.00000
vt 0.96875 1.00000
vt 0.96875 0.50000
vt 0.93750 1.00000
vt 0.93750 0.50000
vt 0.90625 1.00000
vt 0.90625 0.50000
vt 0.87500 1.00000
vt 0.87500 0.50000
vt 0.84375 1.00000
vt 0.84375 0.50000
vt 0.81250 1.00000
vt 0.81250 0.50000
vt 0.78125 1.00000
vt 0.78125 0.50000
vt 0.75000 1.00000
vt 0.75000 0.50000
vt 0.71875 1.00000
vt 0.71875 0.50000
vt 0.68750 1.00000
vt 0.68750 0.50000
vt 0.65625 1.00000
vt 0.65625 0.50000
vt 0.62500 1.00000
vt 0.62500 0.50000
vt 0.59375 1.00000
vt 0.59375 0.50000
vt 0.56250 1.00000
vt 0.56250 0.50000
vt 0.53125 1.00000
vt 0.53125 0.50000
vt 0.50000 1.00000
vt 0.50000 0.50000
vt 0.46875 1.00000
vt 0.46875 0.50000
vt 0.43750 1.00000
vt 0.43750 0.50000
vt 0.40625 1.00000
vt 0.40625 0.50000
vt 0.37500 1.00000
vt 0.37500 0.50000
vt 0.34375 1.00000
vt 0.34375 0.50000
vt 0.31250 1.00000
vt 0.31250 0.50000
vt 0.28125 1.00000
vt 0.28125 0.50000
vt 0.25000 1.00000
vt 0.25000 0.50000
vt 0.21875 1.00000
vt 0.21875 0.50000
vt 0.18750 1.00000
vt 0.18750 0.50000
vt 0.15625 1.00000
vt 0.15625 0.50000
vt 0.12500 1.00000
vt 0.12500 0.50000
vt 0.09375 1.00000
vt 0.09375 0.50000
vt 0.06250 1.00000
vt 0.06250 0.50000
vt 0.29682 0.48539
vt 0.25000 0.49000
vt 0.20318 0.48539
vt 0.15816 0.47173
vt 0.11666 0.44955
vt 0.08030 0.41971
vt 0.05045 0.38334
vt 0.02827 0.34184
vt 0.01461 0.29682
vt 0.01000 0.25000
vt 0.01461 0.20318
vt 0.02827 0.15816
vt 0.05045 0.11666
vt 0.08029 0.08029
vt 0.11666 0.05045
vt 0.15816 0.02827
vt 0.20318 0.01461
vt 0.25000 0.01000
vt 0.29682 0.01461
vt 0.34184 0.02827
vt 0.38334 0.05045
vt 0.41971 0.08029
vt 0.44955 0.11666
vt 0.47173 0.15816
vt 0.48539 0.20318
vt 0.49000 0.25000
vt 0.48539 0.29682
vt 0.47173 0.34184
vt 0.44955 0.38334
vt 0.41971 0.41971
vt 0.38334 0.44955
vt 0.34184 0.47173
vt 0.03125 1.00000
vt 0.03125 0.50000
vt 0.00000 1.00000
vt 0.00000 0.50000
vt 0.75000 0.49000
vt 0.79682 0.48539
vt 0.84184 0.47173
vt 0.88334 0.44955
vt 0.91971 0.41971
vt 0.94955 0.38334
vt 0.97173 0.34184
vt 0.98539 0.29682
vt 0.99000 0.25000
vt 0.98539 0.20318
vt 0.97173 0.15816
vt 0.94955 0.11666
vt 0.91971 0.08029
vt 0.88334 0.05045
vt 0.84184 0.02827
vt 0.79682 0.01461
vt 0.75000 0.01000
vt 0.70318 0.01461
vt 0.65816 0.02827
vt 0.61666 0.05045
vt 0.58029 0.08029
vt 0.55045 0.11666
vt 0.52827 0.15816
vt 0.51461 0.20318
vt 0.51000 0.25000
vt 0.51461 0.29682
vt 0.52827 0.34184
vt 0.55045 0.38334
vt 0.58030 0.41971
vt 0.61666 0.44955
vt 0.65816 0.47173
vt 0.70318 0.48539
vt 0.57705 0.00000
vt 0.62500 0.00000
vt 0.62500 0.25000
vt 0.57705 0.25000
vt 0.62500 0.50000
vt 0.57705 0.50000
vt 0.62500 0.75000
vt 0.57705 0.75000
vt 0.62500 1.00000
vt 0.57705 1.00000
vt 0.12500 0.50000
vt 0.37500 0.50000
vt 0.37500 0.75000
vt 0.12500 0.75000
vt 0.87500 0.50000
vt 0.87500 0.75000
vt 0.37500 1.00000
vt 0.37500 0.25000
vt 0.37500 0.00000
vt 1.00000 0.50000
vt 1.00000 1.00000
vt 0.96875 1.00000
vt 0.96875 0.50000
vt 0.93750 1.00000
vt 0.93750 0.50000
vt 0.90625 1.00000
vt 0.90625 0.50000
vt 0.87500 1.00000
vt 0.87500 0.50000
vt 0.84375 1.00000
vt 0.84375 0.50000
vt 0.81250 1.00000
vt 0.81250 0.50000
vt 0.78125 1.00000
vt 0.78125 0.50000
vt 0.75000 1.00000
vt 0.75000 0.50000
vt 0.71875 1.00000
vt 0.71875 0.50000
vt 0.68750 1.00000
vt 0.68750 0.50000
vt 0.65625 1.00000
vt 0.65625 0.50000
vt 0.62500 1.00000
vt 0.62500 0.50000
vt 0.59375 1.00000
vt 0.59375 0.50000
vt 0.56250 1.00000
vt 0.56250 0.50000
vt 0.53125 1.00000
vt 0.53125 0.50000
vt 0.50000 1.00000
vt 0.50000 0.50000
vt 0.46875 1.00000
vt 0.46875 0.50000
vt 0.43750 1.00000
vt 0.43750 0.50000
vt 0.40625 1.00000
vt 0.40625 0.50000
vt 0.37500 1.00000
vt 0.37500 0.50000
vt 0.34375 1.00000
vt 0.34375 0.50000
vt 0.31250 1.00000
vt 0.31250 0.50000
vt 0.28125 1.00000
vt 0.28125 0.50000
vt 0.25000 1.00000
vt 0.25000 0.50000
vt 0.21875 1.00000
vt 0.21875 0.50000
vt 0.18750 1.00000
vt 0.18750 0.50000
vt 0.15625 1.00000
vt 0.15625 0.50000
vt 0.12500 1.00000
vt 0.12500 0.50000
vt 0.09375 1.00000
vt 0.09375 0.50000
vt 0.06250 1.00000
vt 0.06250 0.50000
vt 0.29682 0.48539
vt 0.25000 0.49000
vt 0.20318 0.48539
vt 0.15816 0.47173
vt 0.11666 0.44955
vt 0.08030 0.41971
vt 0.05045 0.38334
vt 0.02827 0.34184
vt 0.01461 0.29682
vt 0.01000 0.25000
vt 0.01461 0.20318
vt 0.02827 0.15816
vt 0.05045 0.11666
vt 0.08029 0.08029
vt 0.11666 0.05045
vt 0.15816 0.02827
vt 0.20318 0.01461
vt 0.25000 0.01000
vt 0.29682 0.01461
vt 0.34184 0.02827
vt 0.38334 0.05045
vt 0.41971 0.08029
vt 0.44955 0.11666
vt 0.47173 0.15816
vt 0.48539 0.20318
vt 0.49000 0.25000
vt 0.48539 0.29682
vt 0.47173 0.34184
vt 0.44955 0.38334
vt 0.41971 0.41971
vt 0.38334 0.44955
vt 0.34184 0.47173
vt 0.03125 1.00000
vt 0.03125 0.50000
vt 0.00000 1.00000
vt 0.00000 0.50000
vt 0.75000 0.49000
vt 0.79682 0.48539
vt 0.84184 0.47173
vt 0.88334 0.44955
vt 0.91971 0.41971
vt 0.94955 0.38334
vt 0.97173 0.34184
vt 0.98539 0.29682
vt 0.99000 0.25000
vt 0.98539 0.20318
vt 0.97173 0.15816
vt 0.94955 0.11666
vt 0.91971 0.08029
vt 0.88334 0.05045
vt 0.84184 0.02827
vt 0.79682 0.01461
vt 0.75000 0.01000
vt 0.70318 0.01461
vt 0.65816 0.02827
vt 0.61666 0.05045
vt 0.58029 0.08029
vt 0.55045 0.11666
vt 0.52827 0.15816
vt 0.51461 0.20318
vt 0.51000 0.25000
vt 0.51461 0.29682
vt 0.52827 0.34184
vt 0.55045 0.38334
vt 0.58030 0.41971
vt 0.61666 0.44955
vt 0.65816 0.47173
vt 0.70318 0.48539
vn -0.8380 0.5457 -0.0000
vn 0.0000 0.0000 -1.0000
vn 0.0000 0.0000 1.0000
vn 0.0000 1.0000 -0.0000
vn 0.0000 -1.0000 0.0000
vn 1.0000 0.0000 0.0000
vn -1.0000 0.0000 0.0000
vn -0.8367 -0.5477 0.0000
vn 0.3536 -0.9354 0.0000
vn 0.9935 0.1139 -0.0000
vn 0.8918 -0.4524 0.0000
vn 0.0300 -0.9995 0.0000
vn -0.3654 0.9308 0.0000
vn -0.9774 -0.2113 -0.0000
vn 0.5459 -0.8379 0.0000
vn 0.9701 0.2426 0.0000
vn 0.9698 0.2441 0.0000
vn 0.8932 0.4496 0.0000
vn 0.8956 0.4449 0.0000
vn 0.8979 0.4401 0.0000
vn 0.9227 0.3855 0.0000
vn 0.9452 0.3265 0.0000
vn 0.9580 0.2868 0.0000
vn 0.9705 0.2411 0.0000
vn -0.8779 -0.4788 -0.0000
vn -0.8941 -0.4480 -0.0000
vn -0.9266 -0.3761 -0.0000
vn -0.9324 -0.3614 -0.0000
vn -0.9508 -0.3097 -0.0000
vn -0.9625 -0.2713 -0.0000
vn -0.8481 0.5298 0.0000
vn 0.8973 -0.4415 0.0000
vn -0.4914 -0.8710 0.0000
vn 0.0860 0.9963 0.0000
vn 0.9161 -0.4010 0.0000
vn 0.9610 0.2766 0.0000
vn 0.8987 -0.4386 0.0000
vn 0.4348 0.9005 0.0000
vn -0.4031 -0.9152 0.0000
vn 0.0032 -1.0000 0.0000
vn 0.5768 0.8169 0.0000
vn -0.9502 0.3117 0.0000
vn 0.7101 -0.7041 0.0000
vn 0.6822 -0.7311 0.0000
vn -0.7422 0.6702 0.0000
vn 0.8925 -0.4511 0.0000
vn -0.9549 0.2970 0.0000
vn 0.9182 -0.3962 0.0000
vn 0.9015 -0.4329 0.0000
vn 0.9489 -0.3156 0.0000
vn 0.0070 -1.0000 0.0000
vn 0.0272 -0.9996 0.0000
vn -0.5025 -0.8646 0.0000
vn -0.8527 -0.5224 0.0000
vn 0.0001 0.0000 -1.0000
vn -0.9908 -0.1355 0.0000
vn 0.0076 -1.0000 0.0000
vn -0.9999 0.0112 -0.0000
vn 0.9965 0.0833 -0.0000
vn 0.1148 -0.9934 0.0000
vn 0.0016 1.0000 -0.0000
vn -0.9994 0.0345 -0.0000
vn 0.0595 0.9982 -0.0000
vn -0.6705 -0.7419 0.0000
vn -0.0216 0.9998 0.0000
vn 0.9995 -0.0311 0.0000
vn -0.9834 0.1817 0.0000
vn 0.7252 -0.6885 0.0000
vn 0.4504 -0.8928 0.0000
vn 0.9896 -0.1437 0.0000
vn 0.0433 0.9991 -0.0000
vn -0.3707 -0.9288 0.0000
vn 0.9554 0.2953 0.0000
vn 0.9313 0.3643 0.0000
vn 0.8727 -0.4882 0.0000
vn -0.9986 -0.0535 0.0000
vn -0.1837 -0.9830 0.0000
vn 0.5630 0.8265 0.0000
vn 0.9487 0.3162 0.0000
vn 0.1737 -0.9848 0.0000
vn 0.9875 -0.1574 0.0000
vn -0.9959 0.0907 0.0000
vn -1.0000 0.0049 0.0000
vn 0.2194 -0.9756 0.0000
vn -0.0628 0.9980 0.0000
vn 0.2446 -0.9696 0.0000
vn -0.0001 0.0000 1.0000
vn 0.7982 -0.6023 0.0000
vn -0.2556 0.9668 0.0000
vn -0.3944 0.9190 -0.0000
vn 0.9661 -0.2580 0.0000
vn 0.9998 -0.0213 0.0000
vn 0.0045 -1.0000 0.0000
vn 0.4539 -0.8910 0.0000
vn 0.6347 -0.7727 0.0000
vn -0.9999 -0.0166 0.0000
vn 0.9984 0.0570 0.0000
vn 0.3484 -0.9374 0.0000
vn 0.9792 -0.2029 0.0000
vn -0.9840 -0.1784 0.0000
vn -0.2743 -0.9616 0.0000
vn 0.8172 0.5764 0.0000
vn 0.8669 -0.4984 0.0000
vn 0.6732 -0.7395 0.0000
vn 0.7843 0.6204 0.0000
vn -0.8798 -0.4753 0.0000
vn -0.5868 -0.8097 0.0000
vn 0.9021 0.4315 0.0000
vn 1.0000 -0.0005 0.0000
vn -0.0000 -0.0981 -0.9952
vn -0.0000 -0.2902 -0.9570
vn -0.0000 -0.4715 -0.8819
vn -0.0000 -0.6344 -0.7730
vn -0.0000 -0.7730 -0.6345
vn -0.0000 -0.8819 -0.4714
vn -0.0000 -0.9569 -0.2903
vn 0.0000 -0.9952 -0.0980
vn 0.0000 -0.9952 0.0980
vn 0.0000 -0.9569 0.2903
vn 0.0000 -0.8819 0.4715
vn 0.0000 -0.7730 0.6344
vn 0.0000 -0.6344 0.7730
vn 0.0000 -0.4715 0.8819
vn 0.0000 -0.2902 0.9570
vn 0.0000 -0.0981 0.9952
vn 0.0000 0.0981 0.9952
vn 0.0000 0.2902 0.9570
vn 0.0000 0.4715 0.8819
vn 0.0000 0.6344 0.7730
vn 0.0000 0.7730 0.6344
vn 0.0000 0.8819 0.4715
vn 0.0000 0.9569 0.2903
vn 0.0000 0.9952 0.0980
vn -0.0000 0.9952 -0.0980
vn -0.0000 0.9569 -0.2903
vn -0.0000 0.8819 -0.4714
vn -0.0000 0.7730 -0.6345
vn -0.0000 0.6344 -0.7730
vn -0.0000 0.4715 -0.8819
vn -0.0000 0.2902 -0.9570
vn -0.0000 0.0981 -0.9952
vn 0.9377 0.3476 0.0000
vn -0.0000 -0.0980 -0.9952
vn -0.0000 -0.4714 -0.8819
vn -0.0000 -0.7730 -0.6344
vn 0.0000 -0.8819 0.4714
vn 0.0000 -0.6345 0.7730
vn 0.0000 -0.4714 0.8819
vn 0.0000 -0.0980 0.9952
vn 0.0000 0.0980 0.9952
vn 0.0000 0.4714 0.8819
vn 0.0000 0.6345 0.7730
vn 0.0000 0.8819 0.4714
vn 0.0000 0.9570 0.2903
vn -0.0000 0.7730 -0.6344
vn -0.0000 0.4714 -0.8819
vn -0.0000 0.0980 -0.9952
usemtl Material.010
s 1
f 9012/14721/3348 9014/14722/3348 9030/14723/3348 9029/14724/3348
f 9050/14725/3349 9045/14726/3349 9018/14727/3349 9035/14728/3349
f 9035/14728/3349 9018/14727/3349 9041/14729/3349 9043/14730/3349
f 9037/14731/3350 9022/14732/3350 9012/14733/3350 9033/14734/3350
f 9056/14735/3349 9055/14736/3349 9052/14737/3349 9054/14738/3349
f 9020/14739/3351 9014/14722/3351 9012/14721/3351 9022/14740/3351
f 9045/14741/3351 9020/14739/3351 9022/14740/3351 9048/14742/3351
f 9013/14743/3349 9019/14744/3349 9025/14745/3349 9023/14746/3349
f 9049/14747/3350 9048/14748/3350 9022/14732/3350 9037/14731/3350
f 9034/14749/3349 9014/14750/3349 9020/14751/3349 9038/14752/3349
f 9023/14753/3352 9025/14754/3352 9026/14755/3352 9024/14756/3352
f 9024/14757/3350 9011/14758/3350 9028/14759/3350 9032/14760/3350
f 9021/14761/3350 9011/14758/3350 9024/14757/3350 9026/14762/3350
f 9019/14763/3353 9021/14764/3353 9026/14755/3353 9025/14754/3353
f 9039/14765/3354 9029/14766/3354 9030/14767/3354 9040/14768/3354
f 9028/14769/3354 9027/14770/3354 9031/14771/3354 9032/14772/3354
f 9023/14753/3355 9024/14756/3355 9032/14773/3355 9031/14774/3355
f 9013/14743/3349 9023/14746/3349 9031/14771/3349 9027/14770/3349
f 9034/14749/3349 9013/14743/3349 9027/14770/3349 9040/14768/3349
f 9033/14734/3350 9012/14733/3350 9029/14775/3350 9039/14776/3350
f 9011/14758/3350 9033/14734/3350 9039/14776/3350 9028/14759/3350
f 9014/14750/3349 9034/14749/3349 9040/14768/3349 9030/14767/3349
f 9028/14769/3354 9039/14765/3354 9040/14768/3354 9027/14770/3354
f 9013/14743/3349 9034/14749/3349 9038/14752/3349 9019/14744/3349
f 9046/14777/3350 9049/14747/3350 9037/14731/3350 9021/14761/3350
f 9021/14761/3350 9037/14731/3350 9033/14734/3350 9011/14758/3350
f 9017/14778/3353 9035/14728/3353 9036/14779/3353 9015/14780/3353
f 9047/14781/3349 9050/14725/3349 9035/14728/3349 9017/14778/3349
f 9043/14730/3353 9041/14729/3353 9042/14782/3353 9044/14783/3353
f 9016/14784/3350 9036/14779/3350 9044/14783/3350 9042/14782/3350
f 9036/14779/3352 9035/14728/3352 9043/14730/3352 9044/14783/3352
f 9018/14727/3351 9016/14784/3351 9042/14782/3351 9041/14729/3351
f 9019/14744/3349 9038/14752/3349 9050/14725/3349 9047/14781/3349
f 9015/14780/3350 9036/14779/3350 9049/14747/3350 9046/14777/3350
f 9036/14779/3350 9016/14784/3350 9048/14748/3350 9049/14747/3350
f 9018/14727/3351 9045/14741/3351 9048/14742/3351 9016/14784/3351
f 9019/14763/3352 9047/14785/3352 9046/14786/3352 9021/14764/3352
f 9038/14752/3349 9020/14751/3349 9045/14726/3349 9050/14725/3349
f 9054/14787/3356 9052/14737/3356 9051/14788/3356 9053/14789/3356
f 9055/14736/3357 9057/14790/3357 9051/14788/3357 9052/14737/3357
f 9057/14790/3350 9058/14791/3350 9053/14792/3350 9051/14788/3350
f 9058/14793/3354 9056/14794/3354 9054/14787/3354 9053/14789/3354
f 9062/14795/3354 9059/14796/3354 9056/14794/3354 9058/14793/3354
f 9061/14797/3350 9062/14798/3350 9058/14791/3350 9057/14790/3350
f 9060/14799/3358 9061/14797/3358 9057/14790/3358 9055/14736/3358
f 9059/14800/3349 9060/14799/3349 9055/14736/3349 9056/14735/3349
f 9047/14781/3349 9017/14778/3349 9060/14799/3349 9059/14800/3349
f 9017/14778/3359 9015/14780/3359 9061/14797/3359 9060/14799/3359
f 9015/14780/3350 9046/14777/3350 9062/14798/3350 9061/14797/3350
f 9046/14786/3354 9047/14785/3354 9059/14796/3354 9062/14795/3354
f 9063/14801/3360 9067/14802/3360 9069/14803/3360 9065/14804/3360
f 9083/14805/3350 9065/14806/3350 9069/14807/3350 9082/14808/3350
f 9082/14808/3361 9069/14807/3361 9067/14809/3361 9089/14810/3361
f 9068/14811/3362 9064/14812/3362 9066/14813/3362 9070/14814/3362
f 9071/14815/3363 9063/14816/3364 9065/14817/3364 9083/14818/3363
f 9089/14819/3349 9067/14820/3349 9063/14821/3349 9071/14822/3349
f 9068/14823/3349 9094/14824/3349 9076/14825/3349 9064/14812/3349
f 9094/14824/3349 9093/14826/3349 9075/14827/3349 9076/14825/3349
f 9093/14826/3349 9092/14828/3349 9074/14829/3349 9075/14827/3349
f 9092/14828/3349 9091/14830/3349 9073/14831/3349 9074/14829/3349
f 9091/14830/3349 9090/14832/3349 9072/14833/3349 9073/14831/3349
f 9090/14832/3349 9089/14819/3349 9071/14822/3349 9072/14833/3349
f 9064/14834/3365 9076/14835/3366 9088/14836/3366 9066/14837/3365
f 9076/14835/3366 9075/14838/3367 9087/14839/3367 9088/14836/3366
f 9075/14838/3368 9074/14840/3368 9086/14841/3368 9087/14839/3368
f 9074/14840/3369 9073/14842/3369 9085/14843/3369 9086/14841/3369
f 9073/14842/3370 9072/14844/3370 9084/14845/3370 9085/14843/3370
f 9072/14844/3371 9071/14815/3363 9083/14818/3363 9084/14845/3371
f 9070/14846/3372 9077/14847/3372 9094/14848/3372 9068/14811/3372
f 9077/14847/3373 9078/14849/3373 9093/14850/3373 9094/14848/3373
f 9078/14849/3374 9079/14851/3374 9092/14852/3374 9093/14850/3374
f 9079/14851/3375 9080/14853/3375 9091/14854/3375 9092/14852/3375
f 9080/14853/3376 9081/14855/3376 9090/14856/3376 9091/14854/3376
f 9081/14855/3377 9082/14808/3377 9089/14810/3377 9090/14856/3377
f 9066/14857/3350 9088/14858/3350 9077/14847/3350 9070/14846/3350
f 9088/14858/3350 9087/14859/3350 9078/14849/3350 9077/14847/3350
f 9087/14859/3350 9086/14860/3350 9079/14851/3350 9078/14849/3350
f 9086/14860/3350 9085/14861/3350 9080/14853/3350 9079/14851/3350
f 9085/14861/3350 9084/14862/3350 9081/14855/3350 9080/14853/3350
f 9084/14862/3350 9083/14805/3350 9082/14808/3350 9081/14855/3350
f 9115/14863/3378 9096/14864/3378 9098/14865/3378 9116/14866/3378
f 9116/14866/3349 9098/14865/3349 9102/14867/3349 9117/14868/3349
f 9117/14868/3379 9102/14867/3379 9100/14869/3379 9118/14870/3379
f 9118/14870/3350 9100/14869/3350 9096/14871/3350 9115/14872/3350
f 9097/14873/3380 9101/14874/3380 9099/14875/3380 9095/14876/3380
f 9102/14867/3381 9098/14877/3381 9096/14878/3381 9100/14869/3381
f 9099/14875/3350 9106/14879/3350 9103/14880/3350 9095/14881/3350
f 9101/14874/3382 9105/14882/3382 9106/14879/3382 9099/14875/3382
f 9097/14883/3349 9104/14884/3349 9105/14882/3349 9101/14874/3349
f 9095/14885/3378 9103/14886/3378 9104/14884/3378 9097/14883/3378
f 9106/14879/3350 9110/14887/3350 9107/14888/3350 9103/14880/3350
f 9105/14882/3383 9109/14889/3383 9110/14887/3383 9106/14879/3383
f 9104/14884/3349 9108/14890/3349 9109/14889/3349 9105/14882/3349
f 9103/14886/3378 9107/14891/3378 9108/14890/3378 9104/14884/3378
f 9110/14887/3350 9114/14892/3350 9111/14893/3350 9107/14888/3350
f 9109/14889/3384 9113/14894/3384 9114/14892/3384 9110/14887/3384
f 9108/14890/3349 9112/14895/3349 9113/14894/3349 9109/14889/3349
f 9107/14891/3378 9111/14896/3378 9112/14895/3378 9108/14890/3378
f 9114/14892/3350 9118/14870/3350 9115/14872/3350 9111/14893/3350
f 9124/14897/3349 9123/14898/3349 9119/14899/3349 9120/14900/3349
f 9112/14895/3349 9116/14866/3349 9117/14868/3349 9113/14894/3349
f 9111/14896/3378 9115/14863/3378 9116/14866/3378 9112/14895/3378
f 9122/14901/3352 9120/14900/3352 9128/14902/3352 9130/14903/3352
f 9123/14898/3385 9125/14904/3385 9121/14905/3385 9119/14899/3385
f 9126/14906/3386 9124/14897/3386 9120/14900/3386 9122/14901/3386
f 9125/14904/3350 9126/14906/3350 9122/14901/3350 9121/14905/3350
f 9118/14870/3350 9114/14892/3350 9126/14906/3350 9125/14904/3350
f 9114/14892/3387 9113/14894/3387 9124/14897/3387 9126/14906/3387
f 9117/14868/3388 9118/14870/3388 9125/14904/3388 9123/14898/3388
f 9113/14894/3349 9117/14868/3349 9123/14898/3349 9124/14897/3349
f 9150/14907/3389 9147/14908/3389 9133/14909/3389 9131/14910/3389
f 9120/14900/3349 9119/14899/3349 9127/14911/3349 9128/14902/3349
f 9119/14899/3351 9121/14905/3351 9129/14912/3351 9127/14911/3351
f 9121/14905/3350 9122/14901/3350 9130/14903/3350 9129/14912/3350
f 9132/14913/3351 9131/14910/3351 9133/14909/3351 9134/14914/3351
f 9147/14908/3350 9148/14915/3350 9134/14914/3350 9133/14909/3350
f 9148/14915/3390 9149/14916/3390 9132/14913/3390 9134/14914/3390
f 9149/14916/3349 9150/14907/3349 9131/14910/3349 9132/14913/3349
f 9128/14902/3349 9127/14911/3349 9136/14917/3349 9138/14918/3349
f 9130/14903/3391 9128/14902/3391 9138/14918/3391 9137/14919/3391
f 9129/14912/3350 9130/14903/3350 9137/14919/3350 9135/14920/3350
f 9127/14911/3392 9129/14912/3392 9135/14920/3392 9136/14917/3392
f 9138/14918/3349 9136/14917/3349 9142/14921/3349 9141/14922/3349
f 9137/14919/3393 9138/14918/3393 9141/14922/3393 9140/14923/3393
f 9135/14920/3350 9137/14919/3350 9140/14923/3350 9139/14924/3350
f 9136/14917/3394 9135/14920/3394 9139/14924/3394 9142/14921/3394
f 9154/14925/3349 9151/14926/3349 9146/14927/3349 9145/14928/3349
f 9153/14929/3395 9154/14925/3395 9145/14928/3395 9144/14930/3395
f 9152/14931/3350 9153/14929/3350 9144/14930/3350 9143/14932/3350
f 9151/14926/3389 9152/14931/3389 9143/14932/3389 9146/14927/3389
f 9145/14928/3349 9146/14927/3349 9150/14907/3349 9149/14916/3349
f 9144/14930/3396 9145/14928/3396 9149/14916/3396 9148/14915/3396
f 9143/14932/3350 9144/14930/3350 9148/14915/3350 9147/14908/3350
f 9146/14927/3389 9143/14932/3389 9147/14908/3389 9150/14907/3389
f 9142/14921/3389 9139/14924/3389 9152/14931/3389 9151/14926/3389
f 9139/14924/3350 9140/14923/3350 9153/14929/3350 9152/14931/3350
f 9140/14923/3397 9141/14922/3397 9154/14925/3397 9153/14929/3397
f 9141/14922/3349 9142/14921/3349 9151/14926/3349 9154/14925/3349
f 9181/14933/3351 9179/14934/3351 9166/14935/3351 9165/14936/3351
f 9157/14937/3349 9158/14938/3349 9162/14939/3349 9161/14940/3349
f 9161/14940/3353 9162/14939/3353 9160/14941/3353 9159/14942/3353
f 9159/14942/3350 9160/14941/3350 9156/14943/3350 9155/14944/3350
f 9157/14945/3398 9161/14940/3398 9159/14942/3398 9155/14946/3398
f 9162/14939/3351 9158/14947/3351 9156/14948/3351 9160/14941/3351
f 9164/14949/3354 9165/14950/3354 9166/14951/3354 9163/14952/3354
f 9182/14953/3399 9180/14954/3399 9164/14955/3399 9163/14956/3399
f 9179/14957/3349 9182/14958/3349 9163/14952/3349 9166/14951/3349
f 9180/14959/3350 9181/14960/3350 9165/14961/3350 9164/14962/3350
f 9174/14963/3350 9171/14964/3350 9168/14965/3350 9169/14966/3350
f 9173/14967/3349 9172/14968/3349 9170/14969/3349 9167/14970/3349
f 9172/14971/3400 9174/14972/3400 9169/14973/3400 9170/14974/3400
f 9171/14975/3351 9173/14976/3351 9167/14977/3351 9168/14978/3351
f 9175/14979/3351 9177/14980/3351 9173/14976/3351 9171/14975/3351
f 9176/14981/3401 9178/14982/3401 9174/14972/3401 9172/14971/3401
f 9177/14983/3349 9176/14984/3402 9172/14968/3349 9173/14967/3349
f 9178/14985/3350 9175/14986/3350 9171/14964/3350 9174/14963/3350
f 9155/14944/3350 9156/14943/3350 9175/14986/3350 9178/14985/3350
f 9158/14938/3349 9157/14937/3349 9176/14984/3402 9177/14983/3349
f 9157/14945/3403 9155/14946/3403 9178/14982/3403 9176/14981/3403
f 9156/14948/3351 9158/14947/3351 9177/14980/3351 9175/14979/3351
f 9169/14966/3350 9168/14965/3350 9181/14960/3350 9180/14959/3350
f 9167/14970/3349 9170/14969/3349 9182/14958/3349 9179/14957/3349
f 9170/14974/3404 9169/14973/3404 9180/14954/3404 9182/14953/3404
f 9168/14978/3351 9167/14977/3351 9179/14934/3351 9181/14933/3351
f 9183/14987/3405 9184/14988/3405 9186/14989/3405 9185/14990/3405
f 9185/14990/3349 9186/14989/3349 9190/14991/3349 9189/14992/3349
f 9189/14992/3406 9190/14991/3406 9188/14993/3406 9187/14994/3406
f 9187/14994/3350 9188/14993/3350 9184/14995/3350 9183/14996/3350
f 9185/14997/3407 9189/14992/3407 9187/14994/3407 9183/14998/3407
f 9190/14991/3408 9186/14999/3408 9184/15000/3408 9188/14993/3408
f 9291/15001/3409 9192/15002/3409 9194/15003/3409 9292/15004/3409
f 9296/15005/3349 9216/15006/3349 9198/15007/3349 9293/15008/3349
f 9304/15009/3410 9303/15010/3410 9300/15011/3410 9299/15012/3410
f 9298/15013/3350 9274/15014/3350 9192/15015/3350 9291/15016/3350
f 9215/15017/3411 9197/15018/3411 9195/15019/3411 9217/15020/3411
f 9279/15021/3412 9194/15022/3412 9192/15023/3412 9274/15024/3412
f 9288/15025/3350 9275/15026/3350 9199/15027/3350 9233/15028/3350
f 9235/15029/3413 9201/15030/3413 9202/15031/3413 9236/15032/3413
f 9237/15033/3349 9220/15034/3349 9201/15030/3349 9235/15029/3349
f 9233/15035/3414 9199/15036/3414 9200/15037/3414 9234/15038/3414
f 9211/15039/3414 9206/15040/3414 9203/15041/3414 9212/15042/3414
f 9226/15043/3349 9221/15044/3349 9204/15045/3349 9213/15046/3349
f 9213/15046/3415 9204/15045/3415 9205/15047/3415 9214/15048/3415
f 9278/15049/3350 9276/15050/3350 9206/15051/3350 9211/15052/3350
f 9280/15053/3350 9277/15054/3350 9210/15055/3350 9191/15056/3350
f 9197/15018/3416 9208/15057/3416 9209/15058/3416 9195/15019/3416
f 9215/15059/3349 9224/15060/3349 9208/15057/3349 9197/15018/3349
f 9191/15061/3414 9210/15062/3414 9207/15063/3414 9193/15064/3414
f 9277/15054/3350 9278/15049/3350 9211/15052/3350 9210/15055/3350
f 9208/15057/3417 9213/15046/3417 9214/15048/3417 9209/15058/3417
f 9224/15060/3349 9226/15043/3349 9213/15046/3349 9208/15057/3349
f 9210/15062/3414 9211/15039/3414 9212/15042/3414 9207/15063/3414
f 9283/15065/3349 9284/15066/3349 9226/15043/3349 9224/15060/3349
f 9209/15058/3350 9214/15048/3350 9225/15067/3350 9223/15068/3350
f 9273/15069/3349 9283/15065/3349 9224/15060/3349 9215/15059/3349
f 9195/15019/3350 9209/15058/3350 9223/15068/3350 9217/15070/3350
f 9214/15048/3350 9205/15047/3350 9222/15071/3350 9225/15067/3350
f 9284/15066/3349 9282/15072/3349 9221/15044/3349 9226/15043/3349
f 9287/15073/3349 9281/15074/3349 9220/15034/3349 9237/15033/3349
f 9236/15032/3350 9202/15031/3350 9219/15075/3350 9238/15076/3350
f 9198/15007/3418 9216/15077/3418 9218/15078/3418 9196/15079/3418
f 9273/15080/3419 9215/15017/3419 9217/15020/3419 9280/15081/3419
f 9294/15082/3350 9196/15079/3350 9218/15083/3350 9295/15084/3350
f 9297/15085/3349 9279/15086/3349 9216/15006/3349 9296/15005/3349
f 9205/15047/3350 9230/15087/3350 9232/15088/3350 9222/15071/3350
f 9282/15072/3349 9285/15089/3349 9231/15090/3349 9221/15044/3349
f 9206/15040/3414 9227/15091/3414 9228/15092/3414 9203/15041/3414
f 9221/15044/3349 9231/15090/3349 9229/15093/3349 9204/15045/3349
f 9204/15045/3420 9229/15093/3420 9230/15087/3420 9205/15047/3420
f 9276/15050/3350 9286/15094/3350 9227/15095/3350 9206/15051/3350
f 9241/15096/3350 9236/15032/3350 9238/15076/3350 9243/15097/3350
f 9290/15098/3349 9287/15073/3349 9237/15033/3349 9242/15099/3349
f 9244/15100/3414 9233/15035/3414 9234/15038/3414 9239/15101/3414
f 9242/15099/3349 9237/15033/3349 9235/15029/3349 9240/15102/3349
f 9250/15103/3421 9249/15104/3421 9246/15105/3421 9245/15106/3421
f 9289/15107/3350 9288/15025/3350 9233/15028/3350 9244/15108/3350
f 9286/15094/3350 9289/15107/3350 9244/15108/3350 9227/15095/3350
f 9229/15093/3422 9240/15102/3422 9241/15096/3422 9230/15087/3422
f 9231/15090/3349 9242/15099/3349 9240/15102/3349 9229/15093/3349
f 9227/15091/3414 9244/15100/3414 9239/15101/3414 9228/15092/3414
f 9285/15089/3349 9290/15098/3349 9242/15099/3349 9231/15090/3349
f 9230/15087/3350 9241/15096/3350 9243/15097/3350 9232/15088/3350
f 9246/15105/3350 9248/15109/3350 9260/15110/3350 9258/15111/3350
f 9252/15112/3423 9251/15113/3423 9247/15114/3423 9248/15109/3423
f 9251/15113/3349 9250/15103/3349 9245/15106/3349 9247/15114/3349
f 9249/15104/3350 9252/15112/3350 9248/15109/3350 9246/15105/3350
f 9255/15115/3350 9254/15116/3350 9252/15112/3350 9249/15104/3350
f 9256/15117/3349 9253/15118/3349 9250/15103/3349 9251/15113/3349
f 9254/15116/3424 9256/15117/3424 9251/15113/3424 9252/15112/3424
f 9253/15118/3425 9255/15115/3425 9249/15104/3425 9250/15103/3425
f 9235/15029/3426 9236/15032/3426 9255/15115/3426 9253/15118/3426
f 9241/15096/3427 9240/15102/3427 9256/15117/3427 9254/15116/3427
f 9240/15102/3349 9235/15029/3349 9253/15118/3349 9256/15117/3349
f 9236/15032/3350 9241/15096/3350 9254/15116/3350 9255/15115/3350
f 9266/15119/3350 9265/15120/3350 9264/15121/3350 9262/15122/3350
f 9245/15106/3428 9246/15105/3428 9258/15111/3428 9257/15123/3428
f 9248/15109/3429 9247/15114/3429 9259/15124/3429 9260/15110/3429
f 9247/15114/3349 9245/15106/3349 9257/15123/3349 9259/15124/3349
f 9263/15125/3430 9261/15126/3430 9262/15122/3430 9264/15121/3430
f 9267/15127/3431 9266/15119/3431 9262/15122/3431 9261/15126/3431
f 9265/15120/3432 9268/15128/3432 9263/15125/3432 9264/15121/3432
f 9268/15128/3349 9267/15127/3349 9261/15126/3349 9263/15125/3349
f 9272/15129/3349 9270/15130/3349 9267/15127/3349 9268/15128/3349
f 9271/15131/3432 9272/15129/3432 9268/15128/3432 9265/15120/3432
f 9270/15130/3433 9269/15132/3433 9266/15119/3433 9267/15127/3433
f 9269/15132/3350 9271/15131/3434 9265/15120/3350 9266/15119/3350
f 9258/15111/3350 9260/15110/3350 9271/15131/3434 9269/15132/3350
f 9257/15123/3435 9258/15111/3435 9269/15132/3435 9270/15130/3435
f 9260/15110/3436 9259/15124/3436 9272/15129/3436 9271/15131/3436
f 9259/15124/3349 9257/15123/3349 9270/15130/3349 9272/15129/3349
f 9228/15092/3349 9239/15101/3349 9290/15098/3349 9285/15089/3349
f 9232/15088/3350 9243/15097/3350 9289/15107/3350 9286/15094/3350
f 9243/15097/3350 9238/15076/3350 9288/15025/3350 9289/15107/3350
f 9239/15101/3349 9234/15038/3349 9287/15073/3349 9290/15098/3349
f 9222/15071/3350 9232/15088/3350 9286/15094/3350 9276/15050/3350
f 9203/15041/3349 9228/15092/3349 9285/15089/3349 9282/15072/3349
f 9292/15004/3349 9194/15003/3349 9279/15086/3349 9297/15085/3349
f 9193/15133/3419 9273/15080/3419 9280/15081/3419 9191/15134/3419
f 9234/15038/3349 9200/15037/3349 9281/15074/3349 9287/15073/3349
f 9212/15042/3349 9203/15041/3349 9282/15072/3349 9284/15066/3349
f 9193/15064/3349 9207/15063/3349 9283/15065/3349 9273/15069/3349
f 9207/15063/3349 9212/15042/3349 9284/15066/3349 9283/15065/3349
f 9223/15068/3350 9225/15067/3350 9278/15049/3350 9277/15054/3350
f 9217/15070/3350 9223/15068/3350 9277/15054/3350 9280/15053/3350
f 9225/15067/3350 9222/15071/3350 9276/15050/3350 9278/15049/3350
f 9238/15076/3350 9219/15075/3350 9275/15026/3350 9288/15025/3350
f 9216/15077/3437 9279/15021/3437 9274/15024/3437 9218/15078/3437
f 9295/15084/3350 9218/15083/3350 9274/15014/3350 9298/15013/3350
f 9219/15075/3350 9295/15084/3350 9298/15013/3350 9275/15026/3350
f 9200/15037/3349 9292/15004/3349 9297/15085/3349 9281/15074/3349
f 9281/15074/3349 9297/15085/3349 9296/15005/3349 9220/15034/3349
f 9202/15031/3350 9294/15082/3350 9295/15084/3350 9219/15075/3350
f 9275/15026/3350 9298/15013/3350 9291/15016/3350 9199/15027/3350
f 9201/15030/3438 9293/15008/3438 9294/15082/3438 9202/15031/3438
f 9220/15034/3349 9296/15005/3349 9293/15008/3349 9201/15030/3349
f 9199/15036/3409 9291/15001/3409 9292/15004/3409 9200/15037/3409
f 9301/15135/3439 9299/15012/3439 9300/15011/3439 9302/15136/3439
f 9305/15137/3349 9304/15009/3349 9299/15012/3349 9301/15135/3349
f 9306/15138/3440 9305/15137/3440 9301/15135/3440 9302/15136/3440
f 9303/15010/3350 9306/15138/3350 9302/15136/3350 9300/15011/3350
f 9310/15139/3350 9309/15140/3350 9306/15138/3350 9303/15010/3350
f 9309/15140/3441 9308/15141/3441 9305/15137/3441 9306/15138/3441
f 9308/15141/3349 9307/15142/3349 9304/15009/3349 9305/15137/3349
f 9307/15142/3410 9310/15139/3410 9303/15010/3410 9304/15009/3410
f 9198/15007/3410 9196/15079/3410 9310/15139/3410 9307/15142/3410
f 9293/15008/3349 9198/15007/3349 9307/15142/3349 9308/15141/3349
f 9294/15082/3442 9293/15008/3442 9308/15141/3442 9309/15140/3442
f 9196/15079/3350 9294/15082/3350 9309/15140/3350 9310/15139/3350
f 9335/15143/3443 9312/15144/3443 9314/15145/3443 9336/15146/3443
f 9340/15147/3349 9324/15148/3349 9318/15149/3349 9337/15150/3349
f 9337/15150/3444 9318/15149/3444 9316/15151/3444 9338/15152/3444
f 9339/15153/3350 9326/15154/3350 9312/15155/3350 9335/15156/3350
f 9323/15157/3445 9317/15158/3445 9315/15159/3445 9325/15160/3445
f 9312/15155/3350 9326/15154/3350 9334/15161/3350 9329/15162/3350
f 9325/15163/3350 9327/15164/3350 9319/15165/3350 9311/15166/3350
f 9317/15158/3446 9321/15167/3446 9322/15168/3446 9315/15159/3446
f 9323/15169/3349 9328/15170/3349 9321/15167/3349 9317/15158/3349
f 9311/15171/3447 9319/15172/3447 9320/15173/3447 9313/15174/3447
f 9313/15174/3349 9320/15173/3349 9328/15170/3349 9323/15169/3349
f 9315/15159/3350 9322/15168/3350 9327/15164/3350 9325/15163/3350
f 9314/15145/3352 9312/15144/3352 9341/15175/3352 9342/15176/3352
f 9313/15177/3448 9323/15157/3448 9325/15160/3448 9311/15178/3448
f 9338/15152/3350 9316/15151/3350 9326/15154/3350 9339/15153/3350
f 9336/15146/3349 9314/15145/3349 9324/15148/3349 9340/15147/3349
f 9331/15179/3351 9330/15180/3351 9329/15181/3351 9334/15182/3351
f 9332/15183/3351 9331/15179/3351 9334/15182/3351 9333/15184/3351
f 9318/15149/3349 9324/15148/3349 9331/15185/3349 9332/15183/3349
f 9326/15154/3350 9316/15151/3350 9333/15184/3350 9334/15161/3350
f 9324/15148/3349 9314/15145/3349 9330/15186/3349 9331/15185/3349
f 9316/15151/3353 9318/15149/3353 9332/15183/3353 9333/15184/3353
f 9320/15173/3349 9336/15146/3349 9340/15147/3349 9328/15170/3349
f 9322/15168/3350 9338/15152/3350 9339/15153/3350 9327/15164/3350
f 9327/15164/3350 9339/15153/3350 9335/15156/3350 9319/15165/3350
f 9321/15167/3449 9337/15150/3449 9338/15152/3449 9322/15168/3449
f 9328/15170/3349 9340/15147/3349 9337/15150/3349 9321/15167/3349
f 9319/15172/3443 9335/15143/3443 9336/15146/3443 9320/15173/3443
f 9342/15176/3354 9341/15175/3354 9343/15187/3354 9344/15188/3354
f 9329/15181/3351 9330/15180/3351 9344/15189/3351 9343/15190/3351
f 9312/15155/3350 9329/15162/3350 9343/15191/3350 9341/15192/3350
f 9330/15186/3349 9314/15145/3349 9342/15176/3349 9344/15188/3349
f 9361/15193/3354 9346/15194/3354 9348/15195/3354 9362/15196/3354
f 9362/15196/3349 9348/15195/3349 9352/15197/3349 9363/15198/3349
f 9363/15198/3450 9352/15197/3450 9350/15199/3450 9364/15200/3450
f 9364/15200/3350 9350/15199/3350 9346/15201/3350 9361/15202/3350
f 9347/15203/3451 9351/15204/3451 9349/15205/3451 9345/15206/3451
f 9352/15197/3351 9348/15207/3351 9346/15208/3351 9350/15199/3351
f 9359/15209/3350 9356/15210/3350 9353/15211/3350 9360/15212/3350
f 9358/15213/3452 9355/15214/3452 9356/15210/3452 9359/15209/3452
f 9357/15215/3349 9354/15216/3349 9355/15214/3349 9358/15213/3349
f 9360/15217/3453 9353/15218/3453 9354/15216/3453 9357/15215/3453
f 9345/15219/3454 9360/15217/3454 9357/15215/3454 9347/15220/3454
f 9347/15220/3349 9357/15215/3349 9358/15213/3349 9351/15204/3349
f 9351/15204/3455 9358/15213/3455 9359/15209/3455 9349/15205/3455
f 9349/15205/3350 9359/15209/3350 9360/15212/3350 9345/15221/3350
f 9356/15210/3350 9364/15200/3350 9361/15202/3350 9353/15211/3350
f 9355/15214/3456 9363/15198/3456 9364/15200/3456 9356/15210/3456
f 9354/15216/3349 9362/15196/3349 9363/15198/3349 9355/15214/3349
f 9353/15218/3354 9361/15193/3354 9362/15196/3354 9354/15216/3354
f 9365/15222/3457 9366/15223/3457 9368/15224/3457 9367/15225/3457
f 9367/15225/3458 9368/15224/3458 9370/15226/3458 9369/15227/3458
f 9369/15227/3459 9370/15226/3459 9372/15228/3459 9371/15229/3459
f 9371/15229/3460 9372/15228/3460 9374/15230/3460 9373/15231/3460
f 9373/15231/3461 9374/15230/3461 9376/15232/3461 9375/15233/3461
f 9375/15233/3462 9376/15232/3462 9378/15234/3462 9377/15235/3462
f 9377/15235/3463 9378/15234/3463 9380/15236/3463 9379/15237/3463
f 9379/15237/3464 9380/15236/3464 9382/15238/3464 9381/15239/3464
f 9381/15239/3465 9382/15238/3465 9384/15240/3465 9383/15241/3465
f 9383/15241/3466 9384/15240/3466 9386/15242/3466 9385/15243/3466
f 9385/15243/3467 9386/15242/3467 9388/15244/3467 9387/15245/3467
f 9387/15245/3468 9388/15244/3468 9390/15246/3468 9389/15247/3468
f 9389/15247/3469 9390/15246/3469 9392/15248/3469 9391/15249/3469
f 9391/15249/3470 9392/15248/3470 9394/15250/3470 9393/15251/3470
f 9393/15251/3471 9394/15250/3471 9396/15252/3471 9395/15253/3471
f 9395/15253/3472 9396/15252/3472 9398/15254/3472 9397/15255/3472
f 9397/15255/3473 9398/15254/3473 9400/15256/3473 9399/15257/3473
f 9399/15257/3474 9400/15256/3474 9402/15258/3474 9401/15259/3474
f 9401/15259/3475 9402/15258/3475 9404/15260/3475 9403/15261/3475
f 9403/15261/3476 9404/15260/3476 9406/15262/3476 9405/15263/3476
f 9405/15263/3477 9406/15262/3477 9408/15264/3477 9407/15265/3477
f 9407/15265/3478 9408/15264/3478 9410/15266/3478 9409/15267/3478
f 9409/15267/3479 9410/15266/3479 9412/15268/3479 9411/15269/3479
f 9411/15269/3480 9412/15268/3480 9414/15270/3480 9413/15271/3480
f 9413/15271/3481 9414/15270/3481 9416/15272/3481 9415/15273/3481
f 9415/15273/3482 9416/15272/3482 9418/15274/3482 9417/15275/3482
f 9417/15275/3483 9418/15274/3483 9420/15276/3483 9419/15277/3483
f 9419/15277/3484 9420/15276/3484 9422/15278/3484 9421/15279/3484
f 9421/15279/3485 9422/15278/3485 9424/15280/3485 9423/15281/3485
f 9423/15281/3486 9424/15280/3486 9426/15282/3486 9425/15283/3486
f 9368/15284/3353 9366/15285/3353 9428/15286/3353 9426/15287/3353 9424/15288/3353 9422/15289/3353 9420/15290/3353 9418/15291/3353 9416/15292/3353 9414/15293/3353 9412/15294/3353 9410/15295/3353 9408/15296/3353 9406/15297/3353 9404/15298/3353 9402/15299/3353 9400/15300/3353 9398/15301/3353 9396/15302/3353 9394/15303/3353 9392/15304/3353 9390/15305/3353 9388/15306/3353 9386/15307/3353 9384/15308/3353 9382/15309/3353 9380/15310/3353 9378/15311/3353 9376/15312/3353 9374/15313/3353 9372/15314/3353 9370/15315/3353
f 9425/15283/3487 9426/15282/3487 9428/15316/3487 9427/15317/3487
f 9427/15317/3488 9428/15316/3488 9366/15318/3488 9365/15319/3488
f 9365/15320/3354 9367/15321/3354 9369/15322/3354 9371/15323/3354 9373/15324/3354 9375/15325/3354 9377/15326/3354 9379/15327/3354 9381/15328/3354 9383/15329/3354 9385/15330/3354 9387/15331/3354 9389/15332/3354 9391/15333/3354 9393/15334/3354 9395/15335/3354 9397/15336/3354 9399/15337/3354 9401/15338/3354 9403/15339/3354 9405/15340/3354 9407/15341/3354 9409/15342/3354 9411/15343/3354 9413/15344/3354 9415/15345/3354 9417/15346/3354 9419/15347/3354 9421/15348/3354 9423/15349/3354 9425/15350/3354 9427/15351/3354
f 9437/15352/3354 9430/15353/3354 9432/15354/3354 9438/15355/3354
f 9438/15355/3349 9432/15354/3349 9436/15356/3349 9439/15357/3349
f 9439/15357/3489 9436/15356/3489 9434/15358/3489 9440/15359/3489
f 9440/15359/3350 9434/15358/3350 9430/15360/3350 9437/15361/3350
f 9431/15362/3352 9435/15363/3352 9433/15364/3352 9429/15365/3352
f 9436/15356/3351 9432/15366/3351 9430/15367/3351 9434/15358/3351
f 9433/15364/3350 9440/15359/3350 9437/15361/3350 9429/15368/3350
f 9435/15363/3353 9439/15357/3353 9440/15359/3353 9433/15364/3353
f 9431/15369/3349 9438/15355/3349 9439/15357/3349 9435/15363/3349
f 9429/15370/3354 9437/15352/3354 9438/15355/3354 9431/15369/3354
f 9441/15371/3490 9442/15372/3490 9444/15373/3490 9443/15374/3490
f 9443/15374/3458 9444/15373/3458 9446/15375/3458 9445/15376/3458
f 9445/15376/3491 9446/15375/3491 9448/15377/3491 9447/15378/3491
f 9447/15378/3460 9448/15377/3460 9450/15379/3460 9449/15380/3460
f 9449/15380/3492 9450/15379/3492 9452/15381/3492 9451/15382/3492
f 9451/15382/3462 9452/15381/3462 9454/15383/3462 9453/15384/3462
f 9453/15384/3463 9454/15383/3463 9456/15385/3463 9455/15386/3463
f 9455/15386/3464 9456/15385/3464 9458/15387/3464 9457/15388/3464
f 9457/15388/3465 9458/15387/3465 9460/15389/3465 9459/15390/3465
f 9459/15390/3466 9460/15389/3466 9462/15391/3466 9461/15392/3466
f 9461/15392/3493 9462/15391/3493 9464/15393/3493 9463/15394/3493
f 9463/15394/3468 9464/15393/3468 9466/15395/3468 9465/15396/3468
f 9465/15396/3494 9466/15395/3494 9468/15397/3494 9467/15398/3494
f 9467/15398/3495 9468/15397/3495 9470/15399/3495 9469/15400/3495
f 9469/15400/3471 9470/15399/3471 9472/15401/3471 9471/15402/3471
f 9471/15402/3496 9472/15401/3496 9474/15403/3496 9473/15404/3496
f 9473/15404/3497 9474/15403/3497 9476/15405/3497 9475/15406/3497
f 9475/15406/3474 9476/15405/3474 9478/15407/3474 9477/15408/3474
f 9477/15408/3498 9478/15407/3498 9480/15409/3498 9479/15410/3498
f 9479/15410/3499 9480/15409/3499 9482/15411/3499 9481/15412/3499
f 9481/15412/3477 9482/15411/3477 9484/15413/3477 9483/15414/3477
f 9483/15414/3500 9484/15413/3500 9486/15415/3500 9485/15416/3500
f 9485/15416/3501 9486/15415/3501 9488/15417/3501 9487/15418/3501
f 9487/15418/3480 9488/15417/3480 9490/15419/3480 9489/15420/3480
f 9489/15420/3481 9490/15419/3481 9492/15421/3481 9491/15422/3481
f 9491/15422/3482 9492/15421/3482 9494/15423/3482 9493/15424/3482
f 9493/15424/3483 9494/15423/3483 9496/15425/3483 9495/15426/3483
f 9495/15426/3502 9496/15425/3502 9498/15427/3502 9497/15428/3502
f 9497/15428/3485 9498/15427/3485 9500/15429/3485 9499/15430/3485
f 9499/15430/3503 9500/15429/3503 9502/15431/3503 9501/15432/3503
f 9444/15433/3353 9442/15434/3353 9504/15435/3353 9502/15436/3353 9500/15437/3353 9498/15438/3353 9496/15439/3353 9494/15440/3353 9492/15441/3353 9490/15442/3353 9488/15443/3353 9486/15444/3353 9484/15445/3353 9482/15446/3353 9480/15447/3353 9478/15448/3353 9476/15449/3353 9474/15450/3353 9472/15451/3353 9470/15452/3353 9468/15453/3353 9466/15454/3353 9464/15455/3353 9462/15456/3353 9460/15457/3353 9458/15458/3353 9456/15459/3353 9454/15460/3353 9452/15461/3353 9450/15462/3353 9448/15463/3353 9446/15464/3353
f 9501/15432/3487 9502/15431/3487 9504/15465/3487 9503/15466/3487
f 9503/15466/3504 9504/15465/3504 9442/15467/3504 9441/15468/3504
f 9441/15469/3354 9443/15470/3354 9445/15471/3354 9447/15472/3354 9449/15473/3354 9451/15474/3354 9453/15475/3354 9455/15476/3354 9457/15477/3354 9459/15478/3354 9461/15479/3354 9463/15480/3354 9465/15481/3354 9467/15482/3354 9469/15483/3354 9471/15484/3354 9473/15485/3354 9475/15486/3354 9477/15487/3354 9479/15488/3354 9481/15489/3354 9483/15490/3354 9485/15491/3354 9487/15492/3354 9489/15493/3354 9491/15494/3354 9493/15495/3354 9495/15496/3354 9497/15497/3354 9499/15498/3354 9501/15499/3354 9503/15500/3354
