# Blender v2.80 (sub 75) OBJ File: 'all weapons.blend'
# www.blender.org
v 2.03006 0.78961 -20.25902
v 2.03006 1.83766 -20.25902
v 2.03006 0.78961 -19.74083
v 2.03006 1.83766 -19.74083
v -1.97135 0.72804 -20.25901
v -2.05344 1.19933 -20.25901
v -1.97135 0.72804 -19.74082
v -2.05344 1.19933 -19.74082
v -0.36739 0.78961 -19.74083
v -0.36739 1.83766 -19.74082
v -0.36739 0.78961 -20.25901
v -0.36739 1.83766 -20.25901
v -1.32472 1.56079 -19.74082
v -1.32473 0.78961 -20.25901
v -1.32472 0.78961 -19.74082
v -1.32473 1.56079 -20.25901
v 2.03006 1.61185 -20.25902
v 2.03006 1.61185 -19.74083
v -2.10641 1.10286 -19.74082
v -2.10641 1.10286 -20.25901
v -0.36739 1.61185 -20.25901
v -0.36739 1.61185 -19.74082
v -1.32473 1.34917 -20.25901
v -1.32472 1.34916 -19.74082
v -1.85829 0.79073 -19.77788
v -2.44370 -0.83289 -19.77788
v -1.85829 0.79073 -20.22205
v -2.44370 -0.83289 -20.22205
v -0.91386 0.79073 -19.77788
v -1.75195 -0.87779 -19.77788
v -0.91386 0.79073 -20.22205
v -1.75195 -0.87779 -20.22205
v -2.47544 -0.36789 -19.77788
v -1.40179 -0.47494 -20.22205
v -2.47544 -0.36789 -20.22205
v -1.40179 -0.47494 -19.77788
v -1.44427 -0.32984 -20.22205
v -2.42333 -0.26885 -19.77788
v -2.42333 -0.26885 -20.22205
v -1.44427 -0.32984 -19.77788
v -2.46720 -0.48859 -19.77788
v -2.46720 -0.48859 -20.22205
v -1.59370 -0.54957 -19.77788
v -1.59370 -0.54957 -20.22205
v -1.09829 0.28005 -20.22205
v -1.87561 0.33590 -19.77788
v -1.87561 0.33590 -20.22205
v -1.09828 0.28005 -19.77788
v -0.92277 0.39551 -20.22205
v -1.85829 0.51028 -19.77788
v -1.85829 0.51028 -20.22205
v -0.92277 0.39551 -19.77788
v -2.18726 -0.00820 -19.77788
v -2.18726 -0.00820 -20.22205
v -1.17043 -0.12621 -19.77788
v -1.17043 -0.12621 -20.22205
v -1.20586 0.09043 -20.22205
v -2.04590 0.14788 -19.77788
v -2.04590 0.14788 -20.22205
v -1.20586 0.09043 -19.77788
v -2.26383 -0.09274 -19.77788
v -2.26383 -0.09274 -20.22205
v -1.34352 -0.15224 -19.77788
v -1.34352 -0.15224 -20.22205
v -0.78530 0.39241 -20.22205
v -0.77639 0.78763 -20.22205
v -0.77639 0.78763 -19.77788
v -0.78530 0.39241 -19.77788
v -0.92169 0.44350 -20.22205
v -1.85829 0.54433 -19.77788
v -1.85829 0.54433 -20.22205
v -0.92169 0.44350 -19.77788
v -0.78422 0.44040 -20.22205
v -0.78422 0.44040 -19.77788
v -0.71216 0.37184 -19.77788
v -0.71325 0.32384 -19.77788
v -0.71325 0.32384 -20.22205
v -0.71216 0.37184 -20.22205
v -0.11265 0.35832 -19.77788
v -0.11373 0.31033 -19.77788
v -0.11373 0.31033 -20.22205
v -0.11265 0.35832 -20.22205
v 0.01389 0.49024 -19.77788
v 0.06189 0.48986 -19.77788
v 0.06189 0.48986 -20.22205
v 0.01389 0.49024 -20.22205
v 0.01577 0.72418 -19.77788
v 0.06378 0.72379 -19.77788
v 0.06378 0.72379 -20.22205
v 0.01577 0.72418 -20.22205
v -0.07963 0.72418 -19.77788
v 0.15918 0.72379 -19.77788
v 0.15918 0.72379 -20.22205
v -0.07963 0.72418 -20.22205
v -0.07952 0.79412 -19.77788
v 0.15929 0.79373 -19.77788
v 0.15929 0.79373 -20.22205
v -0.07952 0.79412 -20.22205
v 7.48758 1.60240 -19.76465
v 1.97112 1.60240 -19.76465
v 7.48758 1.55649 -19.76917
v 1.97112 1.55649 -19.76917
v 7.48758 1.51235 -19.78257
v 1.97112 1.51234 -19.78256
v 7.48758 1.47166 -19.80431
v 1.97112 1.47166 -19.80431
v 7.48758 1.43600 -19.83358
v 1.97112 1.43599 -19.83358
v 7.48758 1.40673 -19.86924
v 1.97112 1.40673 -19.86924
v 7.48758 1.38498 -19.90993
v 1.97112 1.38498 -19.90993
v 7.48758 1.37159 -19.95408
v 1.97112 1.37159 -19.95407
v 7.48758 1.36707 -19.99999
v 1.97112 1.36707 -19.99999
v 7.48758 1.37159 -20.04590
v 1.97112 1.37159 -20.04590
v 7.48758 1.38498 -20.09005
v 1.97112 1.38498 -20.09005
v 7.48758 1.40673 -20.13073
v 1.97112 1.40673 -20.13073
v 7.48758 1.43600 -20.16640
v 1.97112 1.43599 -20.16640
v 7.48758 1.47166 -20.19566
v 1.97112 1.47166 -20.19566
v 7.48758 1.51235 -20.21741
v 1.97112 1.51234 -20.21741
v 7.48758 1.55649 -20.23080
v 1.97112 1.55649 -20.23080
v 7.48758 1.60240 -20.23532
v 1.97112 1.60240 -20.23532
v 7.48758 1.64832 -20.23080
v 1.97112 1.64831 -20.23080
v 7.48758 1.69246 -20.21741
v 1.97112 1.69246 -20.21741
v 7.48758 1.73315 -20.19566
v 1.97112 1.73315 -20.19566
v 7.48758 1.76881 -20.16640
v 1.97112 1.76881 -20.16640
v 7.48758 1.79808 -20.13073
v 1.97112 1.79808 -20.13073
v 7.48758 1.81983 -20.09005
v 1.97112 1.81983 -20.09005
v 7.48758 1.83322 -20.04590
v 1.97112 1.83322 -20.04590
v 7.48758 1.83774 -19.99999
v 1.97112 1.83774 -19.99999
v 7.48758 1.83322 -19.95407
v 1.97112 1.83322 -19.95407
v 7.48758 1.81983 -19.90993
v 1.97112 1.81983 -19.90993
v 7.48758 1.79808 -19.86924
v 1.97112 1.79808 -19.86924
v 7.48758 1.76881 -19.83358
v 1.97112 1.76881 -19.83358
v 7.48758 1.73315 -19.80431
v 1.97112 1.73315 -19.80431
v 7.48758 1.69246 -19.78257
v 1.97112 1.69246 -19.78256
v 7.48758 1.64832 -19.76917
v 1.97112 1.64831 -19.76917
v 7.48758 1.60240 -19.78818
v 7.48758 1.56108 -19.79226
v 7.48758 1.52135 -19.80431
v 7.48758 1.48473 -19.82388
v 7.48758 1.45264 -19.85022
v 7.48758 1.42630 -19.88232
v 7.48758 1.40672 -19.91893
v 7.48758 1.39467 -19.95867
v 7.48758 1.39060 -19.99999
v 7.48758 1.39467 -20.04131
v 7.48758 1.40672 -20.08104
v 7.48758 1.42630 -20.11766
v 7.48758 1.45264 -20.14975
v 7.48758 1.48473 -20.17610
v 7.48758 1.52135 -20.19567
v 7.48758 1.56108 -20.20772
v 7.48758 1.60240 -20.21179
v 7.48758 1.64373 -20.20772
v 7.48758 1.68346 -20.19567
v 7.48758 1.72008 -20.17610
v 7.48758 1.75217 -20.14975
v 7.48758 1.77851 -20.11766
v 7.48758 1.79808 -20.08104
v 7.48758 1.81014 -20.04131
v 7.48758 1.81421 -19.99999
v 7.48758 1.81014 -19.95867
v 7.48758 1.79808 -19.91893
v 7.48758 1.77851 -19.88232
v 7.48758 1.75217 -19.85022
v 7.48758 1.72008 -19.82388
v 7.48758 1.68346 -19.80431
v 7.48758 1.64372 -19.79226
v 8.85344 1.60240 -19.78818
v 8.85344 1.56108 -19.79226
v 8.85344 1.52135 -19.80431
v 8.85344 1.48473 -19.82388
v 8.85344 1.45263 -19.85022
v 8.85344 1.42629 -19.88232
v 8.85344 1.40672 -19.91893
v 8.85344 1.39467 -19.95867
v 8.85344 1.39060 -19.99999
v 8.85344 1.39467 -20.04131
v 8.85344 1.40672 -20.08104
v 8.85344 1.42629 -20.11766
v 8.85344 1.45263 -20.14975
v 8.85344 1.48473 -20.17610
v 8.85344 1.52135 -20.19567
v 8.85344 1.56108 -20.20772
v 8.85344 1.60240 -20.21179
v 8.85344 1.64372 -20.20772
v 8.85344 1.68345 -20.19567
v 8.85344 1.72007 -20.17610
v 8.85344 1.75217 -20.14975
v 8.85344 1.77851 -20.11766
v 8.85344 1.79808 -20.08104
v 8.85344 1.81014 -20.04131
v 8.85344 1.81421 -19.99999
v 8.85344 1.81014 -19.95867
v 8.85344 1.79808 -19.91893
v 8.85344 1.77851 -19.88232
v 8.85344 1.75217 -19.85022
v 8.85344 1.72007 -19.82388
v 8.85344 1.68345 -19.80431
v 8.85344 1.64372 -19.79226
v 8.85344 1.60240 -19.83055
v 8.85344 1.56934 -19.83380
v 8.85344 1.53756 -19.84344
v 8.85344 1.50826 -19.85910
v 8.85344 1.48259 -19.88018
v 8.85344 1.46152 -19.90585
v 8.85344 1.44586 -19.93514
v 8.85344 1.43622 -19.96693
v 8.85344 1.43296 -19.99999
v 8.85344 1.43622 -20.03305
v 8.85344 1.44586 -20.06483
v 8.85344 1.46152 -20.09413
v 8.85344 1.48259 -20.11980
v 8.85344 1.50826 -20.14088
v 8.85344 1.53756 -20.15653
v 8.85344 1.56934 -20.16617
v 8.85344 1.60240 -20.16943
v 8.85344 1.63546 -20.16617
v 8.85344 1.66725 -20.15653
v 8.85344 1.69654 -20.14087
v 8.85344 1.72222 -20.11980
v 8.85344 1.74329 -20.09413
v 8.85344 1.75895 -20.06483
v 8.85344 1.76859 -20.03305
v 8.85344 1.77184 -19.99999
v 8.85344 1.76859 -19.96693
v 8.85344 1.75895 -19.93514
v 8.85344 1.74329 -19.90585
v 8.85344 1.72222 -19.88018
v 8.85344 1.69654 -19.85910
v 8.85344 1.66724 -19.84344
v 8.85344 1.63546 -19.83380
v 7.17503 1.06773 -19.56748
v 3.86571 1.06773 -19.56748
v 7.17503 0.99325 -19.57579
v 3.86571 0.99325 -19.57579
v 7.17503 0.92163 -19.60040
v 3.86571 0.92163 -19.60040
v 7.17503 0.85562 -19.64037
v 3.86571 0.85562 -19.64037
v 7.17503 0.79777 -19.69415
v 3.86571 0.79777 -19.69415
v 7.17503 0.75029 -19.75969
v 3.86571 0.75029 -19.75969
v 7.17503 0.71501 -19.83446
v 3.86571 0.71501 -19.83446
v 7.17503 0.69328 -19.91559
v 3.86571 0.69328 -19.91559
v 7.17503 0.68595 -19.99997
v 3.86571 0.68595 -19.99997
v 7.17503 0.69328 -20.08434
v 3.86571 0.69328 -20.08434
v 7.17503 0.71501 -20.16547
v 3.86571 0.71501 -20.16547
v 7.17503 0.75029 -20.24024
v 3.86571 0.75029 -20.24024
v 7.17503 0.79777 -20.30578
v 3.86571 0.79777 -20.30578
v 7.17503 0.85562 -20.35956
v 3.86571 0.85562 -20.35956
v 7.17503 0.92163 -20.39953
v 3.86571 0.92163 -20.39953
v 7.17503 0.99325 -20.42414
v 3.86571 0.99325 -20.42414
v 7.17503 1.06773 -20.43245
v 3.86571 1.06773 -20.43245
v 7.17503 1.14221 -20.42414
v 3.86571 1.14221 -20.42414
v 7.17503 1.21383 -20.39953
v 3.86571 1.21383 -20.39953
v 7.17503 1.27983 -20.35956
v 3.86571 1.27983 -20.35956
v 7.17503 1.33769 -20.30578
v 3.86571 1.33769 -20.30578
v 7.17503 1.38516 -20.24024
v 3.86571 1.38516 -20.24024
v 7.17503 1.42044 -20.16547
v 3.86571 1.42044 -20.16547
v 7.17503 1.44217 -20.08434
v 3.86571 1.44217 -20.08434
v 7.17503 1.44951 -19.99997
v 3.86571 1.44951 -19.99996
v 7.17503 1.44217 -19.91559
v 3.86571 1.44217 -19.91559
v 7.17503 1.42044 -19.83446
v 3.86571 1.42044 -19.83446
v 7.17503 1.38516 -19.75969
v 3.86571 1.38516 -19.75969
v 7.17503 1.33769 -19.69415
v 3.86571 1.33768 -19.69415
v 7.17503 1.27983 -19.64037
v 3.86571 1.27983 -19.64037
v 7.17503 1.21383 -19.60040
v 3.86571 1.21383 -19.60040
v 7.17503 1.14221 -19.57579
v 3.86571 1.14221 -19.57579
v 7.99228 1.08017 -19.77474
v 1.97112 1.08017 -19.77474
v 7.99228 1.03622 -19.77907
v 1.97112 1.03622 -19.77907
v 7.99228 0.99397 -19.79188
v 1.97112 0.99397 -19.79188
v 7.99228 0.95502 -19.81270
v 1.97112 0.95502 -19.81270
v 7.99228 0.92089 -19.84071
v 1.97112 0.92089 -19.84071
v 7.99228 0.89288 -19.87485
v 1.97112 0.89288 -19.87485
v 7.99228 0.87206 -19.91379
v 1.97112 0.87206 -19.91379
v 7.99228 0.85924 -19.95604
v 1.97112 0.85924 -19.95604
v 7.99228 0.85492 -19.99999
v 1.97112 0.85491 -19.99999
v 7.99228 0.85924 -20.04393
v 1.97112 0.85924 -20.04393
v 7.99228 0.87206 -20.08619
v 1.97112 0.87206 -20.08619
v 7.99228 0.89288 -20.12513
v 1.97112 0.89288 -20.12513
v 7.99228 0.92089 -20.15926
v 1.97112 0.92089 -20.15926
v 7.99228 0.95502 -20.18728
v 1.97112 0.95502 -20.18728
v 7.99228 0.99397 -20.20809
v 1.97112 0.99397 -20.20809
v 7.99228 1.03622 -20.22091
v 1.97112 1.03622 -20.22091
v 7.99228 1.08017 -20.22524
v 1.97112 1.08017 -20.22524
v 7.99228 1.12411 -20.22091
v 1.97112 1.12411 -20.22091
v 7.99228 1.16637 -20.20809
v 1.97112 1.16637 -20.20809
v 7.99228 1.20531 -20.18728
v 1.97112 1.20531 -20.18728
v 7.99228 1.23944 -20.15926
v 1.97112 1.23944 -20.15926
v 7.99228 1.26745 -20.12513
v 1.97112 1.26745 -20.12513
v 7.99228 1.28827 -20.08619
v 1.97112 1.28827 -20.08619
v 7.99228 1.30109 -20.04393
v 1.97112 1.30109 -20.04393
v 7.99228 1.30542 -19.99999
v 1.97112 1.30542 -19.99999
v 7.99228 1.30109 -19.95604
v 1.97112 1.30109 -19.95604
v 7.99228 1.28827 -19.91379
v 1.97112 1.28827 -19.91379
v 7.99228 1.26745 -19.87485
v 1.97112 1.26745 -19.87485
v 7.99228 1.23944 -19.84071
v 1.97112 1.23944 -19.84071
v 7.99228 1.20531 -19.81270
v 1.97112 1.20531 -19.81270
v 7.99228 1.16637 -19.79188
v 1.97112 1.16637 -19.79188
v 7.99228 1.12411 -19.77907
v 1.97112 1.12411 -19.77907
v 7.99228 1.08017 -19.72969
v 7.99228 1.02743 -19.73488
v 7.99228 0.97673 -19.75026
v 7.99228 0.93000 -19.77524
v 7.99228 0.88904 -19.80886
v 7.99228 0.85542 -19.84982
v 7.99228 0.83044 -19.89655
v 7.99228 0.81506 -19.94725
v 7.99228 0.80987 -19.99999
v 7.99228 0.81506 -20.05272
v 7.99228 0.83044 -20.10343
v 7.99228 0.85542 -20.15016
v 7.99228 0.88904 -20.19112
v 7.99228 0.93000 -20.22473
v 7.99228 0.97673 -20.24971
v 7.99228 1.02743 -20.26509
v 7.99228 1.08017 -20.27029
v 7.99228 1.13290 -20.26509
v 7.99228 1.18361 -20.24971
v 7.99228 1.23034 -20.22473
v 7.99228 1.27130 -20.19112
v 7.99228 1.30491 -20.15016
v 7.99228 1.32989 -20.10343
v 7.99228 1.34527 -20.05272
v 7.99228 1.35047 -19.99999
v 7.99228 1.34527 -19.94725
v 7.99228 1.32989 -19.89655
v 7.99228 1.30491 -19.84982
v 7.99228 1.27130 -19.80886
v 7.99228 1.23034 -19.77524
v 7.99228 1.18361 -19.75026
v 7.99228 1.13290 -19.73488
v 8.37705 1.08017 -19.72969
v 8.37705 1.02743 -19.73488
v 8.37705 0.97673 -19.75026
v 8.37705 0.93000 -19.77524
v 8.37705 0.88904 -19.80886
v 8.37705 0.85542 -19.84982
v 8.37705 0.83044 -19.89655
v 8.37705 0.81506 -19.94725
v 8.37705 0.80987 -19.99999
v 8.37705 0.81506 -20.05272
v 8.37705 0.83044 -20.10343
v 8.37705 0.85542 -20.15016
v 8.37705 0.88904 -20.19112
v 8.37705 0.93000 -20.22473
v 8.37705 0.97673 -20.24971
v 8.37705 1.02743 -20.26509
v 8.37705 1.08017 -20.27029
v 8.37705 1.13290 -20.26509
v 8.37705 1.18361 -20.24971
v 8.37705 1.23034 -20.22473
v 8.37705 1.27130 -20.19112
v 8.37705 1.30491 -20.15016
v 8.37705 1.32989 -20.10343
v 8.37705 1.34527 -20.05272
v 8.37705 1.35047 -19.99999
v 8.37705 1.34527 -19.94725
v 8.37705 1.32989 -19.89655
v 8.37705 1.30491 -19.84982
v 8.37705 1.27130 -19.80886
v 8.37705 1.23034 -19.77524
v 8.37705 1.18361 -19.75026
v 8.37705 1.13290 -19.73488
v 8.37705 1.08017 -19.75672
v 8.37705 1.03271 -19.76139
v 8.37705 0.98707 -19.77524
v 8.37705 0.94501 -19.79772
v 8.37705 0.90815 -19.82797
v 8.37705 0.87789 -19.86483
v 8.37705 0.85541 -19.90689
v 8.37705 0.84157 -19.95253
v 8.37705 0.83690 -19.99999
v 8.37705 0.84157 -20.04745
v 8.37705 0.85541 -20.09308
v 8.37705 0.87789 -20.13514
v 8.37705 0.90815 -20.17201
v 8.37705 0.94501 -20.20226
v 8.37705 0.98707 -20.22474
v 8.37705 1.03271 -20.23859
v 8.37705 1.08017 -20.24326
v 8.37705 1.12763 -20.23859
v 8.37705 1.17326 -20.22474
v 8.37705 1.21532 -20.20226
v 8.37705 1.25218 -20.17201
v 8.37705 1.28244 -20.13514
v 8.37705 1.30492 -20.09308
v 8.37705 1.31876 -20.04745
v 8.37705 1.32344 -19.99999
v 8.37705 1.31876 -19.95253
v 8.37705 1.30492 -19.90689
v 8.37705 1.28244 -19.86483
v 8.37705 1.25218 -19.82797
v 8.37705 1.21532 -19.79772
v 8.37705 1.17326 -19.77524
v 8.37705 1.12763 -19.76139
v -0.51905 0.72969 -20.07404
v -0.51905 0.79067 -20.07404
v -0.51905 0.72969 -19.92598
v -0.51905 0.79067 -19.92598
v -0.65330 0.72969 -20.07404
v -0.65330 0.79067 -20.07404
v -0.65330 0.72969 -19.92598
v -0.65330 0.79067 -19.92598
v -0.57232 0.72969 -19.92598
v -0.58386 0.79067 -19.92598
v -0.57232 0.72969 -20.07404
v -0.58386 0.79067 -20.07404
v -0.59312 0.79067 -19.92598
v -0.62074 0.72969 -20.07404
v -0.62074 0.72969 -19.92598
v -0.59312 0.79067 -20.07404
v -0.62729 0.53754 -19.92598
v -0.57729 0.54797 -19.92598
v -0.57729 0.54797 -20.07404
v -0.62729 0.53754 -20.07404
v -0.55259 0.47817 -19.92598
v -0.52312 0.49903 -19.92598
v -0.52312 0.49903 -20.07404
v -0.55259 0.47817 -20.07404
v -0.40572 0.40113 -19.92598
v -0.39250 0.41452 -19.92598
v -0.39250 0.41452 -20.07404
v -0.40572 0.40113 -20.07404
vt 0.57383 0.00000
vt 0.62500 0.00000
vt 0.62500 0.25000
vt 0.57383 0.25000
vt 0.57383 0.45539
vt 0.62500 0.45539
vt 0.62500 0.50000
vt 0.57383 0.50000
vt 0.62500 0.75000
vt 0.57383 0.75000
vt 0.57383 0.85322
vt 0.62500 0.85322
vt 0.62500 1.00000
vt 0.57383 1.00000
vt 0.33039 0.50000
vt 0.37500 0.50000
vt 0.37500 0.75000
vt 0.33039 0.75000
vt 0.72822 0.50000
vt 0.87500 0.50000
vt 0.87500 0.75000
vt 0.72822 0.75000
vt 0.66961 0.50000
vt 0.66961 0.75000
vt 0.12500 0.50000
vt 0.27178 0.50000
vt 0.27178 0.75000
vt 0.12500 0.75000
vt 0.57383 0.79461
vt 0.62500 0.79461
vt 0.62500 0.39678
vt 0.57383 0.39678
vt 0.37500 0.39678
vt 0.37500 0.45539
vt 0.37500 0.79461
vt 0.37500 0.25000
vt 0.37500 0.85322
vt 0.37500 1.00000
vt 0.37500 0.00000
vt 0.37500 0.00000
vt 0.62500 0.00000
vt 0.62500 0.25000
vt 0.37500 0.25000
vt 0.59775 0.25000
vt 0.62500 0.25000
vt 0.62500 0.50000
vt 0.59775 0.50000
vt 0.62500 0.50000
vt 0.59775 0.50000
vt 0.37500 0.75000
vt 0.62500 0.75000
vt 0.62500 1.00000
vt 0.37500 1.00000
vt 0.34775 0.50000
vt 0.37500 0.50000
vt 0.37500 0.75000
vt 0.34775 0.75000
vt 0.84775 0.50000
vt 0.87500 0.50000
vt 0.87500 0.75000
vt 0.84775 0.75000
vt 0.68416 0.50000
vt 0.70490 0.50000
vt 0.70490 0.75000
vt 0.68416 0.75000
vt 0.18416 0.50000
vt 0.20490 0.50000
vt 0.20490 0.75000
vt 0.18416 0.75000
vt 0.43416 0.50000
vt 0.45490 0.50000
vt 0.45490 0.75000
vt 0.43416 0.75000
vt 0.43416 0.25000
vt 0.45490 0.25000
vt 0.72009 0.50000
vt 0.72009 0.75000
vt 0.22009 0.50000
vt 0.22009 0.75000
vt 0.47009 0.50000
vt 0.47009 0.75000
vt 0.47009 0.25000
vt 0.37500 0.25000
vt 0.37500 0.50000
vt 0.12500 0.50000
vt 0.12500 0.75000
vt 0.62500 0.50000
vt 0.78972 0.50000
vt 0.82114 0.50000
vt 0.82114 0.75000
vt 0.78972 0.75000
vt 0.28972 0.50000
vt 0.32114 0.50000
vt 0.32114 0.75000
vt 0.28972 0.75000
vt 0.53972 0.50000
vt 0.57114 0.50000
vt 0.57114 0.75000
vt 0.53972 0.75000
vt 0.53972 0.25000
vt 0.57114 0.25000
vt 0.84399 0.50000
vt 0.84399 0.75000
vt 0.34399 0.50000
vt 0.34399 0.75000
vt 0.59399 0.50000
vt 0.59399 0.75000
vt 0.59399 0.25000
vt 0.49952 0.25000
vt 0.51364 0.25000
vt 0.51364 0.50000
vt 0.49952 0.50000
vt 0.51364 0.75000
vt 0.49952 0.75000
vt 0.24952 0.50000
vt 0.26364 0.50000
vt 0.26364 0.75000
vt 0.24952 0.75000
vt 0.74952 0.50000
vt 0.76364 0.50000
vt 0.76364 0.75000
vt 0.74952 0.75000
vt 0.62500 0.75000
vt 0.59775 0.75000
vt 0.84399 0.50000
vt 0.84775 0.50000
vt 0.59399 0.50000
vt 0.59399 0.75000
vt 0.62500 0.00000
vt 0.62500 0.25000
vt 0.87500 0.50000
vt 0.59775 0.75000
vt 0.59775 0.50000
vt 0.59399 0.50000
vt 0.59775 0.50000
vt 0.59399 0.50000
vt 0.84399 0.50000
vt 0.84775 0.50000
vt 0.59399 0.75000
vt 0.59775 0.75000
vt 0.59775 0.75000
vt 0.59775 0.50000
vt 0.84399 0.50000
vt 0.84775 0.50000
vt 0.59399 0.75000
vt 0.59399 0.75000
vt 0.59399 0.50000
vt 0.59399 0.50000
vt 0.59399 0.75000
vt 0.84399 0.50000
vt 0.84775 0.50000
vt 0.59775 0.50000
vt 0.59775 0.50000
vt 0.59399 0.50000
vt 0.84399 0.50000
vt 0.84775 0.50000
vt 0.59775 0.75000
vt 0.59775 0.75000
vt 0.59775 0.75000
vt 0.59775 0.50000
vt 0.84399 0.50000
vt 0.84775 0.50000
vt 0.59399 0.75000
vt 0.59399 0.50000
vt 0.59399 0.75000
vt 0.84399 0.50000
vt 0.84775 0.50000
vt 1.00000 0.50000
vt 1.00000 1.00000
vt 0.96875 1.00000
vt 0.96875 0.50000
vt 0.93750 1.00000
vt 0.93750 0.50000
vt 0.90625 1.00000
vt 0.90625 0.50000
vt 0.87500 1.00000
vt 0.87500 0.50000
vt 0.84375 1.00000
vt 0.84375 0.50000
vt 0.81250 1.00000
vt 0.81250 0.50000
vt 0.78125 1.00000
vt 0.78125 0.50000
vt 0.75000 1.00000
vt 0.75000 0.50000
vt 0.71875 1.00000
vt 0.71875 0.50000
vt 0.68750 1.00000
vt 0.68750 0.50000
vt 0.65625 1.00000
vt 0.65625 0.50000
vt 0.62500 1.00000
vt 0.62500 0.50000
vt 0.59375 1.00000
vt 0.59375 0.50000
vt 0.56250 1.00000
vt 0.56250 0.50000
vt 0.53125 1.00000
vt 0.53125 0.50000
vt 0.50000 1.00000
vt 0.50000 0.50000
vt 0.46875 1.00000
vt 0.46875 0.50000
vt 0.43750 1.00000
vt 0.43750 0.50000
vt 0.40625 1.00000
vt 0.40625 0.50000
vt 0.37500 1.00000
vt 0.37500 0.50000
vt 0.34375 1.00000
vt 0.34375 0.50000
vt 0.31250 1.00000
vt 0.31250 0.50000
vt 0.28125 1.00000
vt 0.28125 0.50000
vt 0.25000 1.00000
vt 0.25000 0.50000
vt 0.21875 1.00000
vt 0.21875 0.50000
vt 0.18750 1.00000
vt 0.18750 0.50000
vt 0.15625 1.00000
vt 0.15625 0.50000
vt 0.12500 1.00000
vt 0.12500 0.50000
vt 0.09375 1.00000
vt 0.09375 0.50000
vt 0.06250 1.00000
vt 0.06250 0.50000
vt 0.29682 0.48539
vt 0.25000 0.49000
vt 0.20318 0.48539
vt 0.15816 0.47173
vt 0.11666 0.44955
vt 0.08030 0.41971
vt 0.05045 0.38334
vt 0.02827 0.34184
vt 0.01461 0.29682
vt 0.01000 0.25000
vt 0.01461 0.20318
vt 0.02827 0.15816
vt 0.05045 0.11666
vt 0.08029 0.08029
vt 0.11666 0.05045
vt 0.15816 0.02827
vt 0.20318 0.01461
vt 0.25000 0.01000
vt 0.29682 0.01461
vt 0.34184 0.02827
vt 0.38334 0.05045
vt 0.41971 0.08029
vt 0.44955 0.11666
vt 0.47173 0.15816
vt 0.48539 0.20318
vt 0.49000 0.25000
vt 0.48539 0.29682
vt 0.47173 0.34184
vt 0.44955 0.38334
vt 0.41971 0.41971
vt 0.38334 0.44955
vt 0.34184 0.47173
vt 0.03125 1.00000
vt 0.03125 0.50000
vt 0.00000 1.00000
vt 0.00000 0.50000
vt 0.93750 0.50000
vt 0.96875 0.50000
vt 0.53125 0.50000
vt 0.50000 0.50000
vt 0.50000 0.50000
vt 0.53125 0.50000
vt 0.65625 0.50000
vt 0.68750 0.50000
vt 0.37500 0.50000
vt 0.40625 0.50000
vt 0.09375 0.50000
vt 0.12500 0.50000
vt 0.78125 0.50000
vt 0.81250 0.50000
vt 0.21875 0.50000
vt 0.25000 0.50000
vt 0.90625 0.50000
vt 0.62500 0.50000
vt 0.34375 0.50000
vt 0.06250 0.50000
vt 0.75000 0.50000
vt 0.46875 0.50000
vt 0.18750 0.50000
vt 0.87500 0.50000
vt 0.59375 0.50000
vt 0.31250 0.50000
vt 0.03125 0.50000
vt 0.71875 0.50000
vt 0.43750 0.50000
vt 0.15625 0.50000
vt 0.84375 0.50000
vt 0.56250 0.50000
vt 0.28125 0.50000
vt 1.00000 0.50000
vt 0.00000 0.50000
vt 0.43750 0.50000
vt 0.40625 0.50000
vt 0.40625 0.50000
vt 0.43750 0.50000
vt 0.90625 0.50000
vt 0.93750 0.50000
vt 0.06250 0.50000
vt 0.09375 0.50000
vt 0.46875 0.50000
vt 0.87500 0.50000
vt 0.03125 0.50000
vt 0.84375 0.50000
vt 0.00000 0.50000
vt 0.81250 0.50000
vt 0.37500 0.50000
vt 0.78125 0.50000
vt 0.34375 0.50000
vt 0.75000 0.50000
vt 0.31250 0.50000
vt 0.71875 0.50000
vt 0.28125 0.50000
vt 0.68750 0.50000
vt 0.25000 0.50000
vt 0.65625 0.50000
vt 0.21875 0.50000
vt 0.62500 0.50000
vt 0.18750 0.50000
vt 0.59375 0.50000
vt 0.15625 0.50000
vt 0.56250 0.50000
vt 0.96875 0.50000
vt 1.00000 0.50000
vt 0.12500 0.50000
vt 0.81250 0.50000
vt 0.84375 0.50000
vt 0.37500 0.50000
vt 0.78125 0.50000
vt 0.34375 0.50000
vt 0.75000 0.50000
vt 0.31250 0.50000
vt 0.71875 0.50000
vt 0.28125 0.50000
vt 0.68750 0.50000
vt 0.25000 0.50000
vt 0.65625 0.50000
vt 0.21875 0.50000
vt 0.62500 0.50000
vt 0.18750 0.50000
vt 0.59375 0.50000
vt 0.15625 0.50000
vt 0.56250 0.50000
vt 0.96875 0.50000
vt 1.00000 0.50000
vt 0.12500 0.50000
vt 0.53125 0.50000
vt 0.93750 0.50000
vt 0.09375 0.50000
vt 0.50000 0.50000
vt 0.90625 0.50000
vt 0.06250 0.50000
vt 0.46875 0.50000
vt 0.87500 0.50000
vt 0.03125 0.50000
vt 0.00000 0.50000
vt 1.00000 0.50000
vt 1.00000 1.00000
vt 0.96875 1.00000
vt 0.96875 0.50000
vt 0.93750 1.00000
vt 0.93750 0.50000
vt 0.90625 1.00000
vt 0.90625 0.50000
vt 0.87500 1.00000
vt 0.87500 0.50000
vt 0.84375 1.00000
vt 0.84375 0.50000
vt 0.81250 1.00000
vt 0.81250 0.50000
vt 0.78125 1.00000
vt 0.78125 0.50000
vt 0.75000 1.00000
vt 0.75000 0.50000
vt 0.71875 1.00000
vt 0.71875 0.50000
vt 0.68750 1.00000
vt 0.68750 0.50000
vt 0.65625 1.00000
vt 0.65625 0.50000
vt 0.62500 1.00000
vt 0.62500 0.50000
vt 0.59375 1.00000
vt 0.59375 0.50000
vt 0.56250 1.00000
vt 0.56250 0.50000
vt 0.53125 1.00000
vt 0.53125 0.50000
vt 0.50000 1.00000
vt 0.50000 0.50000
vt 0.46875 1.00000
vt 0.46875 0.50000
vt 0.43750 1.00000
vt 0.43750 0.50000
vt 0.40625 1.00000
vt 0.40625 0.50000
vt 0.37500 1.00000
vt 0.37500 0.50000
vt 0.34375 1.00000
vt 0.34375 0.50000
vt 0.31250 1.00000
vt 0.31250 0.50000
vt 0.28125 1.00000
vt 0.28125 0.50000
vt 0.25000 1.00000
vt 0.25000 0.50000
vt 0.21875 1.00000
vt 0.21875 0.50000
vt 0.18750 1.00000
vt 0.18750 0.50000
vt 0.15625 1.00000
vt 0.15625 0.50000
vt 0.12500 1.00000
vt 0.12500 0.50000
vt 0.09375 1.00000
vt 0.09375 0.50000
vt 0.06250 1.00000
vt 0.06250 0.50000
vt 0.29682 0.48539
vt 0.25000 0.49000
vt 0.20318 0.48539
vt 0.15816 0.47173
vt 0.11666 0.44955
vt 0.08030 0.41971
vt 0.05045 0.38334
vt 0.02827 0.34184
vt 0.01461 0.29682
vt 0.01000 0.25000
vt 0.01461 0.20318
vt 0.02827 0.15816
vt 0.05045 0.11666
vt 0.08029 0.08029
vt 0.11666 0.05045
vt 0.15816 0.02827
vt 0.20318 0.01461
vt 0.25000 0.01000
vt 0.29682 0.01461
vt 0.34184 0.02827
vt 0.38334 0.05045
vt 0.41971 0.08029
vt 0.44955 0.11666
vt 0.47173 0.15816
vt 0.48539 0.20318
vt 0.49000 0.25000
vt 0.48539 0.29682
vt 0.47173 0.34184
vt 0.44955 0.38334
vt 0.41971 0.41971
vt 0.38334 0.44955
vt 0.34184 0.47173
vt 0.03125 1.00000
vt 0.03125 0.50000
vt 0.00000 1.00000
vt 0.00000 0.50000
vt 0.75000 0.49000
vt 0.79682 0.48539
vt 0.84184 0.47173
vt 0.88334 0.44955
vt 0.91971 0.41971
vt 0.94955 0.38334
vt 0.97173 0.34184
vt 0.98539 0.29682
vt 0.99000 0.25000
vt 0.98539 0.20318
vt 0.97173 0.15816
vt 0.94955 0.11666
vt 0.91971 0.08029
vt 0.88334 0.05045
vt 0.84184 0.02827
vt 0.79682 0.01461
vt 0.75000 0.01000
vt 0.70318 0.01461
vt 0.65816 0.02827
vt 0.61666 0.05045
vt 0.58029 0.08029
vt 0.55045 0.11666
vt 0.52827 0.15816
vt 0.51461 0.20318
vt 0.51000 0.25000
vt 0.51461 0.29682
vt 0.52827 0.34184
vt 0.55045 0.38334
vt 0.58030 0.41971
vt 0.61666 0.44955
vt 0.65816 0.47173
vt 0.70318 0.48539
vt 1.00000 0.50000
vt 1.00000 1.00000
vt 0.96875 1.00000
vt 0.96875 0.50000
vt 0.93750 1.00000
vt 0.93750 0.50000
vt 0.90625 1.00000
vt 0.90625 0.50000
vt 0.87500 1.00000
vt 0.87500 0.50000
vt 0.84375 1.00000
vt 0.84375 0.50000
vt 0.81250 1.00000
vt 0.81250 0.50000
vt 0.78125 1.00000
vt 0.78125 0.50000
vt 0.75000 1.00000
vt 0.75000 0.50000
vt 0.71875 1.00000
vt 0.71875 0.50000
vt 0.68750 1.00000
vt 0.68750 0.50000
vt 0.65625 1.00000
vt 0.65625 0.50000
vt 0.62500 1.00000
vt 0.62500 0.50000
vt 0.59375 1.00000
vt 0.59375 0.50000
vt 0.56250 1.00000
vt 0.56250 0.50000
vt 0.53125 1.00000
vt 0.53125 0.50000
vt 0.50000 1.00000
vt 0.50000 0.50000
vt 0.46875 1.00000
vt 0.46875 0.50000
vt 0.43750 1.00000
vt 0.43750 0.50000
vt 0.40625 1.00000
vt 0.40625 0.50000
vt 0.37500 1.00000
vt 0.37500 0.50000
vt 0.34375 1.00000
vt 0.34375 0.50000
vt 0.31250 1.00000
vt 0.31250 0.50000
vt 0.28125 1.00000
vt 0.28125 0.50000
vt 0.25000 1.00000
vt 0.25000 0.50000
vt 0.21875 1.00000
vt 0.21875 0.50000
vt 0.18750 1.00000
vt 0.18750 0.50000
vt 0.15625 1.00000
vt 0.15625 0.50000
vt 0.12500 1.00000
vt 0.12500 0.50000
vt 0.09375 1.00000
vt 0.09375 0.50000
vt 0.06250 1.00000
vt 0.06250 0.50000
vt 0.29682 0.48539
vt 0.25000 0.49000
vt 0.20318 0.48539
vt 0.15816 0.47173
vt 0.11666 0.44955
vt 0.08030 0.41971
vt 0.05045 0.38334
vt 0.02827 0.34184
vt 0.01461 0.29682
vt 0.01000 0.25000
vt 0.01461 0.20318
vt 0.02827 0.15816
vt 0.05045 0.11666
vt 0.08029 0.08029
vt 0.11666 0.05045
vt 0.15816 0.02827
vt 0.20318 0.01461
vt 0.25000 0.01000
vt 0.29682 0.01461
vt 0.34184 0.02827
vt 0.38334 0.05045
vt 0.41971 0.08029
vt 0.44955 0.11666
vt 0.47173 0.15816
vt 0.48539 0.20318
vt 0.49000 0.25000
vt 0.48539 0.29682
vt 0.47173 0.34184
vt 0.44955 0.38334
vt 0.41971 0.41971
vt 0.38334 0.44955
vt 0.34184 0.47173
vt 0.03125 1.00000
vt 0.03125 0.50000
vt 0.00000 1.00000
vt 0.00000 0.50000
vt 0.93750 0.50000
vt 0.96875 0.50000
vt 0.53125 0.50000
vt 0.50000 0.50000
vt 0.50000 0.50000
vt 0.53125 0.50000
vt 0.65625 0.50000
vt 0.68750 0.50000
vt 0.37500 0.50000
vt 0.40625 0.50000
vt 0.09375 0.50000
vt 0.12500 0.50000
vt 0.78125 0.50000
vt 0.81250 0.50000
vt 0.21875 0.50000
vt 0.25000 0.50000
vt 0.90625 0.50000
vt 0.62500 0.50000
vt 0.34375 0.50000
vt 0.06250 0.50000
vt 0.75000 0.50000
vt 0.46875 0.50000
vt 0.18750 0.50000
vt 0.87500 0.50000
vt 0.59375 0.50000
vt 0.31250 0.50000
vt 0.03125 0.50000
vt 0.71875 0.50000
vt 0.43750 0.50000
vt 0.15625 0.50000
vt 0.84375 0.50000
vt 0.56250 0.50000
vt 0.28125 0.50000
vt 1.00000 0.50000
vt 0.00000 0.50000
vt 0.43750 0.50000
vt 0.40625 0.50000
vt 0.40625 0.50000
vt 0.43750 0.50000
vt 0.90625 0.50000
vt 0.93750 0.50000
vt 0.06250 0.50000
vt 0.09375 0.50000
vt 0.46875 0.50000
vt 0.87500 0.50000
vt 0.03125 0.50000
vt 0.84375 0.50000
vt 0.00000 0.50000
vt 0.81250 0.50000
vt 0.37500 0.50000
vt 0.78125 0.50000
vt 0.34375 0.50000
vt 0.75000 0.50000
vt 0.31250 0.50000
vt 0.71875 0.50000
vt 0.28125 0.50000
vt 0.68750 0.50000
vt 0.25000 0.50000
vt 0.65625 0.50000
vt 0.21875 0.50000
vt 0.62500 0.50000
vt 0.18750 0.50000
vt 0.59375 0.50000
vt 0.15625 0.50000
vt 0.56250 0.50000
vt 0.96875 0.50000
vt 1.00000 0.50000
vt 0.12500 0.50000
vt 0.75000 0.49000
vt 0.79682 0.48539
vt 0.84184 0.47173
vt 0.88334 0.44955
vt 0.91971 0.41971
vt 0.94955 0.38334
vt 0.97173 0.34184
vt 0.98539 0.29682
vt 0.99000 0.25000
vt 0.98539 0.20318
vt 0.97173 0.15816
vt 0.94955 0.11666
vt 0.91971 0.08029
vt 0.88334 0.05045
vt 0.84184 0.02827
vt 0.79682 0.01461
vt 0.75000 0.01000
vt 0.70318 0.01461
vt 0.65816 0.02827
vt 0.61666 0.05045
vt 0.58029 0.08029
vt 0.55045 0.11666
vt 0.52827 0.15816
vt 0.51461 0.20318
vt 0.51000 0.25000
vt 0.51461 0.29682
vt 0.52827 0.34184
vt 0.55045 0.38334
vt 0.58030 0.41971
vt 0.61666 0.44955
vt 0.65816 0.47173
vt 0.70318 0.48539
vt 0.81250 0.50000
vt 0.84375 0.50000
vt 0.37500 0.50000
vt 0.78125 0.50000
vt 0.34375 0.50000
vt 0.75000 0.50000
vt 0.31250 0.50000
vt 0.71875 0.50000
vt 0.28125 0.50000
vt 0.68750 0.50000
vt 0.25000 0.50000
vt 0.65625 0.50000
vt 0.21875 0.50000
vt 0.62500 0.50000
vt 0.18750 0.50000
vt 0.59375 0.50000
vt 0.15625 0.50000
vt 0.56250 0.50000
vt 0.96875 0.50000
vt 1.00000 0.50000
vt 0.12500 0.50000
vt 0.53125 0.50000
vt 0.93750 0.50000
vt 0.09375 0.50000
vt 0.50000 0.50000
vt 0.90625 0.50000
vt 0.06250 0.50000
vt 0.46875 0.50000
vt 0.87500 0.50000
vt 0.03125 0.50000
vt 0.00000 0.50000
vt 0.37500 0.00000
vt 0.62500 0.00000
vt 0.62500 0.25000
vt 0.37500 0.25000
vt 0.37500 0.38793
vt 0.62500 0.38793
vt 0.62500 0.50000
vt 0.37500 0.50000
vt 0.62500 0.75000
vt 0.37500 0.75000
vt 0.37500 0.87931
vt 0.62500 0.87931
vt 0.62500 1.00000
vt 0.37500 1.00000
vt 0.26293 0.50000
vt 0.26293 0.75000
vt 0.75431 0.50000
vt 0.87500 0.50000
vt 0.87500 0.75000
vt 0.75431 0.75000
vt 0.73707 0.50000
vt 0.73707 0.75000
vt 0.12500 0.50000
vt 0.24569 0.50000
vt 0.24569 0.75000
vt 0.12500 0.75000
vt 0.37500 0.86207
vt 0.62500 0.86207
vt 0.62500 0.37069
vt 0.37500 0.37069
vt 0.37500 0.38793
vt 0.37500 0.37069
vt 0.26293 0.50000
vt 0.26293 0.75000
vt 0.26293 0.75000
vt 0.26293 0.50000
vt 0.37500 0.87931
vt 0.37500 0.86207
vt 0.24569 0.50000
vt 0.24569 0.75000
vt 0.37500 0.86207
vt 0.37500 0.87931
vt 0.37500 0.87931
vt 0.37500 0.86207
vt 0.24569 0.50000
vt 0.24569 0.75000
vt 0.37500 0.38793
vt 0.37500 0.37069
vt 0.24569 0.50000
vt 0.26293 0.50000
vt 0.26293 0.75000
vt 0.24569 0.75000
vt 0.37500 0.38793
vt 0.37500 0.37069
vn 1.0000 0.0000 -0.0000
vn -0.0000 -0.0000 1.0000
vn -0.8765 0.4813 0.0000
vn -0.0000 0.0000 -1.0000
vn 0.0948 -0.9955 -0.0000
vn 0.0000 1.0000 0.0000
vn -0.2778 0.9606 0.0000
vn 0.0000 -1.0000 -0.0000
vn -0.4444 0.8958 0.0000
vn -0.9408 -0.3390 -0.0000
vn -0.0648 -0.9979 0.0000
vn -1.0000 0.0000 0.0000
vn -0.9977 -0.0681 0.0000
vn 0.3625 -0.9320 -0.0000
vn -0.8850 0.4656 0.0000
vn 0.9597 0.2809 -0.0000
vn 0.9008 -0.4343 -0.0000
vn -0.7412 0.6713 0.0000
vn 0.8698 -0.4934 -0.0000
vn -0.9951 0.0988 0.0000
vn 0.5496 -0.8354 -0.0000
vn 0.1487 -0.9889 -0.0000
vn 0.9869 0.1614 -0.0000
vn 0.9997 -0.0225 -0.0000
vn -0.0225 -0.9997 -0.0000
vn 0.0225 0.9997 0.0000
vn 0.6894 0.7244 -0.0000
vn -0.6894 -0.7244 0.0000
vn -0.7217 0.6922 0.0000
vn 1.0000 -0.0081 -0.0000
vn 0.7148 -0.6993 -0.0000
vn -1.0000 0.0081 0.0000
vn -1.0000 0.0016 0.0000
vn 0.0016 1.0000 0.0000
vn 1.0000 -0.0016 -0.0000
vn 0.0000 -0.0980 0.9952
vn 0.0000 -0.2903 0.9569
vn 0.0000 -0.4714 0.8819
vn 0.0000 -0.6344 0.7730
vn 0.0000 -0.7730 0.6344
vn 0.0000 -0.8819 0.4714
vn 0.0000 -0.9569 0.2903
vn 0.0000 -0.9952 0.0980
vn 0.0000 -0.9952 -0.0980
vn 0.0000 -0.9569 -0.2903
vn 0.0000 -0.8819 -0.4714
vn -0.0000 -0.7730 -0.6344
vn -0.0000 -0.6344 -0.7730
vn -0.0000 -0.4714 -0.8819
vn -0.0000 -0.2903 -0.9569
vn -0.0000 -0.0980 -0.9952
vn -0.0000 0.0980 -0.9952
vn -0.0000 0.2903 -0.9569
vn -0.0000 0.4714 -0.8819
vn -0.0000 0.6344 -0.7730
vn -0.0000 0.7730 -0.6344
vn -0.0000 0.8819 -0.4714
vn -0.0000 0.9569 -0.2903
vn -0.0000 0.9952 -0.0980
vn -0.0000 0.9952 0.0980
vn -0.0000 0.9569 0.2903
vn -0.0000 0.8819 0.4714
vn 0.0000 0.7730 0.6344
vn -0.0000 0.6344 0.7730
vn -0.0000 0.4714 0.8819
vn 0.0000 0.2903 0.9569
vn 0.0000 0.0980 0.9952
vn 1.0000 0.0001 0.0000
vn 1.0000 -0.0001 -0.0000
vn 0.0000 -0.1109 0.9938
vn -0.0000 -0.3250 0.9457
vn -0.0000 -0.5180 0.8554
vn -0.0000 -0.6809 0.7324
vn 0.0000 -0.8098 0.5867
vn 0.0000 -0.9044 0.4267
vn 0.0000 -0.9660 0.2587
vn 0.0000 -0.9962 0.0866
vn 0.0000 -0.9962 -0.0866
vn 0.0000 -0.9660 -0.2587
vn 0.0000 -0.9044 -0.4267
vn 0.0000 -0.8098 -0.5867
vn 0.0000 -0.6809 -0.7324
vn 0.0000 -0.5180 -0.8554
vn -0.0000 -0.3250 -0.9457
vn 0.0000 -0.1109 -0.9938
vn -0.0000 0.1109 -0.9938
vn -0.0000 0.3250 -0.9457
vn -0.0000 0.5180 -0.8554
vn 0.0000 0.6809 -0.7324
vn -0.0000 0.8098 -0.5867
vn -0.0000 0.9044 -0.4267
vn -0.0000 0.9660 -0.2587
vn -0.0000 0.9962 -0.0866
vn -0.0000 0.9962 0.0866
vn -0.0000 0.9660 0.2587
vn -0.0000 0.9044 0.4267
vn -0.0000 0.8098 0.5867
vn -0.0000 0.6809 0.7324
vn -0.0000 0.5180 0.8554
vn -0.0000 0.3250 0.9457
vn -0.0000 0.1109 0.9938
vn -0.6222 -0.7828 0.0000
vn 0.9996 -0.0273 0.0000
vn -0.9994 0.0341 0.0000
vn 0.6704 0.7420 0.0000
vn 0.7118 -0.7024 0.0000
vn -0.4645 -0.8856 0.0000
vn 0.5432 0.8396 0.0000
usemtl Material.008
s 1
f 7605/12437/2896 7590/12438/2896 7592/12439/2896 7606/12440/2896
f 7612/12441/2897 7601/12442/2897 7596/12443/2897 7607/12444/2897
f 7607/12444/2898 7596/12443/2898 7594/12445/2898 7608/12446/2898
f 7609/12447/2899 7600/12448/2899 7590/12449/2899 7605/12450/2899
f 7603/12451/2900 7595/12452/2900 7593/12453/2900 7602/12454/2900
f 7598/12455/2901 7592/12456/2901 7590/12457/2901 7600/12458/2901
f 7601/12459/2902 7598/12455/2902 7600/12458/2902 7604/12460/2902
f 7591/12461/2903 7597/12462/2903 7599/12463/2903 7589/12464/2903
f 7611/12465/2899 7604/12466/2899 7600/12448/2899 7609/12447/2899
f 7606/12440/2897 7592/12439/2897 7598/12467/2897 7610/12468/2897
f 7608/12446/2899 7594/12445/2899 7604/12466/2899 7611/12465/2899
f 7596/12443/2904 7601/12459/2904 7604/12460/2904 7594/12445/2904
f 7597/12462/2903 7603/12451/2903 7602/12454/2903 7599/12463/2903
f 7610/12468/2897 7598/12467/2897 7601/12442/2897 7612/12441/2897
f 7597/12469/2897 7610/12468/2897 7612/12441/2897 7603/12470/2897
f 7593/12453/2899 7608/12446/2899 7611/12465/2899 7602/12471/2899
f 7591/12472/2897 7606/12440/2897 7610/12468/2897 7597/12469/2897
f 7602/12471/2899 7611/12465/2899 7609/12447/2899 7599/12473/2899
f 7599/12473/2899 7609/12447/2899 7605/12450/2899 7589/12474/2899
f 7595/12452/2905 7607/12444/2905 7608/12446/2905 7593/12453/2905
f 7603/12470/2897 7612/12441/2897 7607/12444/2897 7595/12452/2897
f 7589/12475/2896 7605/12437/2896 7606/12440/2896 7591/12472/2896
f 7613/12476/2901 7617/12477/2901 7619/12478/2901 7615/12479/2901
f 7659/12480/2899 7615/12481/2899 7619/12482/2899 7657/12483/2899
f 7657/12483/2899 7619/12482/2899 7654/12484/2899 7661/12485/2899
f 7618/12486/2906 7614/12487/2906 7616/12488/2906 7620/12489/2906
f 7658/12490/2907 7613/12491/2907 7615/12492/2907 7659/12493/2907
f 7660/12494/2897 7617/12495/2897 7613/12496/2897 7658/12497/2897
f 7631/12498/2897 7624/12499/2897 7621/12500/2897 7629/12501/2897
f 7629/12502/2908 7621/12503/2908 7623/12504/2908 7630/12505/2908
f 7632/12506/2909 7622/12507/2909 7624/12508/2909 7631/12509/2909
f 7630/12510/2899 7623/12511/2899 7622/12507/2899 7632/12506/2899
f 7624/12499/2897 7628/12512/2897 7626/12513/2897 7621/12500/2897
f 7621/12503/2910 7626/12514/2910 7627/12515/2910 7623/12504/2910
f 7622/12507/2911 7625/12516/2911 7628/12517/2911 7624/12508/2911
f 7623/12511/2899 7627/12518/2899 7625/12516/2899 7622/12507/2899
f 7616/12519/2899 7630/12510/2899 7632/12506/2899 7620/12520/2899
f 7620/12520/2912 7632/12506/2912 7631/12509/2912 7618/12486/2912
f 7614/12521/2908 7629/12502/2908 7630/12505/2908 7616/12522/2908
f 7618/12523/2897 7631/12498/2897 7629/12501/2897 7614/12487/2897
f 7648/12524/2897 7636/12525/2897 7634/12526/2897 7646/12527/2897
f 7646/12528/2913 7634/12529/2913 7635/12530/2913 7647/12531/2913
f 7645/12532/2914 7633/12533/2914 7636/12534/2914 7648/12535/2914
f 7647/12536/2899 7635/12537/2899 7633/12533/2899 7645/12532/2899
f 7636/12525/2897 7640/12538/2897 7638/12539/2897 7634/12526/2897
f 7634/12529/2915 7638/12540/2915 7639/12541/2915 7635/12530/2915
f 7633/12533/2916 7637/12542/2916 7640/12543/2916 7636/12534/2916
f 7635/12537/2899 7639/12544/2899 7637/12542/2899 7633/12533/2899
f 7650/12545/2899 7642/12546/2899 7644/12547/2899 7652/12548/2899
f 7652/12548/2917 7644/12547/2917 7643/12549/2917 7651/12550/2917
f 7649/12551/2913 7641/12552/2913 7642/12553/2913 7650/12554/2913
f 7651/12555/2897 7643/12556/2897 7641/12557/2897 7649/12558/2897
f 7642/12546/2899 7647/12536/2899 7645/12532/2899 7644/12547/2899
f 7644/12547/2918 7645/12532/2918 7648/12535/2918 7643/12549/2918
f 7641/12552/2913 7646/12528/2913 7647/12531/2913 7642/12553/2913
f 7643/12556/2897 7648/12524/2897 7646/12527/2897 7641/12557/2897
f 7628/12512/2897 7651/12555/2897 7649/12558/2897 7626/12513/2897
f 7626/12514/2913 7649/12551/2913 7650/12554/2913 7627/12515/2913
f 7625/12516/2914 7652/12548/2914 7651/12550/2914 7628/12517/2914
f 7627/12518/2899 7650/12545/2899 7652/12548/2899 7625/12516/2899
f 7661/12485/2919 7654/12484/2919 7655/12559/2919 7662/12560/2919
f 7660/12494/2897 7640/12538/2897 7656/12561/2897 7662/12562/2897
f 7640/12543/2920 7637/12542/2920 7653/12563/2920 7656/12564/2920
f 7619/12478/2921 7617/12477/2921 7655/12565/2921 7654/12566/2921
f 7617/12495/2897 7660/12494/2897 7662/12562/2897 7655/12567/2897
f 7661/12485/2922 7662/12560/2922 7663/12568/2922 7666/12569/2922
f 7640/12538/2897 7660/12494/2897 7658/12497/2897 7638/12539/2897
f 7638/12540/2907 7658/12490/2907 7659/12493/2907 7639/12541/2907
f 7637/12542/2899 7657/12483/2899 7661/12485/2899 7653/12563/2899
f 7639/12544/2899 7659/12480/2899 7657/12483/2899 7637/12542/2899
f 7665/12570/2899 7666/12569/2899 7670/12571/2899 7669/12572/2899
f 7662/12562/2897 7656/12561/2897 7664/12573/2897 7663/12574/2897
f 7656/12564/2923 7653/12563/2923 7665/12570/2923 7664/12575/2923
f 7653/12563/2899 7661/12485/2899 7666/12569/2899 7665/12570/2899
f 7670/12571/2924 7667/12576/2924 7671/12577/2924 7674/12578/2924
f 7663/12574/2897 7664/12573/2897 7668/12579/2897 7667/12580/2897
f 7666/12569/2921 7663/12568/2921 7667/12576/2921 7670/12571/2921
f 7664/12575/2920 7665/12570/2920 7669/12572/2920 7668/12581/2920
f 7672/12582/2925 7673/12583/2925 7677/12584/2925 7676/12585/2925
f 7668/12581/2926 7669/12572/2926 7673/12583/2926 7672/12582/2926
f 7669/12572/2899 7670/12571/2899 7674/12578/2899 7673/12583/2899
f 7667/12580/2897 7668/12579/2897 7672/12586/2897 7671/12587/2897
f 7677/12584/2897 7678/12588/2897 7682/12589/2899 7681/12590/2899
f 7673/12583/2899 7674/12578/2899 7678/12588/2897 7677/12584/2897
f 7671/12587/2897 7672/12586/2897 7676/12591/2897 7675/12592/2897
f 7674/12578/2927 7671/12577/2927 7675/12593/2927 7678/12588/2927
f 7682/12589/2928 7679/12594/2928 7683/12595/2928 7686/12596/2928
f 7675/12592/2897 7676/12591/2897 7680/12597/2897 7679/12598/2897
f 7678/12588/2903 7675/12593/2903 7679/12594/2903 7682/12589/2903
f 7676/12585/2903 7677/12584/2903 7681/12590/2903 7680/12599/2903
f 7685/12600/2929 7686/12596/2929 7683/12595/2929 7684/12601/2929
f 7680/12599/2930 7681/12590/2930 7685/12600/2930 7684/12601/2930
f 7681/12590/2899 7682/12589/2899 7686/12596/2899 7685/12600/2899
f 7679/12598/2897 7680/12597/2897 7684/12602/2897 7683/12603/2897
f 7687/12604/2931 7688/12605/2931 7690/12606/2931 7689/12607/2931
f 7689/12607/2932 7690/12606/2932 7692/12608/2932 7691/12609/2932
f 7691/12609/2933 7692/12608/2933 7694/12610/2933 7693/12611/2933
f 7693/12611/2934 7694/12610/2934 7696/12612/2934 7695/12613/2934
f 7695/12613/2935 7696/12612/2935 7698/12614/2935 7697/12615/2935
f 7697/12615/2936 7698/12614/2936 7700/12616/2936 7699/12617/2936
f 7699/12617/2937 7700/12616/2937 7702/12618/2937 7701/12619/2937
f 7701/12619/2938 7702/12618/2938 7704/12620/2938 7703/12621/2938
f 7703/12621/2939 7704/12620/2939 7706/12622/2939 7705/12623/2939
f 7705/12623/2940 7706/12622/2940 7708/12624/2940 7707/12625/2940
f 7707/12625/2941 7708/12624/2941 7710/12626/2941 7709/12627/2941
f 7709/12627/2942 7710/12626/2942 7712/12628/2942 7711/12629/2942
f 7711/12629/2943 7712/12628/2943 7714/12630/2943 7713/12631/2943
f 7713/12631/2944 7714/12630/2944 7716/12632/2944 7715/12633/2944
f 7715/12633/2945 7716/12632/2945 7718/12634/2945 7717/12635/2945
f 7717/12635/2946 7718/12634/2946 7720/12636/2946 7719/12637/2946
f 7719/12637/2947 7720/12636/2947 7722/12638/2947 7721/12639/2947
f 7721/12639/2948 7722/12638/2948 7724/12640/2948 7723/12641/2948
f 7723/12641/2949 7724/12640/2949 7726/12642/2949 7725/12643/2949
f 7725/12643/2950 7726/12642/2950 7728/12644/2950 7727/12645/2950
f 7727/12645/2951 7728/12644/2951 7730/12646/2951 7729/12647/2951
f 7729/12647/2952 7730/12646/2952 7732/12648/2952 7731/12649/2952
f 7731/12649/2953 7732/12648/2953 7734/12650/2953 7733/12651/2953
f 7733/12651/2954 7734/12650/2954 7736/12652/2954 7735/12653/2954
f 7735/12653/2955 7736/12652/2955 7738/12654/2955 7737/12655/2955
f 7737/12655/2956 7738/12654/2956 7740/12656/2956 7739/12657/2956
f 7739/12657/2957 7740/12656/2957 7742/12658/2957 7741/12659/2957
f 7741/12659/2958 7742/12658/2958 7744/12660/2958 7743/12661/2958
f 7743/12661/2959 7744/12660/2959 7746/12662/2959 7745/12663/2959
f 7745/12663/2960 7746/12662/2960 7748/12664/2960 7747/12665/2960
f 7690/12666/2907 7688/12667/2907 7750/12668/2907 7748/12669/2907 7746/12670/2907 7744/12671/2907 7742/12672/2907 7740/12673/2907 7738/12674/2907 7736/12675/2907 7734/12676/2907 7732/12677/2907 7730/12678/2907 7728/12679/2907 7726/12680/2907 7724/12681/2907 7722/12682/2907 7720/12683/2907 7718/12684/2907 7716/12685/2907 7714/12686/2907 7712/12687/2907 7710/12688/2907 7708/12689/2907 7706/12690/2907 7704/12691/2907 7702/12692/2907 7700/12693/2907 7698/12694/2907 7696/12695/2907 7694/12696/2907 7692/12697/2907
f 7747/12665/2961 7748/12664/2961 7750/12698/2961 7749/12699/2961
f 7749/12699/2962 7750/12698/2962 7688/12700/2962 7687/12701/2962
f 7689/12607/2896 7691/12609/2896 7753/12702/2896 7752/12703/2896
f 7766/12704/2946 7767/12705/2946 7799/12706/2946 7798/12707/2946
f 7707/12625/2963 7709/12627/2896 7762/12708/2896 7761/12709/2963
f 7725/12643/2896 7727/12645/2896 7771/12710/2896 7770/12711/2896
f 7743/12661/2896 7745/12663/2896 7780/12712/2896 7779/12713/2896
f 7699/12617/2896 7701/12619/2896 7758/12714/2896 7757/12715/2896
f 7717/12635/2896 7719/12637/2896 7767/12705/2896 7766/12704/2896
f 7735/12653/2896 7737/12655/2896 7776/12716/2896 7775/12717/2896
f 7691/12609/2896 7693/12611/2896 7754/12718/2896 7753/12702/2896
f 7709/12627/2896 7711/12629/2896 7763/12719/2896 7762/12708/2896
f 7727/12645/2896 7729/12647/2896 7772/12720/2896 7771/12710/2896
f 7745/12663/2896 7747/12665/2896 7781/12721/2896 7780/12712/2896
f 7701/12619/2896 7703/12621/2896 7759/12722/2896 7758/12714/2896
f 7719/12637/2896 7721/12639/2896 7768/12723/2896 7767/12705/2896
f 7737/12655/2896 7739/12657/2964 7777/12724/2964 7776/12716/2896
f 7693/12611/2896 7695/12613/2896 7755/12725/2896 7754/12718/2896
f 7711/12629/2896 7713/12631/2896 7764/12726/2896 7763/12719/2896
f 7729/12647/2896 7731/12649/2964 7773/12727/2964 7772/12720/2896
f 7747/12665/2896 7749/12699/2896 7782/12728/2896 7781/12721/2896
f 7703/12621/2896 7705/12623/2896 7760/12729/2896 7759/12722/2896
f 7721/12639/2896 7723/12641/2896 7769/12730/2896 7768/12723/2896
f 7739/12657/2964 7741/12659/2896 7778/12731/2896 7777/12724/2964
f 7695/12613/2896 7697/12615/2896 7756/12732/2896 7755/12725/2896
f 7713/12631/2896 7715/12633/2896 7765/12733/2896 7764/12726/2896
f 7731/12649/2964 7733/12651/2964 7774/12734/2964 7773/12727/2964
f 7687/12604/2896 7689/12607/2896 7752/12703/2896 7751/12735/2896
f 7749/12699/2896 7687/12701/2896 7751/12736/2896 7782/12728/2896
f 7705/12623/2896 7707/12625/2963 7761/12709/2963 7760/12729/2896
f 7723/12641/2896 7725/12643/2896 7770/12711/2896 7769/12730/2896
f 7741/12659/2896 7743/12661/2896 7779/12713/2896 7778/12731/2896
f 7697/12615/2896 7699/12617/2896 7757/12715/2896 7756/12732/2896
f 7715/12633/2896 7717/12635/2896 7766/12704/2896 7765/12733/2896
f 7733/12651/2964 7735/12653/2896 7775/12717/2896 7774/12734/2964
f 7801/12737/2896 7802/12738/2896 7834/12739/2896 7833/12740/2896
f 7753/12702/2933 7754/12718/2933 7786/12741/2933 7785/12742/2933
f 7780/12712/2960 7781/12721/2960 7813/12743/2960 7812/12744/2960
f 7767/12705/2947 7768/12723/2947 7800/12745/2947 7799/12706/2947
f 7754/12718/2934 7755/12725/2934 7787/12746/2934 7786/12741/2934
f 7781/12721/2961 7782/12728/2961 7814/12747/2961 7813/12743/2961
f 7768/12723/2948 7769/12730/2948 7801/12737/2948 7800/12745/2948
f 7755/12725/2935 7756/12732/2935 7788/12748/2935 7787/12746/2935
f 7782/12728/2962 7751/12736/2962 7783/12749/2962 7814/12747/2962
f 7769/12730/2949 7770/12711/2949 7802/12738/2949 7801/12737/2949
f 7756/12732/2936 7757/12715/2936 7789/12750/2936 7788/12748/2936
f 7770/12711/2950 7771/12710/2950 7803/12751/2950 7802/12738/2950
f 7757/12715/2937 7758/12714/2937 7790/12752/2937 7789/12750/2937
f 7771/12710/2951 7772/12720/2951 7804/12753/2951 7803/12751/2951
f 7758/12714/2938 7759/12722/2938 7791/12754/2938 7790/12752/2938
f 7772/12720/2952 7773/12727/2952 7805/12755/2952 7804/12753/2952
f 7759/12722/2939 7760/12729/2939 7792/12756/2939 7791/12754/2939
f 7773/12727/2953 7774/12734/2953 7806/12757/2953 7805/12755/2953
f 7760/12729/2940 7761/12709/2940 7793/12758/2940 7792/12756/2940
f 7774/12734/2954 7775/12717/2954 7807/12759/2954 7806/12757/2954
f 7761/12709/2941 7762/12708/2941 7794/12760/2941 7793/12758/2941
f 7775/12717/2955 7776/12716/2955 7808/12761/2955 7807/12759/2955
f 7762/12708/2942 7763/12719/2942 7795/12762/2942 7794/12760/2942
f 7776/12716/2956 7777/12724/2956 7809/12763/2956 7808/12761/2956
f 7763/12719/2943 7764/12726/2943 7796/12764/2943 7795/12762/2943
f 7777/12724/2957 7778/12731/2957 7810/12765/2957 7809/12763/2957
f 7764/12726/2944 7765/12733/2944 7797/12766/2944 7796/12764/2944
f 7751/12735/2931 7752/12703/2931 7784/12767/2931 7783/12768/2931
f 7778/12731/2958 7779/12713/2958 7811/12769/2958 7810/12765/2958
f 7765/12733/2945 7766/12704/2945 7798/12707/2945 7797/12766/2945
f 7752/12703/2932 7753/12702/2932 7785/12742/2932 7784/12767/2932
f 7779/12713/2959 7780/12712/2959 7812/12744/2959 7811/12769/2959
f 7788/12748/2896 7789/12750/2896 7821/12770/2896 7820/12771/2896
f 7802/12738/2896 7803/12751/2896 7835/12772/2896 7834/12739/2896
f 7789/12750/2896 7790/12752/2896 7822/12773/2896 7821/12770/2896
f 7803/12751/2896 7804/12753/2896 7836/12774/2896 7835/12772/2896
f 7790/12752/2896 7791/12754/2896 7823/12775/2896 7822/12773/2896
f 7804/12753/2896 7805/12755/2896 7837/12776/2896 7836/12774/2896
f 7791/12754/2896 7792/12756/2896 7824/12777/2896 7823/12775/2896
f 7805/12755/2896 7806/12757/2896 7838/12778/2896 7837/12776/2896
f 7792/12756/2896 7793/12758/2896 7825/12779/2896 7824/12777/2896
f 7806/12757/2896 7807/12759/2896 7839/12780/2896 7838/12778/2896
f 7793/12758/2896 7794/12760/2896 7826/12781/2896 7825/12779/2896
f 7807/12759/2896 7808/12761/2896 7840/12782/2896 7839/12780/2896
f 7794/12760/2896 7795/12762/2896 7827/12783/2896 7826/12781/2896
f 7808/12761/2896 7809/12763/2896 7841/12784/2896 7840/12782/2896
f 7795/12762/2896 7796/12764/2896 7828/12785/2896 7827/12783/2896
f 7809/12763/2896 7810/12765/2896 7842/12786/2896 7841/12784/2896
f 7796/12764/2896 7797/12766/2896 7829/12787/2896 7828/12785/2896
f 7783/12768/2896 7784/12767/2896 7816/12788/2896 7815/12789/2896
f 7810/12765/2896 7811/12769/2896 7843/12790/2896 7842/12786/2896
f 7797/12766/2896 7798/12707/2896 7830/12791/2896 7829/12787/2896
f 7784/12767/2896 7785/12742/2896 7817/12792/2896 7816/12788/2896
f 7811/12769/2896 7812/12744/2896 7844/12793/2896 7843/12790/2896
f 7798/12707/2896 7799/12706/2896 7831/12794/2896 7830/12791/2896
f 7785/12742/2896 7786/12741/2896 7818/12795/2896 7817/12792/2896
f 7812/12744/2896 7813/12743/2896 7845/12796/2896 7844/12793/2896
f 7799/12706/2896 7800/12745/2896 7832/12797/2896 7831/12794/2896
f 7786/12741/2896 7787/12746/2896 7819/12798/2896 7818/12795/2896
f 7813/12743/2896 7814/12747/2896 7846/12799/2896 7845/12796/2896
f 7800/12745/2896 7801/12737/2896 7833/12740/2896 7832/12797/2896
f 7787/12746/2896 7788/12748/2896 7820/12771/2896 7819/12798/2896
f 7814/12747/2896 7783/12749/2896 7815/12800/2896 7846/12799/2896
f 7847/12801/2965 7848/12802/2965 7850/12803/2965 7849/12804/2965
f 7849/12804/2966 7850/12803/2966 7852/12805/2966 7851/12806/2966
f 7851/12806/2967 7852/12805/2967 7854/12807/2967 7853/12808/2967
f 7853/12808/2968 7854/12807/2968 7856/12809/2968 7855/12810/2968
f 7855/12810/2969 7856/12809/2969 7858/12811/2969 7857/12812/2969
f 7857/12812/2970 7858/12811/2970 7860/12813/2970 7859/12814/2970
f 7859/12814/2971 7860/12813/2971 7862/12815/2971 7861/12816/2971
f 7861/12816/2972 7862/12815/2972 7864/12817/2972 7863/12818/2972
f 7863/12818/2973 7864/12817/2973 7866/12819/2973 7865/12820/2973
f 7865/12820/2974 7866/12819/2974 7868/12821/2974 7867/12822/2974
f 7867/12822/2975 7868/12821/2975 7870/12823/2975 7869/12824/2975
f 7869/12824/2976 7870/12823/2976 7872/12825/2976 7871/12826/2976
f 7871/12826/2977 7872/12825/2977 7874/12827/2977 7873/12828/2977
f 7873/12828/2978 7874/12827/2978 7876/12829/2978 7875/12830/2978
f 7875/12830/2979 7876/12829/2979 7878/12831/2979 7877/12832/2979
f 7877/12832/2980 7878/12831/2980 7880/12833/2980 7879/12834/2980
f 7879/12834/2981 7880/12833/2981 7882/12835/2981 7881/12836/2981
f 7881/12836/2982 7882/12835/2982 7884/12837/2982 7883/12838/2982
f 7883/12838/2983 7884/12837/2983 7886/12839/2983 7885/12840/2983
f 7885/12840/2984 7886/12839/2984 7888/12841/2984 7887/12842/2984
f 7887/12842/2985 7888/12841/2985 7890/12843/2985 7889/12844/2985
f 7889/12844/2986 7890/12843/2986 7892/12845/2986 7891/12846/2986
f 7891/12846/2987 7892/12845/2987 7894/12847/2987 7893/12848/2987
f 7893/12848/2988 7894/12847/2988 7896/12849/2988 7895/12850/2988
f 7895/12850/2989 7896/12849/2989 7898/12851/2989 7897/12852/2989
f 7897/12852/2990 7898/12851/2990 7900/12853/2990 7899/12854/2990
f 7899/12854/2991 7900/12853/2991 7902/12855/2991 7901/12856/2991
f 7901/12856/2992 7902/12855/2992 7904/12857/2992 7903/12858/2992
f 7903/12858/2993 7904/12857/2993 7906/12859/2993 7905/12860/2993
f 7905/12860/2994 7906/12859/2994 7908/12861/2994 7907/12862/2994
f 7850/12863/2907 7848/12864/2907 7910/12865/2907 7908/12866/2907 7906/12867/2907 7904/12868/2907 7902/12869/2907 7900/12870/2907 7898/12871/2907 7896/12872/2907 7894/12873/2907 7892/12874/2907 7890/12875/2907 7888/12876/2907 7886/12877/2907 7884/12878/2907 7882/12879/2907 7880/12880/2907 7878/12881/2907 7876/12882/2907 7874/12883/2907 7872/12884/2907 7870/12885/2907 7868/12886/2907 7866/12887/2907 7864/12888/2907 7862/12889/2907 7860/12890/2907 7858/12891/2907 7856/12892/2907 7854/12893/2907 7852/12894/2907
f 7907/12862/2995 7908/12861/2995 7910/12895/2995 7909/12896/2995
f 7909/12896/2996 7910/12895/2996 7848/12897/2996 7847/12898/2996
f 7847/12899/2896 7849/12900/2896 7851/12901/2896 7853/12902/2896 7855/12903/2896 7857/12904/2896 7859/12905/2896 7861/12906/2896 7863/12907/2896 7865/12908/2896 7867/12909/2896 7869/12910/2896 7871/12911/2896 7873/12912/2896 7875/12913/2896 7877/12914/2896 7879/12915/2896 7881/12916/2896 7883/12917/2896 7885/12918/2896 7887/12919/2896 7889/12920/2896 7891/12921/2896 7893/12922/2896 7895/12923/2896 7897/12924/2896 7899/12925/2896 7901/12926/2896 7903/12927/2896 7905/12928/2896 7907/12929/2896 7909/12930/2896
f 7911/12931/2931 7912/12932/2931 7914/12933/2931 7913/12934/2931
f 7913/12934/2932 7914/12933/2932 7916/12935/2932 7915/12936/2932
f 7915/12936/2933 7916/12935/2933 7918/12937/2933 7917/12938/2933
f 7917/12938/2934 7918/12937/2934 7920/12939/2934 7919/12940/2934
f 7919/12940/2935 7920/12939/2935 7922/12941/2935 7921/12942/2935
f 7921/12942/2936 7922/12941/2936 7924/12943/2936 7923/12944/2936
f 7923/12944/2937 7924/12943/2937 7926/12945/2937 7925/12946/2937
f 7925/12946/2938 7926/12945/2938 7928/12947/2938 7927/12948/2938
f 7927/12948/2939 7928/12947/2939 7930/12949/2939 7929/12950/2939
f 7929/12950/2940 7930/12949/2940 7932/12951/2940 7931/12952/2940
f 7931/12952/2941 7932/12951/2941 7934/12953/2941 7933/12954/2941
f 7933/12954/2942 7934/12953/2942 7936/12955/2942 7935/12956/2942
f 7935/12956/2943 7936/12955/2943 7938/12957/2943 7937/12958/2943
f 7937/12958/2944 7938/12957/2944 7940/12959/2944 7939/12960/2944
f 7939/12960/2945 7940/12959/2945 7942/12961/2945 7941/12962/2945
f 7941/12962/2946 7942/12961/2946 7944/12963/2946 7943/12964/2946
f 7943/12964/2947 7944/12963/2947 7946/12965/2947 7945/12966/2947
f 7945/12966/2948 7946/12965/2948 7948/12967/2948 7947/12968/2948
f 7947/12968/2949 7948/12967/2949 7950/12969/2949 7949/12970/2949
f 7949/12970/2950 7950/12969/2950 7952/12971/2950 7951/12972/2950
f 7951/12972/2951 7952/12971/2951 7954/12973/2951 7953/12974/2951
f 7953/12974/2952 7954/12973/2952 7956/12975/2952 7955/12976/2952
f 7955/12976/2953 7956/12975/2953 7958/12977/2953 7957/12978/2953
f 7957/12978/2954 7958/12977/2954 7960/12979/2954 7959/12980/2954
f 7959/12980/2955 7960/12979/2955 7962/12981/2955 7961/12982/2955
f 7961/12982/2956 7962/12981/2956 7964/12983/2956 7963/12984/2956
f 7963/12984/2957 7964/12983/2957 7966/12985/2957 7965/12986/2957
f 7965/12986/2958 7966/12985/2958 7968/12987/2958 7967/12988/2958
f 7967/12988/2959 7968/12987/2959 7970/12989/2959 7969/12990/2959
f 7969/12990/2960 7970/12989/2960 7972/12991/2960 7971/12992/2960
f 7914/12993/2907 7912/12994/2907 7974/12995/2907 7972/12996/2907 7970/12997/2907 7968/12998/2907 7966/12999/2907 7964/13000/2907 7962/13001/2907 7960/13002/2907 7958/13003/2907 7956/13004/2907 7954/13005/2907 7952/13006/2907 7950/13007/2907 7948/13008/2907 7946/13009/2907 7944/13010/2907 7942/13011/2907 7940/13012/2907 7938/13013/2907 7936/13014/2907 7934/13015/2907 7932/13016/2907 7930/13017/2907 7928/13018/2907 7926/13019/2907 7924/13020/2907 7922/13021/2907 7920/13022/2907 7918/13023/2907 7916/13024/2907
f 7971/12992/2961 7972/12991/2961 7974/13025/2961 7973/13026/2961
f 7973/13026/2962 7974/13025/2962 7912/13027/2962 7911/13028/2962
f 7913/12934/2907 7915/12936/2907 7977/13029/2907 7976/13030/2907
f 7990/13031/2946 7991/13032/2946 8023/13033/2946 8022/13034/2946
f 7931/12952/2907 7933/12954/2907 7986/13035/2907 7985/13036/2907
f 7949/12970/2907 7951/12972/2907 7995/13037/2907 7994/13038/2907
f 7967/12988/2907 7969/12990/2907 8004/13039/2907 8003/13040/2907
f 7923/12944/2907 7925/12946/2907 7982/13041/2907 7981/13042/2907
f 7941/12962/2907 7943/12964/2907 7991/13032/2907 7990/13031/2907
f 7959/12980/2907 7961/12982/2907 8000/13043/2907 7999/13044/2907
f 7915/12936/2907 7917/12938/2907 7978/13045/2907 7977/13029/2907
f 7933/12954/2907 7935/12956/2907 7987/13046/2907 7986/13035/2907
f 7951/12972/2907 7953/12974/2907 7996/13047/2907 7995/13037/2907
f 7969/12990/2907 7971/12992/2907 8005/13048/2907 8004/13039/2907
f 7925/12946/2907 7927/12948/2907 7983/13049/2907 7982/13041/2907
f 7943/12964/2907 7945/12966/2907 7992/13050/2907 7991/13032/2907
f 7961/12982/2907 7963/12984/2907 8001/13051/2907 8000/13043/2907
f 7917/12938/2907 7919/12940/2907 7979/13052/2907 7978/13045/2907
f 7935/12956/2907 7937/12958/2907 7988/13053/2907 7987/13046/2907
f 7953/12974/2907 7955/12976/2907 7997/13054/2907 7996/13047/2907
f 7971/12992/2907 7973/13026/2907 8006/13055/2907 8005/13048/2907
f 7927/12948/2907 7929/12950/2907 7984/13056/2907 7983/13049/2907
f 7945/12966/2907 7947/12968/2907 7993/13057/2907 7992/13050/2907
f 7963/12984/2907 7965/12986/2907 8002/13058/2907 8001/13051/2907
f 7919/12940/2907 7921/12942/2907 7980/13059/2907 7979/13052/2907
f 7937/12958/2907 7939/12960/2907 7989/13060/2907 7988/13053/2907
f 7955/12976/2907 7957/12978/2907 7998/13061/2907 7997/13054/2907
f 7911/12931/2907 7913/12934/2907 7976/13030/2907 7975/13062/2907
f 7973/13026/2907 7911/13028/2907 7975/13063/2907 8006/13055/2907
f 7929/12950/2907 7931/12952/2907 7985/13036/2907 7984/13056/2907
f 7947/12968/2907 7949/12970/2907 7994/13038/2907 7993/13057/2907
f 7965/12986/2907 7967/12988/2907 8003/13040/2907 8002/13058/2907
f 7921/12942/2907 7923/12944/2907 7981/13042/2907 7980/13059/2907
f 7939/12960/2907 7941/12962/2907 7990/13031/2907 7989/13060/2907
f 7957/12978/2907 7959/12980/2907 7999/13044/2907 7998/13061/2907
f 8025/13064/2896 8026/13065/2896 8058/13066/2896 8057/13067/2896
f 7977/13029/2933 7978/13045/2933 8010/13068/2933 8009/13069/2933
f 8004/13039/2960 8005/13048/2960 8037/13070/2960 8036/13071/2960
f 7991/13032/2947 7992/13050/2947 8024/13072/2947 8023/13033/2947
f 7978/13045/2934 7979/13052/2934 8011/13073/2934 8010/13068/2934
f 8005/13048/2961 8006/13055/2961 8038/13074/2961 8037/13070/2961
f 7992/13050/2948 7993/13057/2948 8025/13064/2948 8024/13072/2948
f 7979/13052/2935 7980/13059/2935 8012/13075/2935 8011/13073/2935
f 8006/13055/2962 7975/13063/2962 8007/13076/2962 8038/13074/2962
f 7993/13057/2949 7994/13038/2949 8026/13065/2949 8025/13064/2949
f 7980/13059/2936 7981/13042/2936 8013/13077/2936 8012/13075/2936
f 7994/13038/2950 7995/13037/2950 8027/13078/2950 8026/13065/2950
f 7981/13042/2937 7982/13041/2937 8014/13079/2937 8013/13077/2937
f 7995/13037/2951 7996/13047/2951 8028/13080/2951 8027/13078/2951
f 7982/13041/2938 7983/13049/2938 8015/13081/2938 8014/13079/2938
f 7996/13047/2952 7997/13054/2952 8029/13082/2952 8028/13080/2952
f 7983/13049/2939 7984/13056/2939 8016/13083/2939 8015/13081/2939
f 7997/13054/2953 7998/13061/2953 8030/13084/2953 8029/13082/2953
f 7984/13056/2940 7985/13036/2940 8017/13085/2940 8016/13083/2940
f 7998/13061/2954 7999/13044/2954 8031/13086/2954 8030/13084/2954
f 7985/13036/2941 7986/13035/2941 8018/13087/2941 8017/13085/2941
f 7999/13044/2955 8000/13043/2955 8032/13088/2955 8031/13086/2955
f 7986/13035/2942 7987/13046/2942 8019/13089/2942 8018/13087/2942
f 8000/13043/2956 8001/13051/2956 8033/13090/2956 8032/13088/2956
f 7987/13046/2943 7988/13053/2943 8020/13091/2943 8019/13089/2943
f 8001/13051/2957 8002/13058/2957 8034/13092/2957 8033/13090/2957
f 7988/13053/2944 7989/13060/2944 8021/13093/2944 8020/13091/2944
f 7975/13062/2931 7976/13030/2931 8008/13094/2931 8007/13095/2931
f 8002/13058/2958 8003/13040/2958 8035/13096/2958 8034/13092/2958
f 7989/13060/2945 7990/13031/2945 8022/13034/2945 8021/13093/2945
f 7976/13030/2932 7977/13029/2932 8009/13069/2932 8008/13094/2932
f 8003/13040/2959 8004/13039/2959 8036/13071/2959 8035/13096/2959
f 8039/13097/2896 8040/13098/2896 8041/13099/2896 8042/13100/2896 8043/13101/2896 8044/13102/2896 8045/13103/2896 8046/13104/2896 8047/13105/2896 8048/13106/2896 8049/13107/2896 8050/13108/2896 8051/13109/2896 8052/13110/2896 8053/13111/2896 8054/13112/2896 8055/13113/2896 8056/13114/2896 8057/13115/2896 8058/13116/2896 8059/13117/2896 8060/13118/2896 8061/13119/2896 8062/13120/2896 8063/13121/2896 8064/13122/2896 8065/13123/2896 8066/13124/2896 8067/13125/2896 8068/13126/2896 8069/13127/2896 8070/13128/2896
f 8012/13075/2896 8013/13077/2896 8045/13129/2896 8044/13130/2896
f 8026/13065/2896 8027/13078/2896 8059/13131/2896 8058/13066/2896
f 8013/13077/2896 8014/13079/2896 8046/13132/2896 8045/13129/2896
f 8027/13078/2896 8028/13080/2896 8060/13133/2896 8059/13131/2896
f 8014/13079/2896 8015/13081/2896 8047/13134/2896 8046/13132/2896
f 8028/13080/2896 8029/13082/2896 8061/13135/2896 8060/13133/2896
f 8015/13081/2896 8016/13083/2896 8048/13136/2896 8047/13134/2896
f 8029/13082/2896 8030/13084/2896 8062/13137/2896 8061/13135/2896
f 8016/13083/2896 8017/13085/2896 8049/13138/2896 8048/13136/2896
f 8030/13084/2896 8031/13086/2896 8063/13139/2896 8062/13137/2896
f 8017/13085/2896 8018/13087/2896 8050/13140/2896 8049/13138/2896
f 8031/13086/2896 8032/13088/2896 8064/13141/2896 8063/13139/2896
f 8018/13087/2896 8019/13089/2896 8051/13142/2896 8050/13140/2896
f 8032/13088/2896 8033/13090/2896 8065/13143/2896 8064/13141/2896
f 8019/13089/2896 8020/13091/2896 8052/13144/2896 8051/13142/2896
f 8033/13090/2896 8034/13092/2896 8066/13145/2896 8065/13143/2896
f 8020/13091/2896 8021/13093/2896 8053/13146/2896 8052/13144/2896
f 8007/13095/2896 8008/13094/2896 8040/13147/2896 8039/13148/2896
f 8034/13092/2896 8035/13096/2896 8067/13149/2896 8066/13145/2896
f 8021/13093/2896 8022/13034/2896 8054/13150/2896 8053/13146/2896
f 8008/13094/2896 8009/13069/2896 8041/13151/2896 8040/13147/2896
f 8035/13096/2896 8036/13071/2896 8068/13152/2896 8067/13149/2896
f 8022/13034/2896 8023/13033/2896 8055/13153/2896 8054/13150/2896
f 8009/13069/2896 8010/13068/2896 8042/13154/2896 8041/13151/2896
f 8036/13071/2896 8037/13070/2896 8069/13155/2896 8068/13152/2896
f 8023/13033/2896 8024/13072/2896 8056/13156/2896 8055/13153/2896
f 8010/13068/2896 8011/13073/2896 8043/13157/2896 8042/13154/2896
f 8037/13070/2896 8038/13074/2896 8070/13158/2896 8069/13155/2896
f 8024/13072/2896 8025/13064/2896 8057/13067/2896 8056/13156/2896
f 8011/13073/2896 8012/13075/2896 8044/13130/2896 8043/13157/2896
f 8038/13074/2896 8007/13076/2896 8039/13159/2896 8070/13158/2896
f 8071/13160/2896 8072/13161/2896 8074/13162/2896 8073/13163/2896
f 8085/13164/2897 8083/13165/2897 8078/13166/2897 8077/13167/2897
f 8077/13167/2907 8078/13166/2907 8076/13168/2907 8075/13169/2907
f 8081/13170/2899 8082/13171/2899 8072/13172/2899 8071/13173/2899
f 8085/13174/2903 8077/13167/2903 8075/13169/2903 8084/13175/2903
f 8080/13176/2901 8074/13177/2901 8072/13178/2901 8082/13179/2901
f 8083/13180/2901 8080/13176/2901 8082/13179/2901 8086/13181/2901
f 8073/13182/2903 8079/13183/2903 8081/13184/2903 8071/13185/2903
f 8084/13186/2899 8086/13187/2899 8082/13171/2899 8081/13170/2899
f 8073/13163/2897 8074/13162/2897 8080/13188/2897 8079/13189/2897
f 8075/13169/2899 8076/13168/2899 8086/13187/2899 8084/13186/2899
f 8078/13166/2901 8083/13180/2901 8086/13181/2901 8076/13168/2901
f 8079/13189/2897 8085/13164/2897 8087/13190/2897 8088/13191/2897
f 8079/13189/2897 8080/13188/2897 8083/13165/2897 8085/13164/2897
f 8087/13192/2997 8090/13193/2997 8094/13194/2997 8091/13195/2997
f 8084/13186/2899 8081/13170/2899 8089/13196/2899 8090/13197/2899
f 8081/13184/2998 8079/13183/2998 8088/13198/2998 8089/13199/2998
f 8085/13174/2999 8084/13175/2999 8090/13193/2999 8087/13192/2999
f 8094/13200/2899 8093/13201/2899 8097/13202/2899 8098/13203/2899
f 8089/13199/3000 8088/13198/3000 8092/13204/3000 8093/13205/3000
f 8090/13197/2899 8089/13196/2899 8093/13201/2899 8094/13200/2899
f 8088/13191/2897 8087/13190/2897 8091/13206/2897 8092/13207/2897
f 8096/13208/3001 8095/13209/3001 8098/13210/3001 8097/13211/3001
f 8092/13207/2897 8091/13206/2897 8095/13212/2897 8096/13213/2897
f 8091/13195/3002 8094/13194/3002 8098/13210/3002 8095/13209/3002
f 8093/13205/3003 8092/13204/3003 8096/13208/3003 8097/13211/3003
