# Blender v2.80 (sub 75) OBJ File: 'all weapons.blend'
# www.blender.org
v -5.09129 0.74714 10.25597
v -5.09129 1.58404 10.25597
v -5.09129 0.74714 9.74397
v -5.09129 1.58404 9.74397
v 1.22361 0.74714 10.25597
v 1.22361 1.58404 10.25597
v 1.22361 0.74714 9.74397
v 1.22361 1.58404 9.74397
v -1.85013 0.33855 9.80799
v -1.85013 -1.34336 9.80799
v -1.85013 0.33855 10.19199
v -1.85013 -1.34336 10.19199
v -2.98054 0.13349 9.80799
v -2.98054 -1.34336 9.80799
v -2.98054 0.13349 10.19199
v -2.98054 -1.34336 10.19199
v -2.96312 -1.49711 9.80799
v -2.96312 -1.49711 10.19199
v -1.90156 -1.49711 9.80799
v -1.90156 -1.49711 10.19199
v -2.88417 -1.42539 9.80799
v -2.88417 -1.42539 10.19199
v -1.85233 -1.42539 10.19199
v -1.85233 -1.42539 9.80799
v -2.88743 -1.35171 10.19199
v -1.82866 -1.35995 9.80799
v -2.88743 -1.35171 9.80799
v -1.82866 -1.35995 10.19199
v -2.92976 -1.44281 9.80799
v -1.85695 -1.44281 10.19199
v -2.92976 -1.44281 10.19199
v -1.85695 -1.44281 9.80799
v -8.07818 -0.85274 10.19199
v -8.07818 1.28917 10.19199
v -8.07818 -0.85274 9.80799
v -8.07818 1.28917 9.80799
v -7.91216 -0.85274 10.19199
v -7.91216 1.28917 10.19199
v -7.91216 -0.85274 9.80799
v -7.91216 1.28917 9.80799
v -7.05911 1.20088 9.80799
v -7.05911 0.34914 9.80799
v -7.05911 0.34914 10.19199
v -7.05911 1.20088 10.19199
v -7.90253 1.20088 10.19199
v -7.90253 1.20088 9.80799
v -7.90253 -0.77015 9.80799
v -7.90253 -0.77015 10.19199
v -7.71925 1.20088 10.19199
v -7.71925 -0.76046 10.19199
v -7.71925 1.20088 9.80799
v -7.71925 -0.76046 9.80799
v -5.23296 -1.13949 10.19199
v -4.49474 0.14051 10.19199
v -5.23296 -1.13949 9.80799
v -4.49474 0.14051 9.80799
v -4.49233 -1.31059 10.19199
v -3.87028 0.14051 10.19199
v -4.49233 -1.31059 9.80799
v -3.87028 0.14051 9.80799
v -5.14823 -0.99258 10.19199
v -5.14823 -0.99258 9.80799
v -4.48662 -1.14808 9.80799
v -4.48662 -1.14808 10.19199
v -5.19060 -1.06603 9.80799
v -4.47610 -1.24752 9.80799
v -4.47610 -1.24752 10.19199
v -5.19060 -1.06603 10.19199
v -4.50128 -0.06424 10.19199
v -4.50128 -0.06424 9.80799
v -3.87028 -0.09234 9.80799
v -3.87028 -0.09234 10.19199
v -4.66367 -0.29726 9.80799
v -4.01856 -0.35733 9.80799
v -4.01856 -0.35733 10.19199
v -4.66367 -0.29726 10.19199
v -4.88298 -0.61196 9.80799
v -4.23040 -0.71522 9.80799
v -4.23040 -0.71522 10.19199
v -4.88298 -0.61196 10.19199
v -4.79688 -0.48841 10.19199
v -4.79688 -0.48841 9.80799
v -4.14723 -0.59750 9.80799
v -4.14723 -0.59750 10.19199
v -4.86010 -0.57912 9.80799
v -4.09438 -0.71491 9.80799
v -4.09438 -0.71491 10.19199
v -4.86010 -0.57912 10.19199
v -4.63892 -0.26175 10.19199
v -4.63892 -0.26175 9.80799
v -3.87028 -0.31695 9.80799
v -3.87028 -0.31695 10.19199
v -4.62323 -0.23923 10.19199
v -4.62323 -0.23923 9.80799
v -3.87028 -0.29134 9.80799
v -3.87028 -0.29134 10.19199
v -3.03932 -0.29134 9.80799
v -3.03932 -0.31695 9.80799
v -3.03932 -0.29134 10.19199
v -3.03932 -0.31695 10.19199
v -7.05539 0.35880 10.19202
v -7.09241 0.85035 10.19202
v -7.05539 0.35880 9.80802
v -7.09241 0.85035 9.80802
v -5.46621 0.35880 10.19202
v -5.46621 0.85035 10.19202
v -5.46621 0.35880 9.80802
v -5.46621 0.85035 9.80802
v -7.25985 0.85035 10.22399
v -7.25985 1.30010 10.22399
v -7.25985 0.85035 9.77599
v -7.25985 1.30010 9.77599
v -5.46621 0.85035 10.22399
v -5.46621 1.51229 10.22399
v -5.46621 0.85035 9.77599
v -5.46621 1.51229 9.77599
v -7.04338 0.85035 9.77599
v -7.04338 1.30010 9.77599
v -7.04338 0.85035 10.22399
v -7.04338 1.30010 10.22399
v -5.47127 0.32275 10.25599
v -5.47127 1.50982 10.25599
v -5.47127 0.32275 9.74399
v -5.47127 1.50982 9.74399
v -5.09183 0.32018 10.25599
v -5.09183 1.57557 10.25599
v -5.09183 0.32018 9.74399
v -5.09183 1.57557 9.74399
v -5.08445 0.29518 10.22397
v -5.08445 0.74968 10.22397
v -5.08445 0.29518 9.77597
v -5.08445 0.74968 9.77597
v -1.75418 0.12430 10.22397
v -1.44659 0.74968 10.22397
v -1.75418 0.12430 9.77597
v -1.44659 0.74968 9.77597
v -5.08445 0.55754 10.22397
v -5.08445 0.55754 9.77597
v -1.44659 0.55754 9.77597
v -1.44659 0.55754 10.22397
v -5.08445 0.50001 9.77597
v -1.73897 0.45899 9.77597
v -1.73897 0.45899 10.22397
v -5.08445 0.50001 10.22397
v -4.59209 0.29518 9.77597
v -4.54662 0.74968 9.77597
v -4.59209 0.29518 10.22397
v -4.54662 0.74968 10.22397
v -4.54662 0.55754 10.22397
v -4.54662 0.55754 9.77597
v -4.58985 0.49394 9.77597
v -4.58985 0.49394 10.22397
v -4.43830 0.74968 9.77597
v -4.49294 0.12430 10.22397
v -4.43830 0.55754 9.77597
v -4.49024 0.49272 9.77597
v -4.49294 0.12430 9.77597
v -4.43830 0.74968 10.22397
v -4.43830 0.55754 10.22397
v -4.49024 0.49272 10.22397
v -3.66420 0.74968 9.77597
v -3.78429 0.16385 10.22397
v -3.66420 0.55754 9.77597
v -3.77835 0.48400 9.77597
v -3.78429 0.16385 9.77597
v -3.66420 0.74968 10.22397
v -3.66420 0.55754 10.22397
v -3.77835 0.48400 10.22397
v -3.85550 0.11605 9.77597
v -3.74740 0.74968 10.22397
v -3.74740 0.55754 10.22397
v -3.85486 0.48493 10.22397
v -3.74740 0.74968 9.77597
v -3.85550 0.11605 10.22397
v -3.74740 0.55754 9.77597
v -3.85486 0.48493 9.77597
v -2.91635 0.74968 9.77597
v -3.09967 0.15051 10.22397
v -2.91635 0.55754 9.77597
v -3.09061 0.47556 9.77597
v -3.09967 0.15051 9.77597
v -2.91635 0.74968 10.22397
v -2.91635 0.55754 10.22397
v -3.09061 0.47556 10.22397
v -2.86021 0.74968 9.77597
v -3.04144 0.14951 10.22397
v -2.86021 0.55754 9.77597
v -3.03898 0.47493 9.77597
v -3.04144 0.14951 9.77597
v -2.86021 0.74968 10.22397
v -2.86021 0.55754 10.22397
v -3.03898 0.47493 10.22397
v -1.75418 -0.06368 10.22397
v -1.75418 -0.06368 9.77597
v -3.04144 -0.31871 10.22397
v -3.04144 -0.31871 9.77597
v -4.89771 1.57265 10.25600
v -4.89771 1.82481 10.25600
v -4.89771 1.57265 9.74400
v -4.89771 1.82481 9.74400
v -4.38213 1.57265 10.25600
v -4.38213 1.78721 10.25600
v -4.38213 1.57265 9.74400
v -4.38213 1.78721 9.74400
v -4.68117 1.57265 9.74400
v -4.68117 1.82481 9.74400
v -4.68117 1.57265 10.25600
v -4.68117 1.82481 10.25600
v -4.67073 1.78721 9.74400
v -4.67073 1.57265 10.25600
v -4.67073 1.57265 9.74400
v -4.67073 1.78721 10.25600
v -4.84774 1.57265 9.74400
v -4.84774 1.82481 10.25600
v -4.84774 1.82481 9.74400
v -4.84774 1.57265 10.25600
v -4.84774 2.22038 9.74400
v -4.68117 2.22038 9.74400
v -4.68117 2.22038 10.25600
v -4.84774 2.22038 10.25600
v -0.31960 0.90776 9.67999
v 1.22014 0.90776 9.67999
v -0.31960 0.85868 9.68614
v 1.22014 0.85868 9.68614
v -0.31960 0.81149 9.70435
v 1.22014 0.81149 9.70435
v -0.31960 0.76799 9.73392
v 1.22014 0.76799 9.73392
v -0.31960 0.72987 9.77371
v 1.22014 0.72987 9.77371
v -0.31960 0.69859 9.82221
v 1.22014 0.69859 9.82221
v -0.31960 0.67534 9.87753
v 1.22014 0.67534 9.87753
v -0.31960 0.66103 9.93756
v 1.22014 0.66103 9.93756
v -0.31960 0.65619 9.99999
v 1.22014 0.65619 9.99999
v -0.31960 0.66103 10.06242
v 1.22014 0.66103 10.06242
v -0.31960 0.67534 10.12245
v 1.22014 0.67534 10.12245
v -0.31960 0.69859 10.17777
v 1.22014 0.69859 10.17777
v -0.31960 0.72987 10.22626
v 1.22014 0.72987 10.22626
v -0.31960 0.76799 10.26606
v 1.22014 0.76799 10.26606
v -0.31960 0.81149 10.29563
v 1.22014 0.81149 10.29563
v -0.31960 0.85868 10.31384
v 1.22014 0.85868 10.31384
v -0.31960 0.90776 10.31999
v 1.22014 0.90776 10.31999
v -0.31960 0.95684 10.31384
v 1.22014 0.95684 10.31384
v -0.31960 1.00403 10.29563
v 1.22014 1.00403 10.29563
v -0.31960 1.04752 10.26606
v 1.22014 1.04752 10.26606
v -0.31960 1.08564 10.22626
v 1.22014 1.08564 10.22626
v -0.31960 1.11693 10.17777
v 1.22014 1.11693 10.17777
v -0.31960 1.14017 10.12245
v 1.22014 1.14017 10.12245
v -0.31960 1.15449 10.06242
v 1.22014 1.15449 10.06242
v -0.31960 1.15932 9.99999
v 1.22014 1.15932 9.99999
v -0.31960 1.15449 9.93756
v 1.22014 1.15449 9.93756
v -0.31960 1.14017 9.87753
v 1.22014 1.14017 9.87753
v -0.31960 1.11693 9.82221
v 1.22014 1.11693 9.82221
v -0.31960 1.08564 9.77371
v 1.22014 1.08564 9.77371
v -0.31960 1.04752 9.73392
v 1.22014 1.04752 9.73392
v -0.31960 1.00403 9.70435
v 1.22014 1.00403 9.70435
v -0.31960 0.95683 9.68614
v 1.22014 0.95683 9.68614
v -1.72244 0.57350 9.90399
v 1.12710 0.57350 9.90399
v -1.72244 0.55462 9.90583
v 1.12710 0.55462 9.90583
v -1.72244 0.53646 9.91130
v 1.12710 0.53646 9.91130
v -1.72244 0.51972 9.92017
v 1.12710 0.51972 9.92017
v -1.72244 0.50505 9.93211
v 1.12710 0.50505 9.93211
v -1.72244 0.49301 9.94665
v 1.12710 0.49301 9.94665
v -1.72244 0.48407 9.96325
v 1.12710 0.48407 9.96325
v -1.72244 0.47856 9.98126
v 1.12710 0.47856 9.98126
v -1.72244 0.47670 9.99999
v 1.12710 0.47670 9.99999
v -1.72244 0.47856 10.01872
v 1.12710 0.47856 10.01872
v -1.72244 0.48407 10.03673
v 1.12710 0.48407 10.03673
v -1.72244 0.49301 10.05332
v 1.12710 0.49301 10.05332
v -1.72244 0.50505 10.06787
v 1.12710 0.50505 10.06787
v -1.72244 0.51972 10.07981
v 1.12710 0.51972 10.07981
v -1.72244 0.53646 10.08868
v 1.12710 0.53646 10.08868
v -1.72244 0.55462 10.09414
v 1.12710 0.55462 10.09414
v -1.72244 0.57350 10.09599
v 1.12710 0.57350 10.09599
v -1.72244 0.59239 10.09414
v 1.12710 0.59239 10.09414
v -1.72244 0.61055 10.08868
v 1.12710 0.61055 10.08868
v -1.72244 0.62728 10.07981
v 1.12710 0.62728 10.07981
v -1.72244 0.64195 10.06787
v 1.12710 0.64195 10.06787
v -1.72244 0.65399 10.05332
v 1.12710 0.65399 10.05332
v -1.72244 0.66293 10.03673
v 1.12710 0.66293 10.03673
v -1.72244 0.66844 10.01872
v 1.12710 0.66844 10.01872
v -1.72244 0.67030 9.99999
v 1.12710 0.67030 9.99999
v -1.72244 0.66844 9.98126
v 1.12710 0.66844 9.98126
v -1.72244 0.66293 9.96325
v 1.12710 0.66293 9.96325
v -1.72244 0.65399 9.94665
v 1.12710 0.65399 9.94665
v -1.72244 0.64195 9.93211
v 1.12710 0.64195 9.93211
v -1.72244 0.62728 9.92017
v 1.12710 0.62728 9.92017
v -1.72244 0.61055 9.91130
v 1.12710 0.61055 9.91130
v -1.72244 0.59239 9.90583
v 1.12710 0.59239 9.90583
v 1.20814 0.96022 9.90399
v 5.19164 0.96022 9.90399
v 1.20814 0.93998 9.90583
v 5.19164 0.93998 9.90583
v 1.20814 0.92050 9.91130
v 5.19164 0.92050 9.91130
v 1.20814 0.90256 9.92017
v 5.19164 0.90256 9.92017
v 1.20814 0.88683 9.93211
v 5.19164 0.88683 9.93211
v 1.20814 0.87392 9.94665
v 5.19164 0.87392 9.94665
v 1.20814 0.86433 9.96325
v 5.19164 0.86433 9.96325
v 1.20814 0.85842 9.98126
v 5.19164 0.85842 9.98126
v 1.20814 0.85643 9.99999
v 5.19164 0.85643 9.99999
v 1.20814 0.85842 10.01872
v 5.19164 0.85842 10.01872
v 1.20814 0.86433 10.03673
v 5.19164 0.86433 10.03673
v 1.20814 0.87392 10.05332
v 5.19164 0.87392 10.05332
v 1.20814 0.88683 10.06787
v 5.19164 0.88683 10.06787
v 1.20814 0.90256 10.07981
v 5.19164 0.90256 10.07981
v 1.20814 0.92050 10.08868
v 5.19164 0.92050 10.08868
v 1.20814 0.93998 10.09414
v 5.19164 0.93998 10.09414
v 1.20814 0.96022 10.09599
v 5.19164 0.96022 10.09599
v 1.20814 0.98047 10.09414
v 5.19164 0.98047 10.09414
v 1.20814 0.99994 10.08868
v 5.19164 0.99994 10.08868
v 1.20814 1.01789 10.07981
v 5.19164 1.01789 10.07981
v 1.20814 1.03362 10.06787
v 5.19164 1.03362 10.06787
v 1.20814 1.04653 10.05332
v 5.19164 1.04653 10.05332
v 1.20814 1.05612 10.03673
v 5.19164 1.05612 10.03673
v 1.20814 1.06202 10.01872
v 5.19164 1.06202 10.01872
v 1.20814 1.06402 9.99999
v 5.19164 1.06402 9.99999
v 1.20814 1.06202 9.98126
v 5.19164 1.06202 9.98126
v 1.20814 1.05612 9.96325
v 5.19164 1.05612 9.96325
v 1.20814 1.04653 9.94665
v 5.19164 1.04653 9.94665
v 1.20814 1.03362 9.93211
v 5.19164 1.03362 9.93211
v 1.20814 1.01789 9.92017
v 5.19164 1.01789 9.92017
v 1.20814 0.99994 9.91130
v 5.19164 0.99994 9.91130
v 1.20814 0.98047 9.90583
v 5.19164 0.98047 9.90583
v 4.25212 0.96022 9.87199
v 5.21606 0.96022 9.87199
v 4.25212 0.93325 9.87445
v 5.21606 0.93325 9.87445
v 4.25212 0.90731 9.88173
v 5.21606 0.90731 9.88173
v 4.25212 0.88341 9.89356
v 5.21606 0.88341 9.89356
v 4.25212 0.86245 9.90948
v 5.21606 0.86245 9.90948
v 4.25212 0.84526 9.92888
v 5.21606 0.84526 9.92888
v 4.25212 0.83248 9.95101
v 5.21606 0.83248 9.95101
v 4.25212 0.82461 9.97502
v 5.21606 0.82461 9.97502
v 4.25212 0.82196 9.99999
v 5.21606 0.82196 9.99999
v 4.25212 0.82461 10.02496
v 5.21606 0.82461 10.02496
v 4.25212 0.83248 10.04897
v 5.21606 0.83248 10.04897
v 4.25212 0.84526 10.07110
v 5.21606 0.84526 10.07110
v 4.25212 0.86245 10.09050
v 5.21606 0.86245 10.09050
v 4.25212 0.88341 10.10642
v 5.21606 0.88341 10.10642
v 4.25212 0.90731 10.11825
v 5.21606 0.90731 10.11825
v 4.25212 0.93325 10.12553
v 5.21606 0.93325 10.12553
v 4.25212 0.96022 10.12799
v 5.21606 0.96022 10.12799
v 4.25212 0.98720 10.12553
v 5.21606 0.98720 10.12553
v 4.25212 1.01314 10.11825
v 5.21606 1.01314 10.11825
v 4.25212 1.03704 10.10642
v 5.21606 1.03704 10.10642
v 4.25212 1.05800 10.09050
v 5.21606 1.05800 10.09050
v 4.25212 1.07519 10.07110
v 5.21606 1.07519 10.07110
v 4.25212 1.08797 10.04897
v 5.21606 1.08797 10.04897
v 4.25212 1.09584 10.02496
v 5.21606 1.09584 10.02496
v 4.25212 1.09849 9.99999
v 5.21606 1.09849 9.99999
v 4.25212 1.09584 9.97502
v 5.21606 1.09584 9.97502
v 4.25212 1.08797 9.95101
v 5.21606 1.08797 9.95101
v 4.25212 1.07519 9.92888
v 5.21606 1.07519 9.92888
v 4.25212 1.05800 9.90948
v 5.21606 1.05800 9.90948
v 4.25212 1.03704 9.89356
v 5.21606 1.03704 9.89356
v 4.25212 1.01314 9.88173
v 5.21606 1.01314 9.88173
v 4.25212 0.98720 9.87445
v 5.21606 0.98720 9.87445
v 1.38746 0.78908 10.12799
v 1.51608 1.35597 10.12799
v 1.38746 0.78908 9.87199
v 1.51608 1.35597 9.87199
v 1.88339 0.78908 10.12799
v 1.88339 1.35597 10.12799
v 1.88339 0.78908 9.87199
v 1.88339 1.35597 9.87199
v 1.38746 1.07252 10.12799
v 1.38746 1.07252 9.87199
v 1.88339 1.07252 9.87199
v 1.88339 1.07252 10.12799
v 1.51608 1.08670 10.12799
v 1.51608 1.08670 9.87199
v 1.88339 1.08670 9.87199
v 1.88339 1.08670 10.12799
v 1.18742 1.26646 9.87199
v 1.57432 1.26646 9.87199
v 1.18742 1.25320 9.87445
v 1.57432 1.25320 9.87445
v 1.18742 1.24044 9.88173
v 1.57432 1.24044 9.88173
v 1.18742 1.22868 9.89356
v 1.57432 1.22868 9.89356
v 1.18742 1.21837 9.90948
v 1.57432 1.21837 9.90948
v 1.18742 1.20992 9.92888
v 1.57432 1.20992 9.92888
v 1.18742 1.20363 9.95101
v 1.57432 1.20363 9.95101
v 1.18742 1.19976 9.97502
v 1.57432 1.19976 9.97502
v 1.18742 1.19845 9.99999
v 1.57432 1.19845 9.99999
v 1.18742 1.19976 10.02496
v 1.57432 1.19976 10.02496
v 1.18742 1.20363 10.04897
v 1.57432 1.20363 10.04897
v 1.18742 1.20992 10.07110
v 1.57432 1.20992 10.07110
v 1.18742 1.21837 10.09050
v 1.57432 1.21837 10.09050
v 1.18742 1.22868 10.10642
v 1.57432 1.22868 10.10642
v 1.18742 1.24044 10.11825
v 1.57432 1.24044 10.11825
v 1.18742 1.25320 10.12553
v 1.57432 1.25320 10.12553
v 1.18742 1.26646 10.12799
v 1.57432 1.26646 10.12799
v 1.18742 1.27973 10.12553
v 1.57432 1.27973 10.12553
v 1.18742 1.29249 10.11824
v 1.57432 1.29249 10.11824
v 1.18742 1.30425 10.10642
v 1.57432 1.30425 10.10642
v 1.18742 1.31456 10.09050
v 1.57432 1.31456 10.09050
v 1.18742 1.32302 10.07110
v 1.57432 1.32302 10.07110
v 1.18742 1.32930 10.04897
v 1.57432 1.32930 10.04897
v 1.18742 1.33317 10.02496
v 1.57432 1.33317 10.02496
v 1.18742 1.33448 9.99999
v 1.57432 1.33448 9.99999
v 1.18742 1.33317 9.97502
v 1.57432 1.33317 9.97502
v 1.18742 1.32930 9.95101
v 1.57432 1.32930 9.95101
v 1.18742 1.32302 9.92888
v 1.57432 1.32302 9.92888
v 1.18742 1.31456 9.90948
v 1.57432 1.31456 9.90948
v 1.18742 1.30425 9.89356
v 1.57432 1.30425 9.89356
v 1.18742 1.29249 9.88173
v 1.57432 1.29249 9.88173
v 1.18742 1.27973 9.87445
v 1.57432 1.27973 9.87445
v 2.92309 0.80031 10.12799
v 2.92309 1.21559 10.12799
v 2.92309 0.80031 9.87199
v 2.92309 1.21559 9.87199
v 3.09620 0.80031 10.12799
v 3.09620 1.21559 10.12799
v 3.09620 0.80031 9.87199
v 3.09620 1.21559 9.87199
v -3.67576 0.05010 10.12799
v -3.67576 0.24264 10.12799
v -3.67576 0.05010 9.87199
v -3.67576 0.24264 9.87199
v -3.57042 0.05010 10.12799
v -3.57042 0.24264 10.12799
v -3.57042 0.05010 9.87199
v -3.57042 0.24264 9.87199
v -3.61370 -0.28567 9.87199
v -3.61370 -0.28567 10.12799
v -3.57042 -0.28567 9.87199
v -3.57042 -0.28567 10.12799
v -3.61179 -0.00586 10.12799
v -3.63812 -0.06182 10.12799
v -3.64658 -0.11778 10.12799
v -3.63812 -0.17375 10.12799
v -3.61179 -0.22971 10.12799
v -3.61179 -0.22971 9.87199
v -3.63812 -0.17375 9.87199
v -3.64658 -0.11778 9.87199
v -3.63812 -0.06182 9.87199
v -3.61179 -0.00586 9.87199
v -3.67576 -0.00586 10.12799
v -3.67576 -0.06182 10.12799
v -3.67576 -0.11778 10.12799
v -3.67576 -0.17375 10.12799
v -3.64567 -0.22971 10.12799
v -3.64567 -0.22971 9.87199
v -3.67576 -0.17375 9.87199
v -3.67576 -0.11778 9.87199
v -3.67576 -0.06182 9.87199
v -3.67576 -0.00586 9.87199
vt 0.43684 0.38832
vt 0.43684 0.56398
vt 0.56316 0.56398
vt 0.56316 0.38832
vt 0.24105 0.50377
vt 0.24105 0.65118
vt 0.69518 0.65118
vt 0.69518 0.50377
vt 0.56316 0.38832
vt 0.56316 0.56398
vt 0.43684 0.56398
vt 0.43684 0.38832
vt 0.69518 0.50377
vt 0.69518 0.65118
vt 0.24105 0.65118
vt 0.24105 0.50377
vt 0.40560 0.60135
vt 1.02884 0.60135
vt 1.02884 0.39865
vt 0.40560 0.39865
vt 1.02884 0.60135
vt 0.40560 0.60135
vt 0.40560 0.39865
vt 1.02884 0.39865
vt 0.37500 0.00000
vt 0.62500 0.00000
vt 0.62500 0.25000
vt 0.37500 0.25000
vt 0.37500 0.25000
vt 0.62500 0.25000
vt 0.62500 0.50000
vt 0.37500 0.50000
vt 0.62500 0.75000
vt 0.37500 0.75000
vt 0.37500 0.50000
vt 0.37500 0.75000
vt 0.37500 0.75000
vt 0.37500 0.50000
vt 0.12500 0.50000
vt 0.37500 0.50000
vt 0.37500 0.75000
vt 0.12500 0.75000
vt 0.62500 0.50000
vt 0.87500 0.50000
vt 0.87500 0.75000
vt 0.62500 0.75000
vt 0.62500 0.75000
vt 0.62500 1.00000
vt 0.37500 1.00000
vt 0.12500 0.50000
vt 0.12500 0.75000
vt 0.12500 0.75000
vt 0.12500 0.50000
vt 0.62500 0.50000
vt 0.62500 0.75000
vt 0.62500 0.50000
vt 0.37500 0.25000
vt 0.37500 0.25000
vt 0.37500 0.25000
vt 0.37500 0.50000
vt 0.37500 0.50000
vt 0.37500 0.25000
vt 0.62500 0.50000
vt 0.62500 0.75000
vt 0.62500 0.75000
vt 0.62500 0.50000
vt 0.12500 0.50000
vt 0.12500 0.75000
vt 0.12500 0.75000
vt 0.12500 0.50000
vt 0.37500 0.75000
vt 0.37500 0.75000
vt 0.37500 0.00000
vt 0.62500 0.00000
vt 0.62500 0.25000
vt 0.37500 0.25000
vt 0.62500 0.50000
vt 0.37500 0.50000
vt 0.62500 0.50000
vt 0.62500 0.75000
vt 0.62500 0.75000
vt 0.62500 0.50000
vt 0.37500 0.75000
vt 0.62500 0.75000
vt 0.62500 1.00000
vt 0.37500 1.00000
vt 0.12500 0.50000
vt 0.12500 0.75000
vt 0.87500 0.50000
vt 0.87500 0.75000
vt 0.37500 0.50000
vt 0.37500 0.75000
vt 0.37500 0.50000
vt 0.37500 0.75000
vt 0.37500 0.50000
vt 0.37500 0.75000
vt 0.62500 0.75000
vt 0.62500 0.50000
vt 0.58501 0.00000
vt 0.62500 0.00000
vt 0.62500 0.25000
vt 0.58501 0.25000
vt 0.62500 0.50000
vt 0.58501 0.50000
vt 0.62500 0.75000
vt 0.58501 0.75000
vt 0.62500 1.00000
vt 0.58501 1.00000
vt 0.12500 0.50000
vt 0.37500 0.50000
vt 0.37500 0.75000
vt 0.12500 0.75000
vt 0.87500 0.50000
vt 0.87500 0.75000
vt 0.38935 0.75000
vt 0.40369 0.75000
vt 0.40369 1.00000
vt 0.38935 1.00000
vt 0.38935 0.50000
vt 0.40369 0.50000
vt 0.38935 0.25000
vt 0.40369 0.25000
vt 0.38935 0.00000
vt 0.40369 0.00000
vt 0.37500 0.00000
vt 0.37500 0.25000
vt 0.37500 1.00000
vt 0.55083 0.75000
vt 0.55083 1.00000
vt 0.55083 0.50000
vt 0.55083 0.25000
vt 0.55083 0.00000
vt 0.50216 0.00000
vt 0.53950 0.00000
vt 0.53950 0.25000
vt 0.50216 0.25000
vt 0.53950 0.50000
vt 0.50216 0.50000
vt 0.53950 0.75000
vt 0.50216 0.75000
vt 0.53950 1.00000
vt 0.50216 1.00000
vt 0.47803 0.75000
vt 0.47803 1.00000
vt 0.47803 0.50000
vt 0.47803 0.25000
vt 0.47803 0.00000
vt 0.48445 0.75000
vt 0.48445 1.00000
vt 0.48445 0.50000
vt 0.48445 0.25000
vt 0.48445 0.00000
vt 0.54643 0.00000
vt 0.54643 0.25000
vt 0.54643 0.50000
vt 0.54643 0.75000
vt 0.54643 1.00000
vt 0.54643 0.75000
vt 0.55083 0.75000
vt 0.54643 0.50000
vt 0.55083 0.50000
vt 0.37500 0.00000
vt 0.62500 0.00000
vt 0.62500 0.25000
vt 0.37500 0.25000
vt 0.62500 0.50000
vt 0.37500 0.50000
vt 0.62500 0.75000
vt 0.37500 0.75000
vt 0.62500 1.00000
vt 0.37500 1.00000
vt 0.12500 0.50000
vt 0.12500 0.75000
vt 0.87500 0.50000
vt 0.87500 0.75000
vt 0.37500 0.00000
vt 0.62500 0.00000
vt 0.62500 0.25000
vt 0.37500 0.25000
vt 0.37500 0.28017
vt 0.62500 0.28017
vt 0.62500 0.50000
vt 0.37500 0.50000
vt 0.62500 0.75000
vt 0.37500 0.75000
vt 0.37500 0.96983
vt 0.62500 0.96983
vt 0.62500 1.00000
vt 0.37500 1.00000
vt 0.15517 0.50000
vt 0.15517 0.75000
vt 0.84483 0.50000
vt 0.87500 0.50000
vt 0.87500 0.75000
vt 0.84483 0.75000
vt 0.12500 0.50000
vt 0.12500 0.75000
vt 0.37500 0.00000
vt 0.62500 0.00000
vt 0.62500 0.25000
vt 0.37500 0.25000
vt 0.62500 0.50000
vt 0.37500 0.50000
vt 0.62500 0.75000
vt 0.37500 0.75000
vt 0.62500 1.00000
vt 0.37500 1.00000
vt 0.12500 0.50000
vt 0.12500 0.75000
vt 0.87500 0.50000
vt 0.87500 0.75000
vt 0.48611 0.00000
vt 0.62500 0.00000
vt 0.62500 0.25000
vt 0.48611 0.25000
vt 0.48611 0.40285
vt 0.62500 0.40285
vt 0.62500 0.50000
vt 0.48611 0.50000
vt 0.62500 0.75000
vt 0.48611 0.75000
vt 0.48611 0.96304
vt 0.62500 0.96304
vt 0.62500 1.00000
vt 0.48611 1.00000
vt 0.37500 0.75000
vt 0.37500 0.84715
vt 0.37500 0.84715
vt 0.37500 0.75000
vt 0.83804 0.50000
vt 0.87500 0.50000
vt 0.87500 0.75000
vt 0.83804 0.75000
vt 0.45944 0.96304
vt 0.45944 1.00000
vt 0.45944 0.50000
vt 0.45944 0.75000
vt 0.45944 0.40285
vt 0.45944 0.00000
vt 0.45944 0.25000
vt 0.37500 0.00000
vt 0.37500 0.25000
vt 0.37500 0.40285
vt 0.37500 0.50000
vt 0.37500 0.96304
vt 0.37500 1.00000
vt 0.37500 0.95559
vt 0.45944 0.95559
vt 0.45944 0.28696
vt 0.37500 0.28696
vt 0.48611 0.28696
vt 0.48611 0.95559
vt 0.83059 0.50000
vt 0.83059 0.75000
vt 0.12500 0.50000
vt 0.16196 0.50000
vt 0.16196 0.75000
vt 0.12500 0.75000
vt 0.62500 0.95559
vt 0.62500 0.28696
vt 0.48611 0.90812
vt 0.62500 0.90812
vt 0.78312 0.50000
vt 0.78312 0.75000
vt 0.45944 0.90812
vt 0.37500 0.90812
vt 0.45944 0.29440
vt 0.37500 0.29440
vt 0.48611 0.29440
vt 0.16941 0.50000
vt 0.16941 0.75000
vt 0.62500 0.29440
vt 0.37500 0.85101
vt 0.45944 0.85100
vt 0.45944 0.90240
vt 0.37500 0.90240
vt 0.48611 0.85101
vt 0.48611 0.90240
vt 0.72601 0.50000
vt 0.77740 0.50000
vt 0.77740 0.75000
vt 0.72601 0.75000
vt 0.62500 0.85101
vt 0.62500 0.90240
vt 0.37500 0.34188
vt 0.45944 0.34188
vt 0.45944 0.34760
vt 0.37500 0.34760
vt 0.48611 0.34188
vt 0.48611 0.34760
vt 0.21688 0.50000
vt 0.22260 0.50000
vt 0.22260 0.75000
vt 0.21688 0.75000
vt 0.62500 0.34188
vt 0.62500 0.34760
vt 0.48611 0.84715
vt 0.62500 0.84715
vt 0.72215 0.50000
vt 0.72215 0.75000
vt 0.45944 0.84715
vt 0.45944 0.39899
vt 0.37500 0.39899
vt 0.48611 0.39899
vt 0.27399 0.50000
vt 0.27399 0.75000
vt 0.62500 0.39899
vt 0.27785 0.50000
vt 0.27785 0.75000
vt 0.27785 0.50000
vt 0.37500 0.50000
vt 0.27785 0.75000
vt 0.37500 0.40285
vt 0.37500 0.00000
vt 0.62500 0.00000
vt 0.62500 0.25000
vt 0.37500 0.25000
vt 0.37500 0.36006
vt 0.62500 0.36006
vt 0.62500 0.50000
vt 0.37500 0.50000
vt 0.62500 0.75000
vt 0.37500 0.75000
vt 0.37500 0.97577
vt 0.62500 0.97577
vt 0.62500 1.00000
vt 0.37500 1.00000
vt 0.23506 0.50000
vt 0.23506 0.75000
vt 0.85077 0.50000
vt 0.87500 0.50000
vt 0.87500 0.75000
vt 0.85077 0.75000
vt 0.76494 0.50000
vt 0.77000 0.50000
vt 0.77000 0.75000
vt 0.76494 0.75000
vt 0.14923 0.50000
vt 0.23000 0.50000
vt 0.23000 0.75000
vt 0.14923 0.75000
vt 0.37500 0.88994
vt 0.62500 0.88994
vt 0.62500 0.89500
vt 0.37500 0.89500
vt 0.37500 0.27423
vt 0.62500 0.27423
vt 0.62500 0.35500
vt 0.37500 0.35500
vt 0.12500 0.50000
vt 0.12500 0.75000
vt 0.62500 0.89500
vt 0.62500 0.97577
vt 0.77000 0.50000
vt 0.85077 0.50000
vt 0.85077 0.75000
vt 0.77000 0.75000
vt 0.62500 0.27423
vt 0.62500 0.35500
vt 1.00000 0.50000
vt 1.00000 1.00000
vt 0.96875 1.00000
vt 0.96875 0.50000
vt 0.93750 1.00000
vt 0.93750 0.50000
vt 0.90625 1.00000
vt 0.90625 0.50000
vt 0.87500 1.00000
vt 0.87500 0.50000
vt 0.84375 1.00000
vt 0.84375 0.50000
vt 0.81250 1.00000
vt 0.81250 0.50000
vt 0.78125 1.00000
vt 0.78125 0.50000
vt 0.75000 1.00000
vt 0.75000 0.50000
vt 0.71875 1.00000
vt 0.71875 0.50000
vt 0.68750 1.00000
vt 0.68750 0.50000
vt 0.65625 1.00000
vt 0.65625 0.50000
vt 0.62500 1.00000
vt 0.62500 0.50000
vt 0.59375 1.00000
vt 0.59375 0.50000
vt 0.56250 1.00000
vt 0.56250 0.50000
vt 0.53125 1.00000
vt 0.53125 0.50000
vt 0.50000 1.00000
vt 0.50000 0.50000
vt 0.46875 1.00000
vt 0.46875 0.50000
vt 0.43750 1.00000
vt 0.43750 0.50000
vt 0.40625 1.00000
vt 0.40625 0.50000
vt 0.37500 1.00000
vt 0.37500 0.50000
vt 0.34375 1.00000
vt 0.34375 0.50000
vt 0.31250 1.00000
vt 0.31250 0.50000
vt 0.28125 1.00000
vt 0.28125 0.50000
vt 0.25000 1.00000
vt 0.25000 0.50000
vt 0.21875 1.00000
vt 0.21875 0.50000
vt 0.18750 1.00000
vt 0.18750 0.50000
vt 0.15625 1.00000
vt 0.15625 0.50000
vt 0.12500 1.00000
vt 0.12500 0.50000
vt 0.09375 1.00000
vt 0.09375 0.50000
vt 0.06250 1.00000
vt 0.06250 0.50000
vt 0.29682 0.48539
vt 0.25000 0.49000
vt 0.20318 0.48539
vt 0.15816 0.47173
vt 0.11666 0.44955
vt 0.08030 0.41971
vt 0.05045 0.38334
vt 0.02827 0.34184
vt 0.01461 0.29682
vt 0.01000 0.25000
vt 0.01461 0.20318
vt 0.02827 0.15816
vt 0.05045 0.11666
vt 0.08029 0.08029
vt 0.11666 0.05045
vt 0.15816 0.02827
vt 0.20318 0.01461
vt 0.25000 0.01000
vt 0.29682 0.01461
vt 0.34184 0.02827
vt 0.38334 0.05045
vt 0.41971 0.08029
vt 0.44955 0.11666
vt 0.47173 0.15816
vt 0.48539 0.20318
vt 0.49000 0.25000
vt 0.48539 0.29682
vt 0.47173 0.34184
vt 0.44955 0.38334
vt 0.41971 0.41971
vt 0.38334 0.44955
vt 0.34184 0.47173
vt 0.03125 1.00000
vt 0.03125 0.50000
vt 0.00000 1.00000
vt 0.00000 0.50000
vt 0.75000 0.49000
vt 0.79682 0.48539
vt 0.84184 0.47173
vt 0.88334 0.44955
vt 0.91971 0.41971
vt 0.94955 0.38334
vt 0.97173 0.34184
vt 0.98539 0.29682
vt 0.99000 0.25000
vt 0.98539 0.20318
vt 0.97173 0.15816
vt 0.94955 0.11666
vt 0.91971 0.08029
vt 0.88334 0.05045
vt 0.84184 0.02827
vt 0.79682 0.01461
vt 0.75000 0.01000
vt 0.70318 0.01461
vt 0.65816 0.02827
vt 0.61666 0.05045
vt 0.58029 0.08029
vt 0.55045 0.11666
vt 0.52827 0.15816
vt 0.51461 0.20318
vt 0.51000 0.25000
vt 0.51461 0.29682
vt 0.52827 0.34184
vt 0.55045 0.38334
vt 0.58030 0.41971
vt 0.61666 0.44955
vt 0.65816 0.47173
vt 0.70318 0.48539
vt 1.00000 0.50000
vt 1.00000 1.00000
vt 0.96875 1.00000
vt 0.96875 0.50000
vt 0.93750 1.00000
vt 0.93750 0.50000
vt 0.90625 1.00000
vt 0.90625 0.50000
vt 0.87500 1.00000
vt 0.87500 0.50000
vt 0.84375 1.00000
vt 0.84375 0.50000
vt 0.81250 1.00000
vt 0.81250 0.50000
vt 0.78125 1.00000
vt 0.78125 0.50000
vt 0.75000 1.00000
vt 0.75000 0.50000
vt 0.71875 1.00000
vt 0.71875 0.50000
vt 0.68750 1.00000
vt 0.68750 0.50000
vt 0.65625 1.00000
vt 0.65625 0.50000
vt 0.62500 1.00000
vt 0.62500 0.50000
vt 0.59375 1.00000
vt 0.59375 0.50000
vt 0.56250 1.00000
vt 0.56250 0.50000
vt 0.53125 1.00000
vt 0.53125 0.50000
vt 0.50000 1.00000
vt 0.50000 0.50000
vt 0.46875 1.00000
vt 0.46875 0.50000
vt 0.43750 1.00000
vt 0.43750 0.50000
vt 0.40625 1.00000
vt 0.40625 0.50000
vt 0.37500 1.00000
vt 0.37500 0.50000
vt 0.34375 1.00000
vt 0.34375 0.50000
vt 0.31250 1.00000
vt 0.31250 0.50000
vt 0.28125 1.00000
vt 0.28125 0.50000
vt 0.25000 1.00000
vt 0.25000 0.50000
vt 0.21875 1.00000
vt 0.21875 0.50000
vt 0.18750 1.00000
vt 0.18750 0.50000
vt 0.15625 1.00000
vt 0.15625 0.50000
vt 0.12500 1.00000
vt 0.12500 0.50000
vt 0.09375 1.00000
vt 0.09375 0.50000
vt 0.06250 1.00000
vt 0.06250 0.50000
vt 0.29682 0.48539
vt 0.25000 0.49000
vt 0.20318 0.48539
vt 0.15816 0.47173
vt 0.11666 0.44955
vt 0.08030 0.41971
vt 0.05045 0.38334
vt 0.02827 0.34184
vt 0.01461 0.29682
vt 0.01000 0.25000
vt 0.01461 0.20318
vt 0.02827 0.15816
vt 0.05045 0.11666
vt 0.08029 0.08029
vt 0.11666 0.05045
vt 0.15816 0.02827
vt 0.20318 0.01461
vt 0.25000 0.01000
vt 0.29682 0.01461
vt 0.34184 0.02827
vt 0.38334 0.05045
vt 0.41971 0.08029
vt 0.44955 0.11666
vt 0.47173 0.15816
vt 0.48539 0.20318
vt 0.49000 0.25000
vt 0.48539 0.29682
vt 0.47173 0.34184
vt 0.44955 0.38334
vt 0.41971 0.41971
vt 0.38334 0.44955
vt 0.34184 0.47173
vt 0.03125 1.00000
vt 0.03125 0.50000
vt 0.00000 1.00000
vt 0.00000 0.50000
vt 0.75000 0.49000
vt 0.79682 0.48539
vt 0.84184 0.47173
vt 0.88334 0.44955
vt 0.91971 0.41971
vt 0.94955 0.38334
vt 0.97173 0.34184
vt 0.98539 0.29682
vt 0.99000 0.25000
vt 0.98539 0.20318
vt 0.97173 0.15816
vt 0.94955 0.11666
vt 0.91971 0.08029
vt 0.88334 0.05045
vt 0.84184 0.02827
vt 0.79682 0.01461
vt 0.75000 0.01000
vt 0.70318 0.01461
vt 0.65816 0.02827
vt 0.61666 0.05045
vt 0.58029 0.08029
vt 0.55045 0.11666
vt 0.52827 0.15816
vt 0.51461 0.20318
vt 0.51000 0.25000
vt 0.51461 0.29682
vt 0.52827 0.34184
vt 0.55045 0.38334
vt 0.58030 0.41971
vt 0.61666 0.44955
vt 0.65816 0.47173
vt 0.70318 0.48539
vt 1.00000 0.50000
vt 1.00000 1.00000
vt 0.96875 1.00000
vt 0.96875 0.50000
vt 0.93750 1.00000
vt 0.93750 0.50000
vt 0.90625 1.00000
vt 0.90625 0.50000
vt 0.87500 1.00000
vt 0.87500 0.50000
vt 0.84375 1.00000
vt 0.84375 0.50000
vt 0.81250 1.00000
vt 0.81250 0.50000
vt 0.78125 1.00000
vt 0.78125 0.50000
vt 0.75000 1.00000
vt 0.75000 0.50000
vt 0.71875 1.00000
vt 0.71875 0.50000
vt 0.68750 1.00000
vt 0.68750 0.50000
vt 0.65625 1.00000
vt 0.65625 0.50000
vt 0.62500 1.00000
vt 0.62500 0.50000
vt 0.59375 1.00000
vt 0.59375 0.50000
vt 0.56250 1.00000
vt 0.56250 0.50000
vt 0.53125 1.00000
vt 0.53125 0.50000
vt 0.50000 1.00000
vt 0.50000 0.50000
vt 0.46875 1.00000
vt 0.46875 0.50000
vt 0.43750 1.00000
vt 0.43750 0.50000
vt 0.40625 1.00000
vt 0.40625 0.50000
vt 0.37500 1.00000
vt 0.37500 0.50000
vt 0.34375 1.00000
vt 0.34375 0.50000
vt 0.31250 1.00000
vt 0.31250 0.50000
vt 0.28125 1.00000
vt 0.28125 0.50000
vt 0.25000 1.00000
vt 0.25000 0.50000
vt 0.21875 1.00000
vt 0.21875 0.50000
vt 0.18750 1.00000
vt 0.18750 0.50000
vt 0.15625 1.00000
vt 0.15625 0.50000
vt 0.12500 1.00000
vt 0.12500 0.50000
vt 0.09375 1.00000
vt 0.09375 0.50000
vt 0.06250 1.00000
vt 0.06250 0.50000
vt 0.29682 0.48539
vt 0.25000 0.49000
vt 0.20318 0.48539
vt 0.15816 0.47173
vt 0.11666 0.44955
vt 0.08030 0.41971
vt 0.05045 0.38334
vt 0.02827 0.34184
vt 0.01461 0.29682
vt 0.01000 0.25000
vt 0.01461 0.20318
vt 0.02827 0.15816
vt 0.05045 0.11666
vt 0.08029 0.08029
vt 0.11666 0.05045
vt 0.15816 0.02827
vt 0.20318 0.01461
vt 0.25000 0.01000
vt 0.29682 0.01461
vt 0.34184 0.02827
vt 0.38334 0.05045
vt 0.41971 0.08029
vt 0.44955 0.11666
vt 0.47173 0.15816
vt 0.48539 0.20318
vt 0.49000 0.25000
vt 0.48539 0.29682
vt 0.47173 0.34184
vt 0.44955 0.38334
vt 0.41971 0.41971
vt 0.38334 0.44955
vt 0.34184 0.47173
vt 0.03125 1.00000
vt 0.03125 0.50000
vt 0.00000 1.00000
vt 0.00000 0.50000
vt 0.75000 0.49000
vt 0.79682 0.48539
vt 0.84184 0.47173
vt 0.88334 0.44955
vt 0.91971 0.41971
vt 0.94955 0.38334
vt 0.97173 0.34184
vt 0.98539 0.29682
vt 0.99000 0.25000
vt 0.98539 0.20318
vt 0.97173 0.15816
vt 0.94955 0.11666
vt 0.91971 0.08029
vt 0.88334 0.05045
vt 0.84184 0.02827
vt 0.79682 0.01461
vt 0.75000 0.01000
vt 0.70318 0.01461
vt 0.65816 0.02827
vt 0.61666 0.05045
vt 0.58029 0.08029
vt 0.55045 0.11666
vt 0.52827 0.15816
vt 0.51461 0.20318
vt 0.51000 0.25000
vt 0.51461 0.29682
vt 0.52827 0.34184
vt 0.55045 0.38334
vt 0.58030 0.41971
vt 0.61666 0.44955
vt 0.65816 0.47173
vt 0.70318 0.48539
vt 1.00000 0.50000
vt 1.00000 1.00000
vt 0.96875 1.00000
vt 0.96875 0.50000
vt 0.93750 1.00000
vt 0.93750 0.50000
vt 0.90625 1.00000
vt 0.90625 0.50000
vt 0.87500 1.00000
vt 0.87500 0.50000
vt 0.84375 1.00000
vt 0.84375 0.50000
vt 0.81250 1.00000
vt 0.81250 0.50000
vt 0.78125 1.00000
vt 0.78125 0.50000
vt 0.75000 1.00000
vt 0.75000 0.50000
vt 0.71875 1.00000
vt 0.71875 0.50000
vt 0.68750 1.00000
vt 0.68750 0.50000
vt 0.65625 1.00000
vt 0.65625 0.50000
vt 0.62500 1.00000
vt 0.62500 0.50000
vt 0.59375 1.00000
vt 0.59375 0.50000
vt 0.56250 1.00000
vt 0.56250 0.50000
vt 0.53125 1.00000
vt 0.53125 0.50000
vt 0.50000 1.00000
vt 0.50000 0.50000
vt 0.46875 1.00000
vt 0.46875 0.50000
vt 0.43750 1.00000
vt 0.43750 0.50000
vt 0.40625 1.00000
vt 0.40625 0.50000
vt 0.37500 1.00000
vt 0.37500 0.50000
vt 0.34375 1.00000
vt 0.34375 0.50000
vt 0.31250 1.00000
vt 0.31250 0.50000
vt 0.28125 1.00000
vt 0.28125 0.50000
vt 0.25000 1.00000
vt 0.25000 0.50000
vt 0.21875 1.00000
vt 0.21875 0.50000
vt 0.18750 1.00000
vt 0.18750 0.50000
vt 0.15625 1.00000
vt 0.15625 0.50000
vt 0.12500 1.00000
vt 0.12500 0.50000
vt 0.09375 1.00000
vt 0.09375 0.50000
vt 0.06250 1.00000
vt 0.06250 0.50000
vt 0.29682 0.48539
vt 0.25000 0.49000
vt 0.20318 0.48539
vt 0.15816 0.47173
vt 0.11666 0.44955
vt 0.08030 0.41971
vt 0.05045 0.38334
vt 0.02827 0.34184
vt 0.01461 0.29682
vt 0.01000 0.25000
vt 0.01461 0.20318
vt 0.02827 0.15816
vt 0.05045 0.11666
vt 0.08029 0.08029
vt 0.11666 0.05045
vt 0.15816 0.02827
vt 0.20318 0.01461
vt 0.25000 0.01000
vt 0.29682 0.01461
vt 0.34184 0.02827
vt 0.38334 0.05045
vt 0.41971 0.08029
vt 0.44955 0.11666
vt 0.47173 0.15816
vt 0.48539 0.20318
vt 0.49000 0.25000
vt 0.48539 0.29682
vt 0.47173 0.34184
vt 0.44955 0.38334
vt 0.41971 0.41971
vt 0.38334 0.44955
vt 0.34184 0.47173
vt 0.03125 1.00000
vt 0.03125 0.50000
vt 0.00000 1.00000
vt 0.00000 0.50000
vt 0.75000 0.49000
vt 0.79682 0.48539
vt 0.84184 0.47173
vt 0.88334 0.44955
vt 0.91971 0.41971
vt 0.94955 0.38334
vt 0.97173 0.34184
vt 0.98539 0.29682
vt 0.99000 0.25000
vt 0.98539 0.20318
vt 0.97173 0.15816
vt 0.94955 0.11666
vt 0.91971 0.08029
vt 0.88334 0.05045
vt 0.84184 0.02827
vt 0.79682 0.01461
vt 0.75000 0.01000
vt 0.70318 0.01461
vt 0.65816 0.02827
vt 0.61666 0.05045
vt 0.58029 0.08029
vt 0.55045 0.11666
vt 0.52827 0.15816
vt 0.51461 0.20318
vt 0.51000 0.25000
vt 0.51461 0.29682
vt 0.52827 0.34184
vt 0.55045 0.38334
vt 0.58030 0.41971
vt 0.61666 0.44955
vt 0.65816 0.47173
vt 0.70318 0.48539
vt 0.50625 0.00000
vt 0.62500 0.00000
vt 0.62500 0.25000
vt 0.50625 0.25000
vt 0.62500 0.50000
vt 0.50625 0.50000
vt 0.62500 0.75000
vt 0.50625 0.75000
vt 0.62500 1.00000
vt 0.50625 1.00000
vt 0.12500 0.50000
vt 0.37500 0.50000
vt 0.37500 0.75000
vt 0.12500 0.75000
vt 0.87500 0.50000
vt 0.87500 0.75000
vt 0.50000 0.75000
vt 0.50000 1.00000
vt 0.37500 1.00000
vt 0.50000 0.50000
vt 0.37500 0.25000
vt 0.50000 0.25000
vt 0.37500 0.00000
vt 0.50000 0.00000
vt 1.00000 0.50000
vt 1.00000 1.00000
vt 0.96875 1.00000
vt 0.96875 0.50000
vt 0.93750 1.00000
vt 0.93750 0.50000
vt 0.90625 1.00000
vt 0.90625 0.50000
vt 0.87500 1.00000
vt 0.87500 0.50000
vt 0.84375 1.00000
vt 0.84375 0.50000
vt 0.81250 1.00000
vt 0.81250 0.50000
vt 0.78125 1.00000
vt 0.78125 0.50000
vt 0.75000 1.00000
vt 0.75000 0.50000
vt 0.71875 1.00000
vt 0.71875 0.50000
vt 0.68750 1.00000
vt 0.68750 0.50000
vt 0.65625 1.00000
vt 0.65625 0.50000
vt 0.62500 1.00000
vt 0.62500 0.50000
vt 0.59375 1.00000
vt 0.59375 0.50000
vt 0.56250 1.00000
vt 0.56250 0.50000
vt 0.53125 1.00000
vt 0.53125 0.50000
vt 0.50000 1.00000
vt 0.50000 0.50000
vt 0.46875 1.00000
vt 0.46875 0.50000
vt 0.43750 1.00000
vt 0.43750 0.50000
vt 0.40625 1.00000
vt 0.40625 0.50000
vt 0.37500 1.00000
vt 0.37500 0.50000
vt 0.34375 1.00000
vt 0.34375 0.50000
vt 0.31250 1.00000
vt 0.31250 0.50000
vt 0.28125 1.00000
vt 0.28125 0.50000
vt 0.25000 1.00000
vt 0.25000 0.50000
vt 0.21875 1.00000
vt 0.21875 0.50000
vt 0.18750 1.00000
vt 0.18750 0.50000
vt 0.15625 1.00000
vt 0.15625 0.50000
vt 0.12500 1.00000
vt 0.12500 0.50000
vt 0.09375 1.00000
vt 0.09375 0.50000
vt 0.06250 1.00000
vt 0.06250 0.50000
vt 0.29682 0.48539
vt 0.25000 0.49000
vt 0.20318 0.48539
vt 0.15816 0.47173
vt 0.11666 0.44955
vt 0.08030 0.41971
vt 0.05045 0.38334
vt 0.02827 0.34184
vt 0.01461 0.29682
vt 0.01000 0.25000
vt 0.01461 0.20318
vt 0.02827 0.15816
vt 0.05045 0.11666
vt 0.08029 0.08029
vt 0.11666 0.05045
vt 0.15816 0.02827
vt 0.20318 0.01461
vt 0.25000 0.01000
vt 0.29682 0.01461
vt 0.34184 0.02827
vt 0.38334 0.05045
vt 0.41971 0.08029
vt 0.44955 0.11666
vt 0.47173 0.15816
vt 0.48539 0.20318
vt 0.49000 0.25000
vt 0.48539 0.29682
vt 0.47173 0.34184
vt 0.44955 0.38334
vt 0.41971 0.41971
vt 0.38334 0.44955
vt 0.34184 0.47173
vt 0.03125 1.00000
vt 0.03125 0.50000
vt 0.00000 1.00000
vt 0.00000 0.50000
vt 0.75000 0.49000
vt 0.79682 0.48539
vt 0.84184 0.47173
vt 0.88334 0.44955
vt 0.91971 0.41971
vt 0.94955 0.38334
vt 0.97173 0.34184
vt 0.98539 0.29682
vt 0.99000 0.25000
vt 0.98539 0.20318
vt 0.97173 0.15816
vt 0.94955 0.11666
vt 0.91971 0.08029
vt 0.88334 0.05045
vt 0.84184 0.02827
vt 0.79682 0.01461
vt 0.75000 0.01000
vt 0.70318 0.01461
vt 0.65816 0.02827
vt 0.61666 0.05045
vt 0.58029 0.08029
vt 0.55045 0.11666
vt 0.52827 0.15816
vt 0.51461 0.20318
vt 0.51000 0.25000
vt 0.51461 0.29682
vt 0.52827 0.34184
vt 0.55045 0.38334
vt 0.58030 0.41971
vt 0.61666 0.44955
vt 0.65816 0.47173
vt 0.70318 0.48539
vt 0.37500 0.00000
vt 0.62500 0.00000
vt 0.62500 0.25000
vt 0.37500 0.25000
vt 0.62500 0.50000
vt 0.37500 0.50000
vt 0.62500 0.75000
vt 0.37500 0.75000
vt 0.62500 1.00000
vt 0.37500 1.00000
vt 0.12500 0.50000
vt 0.12500 0.75000
vt 0.87500 0.50000
vt 0.87500 0.75000
vt 0.37500 0.00000
vt 0.62500 0.00000
vt 0.62500 0.25000
vt 0.37500 0.25000
vt 0.62500 0.50000
vt 0.37500 0.50000
vt 0.62500 0.75000
vt 0.37500 0.75000
vt 0.62500 1.00000
vt 0.37500 1.00000
vt 0.37500 0.50000
vt 0.37500 0.75000
vt 0.37500 0.75000
vt 0.37500 0.50000
vt 0.87500 0.50000
vt 0.87500 0.75000
vt 0.12500 0.50000
vt 0.12500 0.75000
vt 0.37500 1.00000
vt 0.37500 1.00000
vt 0.37500 0.25000
vt 0.37500 0.25000
vt 0.37500 0.00000
vt 0.37500 0.00000
vt 0.37500 0.25000
vt 0.37500 0.00000
vt 0.37500 0.25000
vt 0.37500 0.00000
vt 0.37500 0.25000
vt 0.37500 0.00000
vt 0.37500 0.25000
vt 0.37500 0.00000
vt 0.37500 0.50000
vt 0.37500 0.50000
vt 0.37500 0.50000
vt 0.37500 0.50000
vt 0.37500 1.00000
vt 0.37500 0.75000
vt 0.37500 1.00000
vt 0.37500 0.75000
vt 0.37500 1.00000
vt 0.37500 0.75000
vt 0.37500 1.00000
vt 0.37500 0.75000
vn -1.0000 0.0000 0.0000
vn 0.0000 -0.0000 -1.0000
vn 1.0000 0.0000 0.0000
vn 0.0000 0.0000 1.0000
vn 0.0000 -1.0000 0.0000
vn 0.0000 1.0000 0.0000
vn -0.1785 0.9839 -0.0000
vn -0.8520 0.5235 0.0000
vn 0.7727 -0.6347 0.0000
vn 0.9404 -0.3401 0.0000
vn -0.9990 -0.0442 0.0000
vn -0.0893 -0.9960 0.0000
vn 0.6113 0.7914 0.0000
vn 0.9666 -0.2564 0.0000
vn -0.3569 0.9341 0.0000
vn 0.8594 -0.5113 0.0000
vn 0.9933 -0.1158 0.0000
vn 0.9941 0.1084 0.0000
vn 0.0528 -0.9986 0.0000
vn -0.9995 0.0319 0.0000
vn -0.2251 -0.9743 0.0000
vn 0.9945 0.1052 0.0000
vn -0.8663 0.4996 0.0000
vn 0.9684 -0.2493 0.0000
vn -0.8204 0.5718 0.0000
vn 0.8815 -0.4723 0.0000
vn 0.8605 -0.5094 0.0000
vn -0.8204 0.5717 0.0000
vn 0.9118 0.4105 0.0000
vn 0.0023 -1.0000 0.0000
vn 0.2628 -0.9649 0.0000
vn -0.9972 -0.0751 0.0000
vn -0.1333 0.9911 0.0000
vn -0.0068 -1.0000 0.0000
vn -0.1707 0.9853 0.0000
vn 0.3194 -0.9476 0.0000
vn 0.9990 -0.0454 0.0000
vn -0.8649 -0.5019 0.0000
vn 0.5573 -0.8303 0.0000
vn -0.0129 -0.9999 0.0000
vn -0.0195 -0.9998 0.0000
vn -0.0183 -0.9998 0.0000
vn -0.0172 -0.9999 0.0000
vn 0.1943 -0.9809 -0.0000
vn 0.9636 0.2674 0.0000
vn -0.0000 -0.1243 -0.9922
vn 0.0000 -0.3600 -0.9330
vn 0.0000 -0.5623 -0.8270
vn 0.0000 -0.7221 -0.6918
vn 0.0000 -0.8403 -0.5421
vn 0.0000 -0.9219 -0.3874
vn 0.0000 -0.9727 -0.2320
vn 0.0000 -0.9970 -0.0772
vn 0.0000 -0.9970 0.0772
vn -0.0000 -0.9727 0.2320
vn 0.0000 -0.9219 0.3874
vn -0.0000 -0.8403 0.5421
vn 0.0000 -0.7221 0.6917
vn -0.0000 -0.5623 0.8270
vn 0.0000 -0.3600 0.9330
vn 0.0000 -0.1243 0.9922
vn 0.0000 0.1243 0.9922
vn -0.0000 0.3600 0.9330
vn 0.0000 0.5623 0.8270
vn -0.0000 0.7221 0.6917
vn -0.0000 0.8403 0.5421
vn -0.0000 0.9219 0.3874
vn -0.0000 0.9727 0.2320
vn -0.0000 0.9970 0.0772
vn -0.0000 0.9970 -0.0772
vn -0.0000 0.9727 -0.2320
vn -0.0000 0.9219 -0.3874
vn 0.0000 0.8403 -0.5421
vn -0.0000 0.7221 -0.6917
vn -0.0000 0.5623 -0.8270
vn 0.0000 0.3600 -0.9330
vn -0.0000 0.1243 -0.9922
vn -0.0000 -0.0973 -0.9953
vn -0.0000 -0.2881 -0.9576
vn -0.0000 -0.4683 -0.8835
vn 0.0000 -0.6312 -0.7756
vn 0.0000 -0.7704 -0.6375
vn 0.0000 -0.8803 -0.4745
vn 0.0000 -0.9563 -0.2925
vn 0.0000 -0.9951 -0.0988
vn 0.0000 -0.9951 0.0988
vn 0.0000 -0.9563 0.2925
vn 0.0000 -0.8803 0.4745
vn 0.0000 -0.7704 0.6375
vn 0.0000 -0.6312 0.7756
vn 0.0000 -0.4683 0.8835
vn 0.0000 -0.2881 0.9576
vn -0.0000 -0.0972 0.9953
vn -0.0000 0.0972 0.9953
vn -0.0000 0.2881 0.9576
vn -0.0000 0.4683 0.8835
vn -0.0000 0.6312 0.7756
vn -0.0000 0.7704 0.6375
vn 0.0000 0.8803 0.4745
vn -0.0000 0.9563 0.2925
vn -0.0000 0.9951 0.0988
vn -0.0000 0.9951 -0.0988
vn -0.0000 0.9563 -0.2925
vn -0.0000 0.8803 -0.4745
vn -0.0000 0.7704 -0.6375
vn 0.0000 0.6312 -0.7756
vn -0.0000 0.4683 -0.8835
vn -0.0000 0.2881 -0.9576
vn -0.0000 0.0972 -0.9953
vn 0.0000 -0.0907 -0.9959
vn 0.0000 -0.2702 -0.9628
vn -0.0000 -0.4432 -0.8964
vn -0.0000 -0.6046 -0.7965
vn 0.0000 -0.7480 -0.6637
vn 0.0000 -0.8658 -0.5004
vn 0.0000 -0.9502 -0.3116
vn 0.0000 -0.9944 -0.1059
vn 0.0000 -0.9944 0.1059
vn 0.0000 -0.9502 0.3116
vn 0.0000 -0.8658 0.5004
vn 0.0000 -0.7480 0.6637
vn 0.0000 -0.6046 0.7965
vn 0.0000 -0.4432 0.8964
vn 0.0000 -0.2702 0.9628
vn -0.0000 -0.0907 0.9959
vn -0.0000 0.0907 0.9959
vn -0.0000 0.2702 0.9628
vn 0.0000 0.4432 0.8964
vn 0.0000 0.6046 0.7965
vn -0.0000 0.7480 0.6637
vn -0.0000 0.8658 0.5004
vn -0.0000 0.9502 0.3116
vn -0.0000 0.9944 0.1059
vn -0.0000 0.9944 -0.1059
vn -0.0000 0.9502 -0.3116
vn -0.0000 0.8658 -0.5004
vn -0.0000 0.7480 -0.6637
vn -0.0000 0.6046 -0.7965
vn -0.0000 0.4432 -0.8964
vn 0.0000 0.2702 -0.9628
vn 0.0000 0.0907 -0.9959
vn -0.0000 -0.0908 -0.9959
vn 0.0000 -0.2704 -0.9628
vn 0.0000 -0.4435 -0.8963
vn -0.0000 -0.6049 -0.7963
vn -0.0000 -0.7483 -0.6634
vn 0.0000 -0.8660 -0.5000
vn 0.0000 -0.9503 -0.3114
vn 0.0000 -0.9944 -0.1058
vn 0.0000 -0.9944 0.1058
vn 0.0000 -0.9503 0.3114
vn 0.0000 -0.8660 0.5000
vn 0.0000 -0.7483 0.6634
vn 0.0000 -0.6050 0.7963
vn -0.0000 -0.4435 0.8963
vn 0.0000 -0.2703 0.9628
vn 0.0000 -0.0908 0.9959
vn 0.0000 0.0908 0.9959
vn 0.0000 0.2703 0.9628
vn -0.0000 0.4435 0.8963
vn 0.0000 0.6049 0.7963
vn 0.0000 0.7483 0.6634
vn 0.0000 0.8660 0.5000
vn 0.0000 0.9503 0.3114
vn 0.0000 0.9944 0.1058
vn 0.0000 0.9944 -0.1058
vn 0.0000 0.9503 -0.3114
vn 0.0000 0.8660 -0.5000
vn 0.0000 0.7483 -0.6634
vn 0.0000 0.6050 -0.7963
vn 0.0000 0.4435 -0.8963
vn 0.0000 0.2703 -0.9628
vn 0.0000 0.0908 -0.9959
vn -0.1095 0.9940 0.0000
vn 0.0000 -0.1823 -0.9833
vn 0.0000 -0.4958 -0.8685
vn 0.0000 -0.7092 -0.7050
vn 0.0000 -0.8394 -0.5435
vn -0.0000 -0.9166 -0.3997
vn 0.0000 -0.9620 -0.2732
vn 0.0000 -0.9873 -0.1591
vn 0.0000 -0.9986 -0.0523
vn 0.0000 -0.9986 0.0523
vn 0.0000 -0.9873 0.1591
vn 0.0000 -0.9620 0.2732
vn 0.0000 -0.9166 0.3997
vn 0.0000 -0.8394 0.5435
vn 0.0000 -0.7092 0.7050
vn 0.0000 -0.4958 0.8685
vn 0.0000 -0.1823 0.9833
vn 0.0000 0.1823 0.9833
vn -0.0000 0.4958 0.8684
vn 0.0000 0.7092 0.7050
vn 0.0000 0.8394 0.5435
vn 0.0000 0.9166 0.3997
vn 0.0000 0.9620 0.2732
vn 0.0000 0.9873 0.1591
vn -0.0000 0.9986 0.0523
vn -0.0000 0.9986 -0.0523
vn 0.0000 0.9873 -0.1591
vn 0.0000 0.9620 -0.2732
vn 0.0000 0.9166 -0.3997
vn 0.0000 0.8394 -0.5435
vn 0.0000 0.7092 -0.7050
vn 0.0000 0.4958 -0.8685
vn 0.0000 0.1823 -0.9833
vn 0.8041 0.5944 0.0000
vn -0.8683 -0.4960 0.0000
vn -0.8808 -0.4735 0.0000
vn 0.8041 -0.5944 0.0000
vn 0.9049 -0.4257 0.0000
vn 0.9888 -0.1495 0.0000
vn 0.9888 0.1495 0.0000
vn 0.9049 0.4257 0.0000
usemtl Material.005
s 1
f 5489/8602/2172 5490/8603/2172 5492/8604/2172 5491/8605/2172
f 5491/8606/2173 5492/8607/2173 5496/8608/2173 5495/8609/2173
f 5495/8610/2174 5496/8611/2174 5494/8612/2174 5493/8613/2174
f 5493/8614/2175 5494/8615/2175 5490/8616/2175 5489/8617/2175
f 5491/8618/2176 5495/8619/2176 5493/8620/2176 5489/8621/2176
f 5496/8622/2177 5492/8623/2177 5490/8624/2177 5494/8625/2177
f 5497/8626/2178 5501/8627/2178 5503/8628/2178 5499/8629/2178
f 5500/8630/2175 5499/8631/2175 5503/8632/2175 5504/8633/2175
f 5504/8633/2172 5503/8632/2172 5501/8634/2172 5502/8635/2172
f 5519/8636/2179 5517/8637/2179 5505/8638/2179 5506/8639/2179
f 5498/8640/2174 5497/8641/2174 5499/8642/2174 5500/8643/2174
f 5502/8644/2173 5501/8645/2173 5497/8646/2173 5498/8647/2173
f 5505/8638/2176 5507/8648/2176 5508/8649/2176 5506/8650/2176
f 5520/8651/2180 5518/8652/2180 5508/8653/2180 5507/8654/2180
f 5517/8655/2173 5520/8656/2173 5507/8648/2173 5505/8657/2173
f 5518/8658/2175 5519/8636/2175 5506/8639/2175 5508/8659/2175
f 5516/8660/2175 5513/8661/2175 5510/8662/2175 5511/8663/2175
f 5515/8664/2173 5514/8665/2173 5512/8666/2173 5509/8667/2173
f 5514/8668/2181 5516/8669/2181 5511/8670/2181 5512/8671/2181
f 5513/8661/2182 5515/8672/2182 5509/8673/2182 5510/8662/2182
f 5504/8633/2183 5502/8635/2183 5515/8672/2183 5513/8661/2183
f 5498/8640/2184 5500/8643/2184 5516/8669/2184 5514/8668/2184
f 5502/8644/2173 5498/8647/2173 5514/8665/2173 5515/8664/2173
f 5500/8630/2175 5504/8633/2175 5513/8661/2175 5516/8660/2175
f 5511/8663/2175 5510/8662/2175 5519/8636/2175 5518/8658/2175
f 5509/8667/2173 5512/8666/2173 5520/8656/2173 5517/8655/2173
f 5512/8671/2185 5511/8670/2185 5518/8652/2185 5520/8651/2185
f 5510/8662/2186 5509/8673/2186 5517/8637/2186 5519/8636/2186
f 5521/8674/2172 5522/8675/2172 5524/8676/2172 5523/8677/2172
f 5523/8677/2173 5524/8676/2173 5528/8678/2173 5527/8679/2173
f 5539/8680/2177 5537/8681/2177 5532/8682/2177 5529/8683/2177
f 5525/8684/2175 5526/8685/2175 5522/8686/2175 5521/8687/2175
f 5523/8688/2176 5527/8679/2176 5525/8684/2176 5521/8689/2176
f 5528/8678/2177 5524/8690/2177 5522/8691/2177 5526/8685/2177
f 5530/8692/2174 5529/8683/2174 5532/8682/2174 5531/8693/2174
f 5540/8694/2173 5539/8680/2173 5529/8683/2173 5530/8692/2173
f 5537/8681/2175 5538/8695/2175 5531/8693/2175 5532/8682/2175
f 5538/8695/2187 5540/8694/2187 5530/8692/2187 5531/8693/2187
f 5525/8684/2188 5527/8679/2188 5535/8696/2188 5536/8697/2188
f 5526/8685/2175 5525/8684/2175 5536/8697/2175 5533/8698/2175
f 5527/8679/2173 5528/8678/2173 5534/8699/2173 5535/8696/2173
f 5528/8678/2189 5526/8685/2189 5533/8698/2189 5534/8699/2189
f 5536/8697/2190 5535/8696/2190 5540/8694/2190 5538/8695/2190
f 5533/8698/2175 5536/8697/2175 5538/8695/2175 5537/8681/2175
f 5535/8696/2173 5534/8699/2173 5539/8680/2173 5540/8694/2173
f 5534/8699/2177 5533/8698/2177 5537/8681/2177 5539/8680/2177
f 5557/8700/2191 5542/8701/2191 5544/8702/2191 5558/8703/2191
f 5558/8703/2173 5544/8702/2173 5548/8704/2173 5559/8705/2173
f 5559/8705/2174 5548/8704/2174 5546/8706/2174 5560/8707/2174
f 5560/8707/2175 5546/8706/2175 5542/8708/2175 5557/8709/2175
f 5543/8710/2192 5547/8711/2192 5545/8712/2192 5541/8713/2192
f 5548/8704/2177 5544/8714/2177 5542/8715/2177 5546/8706/2177
f 5555/8716/2175 5552/8717/2175 5549/8718/2175 5556/8719/2175
f 5554/8720/2193 5551/8721/2193 5552/8717/2193 5555/8716/2193
f 5553/8722/2173 5550/8723/2173 5551/8721/2173 5554/8720/2173
f 5556/8724/2194 5549/8725/2194 5550/8723/2194 5553/8722/2194
f 5541/8726/2194 5556/8724/2194 5553/8722/2194 5543/8727/2194
f 5543/8727/2173 5553/8722/2173 5554/8720/2173 5547/8711/2173
f 5547/8711/2195 5554/8720/2195 5555/8716/2195 5545/8712/2195
f 5545/8712/2175 5555/8716/2175 5556/8719/2175 5541/8728/2175
f 5584/8729/2175 5560/8707/2175 5557/8709/2175 5581/8730/2175
f 5583/8731/2174 5559/8705/2174 5560/8707/2174 5584/8729/2174
f 5582/8732/2173 5558/8703/2173 5559/8705/2173 5583/8731/2173
f 5581/8733/2196 5557/8700/2196 5558/8703/2196 5582/8732/2196
f 5569/8734/2196 5564/8735/2196 5561/8736/2196 5570/8737/2196
f 5570/8737/2173 5561/8736/2173 5562/8738/2173 5571/8739/2173
f 5571/8739/2197 5562/8738/2197 5563/8740/2197 5572/8741/2197
f 5572/8741/2175 5563/8740/2175 5564/8742/2175 5569/8743/2175
f 5552/8717/2175 5567/8744/2175 5568/8745/2175 5549/8718/2175
f 5551/8721/2198 5566/8746/2198 5567/8744/2198 5552/8717/2198
f 5550/8723/2173 5565/8747/2173 5566/8746/2173 5551/8721/2173
f 5549/8725/2196 5568/8748/2199 5565/8747/2199 5550/8723/2196
f 5575/8749/2175 5572/8741/2175 5569/8743/2175 5576/8750/2175
f 5574/8751/2200 5571/8739/2200 5572/8741/2200 5575/8749/2200
f 5573/8752/2173 5570/8737/2173 5571/8739/2173 5574/8751/2173
f 5576/8753/2199 5569/8734/2196 5570/8737/2196 5573/8752/2199
f 5568/8748/2199 5576/8753/2199 5573/8752/2199 5565/8747/2199
f 5565/8747/2173 5573/8752/2173 5574/8751/2173 5566/8746/2173
f 5566/8746/2201 5574/8751/2201 5575/8749/2201 5567/8744/2201
f 5567/8744/2175 5575/8749/2175 5576/8750/2175 5568/8745/2175
f 5564/8735/2196 5577/8754/2199 5578/8755/2199 5561/8736/2196
f 5561/8736/2173 5578/8755/2173 5579/8756/2173 5562/8738/2173
f 5562/8738/2202 5579/8756/2202 5580/8757/2202 5563/8740/2202
f 5563/8740/2175 5580/8757/2175 5577/8758/2175 5564/8742/2175
f 5577/8754/2199 5581/8733/2196 5582/8732/2196 5578/8755/2199
f 5578/8755/2173 5582/8732/2173 5583/8731/2173 5579/8756/2173
f 5584/8729/2175 5580/8757/2175 5588/8759/2175 5587/8760/2175
f 5580/8757/2175 5584/8729/2175 5581/8730/2175 5577/8758/2175
f 5586/8761/2174 5585/8762/2174 5587/8760/2174 5588/8759/2174
f 5583/8731/2177 5584/8729/2177 5587/8760/2177 5585/8762/2177
f 5580/8757/2176 5579/8756/2176 5586/8761/2176 5588/8759/2176
f 5579/8756/2173 5583/8731/2173 5585/8762/2173 5586/8761/2173
f 5589/8763/2203 5590/8764/2203 5592/8765/2203 5591/8766/2203
f 5591/8766/2173 5592/8765/2173 5596/8767/2173 5595/8768/2173
f 5595/8768/2174 5596/8767/2174 5594/8769/2174 5593/8770/2174
f 5593/8770/2175 5594/8769/2175 5590/8771/2175 5589/8772/2175
f 5591/8773/2176 5595/8768/2176 5593/8770/2176 5589/8774/2176
f 5596/8767/2177 5592/8775/2177 5590/8776/2177 5594/8769/2177
f 5597/8777/2172 5598/8778/2172 5600/8779/2172 5599/8780/2172
f 5605/8781/2173 5606/8782/2173 5604/8783/2173 5603/8784/2173
f 5603/8784/2174 5604/8783/2174 5602/8785/2174 5601/8786/2174
f 5607/8787/2175 5608/8788/2175 5598/8789/2175 5597/8790/2175
f 5605/8791/2176 5603/8784/2176 5601/8786/2176 5607/8792/2176
f 5606/8793/2177 5600/8794/2177 5598/8795/2177 5608/8796/2177
f 5604/8783/2204 5606/8793/2204 5608/8796/2204 5602/8785/2204
f 5599/8797/2176 5605/8791/2176 5607/8792/2176 5597/8798/2176
f 5601/8786/2175 5602/8785/2175 5608/8788/2175 5607/8787/2175
f 5599/8780/2173 5600/8779/2173 5606/8782/2173 5605/8781/2173
f 5609/8799/2172 5610/8800/2172 5612/8801/2172 5611/8802/2172
f 5611/8802/2173 5612/8801/2173 5616/8803/2173 5615/8804/2173
f 5615/8804/2174 5616/8803/2174 5614/8805/2174 5613/8806/2174
f 5613/8806/2175 5614/8805/2175 5610/8807/2175 5609/8808/2175
f 5611/8809/2205 5615/8804/2205 5613/8806/2205 5609/8810/2205
f 5616/8803/2206 5612/8811/2206 5610/8812/2206 5614/8805/2206
f 5625/8813/2172 5618/8814/2172 5620/8815/2172 5626/8816/2172
f 5675/8817/2173 5673/8818/2173 5624/8819/2173 5627/8820/2173
f 5627/8820/2174 5624/8819/2174 5622/8821/2174 5628/8822/2174
f 5637/8823/2175 5636/8824/2175 5618/8825/2175 5625/8826/2175
f 5621/8827/2175 5674/8828/2175 5683/8829/2175 5681/8830/2175
f 5634/8831/2177 5620/8832/2177 5618/8833/2177 5636/8834/2177
f 5640/8835/2175 5637/8823/2175 5625/8826/2175 5632/8836/2175
f 5630/8837/2207 5627/8820/2207 5628/8822/2207 5631/8838/2207
f 5676/8839/2173 5675/8817/2173 5627/8820/2173 5630/8837/2173
f 5632/8840/2172 5625/8813/2172 5626/8816/2172 5629/8841/2172
f 5617/8842/2172 5632/8840/2172 5629/8841/2172 5619/8843/2172
f 5677/8844/2173 5676/8839/2173 5630/8837/2173 5623/8845/2173
f 5623/8845/2208 5630/8837/2208 5631/8838/2208 5621/8827/2208
f 5635/8846/2175 5640/8835/2175 5632/8836/2175 5617/8847/2175
f 5642/8848/2175 5648/8849/2175 5640/8835/2175 5635/8846/2175
f 5619/8843/2173 5629/8841/2173 5639/8850/2173 5633/8851/2173
f 5629/8841/2173 5626/8816/2173 5638/8852/2173 5639/8850/2173
f 5648/8849/2175 5647/8853/2175 5637/8823/2175 5640/8835/2175
f 5641/8854/2177 5634/8831/2177 5636/8834/2177 5646/8855/2177
f 5619/8856/2176 5633/8857/2176 5635/8858/2176 5617/8859/2176
f 5647/8853/2175 5646/8860/2175 5636/8824/2175 5637/8823/2175
f 5626/8816/2173 5620/8815/2173 5634/8861/2173 5638/8852/2173
f 5659/8862/2175 5658/8863/2175 5646/8860/2175 5647/8853/2175
f 5661/8864/2177 5641/8854/2177 5646/8855/2177 5658/8865/2177
f 5660/8866/2175 5659/8862/2175 5647/8853/2175 5648/8849/2175
f 5662/8867/2175 5660/8866/2175 5648/8849/2175 5642/8848/2175
f 5633/8851/2173 5639/8850/2173 5644/8868/2173 5645/8869/2173
f 5639/8850/2173 5638/8852/2173 5643/8870/2173 5644/8868/2173
f 5633/8857/2209 5645/8871/2209 5642/8872/2209 5635/8858/2209
f 5638/8852/2173 5634/8861/2173 5641/8873/2173 5643/8870/2173
f 5666/8874/2175 5672/8875/2175 5656/8876/2175 5650/8877/2175
f 5672/8875/2175 5671/8878/2175 5655/8879/2175 5656/8876/2175
f 5665/8880/2177 5649/8881/2177 5654/8882/2177 5670/8883/2177
f 5671/8878/2175 5670/8884/2175 5654/8885/2175 5655/8879/2175
f 5657/8886/2173 5664/8887/2173 5652/8888/2173 5653/8889/2173
f 5664/8887/2173 5663/8890/2173 5651/8891/2173 5652/8888/2173
f 5657/8892/2210 5653/8893/2210 5650/8894/2210 5662/8895/2210
f 5663/8890/2173 5661/8896/2173 5649/8897/2173 5651/8891/2173
f 5643/8870/2173 5641/8873/2173 5661/8896/2173 5663/8890/2173
f 5645/8871/2211 5657/8892/2211 5662/8895/2211 5642/8872/2211
f 5644/8868/2173 5643/8870/2173 5663/8890/2173 5664/8887/2173
f 5645/8869/2173 5644/8868/2173 5664/8887/2173 5657/8886/2173
f 5650/8877/2175 5656/8876/2175 5660/8866/2175 5662/8867/2175
f 5656/8876/2175 5655/8879/2175 5659/8862/2175 5660/8866/2175
f 5649/8881/2177 5661/8864/2177 5658/8865/2177 5654/8882/2177
f 5655/8879/2175 5654/8885/2175 5658/8863/2175 5659/8862/2175
f 5679/8898/2175 5678/8899/2175 5670/8884/2175 5671/8878/2175
f 5673/8900/2177 5665/8880/2177 5670/8883/2177 5678/8901/2177
f 5680/8902/2175 5679/8898/2175 5671/8878/2175 5672/8875/2175
f 5674/8828/2175 5680/8902/2175 5672/8875/2175 5666/8874/2175
f 5653/8889/2173 5652/8888/2173 5668/8903/2173 5669/8904/2173
f 5652/8888/2173 5651/8891/2173 5667/8905/2173 5668/8903/2173
f 5653/8893/2212 5669/8906/2213 5666/8907/2213 5650/8894/2212
f 5651/8891/2173 5649/8897/2173 5665/8908/2173 5667/8905/2173
f 5621/8827/2175 5631/8838/2175 5680/8902/2175 5674/8828/2175
f 5631/8838/2175 5628/8822/2175 5679/8898/2175 5680/8902/2175
f 5624/8819/2177 5673/8900/2177 5678/8901/2177 5622/8821/2177
f 5628/8822/2175 5622/8821/2175 5678/8899/2175 5679/8898/2175
f 5669/8904/2173 5668/8903/2173 5676/8839/2173 5677/8844/2173
f 5668/8903/2173 5667/8905/2173 5675/8817/2173 5676/8839/2173
f 5669/8906/2213 5677/8909/2214 5674/8910/2214 5666/8907/2213
f 5667/8905/2173 5665/8908/2173 5673/8818/2173 5675/8817/2173
f 5684/8911/2215 5682/8912/2215 5681/8830/2215 5683/8913/2215
f 5677/8844/2173 5623/8845/2173 5682/8912/2173 5684/8914/2173
f 5623/8845/2174 5621/8827/2174 5681/8830/2174 5682/8912/2174
f 5674/8910/2172 5677/8909/2172 5684/8911/2172 5683/8913/2172
f 5685/8915/2172 5686/8916/2172 5688/8917/2172 5687/8918/2172
f 5699/8919/2173 5697/8920/2173 5692/8921/2173 5691/8922/2173
f 5691/8922/2174 5692/8921/2174 5690/8923/2174 5689/8924/2174
f 5704/8925/2175 5702/8926/2175 5686/8927/2175 5685/8928/2175
f 5699/8929/2176 5691/8922/2176 5689/8924/2176 5698/8930/2176
f 5703/8931/2177 5688/8932/2177 5686/8933/2177 5702/8934/2177
f 5697/8935/2216 5694/8936/2216 5696/8937/2216 5700/8938/2216
f 5701/8939/2176 5693/8940/2176 5695/8941/2176 5704/8942/2176
f 5698/8943/2175 5700/8944/2175 5696/8945/2175 5695/8946/2175
f 5701/8947/2173 5703/8948/2173 5694/8949/2173 5693/8950/2173
f 5689/8924/2175 5690/8923/2175 5700/8944/2175 5698/8943/2175
f 5692/8921/2177 5697/8935/2177 5700/8938/2177 5690/8923/2177
f 5693/8940/2176 5699/8929/2176 5698/8930/2176 5695/8941/2176
f 5693/8950/2173 5694/8949/2173 5697/8920/2173 5699/8919/2173
f 5687/8918/2173 5688/8917/2173 5703/8948/2173 5701/8947/2173
f 5687/8951/2176 5701/8939/2176 5704/8942/2176 5685/8952/2176
f 5702/8926/2175 5696/8945/2175 5707/8953/2175 5708/8954/2175
f 5695/8946/2175 5696/8945/2175 5702/8926/2175 5704/8925/2175
f 5706/8955/2177 5705/8956/2177 5708/8957/2177 5707/8958/2177
f 5696/8937/2174 5694/8936/2174 5706/8955/2174 5707/8958/2174
f 5703/8931/2172 5702/8934/2172 5708/8957/2172 5705/8956/2172
f 5694/8949/2173 5703/8948/2173 5705/8959/2173 5706/8960/2173
f 5709/8961/2217 5710/8962/2217 5712/8963/2217 5711/8964/2217
f 5711/8964/2218 5712/8963/2218 5714/8965/2218 5713/8966/2218
f 5713/8966/2219 5714/8965/2219 5716/8967/2219 5715/8968/2219
f 5715/8968/2220 5716/8967/2220 5718/8969/2220 5717/8970/2220
f 5717/8970/2221 5718/8969/2221 5720/8971/2221 5719/8972/2221
f 5719/8972/2222 5720/8971/2222 5722/8973/2222 5721/8974/2222
f 5721/8974/2223 5722/8973/2223 5724/8975/2223 5723/8976/2223
f 5723/8976/2224 5724/8975/2224 5726/8977/2224 5725/8978/2224
f 5725/8978/2225 5726/8977/2225 5728/8979/2225 5727/8980/2225
f 5727/8980/2226 5728/8979/2226 5730/8981/2226 5729/8982/2226
f 5729/8982/2227 5730/8981/2227 5732/8983/2227 5731/8984/2227
f 5731/8984/2228 5732/8983/2228 5734/8985/2228 5733/8986/2228
f 5733/8986/2229 5734/8985/2229 5736/8987/2229 5735/8988/2229
f 5735/8988/2230 5736/8987/2230 5738/8989/2230 5737/8990/2230
f 5737/8990/2231 5738/8989/2231 5740/8991/2231 5739/8992/2231
f 5739/8992/2232 5740/8991/2232 5742/8993/2232 5741/8994/2232
f 5741/8994/2233 5742/8993/2233 5744/8995/2233 5743/8996/2233
f 5743/8996/2234 5744/8995/2234 5746/8997/2234 5745/8998/2234
f 5745/8998/2235 5746/8997/2235 5748/8999/2235 5747/9000/2235
f 5747/9000/2236 5748/8999/2236 5750/9001/2236 5749/9002/2236
f 5749/9002/2237 5750/9001/2237 5752/9003/2237 5751/9004/2237
f 5751/9004/2238 5752/9003/2238 5754/9005/2238 5753/9006/2238
f 5753/9006/2239 5754/9005/2239 5756/9007/2239 5755/9008/2239
f 5755/9008/2240 5756/9007/2240 5758/9009/2240 5757/9010/2240
f 5757/9010/2241 5758/9009/2241 5760/9011/2241 5759/9012/2241
f 5759/9012/2242 5760/9011/2242 5762/9013/2242 5761/9014/2242
f 5761/9014/2243 5762/9013/2243 5764/9015/2243 5763/9016/2243
f 5763/9016/2244 5764/9015/2244 5766/9017/2244 5765/9018/2244
f 5765/9018/2245 5766/9017/2245 5768/9019/2245 5767/9020/2245
f 5767/9020/2246 5768/9019/2246 5770/9021/2246 5769/9022/2246
f 5712/9023/2174 5710/9024/2174 5772/9025/2174 5770/9026/2174 5768/9027/2174 5766/9028/2174 5764/9029/2174 5762/9030/2174 5760/9031/2174 5758/9032/2174 5756/9033/2174 5754/9034/2174 5752/9035/2174 5750/9036/2174 5748/9037/2174 5746/9038/2174 5744/9039/2174 5742/9040/2174 5740/9041/2174 5738/9042/2174 5736/9043/2174 5734/9044/2174 5732/9045/2174 5730/9046/2174 5728/9047/2174 5726/9048/2174 5724/9049/2174 5722/9050/2174 5720/9051/2174 5718/9052/2174 5716/9053/2174 5714/9054/2174
f 5769/9022/2247 5770/9021/2247 5772/9055/2247 5771/9056/2247
f 5771/9056/2248 5772/9055/2248 5710/9057/2248 5709/9058/2248
f 5709/9059/2172 5711/9060/2172 5713/9061/2172 5715/9062/2172 5717/9063/2172 5719/9064/2172 5721/9065/2172 5723/9066/2172 5725/9067/2172 5727/9068/2172 5729/9069/2172 5731/9070/2172 5733/9071/2172 5735/9072/2172 5737/9073/2172 5739/9074/2172 5741/9075/2172 5743/9076/2172 5745/9077/2172 5747/9078/2172 5749/9079/2172 5751/9080/2172 5753/9081/2172 5755/9082/2172 5757/9083/2172 5759/9084/2172 5761/9085/2172 5763/9086/2172 5765/9087/2172 5767/9088/2172 5769/9089/2172 5771/9090/2172
f 5773/9091/2249 5774/9092/2249 5776/9093/2249 5775/9094/2249
f 5775/9094/2250 5776/9093/2250 5778/9095/2250 5777/9096/2250
f 5777/9096/2251 5778/9095/2251 5780/9097/2251 5779/9098/2251
f 5779/9098/2252 5780/9097/2252 5782/9099/2252 5781/9100/2252
f 5781/9100/2253 5782/9099/2253 5784/9101/2253 5783/9102/2253
f 5783/9102/2254 5784/9101/2254 5786/9103/2254 5785/9104/2254
f 5785/9104/2255 5786/9103/2255 5788/9105/2255 5787/9106/2255
f 5787/9106/2256 5788/9105/2256 5790/9107/2256 5789/9108/2256
f 5789/9108/2257 5790/9107/2257 5792/9109/2257 5791/9110/2257
f 5791/9110/2258 5792/9109/2258 5794/9111/2258 5793/9112/2258
f 5793/9112/2259 5794/9111/2259 5796/9113/2259 5795/9114/2259
f 5795/9114/2260 5796/9113/2260 5798/9115/2260 5797/9116/2260
f 5797/9116/2261 5798/9115/2261 5800/9117/2261 5799/9118/2261
f 5799/9118/2262 5800/9117/2262 5802/9119/2262 5801/9120/2262
f 5801/9120/2263 5802/9119/2263 5804/9121/2263 5803/9122/2263
f 5803/9122/2264 5804/9121/2264 5806/9123/2264 5805/9124/2264
f 5805/9124/2265 5806/9123/2265 5808/9125/2265 5807/9126/2265
f 5807/9126/2266 5808/9125/2266 5810/9127/2266 5809/9128/2266
f 5809/9128/2267 5810/9127/2267 5812/9129/2267 5811/9130/2267
f 5811/9130/2268 5812/9129/2268 5814/9131/2268 5813/9132/2268
f 5813/9132/2269 5814/9131/2269 5816/9133/2269 5815/9134/2269
f 5815/9134/2270 5816/9133/2270 5818/9135/2270 5817/9136/2270
f 5817/9136/2271 5818/9135/2271 5820/9137/2271 5819/9138/2271
f 5819/9138/2272 5820/9137/2272 5822/9139/2272 5821/9140/2272
f 5821/9140/2273 5822/9139/2273 5824/9141/2273 5823/9142/2273
f 5823/9142/2274 5824/9141/2274 5826/9143/2274 5825/9144/2274
f 5825/9144/2275 5826/9143/2275 5828/9145/2275 5827/9146/2275
f 5827/9146/2276 5828/9145/2276 5830/9147/2276 5829/9148/2276
f 5829/9148/2277 5830/9147/2277 5832/9149/2277 5831/9150/2277
f 5831/9150/2278 5832/9149/2278 5834/9151/2278 5833/9152/2278
f 5776/9153/2174 5774/9154/2174 5836/9155/2174 5834/9156/2174 5832/9157/2174 5830/9158/2174 5828/9159/2174 5826/9160/2174 5824/9161/2174 5822/9162/2174 5820/9163/2174 5818/9164/2174 5816/9165/2174 5814/9166/2174 5812/9167/2174 5810/9168/2174 5808/9169/2174 5806/9170/2174 5804/9171/2174 5802/9172/2174 5800/9173/2174 5798/9174/2174 5796/9175/2174 5794/9176/2174 5792/9177/2174 5790/9178/2174 5788/9179/2174 5786/9180/2174 5784/9181/2174 5782/9182/2174 5780/9183/2174 5778/9184/2174
f 5833/9152/2279 5834/9151/2279 5836/9185/2279 5835/9186/2279
f 5835/9186/2280 5836/9185/2280 5774/9187/2280 5773/9188/2280
f 5773/9189/2172 5775/9190/2172 5777/9191/2172 5779/9192/2172 5781/9193/2172 5783/9194/2172 5785/9195/2172 5787/9196/2172 5789/9197/2172 5791/9198/2172 5793/9199/2172 5795/9200/2172 5797/9201/2172 5799/9202/2172 5801/9203/2172 5803/9204/2172 5805/9205/2172 5807/9206/2172 5809/9207/2172 5811/9208/2172 5813/9209/2172 5815/9210/2172 5817/9211/2172 5819/9212/2172 5821/9213/2172 5823/9214/2172 5825/9215/2172 5827/9216/2172 5829/9217/2172 5831/9218/2172 5833/9219/2172 5835/9220/2172
f 5837/9221/2281 5838/9222/2281 5840/9223/2281 5839/9224/2281
f 5839/9224/2282 5840/9223/2282 5842/9225/2282 5841/9226/2282
f 5841/9226/2283 5842/9225/2283 5844/9227/2283 5843/9228/2283
f 5843/9228/2284 5844/9227/2284 5846/9229/2284 5845/9230/2284
f 5845/9230/2285 5846/9229/2285 5848/9231/2285 5847/9232/2285
f 5847/9232/2286 5848/9231/2286 5850/9233/2286 5849/9234/2286
f 5849/9234/2287 5850/9233/2287 5852/9235/2287 5851/9236/2287
f 5851/9236/2288 5852/9235/2288 5854/9237/2288 5853/9238/2288
f 5853/9238/2289 5854/9237/2289 5856/9239/2289 5855/9240/2289
f 5855/9240/2290 5856/9239/2290 5858/9241/2290 5857/9242/2290
f 5857/9242/2291 5858/9241/2291 5860/9243/2291 5859/9244/2291
f 5859/9244/2292 5860/9243/2292 5862/9245/2292 5861/9246/2292
f 5861/9246/2293 5862/9245/2293 5864/9247/2293 5863/9248/2293
f 5863/9248/2294 5864/9247/2294 5866/9249/2294 5865/9250/2294
f 5865/9250/2295 5866/9249/2295 5868/9251/2295 5867/9252/2295
f 5867/9252/2296 5868/9251/2296 5870/9253/2296 5869/9254/2296
f 5869/9254/2297 5870/9253/2297 5872/9255/2297 5871/9256/2297
f 5871/9256/2298 5872/9255/2298 5874/9257/2298 5873/9258/2298
f 5873/9258/2299 5874/9257/2299 5876/9259/2299 5875/9260/2299
f 5875/9260/2300 5876/9259/2300 5878/9261/2300 5877/9262/2300
f 5877/9262/2301 5878/9261/2301 5880/9263/2301 5879/9264/2301
f 5879/9264/2302 5880/9263/2302 5882/9265/2302 5881/9266/2302
f 5881/9266/2303 5882/9265/2303 5884/9267/2303 5883/9268/2303
f 5883/9268/2304 5884/9267/2304 5886/9269/2304 5885/9270/2304
f 5885/9270/2305 5886/9269/2305 5888/9271/2305 5887/9272/2305
f 5887/9272/2306 5888/9271/2306 5890/9273/2306 5889/9274/2306
f 5889/9274/2307 5890/9273/2307 5892/9275/2307 5891/9276/2307
f 5891/9276/2308 5892/9275/2308 5894/9277/2308 5893/9278/2308
f 5893/9278/2309 5894/9277/2309 5896/9279/2309 5895/9280/2309
f 5895/9280/2310 5896/9279/2310 5898/9281/2310 5897/9282/2310
f 5840/9283/2174 5838/9284/2174 5900/9285/2174 5898/9286/2174 5896/9287/2174 5894/9288/2174 5892/9289/2174 5890/9290/2174 5888/9291/2174 5886/9292/2174 5884/9293/2174 5882/9294/2174 5880/9295/2174 5878/9296/2174 5876/9297/2174 5874/9298/2174 5872/9299/2174 5870/9300/2174 5868/9301/2174 5866/9302/2174 5864/9303/2174 5862/9304/2174 5860/9305/2174 5858/9306/2174 5856/9307/2174 5854/9308/2174 5852/9309/2174 5850/9310/2174 5848/9311/2174 5846/9312/2174 5844/9313/2174 5842/9314/2174
f 5897/9282/2311 5898/9281/2311 5900/9315/2311 5899/9316/2311
f 5899/9316/2312 5900/9315/2312 5838/9317/2312 5837/9318/2312
f 5837/9319/2172 5839/9320/2172 5841/9321/2172 5843/9322/2172 5845/9323/2172 5847/9324/2172 5849/9325/2172 5851/9326/2172 5853/9327/2172 5855/9328/2172 5857/9329/2172 5859/9330/2172 5861/9331/2172 5863/9332/2172 5865/9333/2172 5867/9334/2172 5869/9335/2172 5871/9336/2172 5873/9337/2172 5875/9338/2172 5877/9339/2172 5879/9340/2172 5881/9341/2172 5883/9342/2172 5885/9343/2172 5887/9344/2172 5889/9345/2172 5891/9346/2172 5893/9347/2172 5895/9348/2172 5897/9349/2172 5899/9350/2172
f 5901/9351/2313 5902/9352/2313 5904/9353/2313 5903/9354/2313
f 5903/9354/2314 5904/9353/2314 5906/9355/2314 5905/9356/2314
f 5905/9356/2315 5906/9355/2315 5908/9357/2315 5907/9358/2315
f 5907/9358/2316 5908/9357/2316 5910/9359/2316 5909/9360/2316
f 5909/9360/2317 5910/9359/2317 5912/9361/2317 5911/9362/2317
f 5911/9362/2318 5912/9361/2318 5914/9363/2318 5913/9364/2318
f 5913/9364/2319 5914/9363/2319 5916/9365/2319 5915/9366/2319
f 5915/9366/2320 5916/9365/2320 5918/9367/2320 5917/9368/2320
f 5917/9368/2321 5918/9367/2321 5920/9369/2321 5919/9370/2321
f 5919/9370/2322 5920/9369/2322 5922/9371/2322 5921/9372/2322
f 5921/9372/2323 5922/9371/2323 5924/9373/2323 5923/9374/2323
f 5923/9374/2324 5924/9373/2324 5926/9375/2324 5925/9376/2324
f 5925/9376/2325 5926/9375/2325 5928/9377/2325 5927/9378/2325
f 5927/9378/2326 5928/9377/2326 5930/9379/2326 5929/9380/2326
f 5929/9380/2327 5930/9379/2327 5932/9381/2327 5931/9382/2327
f 5931/9382/2328 5932/9381/2328 5934/9383/2328 5933/9384/2328
f 5933/9384/2329 5934/9383/2329 5936/9385/2329 5935/9386/2329
f 5935/9386/2330 5936/9385/2330 5938/9387/2330 5937/9388/2330
f 5937/9388/2331 5938/9387/2331 5940/9389/2331 5939/9390/2331
f 5939/9390/2332 5940/9389/2332 5942/9391/2332 5941/9392/2332
f 5941/9392/2333 5942/9391/2333 5944/9393/2333 5943/9394/2333
f 5943/9394/2334 5944/9393/2334 5946/9395/2334 5945/9396/2334
f 5945/9396/2335 5946/9395/2335 5948/9397/2335 5947/9398/2335
f 5947/9398/2336 5948/9397/2336 5950/9399/2336 5949/9400/2336
f 5949/9400/2337 5950/9399/2337 5952/9401/2337 5951/9402/2337
f 5951/9402/2338 5952/9401/2338 5954/9403/2338 5953/9404/2338
f 5953/9404/2339 5954/9403/2339 5956/9405/2339 5955/9406/2339
f 5955/9406/2340 5956/9405/2340 5958/9407/2340 5957/9408/2340
f 5957/9408/2341 5958/9407/2341 5960/9409/2341 5959/9410/2341
f 5959/9410/2342 5960/9409/2342 5962/9411/2342 5961/9412/2342
f 5904/9413/2174 5902/9414/2174 5964/9415/2174 5962/9416/2174 5960/9417/2174 5958/9418/2174 5956/9419/2174 5954/9420/2174 5952/9421/2174 5950/9422/2174 5948/9423/2174 5946/9424/2174 5944/9425/2174 5942/9426/2174 5940/9427/2174 5938/9428/2174 5936/9429/2174 5934/9430/2174 5932/9431/2174 5930/9432/2174 5928/9433/2174 5926/9434/2174 5924/9435/2174 5922/9436/2174 5920/9437/2174 5918/9438/2174 5916/9439/2174 5914/9440/2174 5912/9441/2174 5910/9442/2174 5908/9443/2174 5906/9444/2174
f 5961/9412/2343 5962/9411/2343 5964/9445/2343 5963/9446/2343
f 5963/9446/2344 5964/9445/2344 5902/9447/2344 5901/9448/2344
f 5901/9449/2172 5903/9450/2172 5905/9451/2172 5907/9452/2172 5909/9453/2172 5911/9454/2172 5913/9455/2172 5915/9456/2172 5917/9457/2172 5919/9458/2172 5921/9459/2172 5923/9460/2172 5925/9461/2172 5927/9462/2172 5929/9463/2172 5931/9464/2172 5933/9465/2172 5935/9466/2172 5937/9467/2172 5939/9468/2172 5941/9469/2172 5943/9470/2172 5945/9471/2172 5947/9472/2172 5949/9473/2172 5951/9474/2172 5953/9475/2172 5955/9476/2172 5957/9477/2172 5959/9478/2172 5961/9479/2172 5963/9480/2172
f 5977/9481/2172 5966/9482/2172 5968/9483/2172 5978/9484/2172
f 5978/9484/2173 5968/9483/2173 5972/9485/2173 5979/9486/2173
f 5979/9486/2174 5972/9485/2174 5970/9487/2174 5980/9488/2174
f 5980/9488/2175 5970/9487/2175 5966/9489/2175 5977/9490/2175
f 5967/9491/2176 5971/9492/2176 5969/9493/2176 5965/9494/2176
f 5972/9485/2177 5968/9495/2177 5966/9496/2177 5970/9487/2177
f 5969/9493/2175 5976/9497/2175 5973/9498/2175 5965/9499/2175
f 5971/9492/2174 5975/9500/2174 5976/9497/2174 5969/9493/2174
f 5967/9501/2173 5974/9502/2173 5975/9500/2173 5971/9492/2173
f 5965/9503/2172 5973/9504/2172 5974/9502/2172 5967/9501/2172
f 5976/9497/2175 5980/9488/2175 5977/9490/2175 5973/9498/2175
f 5975/9500/2174 5979/9486/2174 5980/9488/2174 5976/9497/2174
f 5974/9502/2173 5978/9484/2173 5979/9486/2173 5975/9500/2173
f 5973/9504/2345 5977/9481/2345 5978/9484/2345 5974/9502/2345
f 5981/9505/2346 5982/9506/2346 5984/9507/2346 5983/9508/2346
f 5983/9508/2347 5984/9507/2347 5986/9509/2347 5985/9510/2347
f 5985/9510/2348 5986/9509/2348 5988/9511/2348 5987/9512/2348
f 5987/9512/2349 5988/9511/2349 5990/9513/2349 5989/9514/2349
f 5989/9514/2350 5990/9513/2350 5992/9515/2350 5991/9516/2350
f 5991/9516/2351 5992/9515/2351 5994/9517/2351 5993/9518/2351
f 5993/9518/2352 5994/9517/2352 5996/9519/2352 5995/9520/2352
f 5995/9520/2353 5996/9519/2353 5998/9521/2353 5997/9522/2353
f 5997/9522/2354 5998/9521/2354 6000/9523/2354 5999/9524/2354
f 5999/9524/2355 6000/9523/2355 6002/9525/2355 6001/9526/2355
f 6001/9526/2356 6002/9525/2356 6004/9527/2356 6003/9528/2356
f 6003/9528/2357 6004/9527/2357 6006/9529/2357 6005/9530/2357
f 6005/9530/2358 6006/9529/2358 6008/9531/2358 6007/9532/2358
f 6007/9532/2359 6008/9531/2359 6010/9533/2359 6009/9534/2359
f 6009/9534/2360 6010/9533/2360 6012/9535/2360 6011/9536/2360
f 6011/9536/2361 6012/9535/2361 6014/9537/2361 6013/9538/2361
f 6013/9538/2362 6014/9537/2362 6016/9539/2362 6015/9540/2362
f 6015/9540/2363 6016/9539/2363 6018/9541/2363 6017/9542/2363
f 6017/9542/2364 6018/9541/2364 6020/9543/2364 6019/9544/2364
f 6019/9544/2365 6020/9543/2365 6022/9545/2365 6021/9546/2365
f 6021/9546/2366 6022/9545/2366 6024/9547/2366 6023/9548/2366
f 6023/9548/2367 6024/9547/2367 6026/9549/2367 6025/9550/2367
f 6025/9550/2368 6026/9549/2368 6028/9551/2368 6027/9552/2368
f 6027/9552/2369 6028/9551/2369 6030/9553/2369 6029/9554/2369
f 6029/9554/2370 6030/9553/2370 6032/9555/2370 6031/9556/2370
f 6031/9556/2371 6032/9555/2371 6034/9557/2371 6033/9558/2371
f 6033/9558/2372 6034/9557/2372 6036/9559/2372 6035/9560/2372
f 6035/9560/2373 6036/9559/2373 6038/9561/2373 6037/9562/2373
f 6037/9562/2374 6038/9561/2374 6040/9563/2374 6039/9564/2374
f 6039/9564/2375 6040/9563/2375 6042/9565/2375 6041/9566/2375
f 5984/9567/2174 5982/9568/2174 6044/9569/2174 6042/9570/2174 6040/9571/2174 6038/9572/2174 6036/9573/2174 6034/9574/2174 6032/9575/2174 6030/9576/2174 6028/9577/2174 6026/9578/2174 6024/9579/2174 6022/9580/2174 6020/9581/2174 6018/9582/2174 6016/9583/2174 6014/9584/2174 6012/9585/2174 6010/9586/2174 6008/9587/2174 6006/9588/2174 6004/9589/2174 6002/9590/2174 6000/9591/2174 5998/9592/2174 5996/9593/2174 5994/9594/2174 5992/9595/2174 5990/9596/2174 5988/9597/2174 5986/9598/2174
f 6041/9566/2376 6042/9565/2376 6044/9599/2376 6043/9600/2376
f 6043/9600/2377 6044/9599/2377 5982/9601/2377 5981/9602/2377
f 5981/9603/2172 5983/9604/2172 5985/9605/2172 5987/9606/2172 5989/9607/2172 5991/9608/2172 5993/9609/2172 5995/9610/2172 5997/9611/2172 5999/9612/2172 6001/9613/2172 6003/9614/2172 6005/9615/2172 6007/9616/2172 6009/9617/2172 6011/9618/2172 6013/9619/2172 6015/9620/2172 6017/9621/2172 6019/9622/2172 6021/9623/2172 6023/9624/2172 6025/9625/2172 6027/9626/2172 6029/9627/2172 6031/9628/2172 6033/9629/2172 6035/9630/2172 6037/9631/2172 6039/9632/2172 6041/9633/2172 6043/9634/2172
f 6045/9635/2172 6046/9636/2172 6048/9637/2172 6047/9638/2172
f 6047/9638/2173 6048/9637/2173 6052/9639/2173 6051/9640/2173
f 6051/9640/2174 6052/9639/2174 6050/9641/2174 6049/9642/2174
f 6049/9642/2175 6050/9641/2175 6046/9643/2175 6045/9644/2175
f 6047/9645/2176 6051/9640/2176 6049/9642/2176 6045/9646/2176
f 6052/9639/2177 6048/9647/2177 6046/9648/2177 6050/9641/2177
f 6053/9649/2172 6054/9650/2172 6056/9651/2172 6055/9652/2172
f 6055/9652/2173 6056/9651/2173 6060/9653/2173 6059/9654/2173
f 6059/9654/2174 6060/9653/2174 6058/9655/2174 6057/9656/2174
f 6057/9656/2175 6058/9655/2175 6054/9657/2175 6053/9658/2175
f 6070/9659/2378 6069/9660/2378 6064/9661/2378 6063/9662/2378
f 6060/9653/2177 6056/9663/2177 6054/9664/2177 6058/9655/2177
f 6061/9665/2176 6063/9662/2176 6064/9661/2176 6062/9666/2176
f 6069/9660/2175 6079/9667/2175 6062/9668/2175 6064/9661/2175
f 6080/9669/2173 6070/9659/2173 6063/9662/2173 6061/9670/2173
f 6079/9671/2379 6080/9669/2379 6061/9670/2379 6062/9672/2379
f 6053/9649/2172 6055/9652/2172 6084/9673/2172 6075/9674/2172
f 6075/9674/2172 6084/9673/2172 6083/9675/2172 6076/9676/2172
f 6076/9676/2172 6083/9675/2172 6082/9677/2172 6077/9678/2172
f 6077/9678/2172 6082/9677/2172 6081/9679/2172 6078/9680/2172
f 6078/9680/2380 6081/9679/2380 6080/9669/2380 6079/9671/2380
f 6055/9652/2173 6059/9654/2173 6074/9681/2173 6084/9673/2173
f 6084/9673/2173 6074/9681/2173 6073/9682/2173 6083/9675/2173
f 6083/9675/2173 6073/9682/2173 6072/9683/2173 6082/9677/2173
f 6082/9677/2173 6072/9683/2173 6071/9684/2173 6081/9679/2173
f 6081/9679/2173 6071/9684/2173 6070/9659/2173 6080/9669/2173
f 6057/9656/2175 6053/9658/2175 6075/9685/2175 6065/9686/2175
f 6065/9686/2175 6075/9685/2175 6076/9687/2175 6066/9688/2175
f 6066/9688/2175 6076/9687/2175 6077/9689/2175 6067/9690/2175
f 6067/9690/2175 6077/9689/2175 6078/9691/2175 6068/9692/2175
f 6068/9692/2175 6078/9691/2175 6079/9667/2175 6069/9660/2175
f 6059/9654/2381 6057/9656/2381 6065/9686/2381 6074/9681/2381
f 6074/9681/2382 6065/9686/2382 6066/9688/2382 6073/9682/2382
f 6073/9682/2383 6066/9688/2383 6067/9690/2383 6072/9683/2383
f 6072/9683/2384 6067/9690/2384 6068/9692/2384 6071/9684/2384
f 6071/9684/2385 6068/9692/2385 6069/9660/2385 6070/9659/2385
