# Blender v2.80 (sub 75) OBJ File: 'all weapons.blend'
# www.blender.org
v -3.77506 -0.43558 -39.60001
v -3.86610 0.78736 -39.60001
v -3.77506 -0.43558 -40.40001
v -3.86610 0.78736 -40.40001
v 2.62981 0.03641 -39.60001
v 2.62981 0.78736 -39.60001
v 2.62981 0.03641 -40.40001
v 2.62981 0.78736 -40.40001
v -2.01629 -0.36852 -40.40001
v -2.01629 0.78736 -40.40001
v -2.01629 -0.36852 -39.60001
v -2.01629 0.78736 -39.60001
v -0.96856 0.78736 -40.40001
v -0.96856 0.03641 -39.60001
v -0.96856 0.03641 -40.40001
v -0.96856 0.78736 -39.60001
v -1.92499 -0.25576 -40.40001
v -1.92499 0.78736 -39.60001
v -1.92499 0.78736 -40.40001
v -1.92499 -0.25576 -39.60001
v -3.42613 -0.42228 -40.40001
v -3.49911 0.78736 -39.60001
v -3.49911 0.78736 -40.40001
v -3.42613 -0.42228 -39.60001
v -3.34072 0.78736 -40.40001
v -3.25398 -0.28960 -39.60001
v -3.25398 -0.28960 -40.40001
v -3.34072 0.78736 -39.60001
v -2.92581 0.78736 -40.40001
v -2.90739 -0.29133 -39.60001
v -2.90739 -0.29133 -40.40001
v -2.92581 0.78736 -39.60001
v -2.89477 0.78736 -40.40001
v -2.85153 -0.40037 -39.60001
v -2.85153 -0.40037 -40.40001
v -2.89477 0.78736 -39.60001
v -9.42037 0.78938 -40.40000
v -9.42037 -1.29715 -40.40000
v -9.42037 0.78938 -39.60000
v -9.42037 -1.29715 -39.60000
v -10.30535 0.78938 -40.40000
v -10.33008 -1.38986 -40.40000
v -10.30535 0.78938 -39.60000
v -10.33008 -1.38986 -39.60000
v -10.18931 -1.30134 -40.40000
v -10.16841 0.78938 -39.60000
v -10.18931 -1.30134 -39.60000
v -10.16841 0.78938 -40.40000
v -10.22879 -1.37650 -40.40000
v -10.23688 0.78938 -39.60000
v -10.22879 -1.37650 -39.60000
v -10.23688 0.78938 -40.40000
v -4.26514 0.85996 -40.19533
v 10.43641 0.91532 -40.14662
v -4.26514 0.82185 -40.19158
v 10.43641 0.88672 -40.14380
v -4.26514 0.78521 -40.18047
v 10.43641 0.85921 -40.13546
v -4.26514 0.75143 -40.16242
v 10.43641 0.83386 -40.12191
v -4.26514 0.72183 -40.13812
v 10.43641 0.81165 -40.10368
v -4.26514 0.69754 -40.10852
v 10.43641 0.79341 -40.08145
v -4.26514 0.67949 -40.07475
v 10.43641 0.77986 -40.05611
v -4.26514 0.66838 -40.03811
v 10.43641 0.77152 -40.02860
v -4.26514 0.66462 -40.00000
v 10.43641 0.76870 -40.00000
v -4.26514 0.66838 -39.96189
v 10.43641 0.77152 -39.97139
v -4.26514 0.67949 -39.92525
v 10.43641 0.77986 -39.94389
v -4.26514 0.69754 -39.89148
v 10.43641 0.79341 -39.91854
v -4.26514 0.72183 -39.86188
v 10.43641 0.81165 -39.89632
v -4.26514 0.75143 -39.83758
v 10.43641 0.83386 -39.87809
v -4.26514 0.78521 -39.81953
v 10.43641 0.85921 -39.86454
v -4.26514 0.82185 -39.80842
v 10.43641 0.88672 -39.85619
v -4.26514 0.85996 -39.80466
v 10.43641 0.91532 -39.85338
v -4.26514 0.89806 -39.80842
v 10.43641 0.94393 -39.85619
v -4.26514 0.93471 -39.81953
v 10.43641 0.97143 -39.86454
v -4.26514 0.96848 -39.83758
v 10.43641 0.99678 -39.87809
v -4.26514 0.99808 -39.86188
v 10.43641 1.01900 -39.89632
v -4.26514 1.02237 -39.89148
v 10.43641 1.03723 -39.91854
v -4.26514 1.04042 -39.92525
v 10.43641 1.05078 -39.94389
v -4.26514 1.05154 -39.96189
v 10.43641 1.05913 -39.97139
v -4.26514 1.05529 -40.00000
v 10.43641 1.06194 -40.00000
v -4.26514 1.05154 -40.03811
v 10.43641 1.05913 -40.02860
v -4.26514 1.04042 -40.07475
v 10.43641 1.05078 -40.05611
v -4.26514 1.02237 -40.10852
v 10.43641 1.03723 -40.08145
v -4.26514 0.99808 -40.13812
v 10.43641 1.01900 -40.10368
v -4.26514 0.96848 -40.16242
v 10.43641 0.99678 -40.12191
v -4.26514 0.93471 -40.18047
v 10.43641 0.97143 -40.13546
v -4.26514 0.89806 -40.19158
v 10.43641 0.94393 -40.14380
v -3.98769 1.85417 -40.21194
v -1.70737 1.85417 -40.21194
v -3.98769 1.81282 -40.20787
v -1.70737 1.81282 -40.20787
v -3.98769 1.77307 -40.19581
v -1.70737 1.77307 -40.19581
v -3.98769 1.73642 -40.17622
v -1.70737 1.73643 -40.17622
v -3.98769 1.70431 -40.14986
v -1.70737 1.70431 -40.14986
v -3.98769 1.67795 -40.11774
v -1.70737 1.67795 -40.11774
v -3.98769 1.65837 -40.08110
v -1.70737 1.65837 -40.08110
v -3.98769 1.64630 -40.04135
v -1.70737 1.64630 -40.04135
v -3.98769 1.64223 -40.00000
v -1.70737 1.64223 -40.00000
v -3.98769 1.64630 -39.95865
v -1.70737 1.64630 -39.95865
v -3.98769 1.65837 -39.91889
v -1.70737 1.65837 -39.91889
v -3.98769 1.67795 -39.88225
v -1.70737 1.67795 -39.88225
v -3.98769 1.70431 -39.85014
v -1.70737 1.70431 -39.85014
v -3.98769 1.73642 -39.82378
v -1.70737 1.73643 -39.82378
v -3.98769 1.77307 -39.80419
v -1.70737 1.77307 -39.80419
v -3.98769 1.81282 -39.79213
v -1.70737 1.81282 -39.79213
v -3.98769 1.85417 -39.78806
v -1.70737 1.85417 -39.78806
v -3.98769 1.89552 -39.79213
v -1.70737 1.89552 -39.79213
v -3.98769 1.93528 -39.80419
v -1.70737 1.93528 -39.80419
v -3.98769 1.97192 -39.82378
v -1.70737 1.97192 -39.82378
v -3.98769 2.00404 -39.85014
v -1.70737 2.00404 -39.85014
v -3.98769 2.03039 -39.88225
v -1.70737 2.03039 -39.88225
v -3.98769 2.04998 -39.91889
v -1.70737 2.04998 -39.91889
v -3.98769 2.06204 -39.95865
v -1.70737 2.06204 -39.95865
v -3.98769 2.06611 -40.00000
v -1.70737 2.06611 -40.00000
v -3.98769 2.06204 -40.04135
v -1.70737 2.06204 -40.04135
v -3.98769 2.04998 -40.08110
v -1.70737 2.04998 -40.08110
v -3.98769 2.03039 -40.11775
v -1.70737 2.03039 -40.11774
v -3.98769 2.00404 -40.14986
v -1.70737 2.00404 -40.14986
v -3.98769 1.97192 -40.17622
v -1.70737 1.97192 -40.17622
v -3.98769 1.93528 -40.19581
v -1.70737 1.93528 -40.19581
v -3.98769 1.89552 -40.20787
v -1.70737 1.89552 -40.20787
v -1.07297 1.76978 -40.42427
v -1.07297 1.85417 -40.43259
v -1.07297 1.68863 -40.39966
v -1.07297 1.61384 -40.35968
v -1.07297 1.54829 -40.30589
v -1.07297 1.49449 -40.24033
v -1.07297 1.45451 -40.16554
v -1.07297 1.42990 -40.08439
v -1.07297 1.42159 -40.00000
v -1.07297 1.42990 -39.91560
v -1.07297 1.45451 -39.83445
v -1.07297 1.49449 -39.75967
v -1.07297 1.54829 -39.69411
v -1.07297 1.61384 -39.64032
v -1.07297 1.68863 -39.60034
v -1.07297 1.76978 -39.57573
v -1.07297 1.85417 -39.56741
v -1.07297 1.93857 -39.57573
v -1.07297 2.01972 -39.60034
v -1.07297 2.09450 -39.64032
v -1.07297 2.16006 -39.69411
v -1.07297 2.21386 -39.75967
v -1.07297 2.25383 -39.83445
v -1.07297 2.27845 -39.91560
v -1.07297 2.28676 -40.00000
v -1.07297 2.27845 -40.08439
v -1.07297 2.25383 -40.16554
v -1.07297 2.21386 -40.24033
v -1.07297 2.16006 -40.30589
v -1.07297 2.09450 -40.35968
v -1.07297 2.01972 -40.39966
v -1.07297 1.93857 -40.42427
v 0.16381 1.76978 -40.42427
v 0.16381 1.85417 -40.43259
v 0.16381 1.68863 -40.39966
v 0.16381 1.61384 -40.35968
v 0.16381 1.54829 -40.30589
v 0.16381 1.49449 -40.24033
v 0.16381 1.45452 -40.16554
v 0.16381 1.42990 -40.08439
v 0.16381 1.42159 -40.00000
v 0.16381 1.42990 -39.91560
v 0.16381 1.45452 -39.83445
v 0.16381 1.49449 -39.75967
v 0.16381 1.54829 -39.69411
v 0.16381 1.61384 -39.64032
v 0.16381 1.68863 -39.60034
v 0.16381 1.76978 -39.57572
v 0.16381 1.85417 -39.56741
v 0.16381 1.93857 -39.57573
v 0.16381 2.01972 -39.60034
v 0.16381 2.09450 -39.64032
v 0.16381 2.16006 -39.69411
v 0.16381 2.21386 -39.75967
v 0.16381 2.25383 -39.83445
v 0.16381 2.27845 -39.91560
v 0.16381 2.28676 -40.00000
v 0.16381 2.27845 -40.08439
v 0.16381 2.25383 -40.16554
v 0.16381 2.21386 -40.24033
v 0.16381 2.16006 -40.30589
v 0.16381 2.09450 -40.35968
v 0.16381 2.01972 -40.39966
v 0.16381 1.93857 -40.42427
v -4.17014 1.85417 -40.29728
v -4.17014 1.79617 -40.29157
v -4.17014 1.74041 -40.27465
v -4.17014 1.68901 -40.24718
v -4.17014 1.64396 -40.21021
v -4.17014 1.60699 -40.16516
v -4.17014 1.57952 -40.11377
v -4.17014 1.56260 -40.05799
v -4.17014 1.55689 -40.00000
v -4.17014 1.56260 -39.94200
v -4.17014 1.57952 -39.88623
v -4.17014 1.60699 -39.83483
v -4.17014 1.64396 -39.78979
v -4.17014 1.68901 -39.75281
v -4.17014 1.74041 -39.72535
v -4.17014 1.79617 -39.70843
v -4.17014 1.85417 -39.70271
v -4.17014 1.91217 -39.70843
v -4.17014 1.96794 -39.72535
v -4.17014 2.01933 -39.75281
v -4.17014 2.06438 -39.78979
v -4.17014 2.10135 -39.83483
v -4.17014 2.12883 -39.88623
v -4.17014 2.14574 -39.94200
v -4.17014 2.15146 -40.00000
v -4.17014 2.14574 -40.05799
v -4.17014 2.12883 -40.11377
v -4.17014 2.10135 -40.16516
v -4.17014 2.06438 -40.21021
v -4.17014 2.01933 -40.24718
v -4.17014 1.96794 -40.27465
v -4.17014 1.91217 -40.29157
v -5.69653 1.85417 -40.29728
v -5.69653 1.79618 -40.29157
v -5.69653 1.74041 -40.27465
v -5.69653 1.68901 -40.24718
v -5.69653 1.64396 -40.21021
v -5.69653 1.60699 -40.16516
v -5.69653 1.57952 -40.11377
v -5.69653 1.56260 -40.05799
v -5.69653 1.55689 -40.00000
v -5.69653 1.56260 -39.94200
v -5.69653 1.57952 -39.88623
v -5.69653 1.60699 -39.83483
v -5.69653 1.64396 -39.78979
v -5.69653 1.68901 -39.75281
v -5.69653 1.74041 -39.72535
v -5.69653 1.79618 -39.70843
v -5.69653 1.85417 -39.70271
v -5.69653 1.91217 -39.70843
v -5.69653 1.96794 -39.72535
v -5.69653 2.01933 -39.75281
v -5.69653 2.06438 -39.78979
v -5.69653 2.10135 -39.83483
v -5.69653 2.12883 -39.88623
v -5.69653 2.14574 -39.94200
v -5.69653 2.15146 -40.00000
v -5.69653 2.14574 -40.05799
v -5.69653 2.12883 -40.11377
v -5.69653 2.10135 -40.16516
v -5.69653 2.06438 -40.21021
v -5.69653 2.01933 -40.24718
v -5.69653 1.96794 -40.27465
v -5.69653 1.91217 -40.29157
v -3.78660 1.20635 -39.90000
v -3.78660 1.39654 -39.90000
v -3.78660 1.20635 -40.10000
v -3.78660 1.39654 -40.10000
v -1.87710 1.20635 -39.90000
v -1.87710 1.39654 -39.90000
v -1.87710 1.20635 -40.10000
v -1.87710 1.39654 -40.10000
v -2.05379 1.20635 -40.10000
v -2.05379 1.39654 -40.10000
v -2.05379 1.20635 -39.90000
v -2.05379 1.39654 -39.90000
v -3.53596 1.20635 -40.10000
v -3.53596 1.39654 -39.90000
v -3.53596 1.39654 -40.10000
v -3.53596 1.20635 -39.90000
v -3.78660 1.82610 -39.90000
v -3.78660 1.82610 -40.10000
v -2.05379 1.82610 -40.10000
v -1.87710 1.82610 -40.10000
v -1.87710 1.82610 -39.90000
v -3.53596 1.82610 -39.90000
v -2.05379 1.82610 -39.90000
v -3.53596 1.82610 -40.10000
v -9.45796 -1.29855 -39.62500
v -9.45796 0.77757 -39.62500
v -9.45796 -1.29855 -40.37500
v -9.45796 0.77757 -40.37500
v -7.05481 -1.13232 -39.62500
v -7.05481 0.88702 -39.62500
v -7.05481 -1.13232 -40.37500
v -7.05481 0.88702 -40.37500
v -9.19774 -1.22256 -40.37500
v -9.19774 0.88702 -40.37500
v -9.19774 -1.22256 -39.62500
v -9.19774 0.88702 -39.62500
v -9.25350 -1.29173 -40.37500
v -9.25350 0.77757 -39.62500
v -9.25350 0.77757 -40.37500
v -9.25350 -1.29173 -39.62500
v -9.05740 0.88702 -40.37500
v -9.05740 -1.19615 -39.62500
v -9.05740 -1.19615 -40.37500
v -9.05740 0.88702 -39.62500
v -9.02395 0.88702 -40.37500
v -9.02395 -0.89584 -39.62500
v -9.02395 -0.89584 -40.37500
v -9.02395 0.88702 -39.62500
v -8.55043 0.88702 -40.37500
v -8.55043 -0.89184 -39.62500
v -8.55043 -0.89184 -40.37500
v -8.55043 0.88702 -39.62500
v -9.45796 -0.26049 -39.62500
v -9.45796 -0.26049 -40.37500
v -7.05481 0.00250 -40.37500
v -7.05481 0.00250 -39.62500
v -9.19774 -0.16777 -39.62500
v -9.19774 -0.16777 -40.37500
v -9.25350 -0.25708 -40.37500
v -9.25350 -0.25708 -39.62500
v -9.05740 -0.15457 -39.62500
v -9.05740 -0.15457 -40.37500
v -9.02395 -0.00441 -39.62500
v -9.02395 -0.00441 -40.37500
v -8.55043 -0.00241 -39.62500
v -8.55043 -0.00241 -40.37500
v -8.47930 0.88702 -40.37500
v -8.50934 -0.71869 -39.62500
v -8.50934 -0.71869 -40.37500
v -8.47930 0.88702 -39.62500
v -8.50934 0.17044 -39.62500
v -8.50934 0.17044 -40.37500
v -7.53845 0.88702 -40.37500
v -7.54258 -0.71829 -39.62500
v -7.54258 0.02558 -40.37500
v -7.54258 -0.71829 -40.37500
v -7.53845 0.88702 -39.62500
v -7.54258 0.02558 -39.62500
v -9.45796 0.39882 -39.62500
v -9.45796 0.39882 -40.37500
v -7.05481 0.56429 -40.37500
v -7.05481 0.56429 -39.62500
v -9.19774 0.50216 -39.62500
v -9.19774 0.50216 -40.37500
v -9.25350 0.40006 -40.37500
v -9.25350 0.40006 -39.62500
v -9.05740 0.50698 -39.62500
v -9.05740 0.50698 -40.37500
v -9.02395 0.56177 -39.62500
v -9.02395 0.56177 -40.37500
v -8.55043 0.56250 -39.62500
v -8.55043 0.56250 -40.37500
v -8.49026 0.62556 -39.62500
v -8.49026 0.62556 -40.37500
v -7.53995 0.57271 -39.62500
v -7.53995 0.57271 -40.37500
v -6.44694 0.00250 -40.37500
v -6.73895 -1.26343 -40.37500
v -6.73895 -1.26343 -39.62500
v -6.44694 0.00250 -39.62500
v -6.62572 0.56429 -40.37500
v -6.62572 0.56429 -39.62500
v -6.34563 0.56429 -40.37500
v -6.34563 0.09189 -40.37500
v -6.34563 0.56429 -39.62500
v -6.34563 0.09189 -39.62500
v -9.45796 -0.44161 -40.37500
v -7.05481 -0.19551 -40.37500
v -7.05481 -0.19551 -39.62500
v -9.19774 -0.35182 -39.62500
v -9.19774 -0.35182 -40.37500
v -9.25350 -0.43761 -40.37500
v -9.25350 -0.43761 -39.62500
v -9.05740 -0.33631 -39.62500
v -9.05740 -0.33631 -40.37500
v -9.02395 -0.15995 -39.62500
v -9.02395 -0.15995 -40.37500
v -8.55043 -0.15760 -39.62500
v -8.55043 -0.15760 -40.37500
v -9.45796 -0.44161 -39.62500
v -8.50934 0.01530 -40.37500
v -8.50934 0.01530 -39.62500
v -7.54258 -0.10421 -39.62500
v -7.54258 -0.10421 -40.37500
v -6.65284 -0.21838 -40.37500
v -6.65284 -0.21838 -39.62500
v -9.45796 -0.76217 -40.37500
v -7.05481 -0.54595 -40.37500
v -7.05481 -0.54594 -39.62500
v -9.19774 -0.67754 -39.62500
v -9.19774 -0.67754 -40.37500
v -9.25350 -0.75712 -40.37500
v -9.25350 -0.75712 -39.62500
v -9.05740 -0.65795 -39.62500
v -9.05740 -0.65795 -40.37500
v -9.02395 -0.43523 -39.62500
v -9.02395 -0.43523 -40.37500
v -8.55043 -0.43226 -39.62500
v -8.55043 -0.43226 -40.37500
v -8.50934 -0.25927 -40.37500
v -8.50934 -0.25927 -39.62500
v -7.54258 -0.33392 -39.62500
v -7.54258 -0.33392 -40.37500
v -6.61786 -0.60931 -40.37500
v -6.61786 -0.60931 -39.62500
v -9.45796 -0.76217 -39.62500
v -9.45796 -0.86265 -40.37500
v -7.05481 -0.65579 -40.37500
v -7.05481 -0.65579 -39.62500
v -9.19774 -0.77964 -39.62500
v -9.19774 -0.77964 -40.37500
v -9.25350 -0.85727 -40.37500
v -9.25350 -0.85727 -39.62500
v -9.05740 -0.75877 -39.62500
v -9.05740 -0.75877 -40.37500
v -9.02395 -0.52152 -39.62500
v -9.02395 -0.52152 -40.37500
v -8.55043 -0.51836 -39.62500
v -8.55043 -0.51836 -40.37500
v -8.50934 -0.34534 -40.37500
v -8.50934 -0.34534 -39.62500
v -7.54258 -0.40593 -39.62500
v -7.54258 -0.40593 -40.37500
v -6.44984 -0.73185 -40.37500
v -6.44984 -0.73185 -39.62500
v -9.45796 -0.86265 -39.62500
v -9.45796 -1.08060 -40.37500
v -7.05481 -0.89406 -40.37500
v -7.05481 -0.89406 -39.62500
v -9.19774 -1.00110 -39.62500
v -9.19774 -1.00110 -40.37500
v -9.25350 -1.07450 -40.37500
v -9.25350 -1.07450 -39.62500
v -9.05740 -0.97746 -39.62500
v -9.05740 -0.97746 -40.37500
v -9.02395 -0.70868 -39.62500
v -9.02395 -0.70868 -40.37500
v -8.55043 -0.70510 -39.62500
v -8.55043 -0.70510 -40.37500
v -8.50934 -0.53201 -40.37500
v -8.50934 -0.53201 -39.62500
v -7.54258 -0.56211 -39.62500
v -7.54258 -0.56211 -40.37500
v -6.58844 -0.99764 -40.37500
v -6.58844 -0.99764 -39.62500
v -9.45796 -1.08060 -39.62500
v 9.15463 0.91532 -40.19799
v 9.71548 0.91532 -40.19799
v 9.15463 0.87670 -40.19419
v 9.71548 0.87670 -40.19419
v 9.15463 0.83955 -40.18292
v 9.71548 0.83955 -40.18292
v 9.15463 0.80532 -40.16463
v 9.71548 0.80532 -40.16463
v 9.15463 0.77532 -40.14000
v 9.71548 0.77532 -40.14000
v 9.15463 0.75070 -40.11000
v 9.71548 0.75070 -40.11000
v 9.15463 0.73240 -40.07577
v 9.71548 0.73240 -40.07577
v 9.15463 0.72113 -40.03862
v 9.71548 0.72113 -40.03862
v 9.15463 0.71733 -40.00000
v 9.71548 0.71733 -40.00000
v 9.15463 0.72113 -39.96137
v 9.71548 0.72113 -39.96137
v 9.15463 0.73240 -39.92423
v 9.71548 0.73240 -39.92423
v 9.15463 0.75070 -39.89000
v 9.71548 0.75070 -39.89000
v 9.15463 0.77532 -39.85999
v 9.71548 0.77532 -39.85999
v 9.15463 0.80532 -39.83537
v 9.71548 0.80532 -39.83537
v 9.15463 0.83955 -39.81707
v 9.71548 0.83955 -39.81707
v 9.15463 0.87670 -39.80581
v 9.71548 0.87670 -39.80581
v 9.15463 0.91532 -39.80200
v 9.71548 0.91532 -39.80200
v 9.15463 0.95395 -39.80581
v 9.71548 0.95395 -39.80581
v 9.15463 0.99109 -39.81707
v 9.71548 0.99109 -39.81707
v 9.15463 1.02532 -39.83537
v 9.71548 1.02532 -39.83537
v 9.15463 1.05533 -39.85999
v 9.71548 1.05533 -39.85999
v 9.15463 1.07995 -39.89000
v 9.71548 1.07995 -39.89000
v 9.15463 1.09825 -39.92423
v 9.71548 1.09825 -39.92423
v 9.15463 1.10951 -39.96137
v 9.71548 1.10951 -39.96137
v 9.15463 1.11332 -40.00000
v 9.71548 1.11332 -40.00000
v 9.15463 1.10951 -40.03863
v 9.71548 1.10951 -40.03863
v 9.15463 1.09825 -40.07577
v 9.71548 1.09825 -40.07577
v 9.15463 1.07995 -40.11000
v 9.71548 1.07995 -40.11000
v 9.15463 1.05533 -40.14000
v 9.71548 1.05533 -40.14000
v 9.15463 1.02532 -40.16463
v 9.71548 1.02532 -40.16463
v 9.15463 0.99109 -40.18292
v 9.71548 0.99109 -40.18292
v 9.15463 0.95395 -40.19419
v 9.71548 0.95395 -40.19419
v -3.55036 -0.95507 -39.70001
v -3.55036 0.05014 -39.70001
v -3.55036 -0.95507 -40.30001
v -3.55036 0.05014 -40.30001
v -2.02528 -0.78953 -39.70001
v -2.02528 0.05014 -39.70001
v -2.02528 -0.78953 -40.30001
v -2.02528 0.05014 -40.30001
v -6.36215 0.09172 -39.64998
v -6.36215 0.56429 -39.64998
v -6.36215 0.09172 -40.34998
v -6.36215 0.56429 -40.34998
v -3.78996 -0.00069 -39.64998
v -4.17253 1.15201 -39.64998
v -3.78996 -0.00069 -40.34998
v -4.17253 1.15201 -40.34998
v -5.60249 0.09172 -40.34998
v -5.60249 0.56429 -40.34998
v -5.60249 0.09172 -39.64998
v -5.60249 0.56429 -39.64998
v -4.70731 0.74104 -40.34998
v -4.69622 -0.00069 -39.64998
v -4.69622 -0.00069 -40.34998
v -4.70731 0.74104 -39.64998
v -5.20854 -1.53838 -40.34998
v -6.04162 -1.39866 -40.34998
v -6.04162 -1.39866 -39.64998
v -5.20854 -1.53838 -39.64998
v -5.14936 0.09172 -40.34998
v -5.14936 0.56429 -39.64998
v -5.14936 0.56429 -40.34998
v -5.14936 0.09172 -39.64998
v -5.69161 -1.56167 -40.34998
v -5.69161 -1.56167 -39.64998
v -5.45984 -0.16934 -40.34998
v -5.45984 -0.16934 -39.64998
v -4.84211 -0.19381 -39.64998
v -4.84211 -0.19381 -40.34998
v -5.24434 -0.19789 -39.64998
v -5.24434 -0.19789 -40.34998
v -5.55543 -0.46973 -40.34998
v -4.88922 -0.52236 -39.64998
v -5.35363 -0.53114 -39.64998
v -5.35363 -0.53114 -40.34998
v -5.55543 -0.46973 -39.64998
v -4.88922 -0.52236 -40.34998
v -5.78904 -0.77624 -40.34998
v -4.99458 -0.85760 -39.64998
v -5.46515 -0.87117 -39.64998
v -5.46515 -0.87117 -40.34998
v -5.78904 -0.77624 -39.64998
v -4.99458 -0.85760 -40.34998
v -6.73895 -1.26343 -40.34998
v -6.73895 -1.26343 -39.64998
v -6.44984 -0.73185 -40.34998
v -6.44984 -0.73184 -39.64998
v -6.42043 -0.77296 -40.34998
v -6.42043 -0.77296 -39.64998
v -6.67378 -1.27607 -39.64998
v -6.67378 -1.27607 -40.34998
v -5.51869 -0.06164 -39.64998
v -4.78370 -0.11414 -40.34998
v -5.51869 -0.06164 -40.34998
v -4.78370 -0.11414 -39.64998
v -5.20515 -0.07841 -39.64998
v -5.20515 -0.07841 -40.34998
v -5.49419 -0.27728 -39.64998
v -4.85248 -0.31187 -40.34998
v -5.49419 -0.27728 -40.34998
v -4.85248 -0.31187 -39.64998
v -5.28361 -0.31764 -39.64998
v -5.28361 -0.31764 -40.34998
v -4.67600 -0.58193 -39.64998
v -4.67600 -0.65071 -39.64998
v -4.67600 -0.65071 -40.34998
v -4.67600 -0.58193 -40.34998
v -3.98758 -0.58193 -39.64998
v -3.95405 -0.65071 -39.64998
v -3.95405 -0.65071 -40.34998
v -3.98758 -0.58193 -40.34998
v -3.72337 -0.33306 -39.64998
v -3.68984 -0.40184 -39.64998
v -3.68984 -0.40184 -40.34998
v -3.72337 -0.33306 -40.34998
v -6.36215 0.37053 -39.64998
v -6.36215 0.37053 -40.34998
v -4.01567 0.67940 -40.34998
v -4.01567 0.67940 -39.64998
v -5.60249 0.37053 -39.64998
v -5.60249 0.37053 -40.34998
v -4.70277 0.43693 -39.64998
v -4.70277 0.43693 -40.34998
v -5.14936 0.37053 -40.34998
v -5.14936 0.37053 -39.64998
v 2.62982 1.07668 -40.34998
v 2.62982 1.07668 -39.64998
v 2.62982 0.67940 -40.34998
v 2.62982 0.67940 -39.64998
v 0.18429 1.07668 -39.64998
v 0.18429 1.07668 -40.34998
v 0.24069 0.67940 -39.64998
v 0.24069 0.67940 -40.34998
v 0.10119 1.15201 -40.34998
v 0.10119 1.15201 -39.64998
v 0.15950 0.67940 -39.64998
v 0.15950 0.67940 -40.34998
v -4.29281 -0.49727 -39.94995
v -4.59140 0.06358 -39.94995
v -4.29281 -0.49727 -40.04995
v -4.59140 0.06358 -40.04995
v -4.26192 -0.44825 -39.94995
v -4.35105 0.06358 -39.94995
v -4.26192 -0.44825 -40.04995
v -4.35105 0.06358 -40.04995
v -4.48295 -0.40380 -39.94995
v -4.51044 -0.31032 -39.94995
v -4.51341 -0.21684 -39.94995
v -4.51638 -0.12337 -39.94995
v -4.54163 -0.02989 -39.94995
v -4.54163 -0.02989 -40.04995
v -4.51638 -0.12337 -40.04995
v -4.51341 -0.21684 -40.04995
v -4.51044 -0.31032 -40.04995
v -4.48295 -0.40380 -40.04995
v -4.33620 -0.02172 -40.04995
v -4.41047 -0.10703 -40.04995
v -4.41790 -0.19233 -40.04995
v -4.43201 -0.27764 -40.04995
v -4.41270 -0.36294 -40.04995
v -4.33620 -0.02172 -39.94995
v -4.41047 -0.10703 -39.94995
v -4.41790 -0.19233 -39.94995
v -4.43201 -0.27764 -39.94995
v -4.41270 -0.36294 -39.94995
v -4.40348 -0.46167 -40.04995
v -4.35291 -0.41674 -40.04995
v -4.35291 -0.41674 -39.94995
v -4.40348 -0.46167 -39.94995
vt 0.37500 0.00000
vt 0.62500 0.00000
vt 0.62500 0.25000
vt 0.37500 0.25000
vt 0.37500 0.36107
vt 0.62500 0.36107
vt 0.62500 0.50000
vt 0.37500 0.50000
vt 0.62500 0.75000
vt 0.37500 0.75000
vt 0.37500 0.98593
vt 0.62500 0.98593
vt 0.62500 1.00000
vt 0.37500 1.00000
vt 0.23607 0.50000
vt 0.23607 0.75000
vt 0.86093 0.50000
vt 0.87500 0.50000
vt 0.87500 0.75000
vt 0.86093 0.75000
vt 0.80059 0.50000
vt 0.80409 0.50000
vt 0.80409 0.75000
vt 0.80059 0.75000
vt 0.16223 0.50000
vt 0.19591 0.50000
vt 0.19591 0.75000
vt 0.16223 0.75000
vt 0.37500 0.92559
vt 0.62500 0.92559
vt 0.62500 0.92909
vt 0.37500 0.92909
vt 0.37500 0.28724
vt 0.62500 0.28724
vt 0.62500 0.32091
vt 0.37500 0.32091
vt 0.62500 0.88893
vt 0.37500 0.88893
vt 0.76393 0.50000
vt 0.76393 0.75000
vt 0.19941 0.50000
vt 0.19941 0.75000
vt 0.37500 0.32441
vt 0.62500 0.32441
vt 0.62500 0.26407
vt 0.37500 0.26407
vt 0.12500 0.50000
vt 0.13907 0.50000
vt 0.13907 0.75000
vt 0.12500 0.75000
vt 0.85486 0.50000
vt 0.85486 0.75000
vt 0.37500 0.97986
vt 0.62500 0.97986
vt 0.37500 0.96396
vt 0.62500 0.96396
vt 0.83896 0.50000
vt 0.83896 0.75000
vt 0.62500 0.27014
vt 0.37500 0.27014
vt 0.14514 0.50000
vt 0.14514 0.75000
vt 0.83776 0.50000
vt 0.83776 0.75000
vt 0.37500 0.96276
vt 0.62500 0.96276
vt 0.62500 0.28604
vt 0.37500 0.28604
vt 0.16104 0.50000
vt 0.16104 0.75000
vt 0.60566 0.00000
vt 0.62500 0.00000
vt 0.62500 0.25000
vt 0.60566 0.25000
vt 0.37500 0.48066
vt 0.62500 0.48066
vt 0.62500 0.50000
vt 0.37500 0.50000
vt 0.62500 0.75000
vt 0.37500 0.75000
vt 0.41368 0.75000
vt 0.62500 0.75000
vt 0.62500 1.00000
vt 0.41368 1.00000
vt 0.12500 0.50000
vt 0.37500 0.50000
vt 0.37500 0.75000
vt 0.12500 0.75000
vt 0.62500 0.53868
vt 0.87500 0.53868
vt 0.87500 0.75000
vt 0.62500 0.51934
vt 0.87500 0.51934
vt 0.39434 0.75000
vt 0.39434 1.00000
vt 0.37500 0.25000
vt 0.62500 0.25000
vt 0.62500 0.46132
vt 0.37500 0.46132
vt 0.37500 0.00000
vt 0.58632 0.00000
vt 0.58632 0.25000
vt 0.37500 0.25000
vt 0.37500 1.00000
vt 0.62500 0.50000
vt 0.87500 0.50000
vt 1.00000 0.50000
vt 1.00000 1.00000
vt 0.96875 1.00000
vt 0.96875 0.50000
vt 0.93750 1.00000
vt 0.93750 0.50000
vt 0.90625 1.00000
vt 0.90625 0.50000
vt 0.87500 1.00000
vt 0.87500 0.50000
vt 0.84375 1.00000
vt 0.84375 0.50000
vt 0.81250 1.00000
vt 0.81250 0.50000
vt 0.78125 1.00000
vt 0.78125 0.50000
vt 0.75000 1.00000
vt 0.75000 0.50000
vt 0.71875 1.00000
vt 0.71875 0.50000
vt 0.68750 1.00000
vt 0.68750 0.50000
vt 0.65625 1.00000
vt 0.65625 0.50000
vt 0.62500 1.00000
vt 0.62500 0.50000
vt 0.59375 1.00000
vt 0.59375 0.50000
vt 0.56250 1.00000
vt 0.56250 0.50000
vt 0.53125 1.00000
vt 0.53125 0.50000
vt 0.50000 1.00000
vt 0.50000 0.50000
vt 0.46875 1.00000
vt 0.46875 0.50000
vt 0.43750 1.00000
vt 0.43750 0.50000
vt 0.40625 1.00000
vt 0.40625 0.50000
vt 0.37500 1.00000
vt 0.37500 0.50000
vt 0.34375 1.00000
vt 0.34375 0.50000
vt 0.31250 1.00000
vt 0.31250 0.50000
vt 0.28125 1.00000
vt 0.28125 0.50000
vt 0.25000 1.00000
vt 0.25000 0.50000
vt 0.21875 1.00000
vt 0.21875 0.50000
vt 0.18750 1.00000
vt 0.18750 0.50000
vt 0.15625 1.00000
vt 0.15625 0.50000
vt 0.12500 1.00000
vt 0.12500 0.50000
vt 0.09375 1.00000
vt 0.09375 0.50000
vt 0.06250 1.00000
vt 0.06250 0.50000
vt 0.29682 0.48539
vt 0.25000 0.49000
vt 0.20318 0.48539
vt 0.15816 0.47173
vt 0.11666 0.44955
vt 0.08030 0.41971
vt 0.05045 0.38334
vt 0.02827 0.34184
vt 0.01461 0.29682
vt 0.01000 0.25000
vt 0.01461 0.20318
vt 0.02827 0.15816
vt 0.05045 0.11666
vt 0.08029 0.08029
vt 0.11666 0.05045
vt 0.15816 0.02827
vt 0.20318 0.01461
vt 0.25000 0.01000
vt 0.29682 0.01461
vt 0.34184 0.02827
vt 0.38334 0.05045
vt 0.41971 0.08029
vt 0.44955 0.11666
vt 0.47173 0.15816
vt 0.48539 0.20318
vt 0.49000 0.25000
vt 0.48539 0.29682
vt 0.47173 0.34184
vt 0.44955 0.38334
vt 0.41971 0.41971
vt 0.38334 0.44955
vt 0.34184 0.47173
vt 0.03125 1.00000
vt 0.03125 0.50000
vt 0.00000 1.00000
vt 0.00000 0.50000
vt 0.75000 0.49000
vt 0.79682 0.48539
vt 0.84184 0.47173
vt 0.88334 0.44955
vt 0.91971 0.41971
vt 0.94955 0.38334
vt 0.97173 0.34184
vt 0.98539 0.29682
vt 0.99000 0.25000
vt 0.98539 0.20318
vt 0.97173 0.15816
vt 0.94955 0.11666
vt 0.91971 0.08029
vt 0.88334 0.05045
vt 0.84184 0.02827
vt 0.79682 0.01461
vt 0.75000 0.01000
vt 0.70318 0.01461
vt 0.65816 0.02827
vt 0.61666 0.05045
vt 0.58029 0.08029
vt 0.55045 0.11666
vt 0.52827 0.15816
vt 0.51461 0.20318
vt 0.51000 0.25000
vt 0.51461 0.29682
vt 0.52827 0.34184
vt 0.55045 0.38334
vt 0.58030 0.41971
vt 0.61666 0.44955
vt 0.65816 0.47173
vt 0.70318 0.48539
vt 1.00000 0.50000
vt 1.00000 1.00000
vt 0.96875 1.00000
vt 0.96875 0.50000
vt 0.93750 1.00000
vt 0.93750 0.50000
vt 0.90625 1.00000
vt 0.90625 0.50000
vt 0.87500 1.00000
vt 0.87500 0.50000
vt 0.84375 1.00000
vt 0.84375 0.50000
vt 0.81250 1.00000
vt 0.81250 0.50000
vt 0.78125 1.00000
vt 0.78125 0.50000
vt 0.75000 1.00000
vt 0.75000 0.50000
vt 0.71875 1.00000
vt 0.71875 0.50000
vt 0.68750 1.00000
vt 0.68750 0.50000
vt 0.65625 1.00000
vt 0.65625 0.50000
vt 0.62500 1.00000
vt 0.62500 0.50000
vt 0.59375 1.00000
vt 0.59375 0.50000
vt 0.56250 1.00000
vt 0.56250 0.50000
vt 0.53125 1.00000
vt 0.53125 0.50000
vt 0.50000 1.00000
vt 0.50000 0.50000
vt 0.46875 1.00000
vt 0.46875 0.50000
vt 0.43750 1.00000
vt 0.43750 0.50000
vt 0.40625 1.00000
vt 0.40625 0.50000
vt 0.37500 1.00000
vt 0.37500 0.50000
vt 0.34375 1.00000
vt 0.34375 0.50000
vt 0.31250 1.00000
vt 0.31250 0.50000
vt 0.28125 1.00000
vt 0.28125 0.50000
vt 0.25000 1.00000
vt 0.25000 0.50000
vt 0.21875 1.00000
vt 0.21875 0.50000
vt 0.18750 1.00000
vt 0.18750 0.50000
vt 0.15625 1.00000
vt 0.15625 0.50000
vt 0.12500 1.00000
vt 0.12500 0.50000
vt 0.09375 1.00000
vt 0.09375 0.50000
vt 0.06250 1.00000
vt 0.06250 0.50000
vt 0.37500 1.00000
vt 0.34375 1.00000
vt 0.03125 1.00000
vt 0.03125 0.50000
vt 0.00000 1.00000
vt 0.00000 0.50000
vt 0.40625 0.50000
vt 0.43750 0.50000
vt 0.37500 1.00000
vt 0.34375 1.00000
vt 0.09375 1.00000
vt 0.06250 1.00000
vt 0.78125 1.00000
vt 0.75000 1.00000
vt 0.50000 1.00000
vt 0.46875 1.00000
vt 0.21875 1.00000
vt 0.18750 1.00000
vt 0.90625 1.00000
vt 0.87500 1.00000
vt 0.62500 1.00000
vt 0.59375 1.00000
vt 0.31250 1.00000
vt 0.03125 1.00000
vt 0.71875 1.00000
vt 0.43750 1.00000
vt 0.15625 1.00000
vt 0.84375 1.00000
vt 0.56250 1.00000
vt 0.28125 1.00000
vt 1.00000 1.00000
vt 0.96875 1.00000
vt 0.00000 1.00000
vt 0.68750 1.00000
vt 0.40625 1.00000
vt 0.12500 1.00000
vt 0.81250 1.00000
vt 0.53125 1.00000
vt 0.25000 1.00000
vt 0.93750 1.00000
vt 0.65625 1.00000
vt 0.29682 0.48539
vt 0.25000 0.49000
vt 0.20318 0.48539
vt 0.15816 0.47173
vt 0.11666 0.44955
vt 0.08030 0.41971
vt 0.05045 0.38334
vt 0.02827 0.34184
vt 0.01461 0.29682
vt 0.01000 0.25000
vt 0.01461 0.20318
vt 0.02827 0.15816
vt 0.05045 0.11666
vt 0.08029 0.08029
vt 0.11666 0.05045
vt 0.15816 0.02827
vt 0.20318 0.01461
vt 0.25000 0.01000
vt 0.29682 0.01461
vt 0.34184 0.02827
vt 0.38334 0.05045
vt 0.41971 0.08029
vt 0.44955 0.11666
vt 0.47173 0.15816
vt 0.48539 0.20318
vt 0.49000 0.25000
vt 0.48539 0.29682
vt 0.47173 0.34184
vt 0.44955 0.38334
vt 0.41971 0.41971
vt 0.38334 0.44955
vt 0.34184 0.47173
vt 0.78125 1.00000
vt 0.75000 1.00000
vt 0.31250 1.00000
vt 0.71875 1.00000
vt 0.28125 1.00000
vt 0.68750 1.00000
vt 0.25000 1.00000
vt 0.65625 1.00000
vt 0.21875 1.00000
vt 0.62500 1.00000
vt 0.18750 1.00000
vt 0.59375 1.00000
vt 0.15625 1.00000
vt 0.56250 1.00000
vt 1.00000 1.00000
vt 0.96875 1.00000
vt 0.12500 1.00000
vt 0.53125 1.00000
vt 0.93750 1.00000
vt 0.09375 1.00000
vt 0.50000 1.00000
vt 0.90625 1.00000
vt 0.06250 1.00000
vt 0.46875 1.00000
vt 0.87500 1.00000
vt 0.03125 1.00000
vt 0.43750 1.00000
vt 0.84375 1.00000
vt 0.00000 1.00000
vt 0.40625 1.00000
vt 0.81250 1.00000
vt 0.37500 0.50000
vt 0.37500 0.50000
vt 0.40625 0.50000
vt 0.12500 0.50000
vt 0.15625 0.50000
vt 0.81250 0.50000
vt 0.84375 0.50000
vt 0.53125 0.50000
vt 0.56250 0.50000
vt 0.25000 0.50000
vt 0.28125 0.50000
vt 0.93750 0.50000
vt 0.96875 0.50000
vt 0.65625 0.50000
vt 0.68750 0.50000
vt 0.09375 0.50000
vt 0.78125 0.50000
vt 0.50000 0.50000
vt 0.21875 0.50000
vt 0.90625 0.50000
vt 0.62500 0.50000
vt 0.34375 0.50000
vt 0.06250 0.50000
vt 0.75000 0.50000
vt 0.46875 0.50000
vt 0.18750 0.50000
vt 0.87500 0.50000
vt 0.59375 0.50000
vt 0.31250 0.50000
vt 0.03125 0.50000
vt 0.71875 0.50000
vt 1.00000 0.50000
vt 0.00000 0.50000
vt 0.75000 0.49000
vt 0.79682 0.48539
vt 0.84184 0.47173
vt 0.88334 0.44955
vt 0.91971 0.41971
vt 0.94955 0.38334
vt 0.97173 0.34184
vt 0.98539 0.29682
vt 0.99000 0.25000
vt 0.98539 0.20318
vt 0.97173 0.15816
vt 0.94955 0.11666
vt 0.91971 0.08029
vt 0.88334 0.05045
vt 0.84184 0.02827
vt 0.79682 0.01461
vt 0.75000 0.01000
vt 0.70318 0.01461
vt 0.65816 0.02827
vt 0.61666 0.05045
vt 0.58029 0.08029
vt 0.55045 0.11666
vt 0.52827 0.15816
vt 0.51461 0.20318
vt 0.51000 0.25000
vt 0.51461 0.29682
vt 0.52827 0.34184
vt 0.55045 0.38334
vt 0.58030 0.41971
vt 0.61666 0.44955
vt 0.65816 0.47173
vt 0.70318 0.48539
vt 0.78125 0.50000
vt 0.81250 0.50000
vt 0.34375 0.50000
vt 0.75000 0.50000
vt 0.31250 0.50000
vt 0.71875 0.50000
vt 0.28125 0.50000
vt 0.68750 0.50000
vt 0.25000 0.50000
vt 0.65625 0.50000
vt 0.21875 0.50000
vt 0.62500 0.50000
vt 0.18750 0.50000
vt 0.59375 0.50000
vt 0.15625 0.50000
vt 0.56250 0.50000
vt 0.96875 0.50000
vt 1.00000 0.50000
vt 0.12500 0.50000
vt 0.53125 0.50000
vt 0.93750 0.50000
vt 0.09375 0.50000
vt 0.50000 0.50000
vt 0.90625 0.50000
vt 0.06250 0.50000
vt 0.46875 0.50000
vt 0.87500 0.50000
vt 0.03125 0.50000
vt 0.43750 0.50000
vt 0.84375 0.50000
vt 0.00000 0.50000
vt 0.37500 0.00000
vt 0.62500 0.00000
vt 0.62500 0.25000
vt 0.37500 0.25000
vt 0.37500 0.47687
vt 0.62500 0.47687
vt 0.62500 0.50000
vt 0.37500 0.50000
vt 0.62500 0.75000
vt 0.37500 0.75000
vt 0.37500 0.96718
vt 0.62500 0.96718
vt 0.62500 1.00000
vt 0.37500 1.00000
vt 0.35187 0.50000
vt 0.35187 0.75000
vt 0.84218 0.75000
vt 0.84218 0.50000
vt 0.84218 0.50000
vt 0.84218 0.75000
vt 0.62500 0.50000
vt 0.62500 0.75000
vt 0.15782 0.50000
vt 0.15782 0.75000
vt 0.62500 0.77313
vt 0.37500 0.77313
vt 0.37500 0.28281
vt 0.62500 0.28281
vt 0.12500 0.50000
vt 0.12500 0.75000
vt 0.64813 0.50000
vt 0.64813 0.75000
vt 0.87500 0.50000
vt 0.87500 0.75000
vt 0.64813 0.50000
vt 0.64813 0.75000
vt 0.62500 0.77313
vt 0.62500 0.00000
vt 0.62500 0.25000
vt 0.62500 0.28281
vt 0.62500 0.96718
vt 0.62500 1.00000
vt 0.62500 0.47687
vt 0.57939 0.00000
vt 0.62500 0.00000
vt 0.62500 0.25000
vt 0.57939 0.25000
vt 0.57939 0.48189
vt 0.62500 0.48189
vt 0.62500 0.50000
vt 0.57939 0.50000
vt 0.62500 0.75000
vt 0.57939 0.75000
vt 0.57939 0.97530
vt 0.62500 0.97530
vt 0.62500 1.00000
vt 0.57939 1.00000
vt 0.35689 0.50000
vt 0.37500 0.50000
vt 0.37500 0.75000
vt 0.35689 0.75000
vt 0.85030 0.50000
vt 0.87500 0.50000
vt 0.87500 0.75000
vt 0.85030 0.75000
vt 0.82661 0.50000
vt 0.84356 0.50000
vt 0.84356 0.75000
vt 0.82661 0.75000
vt 0.14970 0.50000
vt 0.15644 0.50000
vt 0.15644 0.75000
vt 0.14970 0.75000
vt 0.57939 0.95161
vt 0.62500 0.95161
vt 0.62500 0.96856
vt 0.57939 0.96856
vt 0.57939 0.27470
vt 0.62500 0.27470
vt 0.62500 0.28144
vt 0.57939 0.28144
vt 0.12500 0.50000
vt 0.12500 0.75000
vt 0.57939 0.94757
vt 0.62500 0.94757
vt 0.82257 0.50000
vt 0.82257 0.75000
vt 0.17339 0.50000
vt 0.17339 0.75000
vt 0.62500 0.29839
vt 0.57939 0.29839
vt 0.76536 0.50000
vt 0.76536 0.75000
vt 0.57939 0.89036
vt 0.62500 0.89036
vt 0.17743 0.50000
vt 0.17743 0.75000
vt 0.62500 0.30243
vt 0.57939 0.30243
vt 0.57939 0.88177
vt 0.62500 0.88177
vt 0.75677 0.50000
vt 0.75677 0.75000
vt 0.23464 0.50000
vt 0.23464 0.75000
vt 0.62500 0.35964
vt 0.57939 0.35964
vt 0.47819 0.30243
vt 0.50000 0.30243
vt 0.50000 0.35964
vt 0.47819 0.35964
vt 0.47819 0.88177
vt 0.50000 0.88177
vt 0.50000 0.89036
vt 0.47819 0.89036
vt 0.47819 0.29839
vt 0.50000 0.29839
vt 0.50000 0.94757
vt 0.47819 0.94757
vt 0.47819 0.28144
vt 0.50000 0.28144
vt 0.50000 0.95161
vt 0.47819 0.95161
vt 0.47819 0.96856
vt 0.50000 0.96856
vt 0.50000 0.97530
vt 0.47819 0.97530
vt 0.47819 0.25000
vt 0.50000 0.25000
vt 0.50000 0.27470
vt 0.47819 0.27470
vt 0.50000 1.00000
vt 0.47819 1.00000
vt 0.47819 0.50000
vt 0.50000 0.50000
vt 0.50000 0.50000
vt 0.47819 0.50000
vt 0.47819 0.48189
vt 0.50000 0.48189
vt 0.47819 0.00000
vt 0.50000 0.00000
vt 0.50000 0.36823
vt 0.47819 0.36823
vt 0.47819 0.76811
vt 0.50000 0.76811
vt 0.64311 0.50000
vt 0.64311 0.75000
vt 0.57939 0.76811
vt 0.62500 0.76811
vt 0.24323 0.50000
vt 0.24323 0.75000
vt 0.62500 0.36823
vt 0.57939 0.36823
vt 0.47819 0.75000
vt 0.50000 0.75000
vt 0.57939 0.50000
vt 0.50000 0.75000
vt 0.47819 0.75000
vt 0.50000 0.50000
vt 0.50000 0.75000
vt 0.57939 0.75000
vt 0.40125 0.75000
vt 0.37500 0.75000
vt 0.40125 0.75000
vt 0.37500 0.50000
vt 0.57939 0.50000
vt 0.57939 0.75000
vt 0.43959 0.50000
vt 0.43959 0.75000
vt 0.43959 0.36823
vt 0.43959 0.48189
vt 0.43959 0.75000
vt 0.43959 0.76811
vt 0.43959 0.88177
vt 0.43959 0.35964
vt 0.43959 0.00000
vt 0.43959 0.25000
vt 0.43959 0.50000
vt 0.43959 0.97530
vt 0.43959 1.00000
vt 0.43959 0.95161
vt 0.43959 0.96856
vt 0.43959 0.27470
vt 0.43959 0.28144
vt 0.43959 0.94757
vt 0.43959 0.29839
vt 0.43959 0.89036
vt 0.43959 0.30243
vt 0.42749 0.30243
vt 0.42749 0.35964
vt 0.42749 0.88177
vt 0.42749 0.89036
vt 0.42749 0.29839
vt 0.42749 0.94757
vt 0.42749 0.28144
vt 0.42749 0.95161
vt 0.42749 0.96856
vt 0.42749 0.97530
vt 0.42749 0.25000
vt 0.42749 0.27470
vt 0.42749 1.00000
vt 0.42749 0.50000
vt 0.42749 0.50000
vt 0.42749 0.48189
vt 0.42749 0.00000
vt 0.42749 0.36823
vt 0.42749 0.76811
vt 0.42749 0.75000
vt 0.42749 0.75000
vt 0.40125 0.50000
vt 0.40125 0.36823
vt 0.40125 0.48189
vt 0.40125 0.76811
vt 0.40125 0.88177
vt 0.40125 0.35964
vt 0.40125 0.00000
vt 0.40125 0.25000
vt 0.40125 0.50000
vt 0.40125 0.97530
vt 0.40125 1.00000
vt 0.40125 0.95161
vt 0.40125 0.96856
vt 0.40125 0.27470
vt 0.40125 0.28144
vt 0.40125 0.94757
vt 0.40125 0.29839
vt 0.40125 0.89036
vt 0.40125 0.30243
vt 0.37500 0.30243
vt 0.37500 0.35964
vt 0.37500 0.88177
vt 0.37500 0.89036
vt 0.37500 0.29839
vt 0.37500 0.94757
vt 0.37500 0.28144
vt 0.37500 0.95161
vt 0.37500 0.96856
vt 0.37500 0.97530
vt 0.37500 0.25000
vt 0.37500 0.27470
vt 0.37500 1.00000
vt 0.37500 0.48189
vt 0.37500 0.00000
vt 0.37500 0.36823
vt 0.37500 0.76811
vt 1.00000 0.50000
vt 1.00000 1.00000
vt 0.96875 1.00000
vt 0.96875 0.50000
vt 0.93750 1.00000
vt 0.93750 0.50000
vt 0.90625 1.00000
vt 0.90625 0.50000
vt 0.87500 1.00000
vt 0.87500 0.50000
vt 0.84375 1.00000
vt 0.84375 0.50000
vt 0.81250 1.00000
vt 0.81250 0.50000
vt 0.78125 1.00000
vt 0.78125 0.50000
vt 0.75000 1.00000
vt 0.75000 0.50000
vt 0.71875 1.00000
vt 0.71875 0.50000
vt 0.68750 1.00000
vt 0.68750 0.50000
vt 0.65625 1.00000
vt 0.65625 0.50000
vt 0.62500 1.00000
vt 0.62500 0.50000
vt 0.59375 1.00000
vt 0.59375 0.50000
vt 0.56250 1.00000
vt 0.56250 0.50000
vt 0.53125 1.00000
vt 0.53125 0.50000
vt 0.50000 1.00000
vt 0.50000 0.50000
vt 0.46875 1.00000
vt 0.46875 0.50000
vt 0.43750 1.00000
vt 0.43750 0.50000
vt 0.40625 1.00000
vt 0.40625 0.50000
vt 0.37500 1.00000
vt 0.37500 0.50000
vt 0.34375 1.00000
vt 0.34375 0.50000
vt 0.31250 1.00000
vt 0.31250 0.50000
vt 0.28125 1.00000
vt 0.28125 0.50000
vt 0.25000 1.00000
vt 0.25000 0.50000
vt 0.21875 1.00000
vt 0.21875 0.50000
vt 0.18750 1.00000
vt 0.18750 0.50000
vt 0.15625 1.00000
vt 0.15625 0.50000
vt 0.12500 1.00000
vt 0.12500 0.50000
vt 0.09375 1.00000
vt 0.09375 0.50000
vt 0.06250 1.00000
vt 0.06250 0.50000
vt 0.29682 0.48539
vt 0.25000 0.49000
vt 0.20318 0.48539
vt 0.15816 0.47173
vt 0.11666 0.44955
vt 0.08030 0.41971
vt 0.05045 0.38334
vt 0.02827 0.34184
vt 0.01461 0.29682
vt 0.01000 0.25000
vt 0.01461 0.20318
vt 0.02827 0.15816
vt 0.05045 0.11666
vt 0.08029 0.08029
vt 0.11666 0.05045
vt 0.15816 0.02827
vt 0.20318 0.01461
vt 0.25000 0.01000
vt 0.29682 0.01461
vt 0.34184 0.02827
vt 0.38334 0.05045
vt 0.41971 0.08029
vt 0.44955 0.11666
vt 0.47173 0.15816
vt 0.48539 0.20318
vt 0.49000 0.25000
vt 0.48539 0.29682
vt 0.47173 0.34184
vt 0.44955 0.38334
vt 0.41971 0.41971
vt 0.38334 0.44955
vt 0.34184 0.47173
vt 0.03125 1.00000
vt 0.03125 0.50000
vt 0.00000 1.00000
vt 0.00000 0.50000
vt 0.75000 0.49000
vt 0.79682 0.48539
vt 0.84184 0.47173
vt 0.88334 0.44955
vt 0.91971 0.41971
vt 0.94955 0.38334
vt 0.97173 0.34184
vt 0.98539 0.29682
vt 0.99000 0.25000
vt 0.98539 0.20318
vt 0.97173 0.15816
vt 0.94955 0.11666
vt 0.91971 0.08029
vt 0.88334 0.05045
vt 0.84184 0.02827
vt 0.79682 0.01461
vt 0.75000 0.01000
vt 0.70318 0.01461
vt 0.65816 0.02827
vt 0.61666 0.05045
vt 0.58029 0.08029
vt 0.55045 0.11666
vt 0.52827 0.15816
vt 0.51461 0.20318
vt 0.51000 0.25000
vt 0.51461 0.29682
vt 0.52827 0.34184
vt 0.55045 0.38334
vt 0.58030 0.41971
vt 0.61666 0.44955
vt 0.65816 0.47173
vt 0.70318 0.48539
vt 0.37500 0.00000
vt 0.62500 0.00000
vt 0.62500 0.25000
vt 0.37500 0.25000
vt 0.62500 0.50000
vt 0.37500 0.50000
vt 0.62500 0.75000
vt 0.37500 0.75000
vt 0.62500 1.00000
vt 0.37500 1.00000
vt 0.12500 0.50000
vt 0.12500 0.75000
vt 0.87500 0.50000
vt 0.87500 0.75000
vt 0.52250 0.00000
vt 0.62500 0.00000
vt 0.62500 0.25000
vt 0.52250 0.25000
vt 0.52250 0.41192
vt 0.62500 0.41192
vt 0.62500 0.50000
vt 0.52250 0.50000
vt 0.62500 0.50000
vt 0.62500 0.75000
vt 0.62500 0.75000
vt 0.62500 0.50000
vt 0.52250 0.92617
vt 0.62500 0.92617
vt 0.62500 1.00000
vt 0.52250 1.00000
vt 0.28692 0.50000
vt 0.37500 0.50000
vt 0.37500 0.75000
vt 0.28692 0.75000
vt 0.80117 0.50000
vt 0.87500 0.50000
vt 0.87500 0.75000
vt 0.80117 0.75000
vt 0.75712 0.50000
vt 0.75712 0.75000
vt 0.12500 0.50000
vt 0.19883 0.50000
vt 0.19883 0.75000
vt 0.12500 0.75000
vt 0.52250 0.88212
vt 0.62500 0.88212
vt 0.62500 0.32383
vt 0.52250 0.32383
vt 0.52250 0.75000
vt 0.62500 0.75000
vt 0.62500 0.83808
vt 0.52250 0.83808
vt 0.71308 0.50000
vt 0.71308 0.75000
vt 0.19883 0.75000
vt 0.19883 0.50000
vt 0.19883 0.50000
vt 0.19883 0.75000
vt 0.52250 0.36788
vt 0.62500 0.36788
vt 0.24288 0.50000
vt 0.28692 0.50000
vt 0.28692 0.75000
vt 0.24288 0.75000
vt 0.28692 0.50000
vt 0.28692 0.75000
vt 0.37500 0.36788
vt 0.37500 0.41192
vt 0.37500 0.41192
vt 0.37500 0.36788
vt 0.37500 0.88212
vt 0.37500 0.92617
vt 0.37500 0.92617
vt 0.37500 0.88212
vt 0.37500 0.83808
vt 0.37500 0.83808
vt 0.37500 0.32383
vt 0.37500 0.32383
vt 0.19883 0.50000
vt 0.19883 0.75000
vt 0.37500 0.32383
vt 0.37500 0.36788
vt 0.37500 0.36788
vt 0.37500 0.32383
vt 0.37500 0.83808
vt 0.37500 0.88212
vt 0.37500 0.88212
vt 0.37500 0.83808
vt 0.37500 0.92617
vt 0.37500 0.92617
vt 0.37500 0.41192
vt 0.37500 0.41192
vt 0.28692 0.50000
vt 0.28692 0.75000
vt 0.28692 0.75000
vt 0.28692 0.50000
vt 0.19883 0.75000
vt 0.19883 0.50000
vt 0.19883 0.50000
vt 0.19883 0.75000
vt 0.37500 0.32383
vt 0.37500 0.36788
vt 0.37500 0.36788
vt 0.37500 0.32383
vt 0.37500 0.83808
vt 0.37500 0.88212
vt 0.37500 0.88212
vt 0.37500 0.83808
vt 0.37500 0.92617
vt 0.37500 0.92617
vt 0.37500 0.41192
vt 0.37500 0.41192
vt 0.37500 0.83808
vt 0.37500 0.83808
vt 0.19883 0.75000
vt 0.19883 0.50000
vt 0.19883 0.50000
vt 0.19883 0.75000
vt 0.28692 0.50000
vt 0.28692 0.75000
vt 0.19883 0.50000
vt 0.19883 0.75000
vt 0.19883 0.50000
vt 0.19883 0.75000
vt 0.19883 0.50000
vt 0.19883 0.75000
vt 0.37500 0.32383
vt 0.37500 0.32383
vt 0.37500 0.32383
vt 0.37500 0.32383
vt 0.37500 0.92617
vt 0.37500 0.92617
vt 0.37500 0.92617
vt 0.37500 0.92617
vt 0.37500 0.36788
vt 0.37500 0.41192
vt 0.37500 0.88212
vt 0.37500 0.92617
vt 0.37500 0.83808
vt 0.37500 0.32383
vt 0.28692 0.75000
vt 0.28692 0.50000
vt 0.28692 0.50000
vt 0.28692 0.75000
vt 0.28692 0.75000
vt 0.28692 0.50000
vt 0.28692 0.50000
vt 0.28692 0.75000
vt 0.37500 0.41192
vt 0.37500 0.41192
vt 0.37500 0.41192
vt 0.37500 0.41192
vt 0.37500 0.41192
vt 0.37500 0.41192
vt 0.28692 0.50000
vt 0.28692 0.75000
vt 0.37500 0.83808
vt 0.37500 0.83808
vt 0.28692 0.50000
vt 0.28692 0.75000
vt 0.28692 0.75000
vt 0.28692 0.50000
vt 0.37500 0.83808
vt 0.37500 0.83808
vt 0.37500 0.25000
vt 0.37500 1.00000
vt 0.37500 0.00000
vt 0.52250 0.50000
vt 0.52250 0.75000
vt 0.52250 0.75000
vt 0.52250 0.50000
vt 0.52250 0.50000
vt 0.62500 0.50000
vt 0.52250 0.75000
vt 0.62500 0.75000
vt 0.58333 0.00000
vt 0.62500 0.00000
vt 0.62500 0.25000
vt 0.58333 0.25000
vt 0.62500 0.50000
vt 0.58333 0.50000
vt 0.62500 0.75000
vt 0.58333 0.75000
vt 0.62500 1.00000
vt 0.58333 1.00000
vt 0.12500 0.50000
vt 0.37500 0.50000
vt 0.37500 0.75000
vt 0.12500 0.75000
vt 0.87500 0.50000
vt 0.87500 0.75000
vt 0.39583 0.75000
vt 0.41667 0.75000
vt 0.41667 1.00000
vt 0.39583 1.00000
vt 0.45833 0.75000
vt 0.45833 1.00000
vt 0.50000 0.75000
vt 0.50000 1.00000
vt 0.54167 0.75000
vt 0.54167 1.00000
vt 0.39583 0.50000
vt 0.41667 0.50000
vt 0.45833 0.50000
vt 0.50000 0.50000
vt 0.54167 0.50000
vt 0.39583 0.25000
vt 0.41667 0.25000
vt 0.45833 0.25000
vt 0.50000 0.25000
vt 0.54167 0.25000
vt 0.39583 0.00000
vt 0.41667 0.00000
vt 0.45833 0.00000
vt 0.50000 0.00000
vt 0.54167 0.00000
vt 0.37500 0.00000
vt 0.37500 0.25000
vt 0.37500 1.00000
vn -0.9972 -0.0742 0.0000
vn 0.0000 0.0000 -1.0000
vn 1.0000 0.0000 0.0000
vn -0.0000 0.0000 1.0000
vn 0.0000 -1.0000 0.0000
vn 0.0000 1.0000 -0.0000
vn 0.0381 -0.9993 0.0000
vn 0.2922 -0.9564 0.0000
vn 0.7772 -0.6293 0.0000
vn 0.0001 0.0000 1.0000
vn 0.6105 -0.7921 0.0000
vn -0.0050 -1.0000 0.0000
vn -0.8900 -0.4559 0.0000
vn -0.9999 0.0113 -0.0000
vn 0.0055 -1.0000 0.0000
vn 0.8853 -0.4650 0.0000
vn 0.1307 -0.9914 0.0000
vn 0.0037 -0.0980 -0.9952
vn 0.0044 -0.2902 -0.9569
vn 0.0051 -0.4714 -0.8819
vn 0.0057 -0.6344 -0.7730
vn 0.0062 -0.7730 -0.6344
vn 0.0066 -0.8819 -0.4714
vn 0.0069 -0.9569 -0.2903
vn 0.0070 -0.9952 -0.0980
vn 0.0070 -0.9952 0.0980
vn 0.0069 -0.9569 0.2903
vn 0.0066 -0.8819 0.4714
vn 0.0062 -0.7730 0.6344
vn 0.0057 -0.6344 0.7730
vn 0.0051 -0.4714 0.8819
vn 0.0044 -0.2903 0.9569
vn 0.0037 -0.0980 0.9952
vn 0.0029 0.0980 0.9952
vn 0.0022 0.2903 0.9569
vn 0.0015 0.4714 0.8819
vn 0.0009 0.6344 0.7730
vn 0.0004 0.7730 0.6344
vn -0.0000 0.8819 0.4714
vn -0.0003 0.9569 0.2903
vn -0.0005 0.9952 0.0980
vn -0.0005 0.9952 -0.0980
vn -0.0003 0.9569 -0.2903
vn -0.0000 0.8819 -0.4714
vn 0.0004 0.7730 -0.6344
vn 0.0009 0.6344 -0.7730
vn 0.0015 0.4714 -0.8819
vn 0.0022 0.2902 -0.9570
vn 0.0029 0.0980 -0.9952
vn -1.0000 -0.0000 0.0000
vn -0.0000 -0.0980 -0.9952
vn -0.0000 -0.2903 -0.9569
vn -0.0000 -0.4714 -0.8819
vn -0.0000 -0.6344 -0.7730
vn 0.0000 -0.7730 -0.6344
vn -0.0000 -0.8819 -0.4714
vn -0.0000 -0.9569 -0.2903
vn 0.0000 -0.9952 -0.0980
vn 0.0000 -0.9952 0.0980
vn 0.0000 -0.9569 0.2903
vn 0.0000 -0.8819 0.4714
vn 0.0000 -0.7730 0.6344
vn 0.0000 -0.6344 0.7730
vn 0.0000 -0.4714 0.8819
vn -0.0000 -0.2903 0.9569
vn -0.0000 -0.0980 0.9952
vn -0.0000 0.0980 0.9952
vn -0.0000 0.2903 0.9569
vn 0.0000 0.4714 0.8819
vn 0.0000 0.6344 0.7730
vn 0.0000 0.7730 0.6344
vn -0.0000 0.9569 0.2903
vn -0.0000 0.9952 0.0980
vn -0.0000 0.9952 -0.0980
vn -0.0000 0.9569 -0.2903
vn 0.0000 0.7730 -0.6344
vn -0.0000 0.6344 -0.7730
vn -0.0000 0.4714 -0.8819
vn -0.3271 0.7305 0.5995
vn -0.0000 0.2903 -0.9569
vn -0.0000 0.0980 -0.9952
vn 0.4220 0.4273 0.7996
vn -0.3271 0.4455 -0.8334
vn -0.3271 -0.9404 -0.0926
vn -0.3271 0.0926 0.9404
vn -0.3271 0.9043 -0.2743
vn -0.3271 -0.5995 -0.7305
vn -0.3271 -0.5995 0.7305
vn -0.3271 0.8334 0.4455
vn -0.3271 0.2743 -0.9043
vn -0.3271 -0.9404 0.0926
vn -0.3271 0.2743 0.9043
vn -0.3271 0.8334 -0.4455
vn -0.3271 -0.7305 -0.5995
vn -0.3271 -0.4455 0.8334
vn -0.3271 0.9043 0.2743
vn -0.3271 -0.0926 -0.9404
vn -0.3271 0.0926 -0.9404
vn -0.3271 -0.9043 0.2743
vn -0.3271 0.4455 0.8334
vn -0.3271 0.7305 -0.5995
vn -0.3271 -0.8334 -0.4455
vn -0.3271 -0.2743 0.9043
vn -0.3271 0.9404 0.0926
vn -0.3271 -0.2743 -0.9043
vn -0.3271 -0.8334 0.4455
vn -0.3271 0.5995 0.7305
vn -0.3271 0.5995 -0.7305
vn -0.3271 -0.9043 -0.2743
vn -0.3271 -0.0926 0.9404
vn -0.3271 0.9404 -0.0926
vn -0.3271 -0.4455 -0.8334
vn -0.3271 -0.7305 0.5995
vn 0.4220 0.7008 -0.5751
vn 0.4220 -0.7995 -0.4274
vn 0.4220 -0.2632 0.8676
vn 0.4220 0.9022 0.0889
vn 0.4220 -0.2632 -0.8675
vn 0.4220 -0.7995 0.4273
vn 0.4220 0.5752 0.7008
vn 0.4220 0.5751 -0.7008
vn 0.4220 -0.8676 -0.2632
vn 0.4220 -0.0889 0.9022
vn 0.4220 0.9022 -0.0889
vn 0.4220 -0.4274 -0.7995
vn 0.4221 -0.7008 0.5751
vn 0.4221 0.7008 0.5751
vn 0.4220 0.4274 -0.7995
vn 0.4220 -0.9022 -0.0889
vn 0.4220 0.0889 0.9022
vn 0.4220 0.8676 -0.2632
vn 0.4220 -0.5751 -0.7008
vn 0.4220 -0.5751 0.7008
vn 0.4220 0.7995 0.4274
vn 0.4220 0.2632 -0.8675
vn 0.4220 -0.9022 0.0889
vn 0.4220 0.2632 0.8676
vn 0.4220 0.7995 -0.4274
vn 0.4220 -0.7008 -0.5751
vn 0.4220 -0.4273 0.7996
vn 0.4220 0.8676 0.2632
vn 0.4220 -0.0888 -0.9022
vn 0.4220 0.0888 -0.9022
vn 0.4220 -0.8676 0.2632
vn 0.0000 -0.0981 0.9952
vn -0.0000 0.0981 0.9952
vn -0.6471 -0.7624 0.0000
vn 0.7785 -0.6276 0.0000
vn 0.0333 -0.9994 0.0000
vn -0.8910 0.4540 -0.0000
vn 0.1850 -0.9827 0.0000
vn 0.9939 -0.1107 0.0000
vn 0.0085 -1.0000 0.0000
vn 0.9730 -0.2309 0.0000
vn 0.0004 -1.0000 0.0000
vn 0.7315 -0.6819 0.0000
vn 0.6616 -0.7498 0.0000
vn -0.3834 -0.9236 0.0000
vn 0.9960 0.0891 -0.0000
vn -0.0001 0.0000 1.0000
vn -0.0001 0.0000 -1.0000
vn 0.0001 0.0000 -1.0000
vn 0.5892 0.8080 -0.0000
vn 0.8867 -0.4624 0.0000
vn 0.8702 -0.4928 0.0000
vn 0.0000 -0.6343 0.7731
vn 0.0000 -0.2902 0.9570
vn 0.0000 0.2902 0.9570
vn 0.0000 0.6343 0.7731
vn 0.1079 -0.9942 0.0000
vn -0.6093 0.7929 -0.0000
vn 0.8133 0.5819 -0.0000
vn 0.0481 -0.9988 0.0000
vn 0.9540 -0.2998 0.0000
vn -0.4222 -0.9065 0.0000
vn -0.3713 0.9285 -0.0000
vn 0.7993 -0.6010 0.0000
vn 0.8065 -0.5913 0.0000
vn -0.8775 -0.4795 0.0000
vn -0.9529 0.3032 -0.0000
vn -0.7953 0.6062 -0.0000
vn -0.8785 0.4778 0.0000
vn -0.1904 -0.9817 0.0000
vn 0.0052 1.0000 0.0000
vn 0.7919 -0.6106 0.0000
vn 0.9962 -0.0875 0.0000
vn -0.5157 -0.8568 0.0000
vn 0.8371 0.5470 -0.0000
vn 0.8989 0.4382 -0.0000
vn -0.6857 0.7279 -0.0000
vn 0.6857 -0.7279 0.0000
vn 0.9491 0.3150 -0.0000
vn 0.6716 0.7409 -0.0000
vn -0.8827 -0.4699 0.0000
vn 0.9852 0.1716 -0.0000
vn 0.8460 -0.5331 0.0000
vn 0.6688 0.7434 0.0000
vn 0.9753 0.2208 0.0000
vn 0.9866 -0.1632 0.0000
vn 0.9962 -0.0867 0.0000
vn 0.7542 -0.6567 0.0000
vn -0.5887 -0.8083 0.0000
vn -0.9594 -0.2821 0.0000
vn -0.9995 -0.0318 0.0000
vn -0.9654 -0.2608 0.0000
vn -0.3062 -0.9520 0.0000
vn 0.3273 0.9449 0.0000
usemtl Material.002
s 1
f 1123/1836/285 1124/1837/285 1126/1838/285 1125/1839/285
f 1137/1840/286 1135/1841/286 1130/1842/286 1129/1843/286
f 1129/1843/287 1130/1842/287 1128/1844/287 1127/1845/287
f 1146/1846/288 1144/1847/288 1124/1848/288 1123/1849/288
f 1137/1850/289 1129/1843/289 1127/1845/289 1136/1851/289
f 1145/1852/290 1126/1853/290 1124/1854/290 1144/1855/290
f 1141/1856/290 1132/1857/290 1134/1858/290 1140/1859/290
f 1157/1860/291 1131/1861/291 1133/1862/291 1156/1863/291
f 1142/1864/288 1140/1865/288 1134/1866/288 1133/1867/288
f 1157/1868/286 1155/1869/286 1132/1870/286 1131/1871/286
f 1127/1845/288 1128/1844/288 1138/1872/288 1136/1873/288
f 1130/1842/290 1135/1874/290 1138/1875/290 1128/1844/290
f 1139/1876/292 1137/1850/292 1136/1851/292 1142/1877/292
f 1139/1878/286 1141/1879/286 1135/1841/286 1137/1840/286
f 1131/1871/286 1132/1870/286 1141/1879/286 1139/1878/286
f 1131/1861/293 1139/1876/293 1142/1877/293 1133/1862/293
f 1136/1873/288 1138/1872/288 1140/1865/288 1142/1864/288
f 1135/1874/290 1141/1856/290 1140/1859/290 1138/1875/290
f 1125/1839/286 1126/1838/286 1145/1880/286 1143/1881/286
f 1125/1882/291 1143/1883/291 1146/1884/291 1123/1885/291
f 1147/1886/290 1145/1852/290 1144/1855/290 1150/1887/290
f 1148/1888/288 1150/1889/288 1144/1847/288 1146/1846/288
f 1152/1890/294 1154/1891/288 1150/1889/288 1148/1888/288
f 1151/1892/290 1147/1886/290 1150/1887/290 1154/1893/290
f 1143/1881/286 1145/1880/286 1147/1894/286 1149/1895/286
f 1143/1883/295 1149/1896/295 1148/1897/295 1146/1884/295
f 1155/1898/290 1151/1892/290 1154/1893/290 1158/1899/290
f 1156/1900/288 1158/1901/288 1154/1891/288 1152/1890/294
f 1149/1895/286 1147/1894/286 1151/1902/286 1153/1903/286
f 1149/1896/296 1153/1904/296 1152/1905/296 1148/1897/296
f 1133/1867/288 1134/1866/288 1158/1901/288 1156/1900/288
f 1132/1857/290 1155/1898/290 1158/1899/290 1134/1858/290
f 1153/1903/286 1151/1902/286 1155/1869/286 1157/1868/286
f 1153/1904/297 1157/1860/297 1156/1863/297 1152/1905/297
f 1174/1906/290 1163/1907/290 1165/1908/290 1172/1909/290
f 1173/1910/288 1172/1911/288 1165/1912/288 1166/1913/288
f 1166/1913/298 1165/1912/298 1163/1914/298 1164/1915/298
f 1167/1916/299 1160/1917/299 1162/1918/299 1169/1919/299
f 1160/1920/287 1159/1921/287 1161/1922/287 1162/1923/287
f 1167/1924/286 1170/1925/286 1159/1926/286 1160/1917/286
f 1171/1927/286 1174/1928/286 1170/1925/286 1167/1924/286
f 1171/1929/300 1167/1916/300 1169/1919/300 1173/1930/300
f 1162/1931/288 1161/1932/288 1168/1933/288 1169/1934/288
f 1159/1935/290 1170/1936/290 1168/1937/290 1161/1938/290
f 1164/1915/301 1171/1929/301 1173/1930/301 1166/1939/301
f 1164/1940/286 1163/1941/286 1174/1928/286 1171/1927/286
f 1169/1934/288 1168/1933/288 1172/1911/288 1173/1910/288
f 1170/1936/290 1174/1906/290 1172/1909/290 1168/1937/290
f 1175/1942/302 1176/1943/302 1178/1944/302 1177/1945/302
f 1177/1945/303 1178/1944/303 1180/1946/303 1179/1947/303
f 1179/1947/304 1180/1946/304 1182/1948/304 1181/1949/304
f 1181/1949/305 1182/1948/305 1184/1950/305 1183/1951/305
f 1183/1951/306 1184/1950/306 1186/1952/306 1185/1953/306
f 1185/1953/307 1186/1952/307 1188/1954/307 1187/1955/307
f 1187/1955/308 1188/1954/308 1190/1956/308 1189/1957/308
f 1189/1957/309 1190/1956/309 1192/1958/309 1191/1959/309
f 1191/1959/310 1192/1958/310 1194/1960/310 1193/1961/310
f 1193/1961/311 1194/1960/311 1196/1962/311 1195/1963/311
f 1195/1963/312 1196/1962/312 1198/1964/312 1197/1965/312
f 1197/1965/313 1198/1964/313 1200/1966/313 1199/1967/313
f 1199/1967/314 1200/1966/314 1202/1968/314 1201/1969/314
f 1201/1969/315 1202/1968/315 1204/1970/315 1203/1971/315
f 1203/1971/316 1204/1970/316 1206/1972/316 1205/1973/316
f 1205/1973/317 1206/1972/317 1208/1974/317 1207/1975/317
f 1207/1975/318 1208/1974/318 1210/1976/318 1209/1977/318
f 1209/1977/319 1210/1976/319 1212/1978/319 1211/1979/319
f 1211/1979/320 1212/1978/320 1214/1980/320 1213/1981/320
f 1213/1981/321 1214/1980/321 1216/1982/321 1215/1983/321
f 1215/1983/322 1216/1982/322 1218/1984/322 1217/1985/322
f 1217/1985/323 1218/1984/323 1220/1986/323 1219/1987/323
f 1219/1987/324 1220/1986/324 1222/1988/324 1221/1989/324
f 1221/1989/325 1222/1988/325 1224/1990/325 1223/1991/325
f 1223/1991/326 1224/1990/326 1226/1992/326 1225/1993/326
f 1225/1993/327 1226/1992/327 1228/1994/327 1227/1995/327
f 1227/1995/328 1228/1994/328 1230/1996/328 1229/1997/328
f 1229/1997/329 1230/1996/329 1232/1998/329 1231/1999/329
f 1231/1999/330 1232/1998/330 1234/2000/330 1233/2001/330
f 1233/2001/331 1234/2000/331 1236/2002/331 1235/2003/331
f 1178/2004/287 1176/2005/287 1238/2006/287 1236/2007/287 1234/2008/287 1232/2009/287 1230/2010/287 1228/2011/287 1226/2012/287 1224/2013/287 1222/2014/287 1220/2015/287 1218/2016/287 1216/2017/287 1214/2018/287 1212/2019/287 1210/2020/287 1208/2021/287 1206/2022/287 1204/2023/287 1202/2024/287 1200/2025/287 1198/2026/287 1196/2027/287 1194/2028/287 1192/2029/287 1190/2030/287 1188/2031/287 1186/2032/287 1184/2033/287 1182/2034/287 1180/2035/287
f 1235/2003/332 1236/2002/332 1238/2036/332 1237/2037/332
f 1237/2037/333 1238/2036/333 1176/2038/333 1175/2039/333
f 1175/2040/334 1177/2041/334 1179/2042/334 1181/2043/334 1183/2044/334 1185/2045/334 1187/2046/334 1189/2047/334 1191/2048/334 1193/2049/334 1195/2050/334 1197/2051/334 1199/2052/334 1201/2053/334 1203/2054/334 1205/2055/334 1207/2056/334 1209/2057/334 1211/2058/334 1213/2059/334 1215/2060/334 1217/2061/334 1219/2062/334 1221/2063/334 1223/2064/334 1225/2065/334 1227/2066/334 1229/2067/334 1231/2068/334 1233/2069/334 1235/2070/334 1237/2071/334
f 1239/2072/335 1240/2073/335 1242/2074/335 1241/2075/335
f 1241/2075/336 1242/2074/336 1244/2076/336 1243/2077/336
f 1243/2077/337 1244/2076/337 1246/2078/337 1245/2079/337
f 1245/2079/338 1246/2078/338 1248/2080/338 1247/2081/338
f 1247/2081/339 1248/2080/339 1250/2082/339 1249/2083/339
f 1249/2083/340 1250/2082/340 1252/2084/340 1251/2085/340
f 1251/2085/341 1252/2084/341 1254/2086/341 1253/2087/341
f 1253/2087/342 1254/2086/342 1256/2088/342 1255/2089/342
f 1255/2089/343 1256/2088/343 1258/2090/343 1257/2091/343
f 1257/2091/344 1258/2090/344 1260/2092/344 1259/2093/344
f 1259/2093/345 1260/2092/345 1262/2094/345 1261/2095/345
f 1261/2095/346 1262/2094/346 1264/2096/346 1263/2097/346
f 1263/2097/347 1264/2096/347 1266/2098/347 1265/2099/347
f 1265/2099/348 1266/2098/348 1268/2100/348 1267/2101/348
f 1267/2101/349 1268/2100/349 1270/2102/349 1269/2103/349
f 1269/2103/350 1270/2102/350 1272/2104/350 1271/2105/350
f 1271/2105/351 1272/2104/351 1274/2106/351 1273/2107/351
f 1273/2107/352 1274/2106/352 1276/2108/352 1275/2109/352
f 1275/2109/353 1276/2108/353 1278/2110/353 1277/2111/353
f 1277/2111/354 1278/2110/354 1280/2112/354 1279/2113/354
f 1279/2113/355 1280/2112/355 1282/2114/355 1281/2115/355
f 1281/2115/323 1282/2114/323 1284/2116/323 1283/2117/323
f 1283/2117/356 1284/2116/356 1286/2118/356 1285/2119/356
f 1285/2119/357 1286/2118/357 1288/2120/357 1287/2121/357
f 1287/2121/358 1288/2120/358 1290/2122/358 1289/2123/358
f 1289/2123/359 1290/2122/359 1292/2124/359 1291/2125/359
f 1291/2125/328 1292/2124/328 1294/2126/328 1293/2127/328
f 1293/2127/360 1294/2126/360 1296/2128/360 1295/2129/360
f 1295/2129/361 1296/2128/361 1298/2130/361 1297/2131/361
f 1297/2131/362 1298/2130/362 1300/2132/362 1299/2133/362
f 1282/2114/363 1280/2112/363 1323/2134/363 1324/2135/363
f 1299/2133/364 1300/2132/364 1302/2136/364 1301/2137/364
f 1301/2137/365 1302/2136/365 1240/2138/365 1239/2139/365
f 1275/2109/366 1277/2111/366 1386/2140/366 1385/2141/366
f 1324/2135/355 1323/2134/355 1355/2142/355 1356/2143/355
f 1300/2132/367 1298/2130/367 1332/2144/367 1333/2145/367
f 1256/2088/368 1254/2086/368 1310/2146/368 1311/2147/368
f 1274/2106/369 1272/2104/369 1319/2148/369 1320/2149/369
f 1292/2124/370 1290/2122/370 1328/2150/370 1329/2151/370
f 1248/2080/371 1246/2078/371 1306/2152/371 1307/2153/371
f 1266/2098/372 1264/2096/372 1315/2154/372 1316/2155/372
f 1284/2116/373 1282/2114/373 1324/2135/373 1325/2156/373
f 1302/2136/374 1300/2132/374 1333/2145/374 1334/2157/374
f 1258/2090/375 1256/2088/375 1311/2147/375 1312/2158/375
f 1276/2108/376 1274/2106/376 1320/2149/376 1321/2159/376
f 1294/2126/377 1292/2124/377 1329/2151/377 1330/2160/377
f 1250/2082/378 1248/2080/378 1307/2153/378 1308/2161/378
f 1268/2100/379 1266/2098/379 1316/2155/379 1317/2162/379
f 1286/2118/380 1284/2116/380 1325/2156/380 1326/2163/380
f 1242/2074/381 1240/2073/381 1304/2164/381 1303/2165/381
f 1240/2138/382 1302/2136/382 1334/2157/382 1304/2166/382
f 1260/2092/383 1258/2090/383 1312/2158/383 1313/2167/383
f 1278/2110/384 1276/2108/384 1321/2159/384 1322/2168/384
f 1296/2128/385 1294/2126/385 1330/2160/385 1331/2169/385
f 1252/2084/386 1250/2082/386 1308/2161/386 1309/2170/386
f 1270/2102/387 1268/2100/387 1317/2162/387 1318/2171/387
f 1288/2120/388 1286/2118/388 1326/2163/388 1327/2172/388
f 1244/2076/389 1242/2074/389 1303/2165/389 1305/2173/389
f 1262/2094/390 1260/2092/390 1313/2167/390 1314/2174/390
f 1280/2112/391 1278/2110/391 1322/2168/391 1323/2134/391
f 1298/2130/392 1296/2128/392 1331/2169/392 1332/2144/392
f 1254/2086/393 1252/2084/393 1309/2170/393 1310/2146/393
f 1272/2104/394 1270/2102/394 1318/2171/394 1319/2148/394
f 1290/2122/395 1288/2120/395 1327/2172/395 1328/2150/395
f 1246/2078/396 1244/2076/396 1305/2173/396 1306/2152/396
f 1264/2096/397 1262/2094/397 1314/2174/397 1315/2154/397
f 1335/2175/287 1336/2176/287 1366/2177/287 1365/2178/287 1364/2179/287 1363/2180/287 1362/2181/287 1361/2182/287 1360/2183/287 1359/2184/287 1358/2185/287 1357/2186/287 1356/2187/287 1355/2188/287 1354/2189/287 1353/2190/287 1352/2191/287 1351/2192/287 1350/2193/287 1349/2194/287 1348/2195/287 1347/2196/287 1346/2197/287 1345/2198/287 1344/2199/287 1343/2200/287 1342/2201/287 1341/2202/287 1340/2203/287 1339/2204/287 1338/2205/287 1337/2206/287
f 1311/2147/342 1310/2146/342 1342/2207/342 1343/2208/342
f 1325/2156/323 1324/2135/323 1356/2143/323 1357/2209/323
f 1312/2158/343 1311/2147/343 1343/2208/343 1344/2210/343
f 1326/2163/356 1325/2156/356 1357/2209/356 1358/2211/356
f 1313/2167/344 1312/2158/344 1344/2210/344 1345/2212/344
f 1327/2172/357 1326/2163/357 1358/2211/357 1359/2213/357
f 1314/2174/345 1313/2167/345 1345/2212/345 1346/2214/345
f 1328/2150/358 1327/2172/358 1359/2213/358 1360/2215/358
f 1315/2154/346 1314/2174/346 1346/2214/346 1347/2216/346
f 1329/2151/359 1328/2150/359 1360/2215/359 1361/2217/359
f 1316/2155/347 1315/2154/347 1347/2216/347 1348/2218/347
f 1330/2160/328 1329/2151/328 1361/2217/328 1362/2219/328
f 1317/2162/348 1316/2155/348 1348/2218/348 1349/2220/348
f 1303/2165/335 1304/2164/335 1336/2221/335 1335/2222/335
f 1331/2169/360 1330/2160/360 1362/2219/360 1363/2223/360
f 1318/2171/349 1317/2162/349 1349/2220/349 1350/2224/349
f 1305/2173/336 1303/2165/336 1335/2222/336 1337/2225/336
f 1332/2144/361 1331/2169/361 1363/2223/361 1364/2226/361
f 1319/2148/350 1318/2171/350 1350/2224/350 1351/2227/350
f 1306/2152/337 1305/2173/337 1337/2225/337 1338/2228/337
f 1333/2145/362 1332/2144/362 1364/2226/362 1365/2229/362
f 1320/2149/351 1319/2148/351 1351/2227/351 1352/2230/351
f 1307/2153/338 1306/2152/338 1338/2228/338 1339/2231/338
f 1334/2157/364 1333/2145/364 1365/2229/364 1366/2232/364
f 1321/2159/352 1320/2149/352 1352/2230/352 1353/2233/352
f 1308/2161/339 1307/2153/339 1339/2231/339 1340/2234/339
f 1304/2166/365 1334/2157/365 1366/2232/365 1336/2235/365
f 1322/2168/353 1321/2159/353 1353/2233/353 1354/2236/353
f 1309/2170/340 1308/2161/340 1340/2234/340 1341/2237/340
f 1323/2134/354 1322/2168/354 1354/2236/354 1355/2142/354
f 1310/2146/341 1309/2170/341 1341/2237/341 1342/2207/341
f 1386/2140/354 1387/2238/354 1419/2239/354 1418/2240/354
f 1293/2127/398 1295/2129/398 1395/2241/398 1394/2242/398
f 1249/2083/399 1251/2085/399 1373/2243/399 1372/2244/399
f 1267/2101/400 1269/2103/400 1382/2245/400 1381/2246/400
f 1285/2119/401 1287/2121/401 1391/2247/401 1390/2248/401
f 1241/2075/402 1243/2077/402 1369/2249/402 1368/2250/402
f 1259/2093/403 1261/2095/403 1378/2251/403 1377/2252/403
f 1277/2111/404 1279/2113/404 1387/2238/404 1386/2140/404
f 1295/2129/405 1297/2131/405 1396/2253/405 1395/2241/405
f 1251/2085/406 1253/2087/406 1374/2254/406 1373/2243/406
f 1269/2103/407 1271/2105/407 1383/2255/407 1382/2245/407
f 1287/2121/408 1289/2123/408 1392/2256/408 1391/2247/408
f 1243/2077/409 1245/2079/409 1370/2257/409 1369/2249/409
f 1261/2095/410 1263/2097/410 1379/2258/410 1378/2251/410
f 1279/2113/411 1281/2115/411 1388/2259/411 1387/2238/411
f 1297/2131/412 1299/2133/412 1397/2260/412 1396/2253/412
f 1253/2087/413 1255/2089/413 1375/2261/413 1374/2254/413
f 1271/2105/414 1273/2107/414 1384/2262/414 1383/2255/414
f 1289/2123/415 1291/2125/415 1393/2263/415 1392/2256/415
f 1245/2079/416 1247/2081/416 1371/2264/416 1370/2257/416
f 1263/2097/417 1265/2099/417 1380/2265/417 1379/2258/417
f 1281/2115/418 1283/2117/418 1389/2266/418 1388/2259/418
f 1299/2133/419 1301/2137/419 1398/2267/419 1397/2260/419
f 1255/2089/420 1257/2091/420 1376/2268/420 1375/2261/420
f 1273/2107/421 1275/2109/421 1385/2141/421 1384/2262/421
f 1291/2125/422 1293/2127/422 1394/2242/422 1393/2263/422
f 1247/2081/423 1249/2083/423 1372/2244/423 1371/2264/423
f 1265/2099/424 1267/2101/424 1381/2246/424 1380/2265/424
f 1283/2117/425 1285/2119/425 1390/2248/425 1389/2266/425
f 1239/2072/426 1241/2075/426 1368/2250/426 1367/2269/426
f 1301/2137/427 1239/2139/427 1367/2270/427 1398/2267/427
f 1257/2091/428 1259/2093/428 1377/2252/428 1376/2268/428
f 1399/2271/334 1400/2272/334 1401/2273/334 1402/2274/334 1403/2275/334 1404/2276/334 1405/2277/334 1406/2278/334 1407/2279/334 1408/2280/334 1409/2281/334 1410/2282/334 1411/2283/334 1412/2284/334 1413/2285/334 1414/2286/334 1415/2287/334 1416/2288/334 1417/2289/334 1418/2290/334 1419/2291/334 1420/2292/334 1421/2293/334 1422/2294/334 1423/2295/334 1424/2296/334 1425/2297/334 1426/2298/334 1427/2299/334 1428/2300/334 1429/2301/334 1430/2302/334
f 1373/2243/341 1374/2254/341 1406/2303/341 1405/2304/341
f 1387/2238/355 1388/2259/355 1420/2305/355 1419/2239/355
f 1374/2254/342 1375/2261/342 1407/2306/342 1406/2303/342
f 1388/2259/323 1389/2266/323 1421/2307/323 1420/2305/323
f 1375/2261/343 1376/2268/343 1408/2308/343 1407/2306/343
f 1389/2266/356 1390/2248/356 1422/2309/356 1421/2307/356
f 1376/2268/344 1377/2252/344 1409/2310/344 1408/2308/344
f 1390/2248/357 1391/2247/357 1423/2311/357 1422/2309/357
f 1377/2252/345 1378/2251/345 1410/2312/345 1409/2310/345
f 1391/2247/358 1392/2256/358 1424/2313/358 1423/2311/358
f 1378/2251/346 1379/2258/346 1411/2314/346 1410/2312/346
f 1392/2256/359 1393/2263/359 1425/2315/359 1424/2313/359
f 1379/2258/347 1380/2265/347 1412/2316/347 1411/2314/347
f 1393/2263/328 1394/2242/328 1426/2317/328 1425/2315/328
f 1380/2265/348 1381/2246/348 1413/2318/348 1412/2316/348
f 1367/2269/335 1368/2250/335 1400/2319/335 1399/2320/335
f 1394/2242/360 1395/2241/360 1427/2321/360 1426/2317/360
f 1381/2246/349 1382/2245/349 1414/2322/349 1413/2318/349
f 1368/2250/336 1369/2249/336 1401/2323/336 1400/2319/336
f 1395/2241/361 1396/2253/361 1428/2324/361 1427/2321/361
f 1382/2245/429 1383/2255/429 1415/2325/429 1414/2322/429
f 1369/2249/337 1370/2257/337 1402/2326/337 1401/2323/337
f 1396/2253/362 1397/2260/362 1429/2327/362 1428/2324/362
f 1383/2255/430 1384/2262/430 1416/2328/430 1415/2325/430
f 1370/2257/338 1371/2264/338 1403/2329/338 1402/2326/338
f 1397/2260/364 1398/2267/364 1430/2330/364 1429/2327/364
f 1384/2262/352 1385/2141/352 1417/2331/352 1416/2328/352
f 1371/2264/339 1372/2244/339 1404/2332/339 1403/2329/339
f 1398/2267/365 1367/2270/365 1399/2333/365 1430/2330/365
f 1385/2141/353 1386/2140/353 1418/2240/353 1417/2331/353
f 1372/2244/340 1373/2243/340 1405/2304/340 1404/2332/340
f 1431/2334/334 1432/2335/334 1434/2336/334 1433/2337/334
f 1439/2338/286 1440/2339/286 1438/2340/286 1437/2341/286
f 1437/2341/287 1438/2340/287 1436/2342/287 1435/2343/287
f 1446/2344/288 1444/2345/288 1432/2346/288 1431/2347/288
f 1439/2348/289 1437/2341/289 1435/2343/289 1441/2349/289
f 1444/2350/287 1445/2351/287 1454/2352/287 1452/2353/287
f 1436/2342/287 1438/2340/287 1450/2354/287 1451/2355/287
f 1443/2356/289 1439/2348/289 1441/2349/289 1446/2357/289
f 1435/2343/288 1436/2342/288 1442/2358/288 1441/2359/288
f 1443/2360/286 1445/2361/286 1440/2339/286 1439/2338/286
f 1433/2337/286 1434/2336/286 1445/2361/286 1443/2360/286
f 1433/2362/289 1443/2356/289 1446/2357/289 1431/2363/289
f 1440/2364/290 1445/2351/290 1444/2350/290 1442/2365/290
f 1441/2359/288 1442/2358/288 1444/2345/288 1446/2344/288
f 1454/2352/290 1448/2366/290 1447/2367/290 1452/2353/290
f 1450/2354/290 1449/2368/290 1453/2369/290 1451/2355/290
f 1442/2358/288 1436/2342/288 1451/2355/288 1453/2370/288
f 1434/2336/334 1432/2335/334 1447/2371/334 1448/2372/334
f 1445/2361/286 1434/2336/286 1448/2372/286 1454/2373/286
f 1432/2346/288 1444/2345/288 1452/2374/288 1447/2375/288
f 1440/2364/334 1442/2365/334 1453/2369/334 1449/2368/334
f 1438/2340/286 1440/2339/286 1449/2376/286 1450/2354/286
f 1509/2377/334 1456/2378/334 1458/2379/334 1510/2380/334
f 1526/2381/286 1503/2382/286 1462/2383/286 1511/2384/286
f 1511/2384/287 1462/2383/287 1460/2385/287 1512/2386/287
f 1516/2387/288 1468/2388/288 1456/2389/288 1509/2390/288
f 1506/2391/431 1461/2392/431 1459/2393/431 1504/2394/431
f 1469/2395/290 1458/2396/290 1456/2397/290 1468/2398/290
f 1471/2399/290 1464/2400/290 1466/2401/290 1474/2402/290
f 1467/2403/432 1463/2404/432 1465/2405/432 1470/2406/432
f 1517/2407/288 1474/2408/288 1466/2409/288 1513/2410/288
f 1515/2411/286 1469/2412/286 1464/2413/286 1514/2414/286
f 1510/2380/286 1458/2379/286 1469/2412/286 1515/2411/286
f 1457/2415/433 1467/2403/433 1470/2406/433 1455/2416/433
f 1464/2400/434 1469/2395/434 1468/2398/434 1466/2401/434
f 1513/2410/288 1466/2409/288 1468/2388/288 1516/2387/288
f 1519/2417/288 1478/2418/288 1474/2408/288 1517/2407/288
f 1475/2419/290 1471/2399/290 1474/2402/290 1478/2420/290
f 1463/2404/435 1473/2421/435 1472/2422/435 1465/2405/435
f 1514/2414/286 1464/2413/286 1471/2423/286 1518/2424/286
f 1479/2425/290 1475/2419/290 1478/2420/290 1482/2426/290
f 1521/2427/288 1482/2428/288 1478/2418/288 1519/2417/288
f 1473/2421/436 1477/2429/436 1476/2430/436 1472/2422/436
f 1518/2424/286 1471/2423/286 1475/2431/286 1520/2432/286
f 1523/2433/288 1500/2434/288 1482/2428/288 1521/2427/288
f 1497/2435/290 1479/2425/290 1482/2426/290 1500/2436/290
f 1477/2429/437 1481/2437/437 1480/2438/437 1476/2430/437
f 1520/2432/286 1475/2431/286 1479/2439/286 1522/2440/286
f 1547/2441/286 1494/2442/286 1496/2443/286 1549/2444/286
f 1552/2445/288 1501/2446/288 1495/2447/288 1548/2448/288
f 1545/2449/286 1492/2450/286 1494/2442/286 1547/2441/286
f 1548/2448/288 1495/2447/288 1493/2451/288 1546/2452/288
f 1541/2453/286 1488/2454/286 1492/2450/286 1545/2449/286
f 1546/2452/288 1493/2451/288 1491/2455/288 1544/2456/288
f 1540/2457/288 1487/2458/288 1490/2459/288 1543/2460/288
f 1537/2461/286 1484/2462/286 1489/2463/286 1542/2464/286
f 1542/2464/286 1489/2463/286 1488/2454/286 1541/2453/286
f 1544/2456/288 1491/2455/288 1487/2458/288 1540/2457/288
f 1543/2460/288 1490/2459/288 1483/2465/288 1550/2466/288
f 1538/2467/286 1485/2468/286 1527/2469/286 1555/2470/286
f 1554/2471/286 1505/2472/286 1485/2468/286 1538/2467/286
f 1550/2473/334 1483/2474/334 1484/2462/334 1537/2461/334
f 1549/2444/286 1496/2443/286 1502/2475/286 1551/2476/286
f 1553/2477/288 1508/2478/288 1501/2446/288 1552/2445/288
f 1503/2479/290 1497/2435/290 1500/2436/290 1507/2480/290
f 1525/2481/288 1507/2482/288 1500/2434/288 1523/2433/288
f 1481/2437/438 1499/2483/438 1498/2484/438 1480/2438/438
f 1522/2440/286 1479/2439/286 1497/2485/286 1524/2486/286
f 1512/2386/288 1460/2385/288 1507/2482/288 1525/2481/288
f 1462/2383/290 1503/2479/290 1507/2480/290 1460/2385/290
f 1539/2487/288 1486/2488/288 1508/2478/288 1553/2477/288
f 1551/2476/286 1502/2475/286 1505/2472/286 1554/2471/286
f 1499/2483/439 1506/2391/439 1504/2394/439 1498/2484/439
f 1524/2486/286 1497/2485/286 1503/2382/286 1526/2381/286
f 1502/2475/286 1524/2486/286 1526/2381/286 1505/2472/286
f 1486/2488/288 1512/2386/288 1525/2481/288 1508/2478/288
f 1496/2443/286 1522/2440/286 1524/2486/286 1502/2475/286
f 1508/2478/288 1525/2481/288 1523/2433/288 1501/2446/288
f 1494/2442/286 1520/2432/286 1522/2440/286 1496/2443/286
f 1501/2446/288 1523/2433/288 1521/2427/288 1495/2447/288
f 1492/2450/286 1518/2424/286 1520/2432/286 1494/2442/286
f 1495/2447/288 1521/2427/288 1519/2417/288 1493/2451/288
f 1488/2454/286 1514/2414/286 1518/2424/286 1492/2450/286
f 1493/2451/288 1519/2417/288 1517/2407/288 1491/2455/288
f 1487/2458/288 1513/2410/288 1516/2387/288 1490/2459/288
f 1484/2462/286 1510/2380/286 1515/2411/286 1489/2463/286
f 1489/2463/286 1515/2411/286 1514/2414/286 1488/2454/286
f 1491/2455/288 1517/2407/288 1513/2410/288 1487/2458/288
f 1490/2459/288 1516/2387/288 1509/2390/288 1483/2465/288
f 1485/2468/286 1511/2384/286 1531/2489/286 1527/2469/286
f 1505/2472/286 1526/2381/286 1511/2384/286 1485/2468/286
f 1483/2474/334 1509/2377/334 1510/2380/334 1484/2462/334
f 1555/2470/440 1527/2469/440 1530/2490/440 1556/2491/440
f 1530/2490/441 1527/2469/441 1534/2492/441 1536/2493/441
f 1512/2386/288 1486/2488/288 1530/2490/288 1532/2494/288
f 1599/2495/288 1459/2393/288 1529/2496/288 1615/2497/288
f 1459/2393/442 1461/2392/442 1528/2498/442 1529/2496/442
f 1511/2384/290 1512/2386/290 1532/2494/290 1531/2489/290
f 1534/2492/287 1533/2499/287 1535/2500/287 1536/2493/287
f 1527/2469/286 1531/2489/286 1533/2499/286 1534/2492/286
f 1531/2489/290 1532/2494/290 1535/2500/290 1533/2499/290
f 1532/2494/288 1530/2490/288 1536/2493/288 1535/2500/288
f 1486/2488/288 1539/2487/288 1556/2491/288 1530/2490/288
f 1574/2501/443 1555/2470/443 1556/2491/443 1575/2502/443
f 1570/2503/286 1551/2476/286 1554/2471/286 1573/2504/286
f 1559/2505/288 1539/2487/288 1553/2477/288 1572/2506/288
f 1572/2506/288 1553/2477/288 1552/2445/288 1571/2507/288
f 1569/2508/286 1549/2444/286 1551/2476/286 1570/2503/286
f 1576/2509/334 1550/2473/334 1537/2461/334 1557/2510/334
f 1573/2504/286 1554/2471/286 1538/2467/286 1558/2511/286
f 1558/2511/286 1538/2467/286 1555/2470/286 1574/2501/286
f 1563/2512/288 1543/2460/288 1550/2466/288 1576/2513/288
f 1564/2514/444 1544/2456/288 1540/2457/288 1560/2515/288
f 1562/2516/286 1542/2464/286 1541/2453/286 1561/2517/286
f 1557/2510/286 1537/2461/286 1542/2464/286 1562/2516/286
f 1560/2515/288 1540/2457/288 1543/2460/288 1563/2512/288
f 1566/2518/288 1546/2452/288 1544/2456/288 1564/2514/444
f 1561/2517/286 1541/2453/286 1545/2449/286 1565/2519/445
f 1568/2520/288 1548/2448/288 1546/2452/288 1566/2518/288
f 1565/2519/445 1545/2449/286 1547/2441/286 1567/2521/286
f 1571/2507/288 1552/2445/288 1548/2448/288 1568/2520/288
f 1567/2521/286 1547/2441/286 1549/2444/286 1569/2508/286
f 1587/2522/445 1567/2521/286 1569/2508/286 1589/2523/286
f 1591/2524/288 1571/2507/288 1568/2520/288 1588/2525/288
f 1585/2526/446 1565/2519/445 1567/2521/286 1587/2522/445
f 1588/2525/288 1568/2520/288 1566/2518/288 1586/2527/444
f 1581/2528/286 1561/2517/286 1565/2519/445 1585/2526/446
f 1586/2527/444 1566/2518/288 1564/2514/444 1584/2529/444
f 1580/2530/288 1560/2515/288 1563/2512/288 1583/2531/288
f 1577/2532/286 1557/2510/286 1562/2516/286 1582/2533/286
f 1582/2533/286 1562/2516/286 1561/2517/286 1581/2528/286
f 1584/2529/444 1564/2514/444 1560/2515/288 1580/2530/288
f 1583/2531/288 1563/2512/288 1576/2513/288 1596/2534/288
f 1578/2535/286 1558/2511/286 1574/2501/286 1594/2536/286
f 1593/2537/286 1573/2504/286 1558/2511/286 1578/2535/286
f 1596/2538/334 1576/2509/334 1557/2510/334 1577/2532/334
f 1589/2523/286 1569/2508/286 1570/2503/286 1590/2539/286
f 1592/2540/288 1572/2506/288 1571/2507/288 1591/2524/288
f 1579/2541/288 1559/2505/288 1572/2506/288 1592/2540/288
f 1590/2539/286 1570/2503/286 1573/2504/286 1593/2537/286
f 1594/2536/447 1574/2501/447 1575/2502/447 1595/2542/447
f 1539/2487/288 1559/2505/288 1575/2502/288 1556/2491/288
f 1614/2543/448 1594/2536/448 1595/2542/448 1615/2497/448
f 1610/2544/286 1590/2539/286 1593/2537/286 1613/2545/286
f 1599/2495/288 1579/2541/288 1592/2540/288 1612/2546/288
f 1612/2546/288 1592/2540/288 1591/2524/288 1611/2547/288
f 1609/2548/286 1589/2523/286 1590/2539/286 1610/2544/286
f 1616/2549/334 1596/2538/334 1577/2532/334 1597/2550/334
f 1613/2545/286 1593/2537/286 1578/2535/286 1598/2551/286
f 1598/2551/286 1578/2535/286 1594/2536/286 1614/2543/286
f 1603/2552/288 1583/2531/288 1596/2534/288 1616/2553/288
f 1604/2554/288 1584/2529/444 1580/2530/288 1600/2555/288
f 1602/2556/286 1582/2533/286 1581/2528/286 1601/2557/286
f 1597/2550/286 1577/2532/286 1582/2533/286 1602/2556/286
f 1600/2555/288 1580/2530/288 1583/2531/288 1603/2552/288
f 1606/2558/444 1586/2527/444 1584/2529/444 1604/2554/288
f 1601/2557/286 1581/2528/286 1585/2526/446 1605/2559/286
f 1608/2560/288 1588/2525/288 1586/2527/444 1606/2558/444
f 1605/2559/286 1585/2526/446 1587/2522/445 1607/2561/446
f 1611/2547/288 1591/2524/288 1588/2525/288 1608/2560/288
f 1607/2561/446 1587/2522/445 1589/2523/286 1609/2548/286
f 1559/2505/288 1579/2541/288 1595/2542/288 1575/2502/288
f 1477/2562/286 1607/2561/446 1609/2548/286 1481/2563/286
f 1498/2564/288 1611/2547/288 1608/2560/288 1480/2565/288
f 1473/2566/286 1605/2559/286 1607/2561/446 1477/2562/286
f 1480/2565/288 1608/2560/288 1606/2558/444 1476/2567/288
f 1463/2568/286 1601/2557/286 1605/2559/286 1473/2566/286
f 1476/2567/288 1606/2558/444 1604/2554/288 1472/2569/288
f 1465/2570/288 1600/2555/288 1603/2552/288 1470/2571/288
f 1457/2572/286 1597/2550/286 1602/2556/286 1467/2573/286
f 1467/2573/286 1602/2556/286 1601/2557/286 1463/2568/286
f 1472/2569/288 1604/2554/288 1600/2555/288 1465/2570/288
f 1470/2571/288 1603/2552/288 1616/2553/288 1455/2574/288
f 1461/2392/286 1598/2551/286 1614/2543/286 1528/2498/286
f 1506/2575/286 1613/2545/286 1598/2551/286 1461/2392/286
f 1455/2576/334 1616/2549/334 1597/2550/334 1457/2572/334
f 1481/2563/286 1609/2548/286 1610/2544/286 1499/2577/286
f 1504/2578/288 1612/2546/288 1611/2547/288 1498/2564/288
f 1459/2393/288 1599/2495/288 1612/2546/288 1504/2578/288
f 1499/2577/286 1610/2544/286 1613/2545/286 1506/2575/286
f 1528/2498/449 1614/2543/449 1615/2497/449 1529/2496/449
f 1579/2541/288 1599/2495/288 1615/2497/288 1595/2542/288
f 1617/2579/335 1618/2580/335 1620/2581/335 1619/2582/335
f 1619/2582/336 1620/2581/336 1622/2583/336 1621/2584/336
f 1621/2584/337 1622/2583/337 1624/2585/337 1623/2586/337
f 1623/2586/338 1624/2585/338 1626/2587/338 1625/2588/338
f 1625/2588/339 1626/2587/339 1628/2589/339 1627/2590/339
f 1627/2590/340 1628/2589/340 1630/2591/340 1629/2592/340
f 1629/2592/341 1630/2591/341 1632/2593/341 1631/2594/341
f 1631/2594/342 1632/2593/342 1634/2595/342 1633/2596/342
f 1633/2596/343 1634/2595/343 1636/2597/343 1635/2598/343
f 1635/2598/344 1636/2597/344 1638/2599/344 1637/2600/344
f 1637/2600/345 1638/2599/345 1640/2601/345 1639/2602/345
f 1639/2602/346 1640/2601/346 1642/2603/346 1641/2604/346
f 1641/2604/450 1642/2603/450 1644/2605/450 1643/2606/450
f 1643/2606/348 1644/2605/348 1646/2607/348 1645/2608/348
f 1645/2608/451 1646/2607/451 1648/2609/451 1647/2610/451
f 1647/2610/429 1648/2609/429 1650/2611/429 1649/2612/429
f 1649/2612/430 1650/2611/430 1652/2613/430 1651/2614/430
f 1651/2614/452 1652/2613/452 1654/2615/452 1653/2616/452
f 1653/2616/353 1654/2615/353 1656/2617/353 1655/2618/353
f 1655/2618/453 1656/2617/453 1658/2619/453 1657/2620/453
f 1657/2620/355 1658/2619/355 1660/2621/355 1659/2622/355
f 1659/2622/323 1660/2621/323 1662/2623/323 1661/2624/323
f 1661/2624/356 1662/2623/356 1664/2625/356 1663/2626/356
f 1663/2626/357 1664/2625/357 1666/2627/357 1665/2628/357
f 1665/2628/358 1666/2627/358 1668/2629/358 1667/2630/358
f 1667/2630/359 1668/2629/359 1670/2631/359 1669/2632/359
f 1669/2632/328 1670/2631/328 1672/2633/328 1671/2634/328
f 1671/2634/360 1672/2633/360 1674/2635/360 1673/2636/360
f 1673/2636/361 1674/2635/361 1676/2637/361 1675/2638/361
f 1675/2638/362 1676/2637/362 1678/2639/362 1677/2640/362
f 1620/2641/287 1618/2642/287 1680/2643/287 1678/2644/287 1676/2645/287 1674/2646/287 1672/2647/287 1670/2648/287 1668/2649/287 1666/2650/287 1664/2651/287 1662/2652/287 1660/2653/287 1658/2654/287 1656/2655/287 1654/2656/287 1652/2657/287 1650/2658/287 1648/2659/287 1646/2660/287 1644/2661/287 1642/2662/287 1640/2663/287 1638/2664/287 1636/2665/287 1634/2666/287 1632/2667/287 1630/2668/287 1628/2669/287 1626/2670/287 1624/2671/287 1622/2672/287
f 1677/2640/364 1678/2639/364 1680/2673/364 1679/2674/364
f 1679/2674/365 1680/2673/365 1618/2675/365 1617/2676/365
f 1617/2677/334 1619/2678/334 1621/2679/334 1623/2680/334 1625/2681/334 1627/2682/334 1629/2683/334 1631/2684/334 1633/2685/334 1635/2686/334 1637/2687/334 1639/2688/334 1641/2689/334 1643/2690/334 1645/2691/334 1647/2692/334 1649/2693/334 1651/2694/334 1653/2695/334 1655/2696/334 1657/2697/334 1659/2698/334 1661/2699/334 1663/2700/334 1665/2701/334 1667/2702/334 1669/2703/334 1671/2704/334 1673/2705/334 1675/2706/334 1677/2707/334 1679/2708/334
f 1681/2709/334 1682/2710/334 1684/2711/334 1683/2712/334
f 1683/2712/286 1684/2711/286 1688/2713/286 1687/2714/286
f 1687/2714/287 1688/2713/287 1686/2715/287 1685/2716/287
f 1685/2716/288 1686/2715/288 1682/2717/288 1681/2718/288
f 1683/2719/454 1687/2714/454 1685/2716/454 1681/2720/454
f 1688/2713/290 1684/2721/290 1682/2722/290 1686/2715/290
f 1765/2723/334 1690/2724/334 1692/2725/334 1766/2726/334
f 1772/2727/286 1701/2728/286 1696/2729/286 1767/2730/286
f 1780/2731/290 1779/2732/290 1776/2733/290 1775/2734/290
f 1769/2735/288 1700/2736/288 1690/2737/288 1765/2738/288
f 1703/2739/289 1695/2740/289 1693/2741/289 1702/2742/289
f 1698/2743/290 1692/2744/290 1690/2745/290 1700/2746/290
f 1711/2747/290 1698/2743/290 1700/2746/290 1710/2748/290
f 1691/2749/289 1697/2750/289 1699/2751/289 1689/2752/289
f 1774/2753/288 1710/2754/288 1700/2736/288 1769/2735/288
f 1766/2726/286 1692/2725/286 1698/2755/286 1770/2756/286
f 1768/2757/288 1694/2758/288 1704/2759/288 1771/2760/288
f 1696/2729/455 1701/2761/455 1704/2762/455 1694/2758/455
f 1738/2763/456 1737/2764/456 1735/2765/456 1736/2766/456
f 1773/2767/286 1711/2768/286 1701/2728/286 1772/2727/286
f 1713/2769/457 1705/2770/457 1708/2771/457 1714/2772/457
f 1732/2773/458 1728/2774/458 1708/2771/458 1705/2770/458
f 1730/2775/286 1732/2776/286 1705/2777/286 1713/2778/286
f 1729/2779/288 1731/2780/288 1707/2781/288 1714/2782/288
f 1728/2783/288 1729/2779/288 1714/2782/288 1708/2784/288
f 1727/2785/286 1730/2775/286 1713/2778/286 1706/2786/286
f 1706/2787/459 1713/2769/459 1714/2772/459 1707/2788/459
f 1770/2756/286 1698/2755/286 1711/2768/286 1773/2767/286
f 1771/2760/288 1704/2759/288 1710/2754/288 1774/2753/288
f 1701/2761/460 1711/2747/460 1710/2748/460 1704/2762/460
f 1743/2789/286 1746/2790/286 1720/2791/286 1715/2792/286
f 1744/2793/288 1745/2794/288 1719/2795/288 1717/2796/288
f 1745/2794/288 1741/2797/288 1716/2798/288 1719/2795/288
f 1746/2790/286 1742/2799/286 1718/2800/286 1720/2791/286
f 1742/2801/461 1744/2802/461 1717/2803/462 1718/2804/462
f 1741/2805/463 1743/2806/463 1715/2807/463 1716/2808/463
f 1749/2809/286 1752/2810/286 1724/2811/286 1721/2812/286
f 1750/2813/288 1751/2814/288 1723/2815/288 1722/2816/288
f 1751/2814/288 1747/2817/288 1725/2818/288 1723/2815/288
f 1752/2810/286 1748/2819/286 1726/2820/286 1724/2811/286
f 1750/2813/288 1722/2816/288 1754/2821/288 1753/2822/288
f 1747/2823/464 1749/2824/464 1721/2825/464 1725/2826/464
f 1721/2812/286 1724/2811/286 1730/2775/286 1727/2785/286
f 1722/2816/288 1723/2815/288 1729/2779/288 1728/2783/288
f 1723/2815/288 1725/2818/288 1731/2780/288 1729/2779/288
f 1724/2811/286 1726/2820/286 1732/2776/286 1730/2775/286
f 1726/2827/458 1722/2828/458 1728/2774/458 1732/2773/458
f 1725/2826/465 1721/2825/465 1727/2829/465 1731/2830/465
f 1736/2766/466 1735/2765/466 1733/2831/466 1734/2832/466
f 1740/2833/467 1739/2834/467 1734/2832/467 1733/2831/467
f 1737/2835/286 1740/2836/286 1733/2837/286 1735/2838/286
f 1739/2839/288 1738/2840/288 1736/2841/444 1734/2842/444
f 1707/2781/288 1731/2780/288 1738/2840/288 1739/2839/288
f 1727/2785/286 1706/2786/286 1740/2836/286 1737/2835/286
f 1706/2787/467 1707/2788/467 1739/2834/467 1740/2833/467
f 1731/2830/468 1727/2829/468 1737/2764/468 1738/2763/468
f 1699/2751/463 1697/2750/463 1743/2806/463 1741/2805/463
f 1703/2739/469 1702/2742/469 1744/2802/461 1742/2801/461
f 1709/2843/286 1703/2844/286 1742/2799/286 1746/2790/286
f 1712/2845/288 1699/2846/288 1741/2797/288 1745/2794/288
f 1702/2847/288 1712/2845/288 1745/2794/288 1744/2793/288
f 1697/2848/286 1709/2843/286 1746/2790/286 1743/2789/286
f 1716/2808/464 1715/2807/464 1749/2824/464 1747/2823/464
f 1718/2804/470 1717/2803/470 1750/2849/470 1748/2850/470
f 1720/2791/286 1718/2800/286 1748/2819/286 1752/2810/286
f 1719/2795/288 1716/2798/288 1747/2817/288 1751/2814/288
f 1717/2796/288 1719/2795/288 1751/2814/288 1750/2813/288
f 1715/2792/286 1720/2791/286 1752/2810/286 1749/2809/286
f 1756/2851/290 1753/2852/290 1757/2853/290 1760/2854/290
f 1722/2828/471 1726/2827/471 1755/2855/471 1754/2856/471
f 1748/2850/472 1750/2849/472 1753/2852/472 1756/2851/472
f 1726/2820/286 1748/2819/286 1756/2857/286 1755/2858/286
f 1759/2859/286 1760/2860/286 1764/2861/286 1763/2862/286
f 1754/2856/289 1755/2855/289 1759/2863/289 1758/2864/289
f 1755/2858/286 1756/2857/286 1760/2860/286 1759/2859/286
f 1753/2822/288 1754/2821/288 1758/2865/288 1757/2866/288
f 1764/2867/473 1761/2868/473 1762/2869/473 1763/2870/473
f 1757/2866/288 1758/2865/288 1762/2871/288 1761/2872/288
f 1760/2854/474 1757/2853/474 1761/2868/474 1764/2867/474
f 1758/2864/475 1759/2863/475 1763/2870/475 1762/2869/475
f 1702/2847/288 1771/2760/288 1774/2753/288 1712/2845/288
f 1697/2848/286 1770/2756/286 1773/2767/286 1709/2843/286
f 1709/2843/286 1773/2767/286 1772/2727/286 1703/2844/286
f 1693/2741/288 1768/2757/288 1771/2760/288 1702/2847/288
f 1691/2873/286 1766/2726/286 1770/2756/286 1697/2848/286
f 1712/2845/288 1774/2753/288 1769/2735/288 1699/2846/288
f 1699/2846/288 1769/2735/288 1765/2738/288 1689/2874/288
f 1695/2740/476 1767/2730/476 1768/2757/476 1693/2741/476
f 1703/2844/286 1772/2727/286 1767/2730/286 1695/2740/286
f 1689/2875/334 1765/2723/334 1766/2726/334 1691/2873/334
f 1777/2876/287 1775/2734/287 1776/2733/287 1778/2877/287
f 1779/2732/288 1781/2878/288 1778/2877/288 1776/2733/288
f 1781/2878/289 1782/2879/289 1777/2876/289 1778/2877/289
f 1782/2879/286 1780/2731/286 1775/2734/286 1777/2876/286
f 1786/2880/286 1783/2881/286 1780/2731/286 1782/2879/286
f 1785/2882/289 1786/2880/289 1782/2879/289 1781/2878/289
f 1784/2883/288 1785/2882/288 1781/2878/288 1779/2732/288
f 1783/2881/477 1784/2883/477 1779/2732/477 1780/2731/477
f 1696/2729/290 1694/2758/290 1784/2883/290 1783/2881/290
f 1694/2758/288 1768/2757/288 1785/2882/288 1784/2883/288
f 1768/2757/289 1767/2730/289 1786/2880/289 1785/2882/289
f 1767/2730/286 1696/2729/286 1783/2881/286 1786/2880/286
f 1799/2884/478 1788/2885/478 1790/2886/478 1800/2887/478
f 1800/2887/286 1790/2886/286 1794/2888/286 1805/2889/286
f 1805/2889/479 1794/2888/479 1792/2890/479 1810/2891/479
f 1810/2891/288 1792/2890/288 1788/2892/288 1799/2893/288
f 1789/2894/480 1793/2895/480 1791/2896/480 1787/2897/480
f 1794/2888/290 1790/2898/290 1788/2899/290 1792/2890/290
f 1817/2900/288 1814/2901/288 1795/2902/288 1818/2903/288
f 1814/2901/288 1813/2904/288 1796/2905/288 1795/2902/288
f 1813/2904/288 1812/2906/288 1797/2907/288 1796/2905/288
f 1812/2906/288 1811/2908/288 1798/2909/288 1797/2907/288
f 1811/2908/288 1810/2891/288 1799/2893/288 1798/2909/288
f 1816/2910/481 1809/2911/481 1814/2901/481 1817/2900/481
f 1809/2911/482 1808/2912/482 1813/2904/482 1814/2901/482
f 1808/2912/483 1807/2913/483 1812/2906/483 1813/2904/483
f 1807/2913/484 1806/2914/484 1811/2908/484 1812/2906/484
f 1806/2914/485 1805/2889/485 1810/2891/485 1811/2908/485
f 1815/2915/286 1804/2916/286 1809/2911/286 1816/2910/286
f 1804/2916/286 1803/2917/286 1808/2912/286 1809/2911/286
f 1803/2917/286 1802/2918/286 1807/2913/286 1808/2912/286
f 1802/2918/286 1801/2919/286 1806/2914/286 1807/2913/286
f 1801/2919/286 1800/2887/286 1805/2889/286 1806/2914/286
f 1818/2920/486 1795/2921/486 1804/2916/486 1815/2915/486
f 1795/2921/487 1796/2922/487 1803/2917/487 1804/2916/487
f 1796/2922/488 1797/2923/488 1802/2918/488 1803/2917/488
f 1797/2923/488 1798/2924/488 1801/2919/488 1802/2918/488
f 1798/2924/489 1799/2884/489 1800/2887/489 1801/2919/489
f 1787/2925/490 1818/2920/490 1815/2915/490 1789/2926/490
f 1789/2926/286 1815/2915/286 1816/2910/286 1793/2895/286
f 1793/2895/491 1816/2910/491 1817/2900/491 1791/2896/491
f 1791/2896/288 1817/2900/288 1818/2903/288 1787/2927/288
